%TF.GenerationSoftware,KiCad,Pcbnew,5.1.6*%
%TF.CreationDate,2020-09-14T21:31:35+02:00*%
%TF.ProjectId,PCIe-pin-header-adapter,50434965-2d70-4696-9e2d-686561646572,rev?*%
%TF.SameCoordinates,Original*%
%TF.FileFunction,Copper,L2,Bot*%
%TF.FilePolarity,Positive*%
%FSLAX46Y46*%
G04 Gerber Fmt 4.6, Leading zero omitted, Abs format (unit mm)*
G04 Created by KiCad (PCBNEW 5.1.6) date 2020-09-14 21:31:35*
%MOMM*%
%LPD*%
G01*
G04 APERTURE LIST*
%TA.AperFunction,SMDPad,CuDef*%
%ADD10R,0.700000X3.600000*%
%TD*%
%TA.AperFunction,SMDPad,CuDef*%
%ADD11R,1.700000X4.000000*%
%TD*%
%TA.AperFunction,Conductor*%
%ADD12C,0.250000*%
%TD*%
G04 APERTURE END LIST*
D10*
%TO.P,J4,B82*%
%TO.N,Net-(J4-PadB82)*%
X107840000Y-83900000D03*
%TO.P,J4,B81*%
%TO.N,Net-(J4-PadB81)*%
X106840000Y-83900000D03*
%TO.P,J4,B80*%
%TO.N,Net-(J4-PadB80)*%
X105840000Y-83900000D03*
%TO.P,J4,B79*%
%TO.N,Net-(J4-PadB79)*%
X104840000Y-83900000D03*
%TO.P,J4,B78*%
%TO.N,Net-(J4-PadB78)*%
X103840000Y-83900000D03*
%TO.P,J4,B77*%
%TO.N,Net-(J4-PadB77)*%
X102840000Y-83900000D03*
%TO.P,J4,B76*%
%TO.N,Net-(J4-PadB76)*%
X101840000Y-83900000D03*
%TO.P,J4,B75*%
%TO.N,Net-(J4-PadB75)*%
X100840000Y-83900000D03*
%TO.P,J4,B74*%
%TO.N,Net-(J4-PadB74)*%
X99840000Y-83900000D03*
%TO.P,J4,B73*%
%TO.N,Net-(J4-PadB73)*%
X98840000Y-83900000D03*
%TO.P,J4,B72*%
%TO.N,Net-(J4-PadB72)*%
X97840000Y-83900000D03*
%TO.P,J4,B71*%
%TO.N,Net-(J4-PadB71)*%
X96840000Y-83900000D03*
%TO.P,J4,B70*%
%TO.N,Net-(J4-PadB70)*%
X95840000Y-83900000D03*
%TO.P,J4,B69*%
%TO.N,Net-(J4-PadB69)*%
X94840000Y-83900000D03*
%TO.P,J4,B68*%
%TO.N,Net-(J4-PadB68)*%
X93840000Y-83900000D03*
%TO.P,J4,B67*%
%TO.N,Net-(J4-PadB67)*%
X92840000Y-83900000D03*
%TO.P,J4,B66*%
%TO.N,Net-(J4-PadB66)*%
X91840000Y-83900000D03*
%TO.P,J4,B65*%
%TO.N,Net-(J4-PadB65)*%
X90840000Y-83900000D03*
%TO.P,J4,B64*%
%TO.N,Net-(J4-PadB64)*%
X89840000Y-83900000D03*
%TO.P,J4,B63*%
%TO.N,Net-(J4-PadB63)*%
X88840000Y-83900000D03*
%TO.P,J4,B62*%
%TO.N,Net-(J4-PadB62)*%
X87840000Y-83900000D03*
%TO.P,J4,B61*%
%TO.N,Net-(J4-PadB61)*%
X86840000Y-83900000D03*
%TO.P,J4,B60*%
%TO.N,Net-(J4-PadB60)*%
X85840000Y-83900000D03*
%TO.P,J4,B59*%
%TO.N,Net-(J4-PadB59)*%
X84840000Y-83900000D03*
%TO.P,J4,B58*%
%TO.N,Net-(J4-PadB58)*%
X83840000Y-83900000D03*
%TO.P,J4,B57*%
%TO.N,Net-(J4-PadB57)*%
X82840000Y-83900000D03*
%TO.P,J4,B56*%
%TO.N,Net-(J4-PadB56)*%
X81840000Y-83900000D03*
%TO.P,J4,B55*%
%TO.N,Net-(J4-PadB55)*%
X80840000Y-83900000D03*
%TO.P,J4,B54*%
%TO.N,Net-(J4-PadB54)*%
X79840000Y-83900000D03*
%TO.P,J4,B53*%
%TO.N,Net-(J4-PadB53)*%
X78840000Y-83900000D03*
%TO.P,J4,B52*%
%TO.N,Net-(J4-PadB52)*%
X77840000Y-83900000D03*
%TO.P,J4,B51*%
%TO.N,Net-(J4-PadB51)*%
X76840000Y-83900000D03*
%TO.P,J4,B50*%
%TO.N,Net-(J4-PadB50)*%
X75840000Y-83900000D03*
%TO.P,J4,B49*%
%TO.N,Net-(J4-PadB49)*%
X74840000Y-83900000D03*
%TO.P,J4,B48*%
%TO.N,Net-(J4-PadB48)*%
X73840000Y-83900000D03*
%TO.P,J4,B47*%
%TO.N,Net-(J4-PadB47)*%
X72840000Y-83900000D03*
%TO.P,J4,B46*%
%TO.N,Net-(J4-PadB46)*%
X71840000Y-83900000D03*
%TO.P,J4,B45*%
%TO.N,Net-(J4-PadB45)*%
X70840000Y-83900000D03*
%TO.P,J4,B44*%
%TO.N,Net-(J4-PadB44)*%
X69840000Y-83900000D03*
%TO.P,J4,B43*%
%TO.N,Net-(J4-PadB43)*%
X68840000Y-83900000D03*
%TO.P,J4,B42*%
%TO.N,Net-(J4-PadB42)*%
X67840000Y-83900000D03*
%TO.P,J4,B41*%
%TO.N,Net-(J4-PadB41)*%
X66840000Y-83900000D03*
%TO.P,J4,B40*%
%TO.N,Net-(J4-PadB40)*%
X65840000Y-83900000D03*
%TO.P,J4,B39*%
%TO.N,Net-(J4-PadB39)*%
X64840000Y-83900000D03*
%TO.P,J4,B38*%
%TO.N,Net-(J4-PadB38)*%
X63840000Y-83900000D03*
%TO.P,J4,B37*%
%TO.N,Net-(J4-PadB37)*%
X62840000Y-83900000D03*
%TO.P,J4,B36*%
%TO.N,Net-(J4-PadB36)*%
X61840000Y-83900000D03*
%TO.P,J4,B35*%
%TO.N,Net-(J4-PadB35)*%
X60840000Y-83900000D03*
%TO.P,J4,B34*%
%TO.N,Net-(J4-PadB34)*%
X59840000Y-83900000D03*
%TO.P,J4,B33*%
%TO.N,Net-(J4-PadB33)*%
X58840000Y-83900000D03*
%TO.P,J4,B32*%
%TO.N,Net-(J4-PadB32)*%
X57840000Y-83900000D03*
%TO.P,J4,B31*%
%TO.N,Net-(J4-PadB31)*%
X56840000Y-83900000D03*
%TO.P,J4,B30*%
%TO.N,Net-(J4-PadB30)*%
X55840000Y-83900000D03*
%TO.P,J4,B29*%
%TO.N,Net-(J4-PadB29)*%
X54840000Y-83900000D03*
%TO.P,J4,B28*%
%TO.N,Net-(J4-PadB28)*%
X53840000Y-83900000D03*
%TO.P,J4,B27*%
%TO.N,Net-(J4-PadB27)*%
X52840000Y-83900000D03*
%TO.P,J4,B26*%
%TO.N,Net-(J4-PadB26)*%
X51840000Y-83900000D03*
%TO.P,J4,B25*%
%TO.N,Net-(J4-PadB25)*%
X50840000Y-83900000D03*
%TO.P,J4,B24*%
%TO.N,Net-(J4-PadB24)*%
X49840000Y-83900000D03*
%TO.P,J4,B23*%
%TO.N,Net-(J4-PadB23)*%
X48840000Y-83900000D03*
%TO.P,J4,B22*%
%TO.N,Net-(J4-PadB22)*%
X47840000Y-83900000D03*
%TO.P,J4,B21*%
%TO.N,Net-(J4-PadB21)*%
X46840000Y-83900000D03*
%TO.P,J4,B20*%
%TO.N,Net-(J4-PadB20)*%
X45840000Y-83900000D03*
%TO.P,J4,B19*%
%TO.N,Net-(J4-PadB19)*%
X44840000Y-83900000D03*
%TO.P,J4,B18*%
%TO.N,Net-(J4-PadB18)*%
X43840000Y-83900000D03*
%TO.P,J4,B17*%
%TO.N,Net-(J4-PadB17)*%
X42840000Y-83900000D03*
%TO.P,J4,B16*%
%TO.N,Net-(J4-PadB16)*%
X41840000Y-83900000D03*
%TO.P,J4,B15*%
%TO.N,Net-(J4-PadB15)*%
X40840000Y-83900000D03*
%TO.P,J4,B14*%
%TO.N,Net-(J4-PadB14)*%
X39840000Y-83900000D03*
%TO.P,J4,B13*%
%TO.N,Net-(J4-PadB13)*%
X38840000Y-83900000D03*
%TO.P,J4,B12*%
%TO.N,Net-(J4-PadB12)*%
X37840000Y-83900000D03*
%TO.P,J4,B11*%
%TO.N,Net-(J4-PadB11)*%
X34840000Y-83900000D03*
%TO.P,J4,B10*%
%TO.N,Net-(J4-PadB10)*%
X33840000Y-83900000D03*
%TO.P,J4,B9*%
%TO.N,Net-(J4-PadB9)*%
X32840000Y-83900000D03*
%TO.P,J4,B8*%
%TO.N,Net-(J4-PadB8)*%
X31840000Y-83900000D03*
%TO.P,J4,B7*%
%TO.N,Net-(J4-PadB7)*%
X30840000Y-83900000D03*
%TO.P,J4,B6*%
%TO.N,Net-(J4-PadB6)*%
X29840000Y-83900000D03*
%TO.P,J4,B5*%
%TO.N,Net-(J4-PadB5)*%
X28840000Y-83900000D03*
%TO.P,J4,B4*%
%TO.N,Net-(J4-PadB4)*%
X27840000Y-83900000D03*
%TO.P,J4,B3*%
%TO.N,Net-(J4-PadB3)*%
X26840000Y-83900000D03*
%TO.P,J4,B2*%
%TO.N,Net-(J4-PadB2)*%
X25840000Y-83900000D03*
%TO.P,J4,B1*%
%TO.N,Net-(J4-PadB1)*%
X24840000Y-83900000D03*
%TD*%
D11*
%TO.P,J7,2*%
%TO.N,Net-(J4-PadB82)*%
X220980000Y-119380000D03*
%TO.P,J7,1*%
%TO.N,Net-(J4-PadB81)*%
X218440000Y-119380000D03*
%TD*%
%TO.P,J6,40*%
%TO.N,Net-(J4-PadB80)*%
X215900000Y-119380000D03*
%TO.P,J6,39*%
%TO.N,Net-(J4-PadB79)*%
X213360000Y-119380000D03*
%TO.P,J6,38*%
%TO.N,Net-(J4-PadB78)*%
X210820000Y-119380000D03*
%TO.P,J6,37*%
%TO.N,Net-(J4-PadB77)*%
X208280000Y-119380000D03*
%TO.P,J6,36*%
%TO.N,Net-(J4-PadB76)*%
X205740000Y-119380000D03*
%TO.P,J6,35*%
%TO.N,Net-(J4-PadB75)*%
X203200000Y-119380000D03*
%TO.P,J6,34*%
%TO.N,Net-(J4-PadB74)*%
X200660000Y-119380000D03*
%TO.P,J6,33*%
%TO.N,Net-(J4-PadB73)*%
X198120000Y-119380000D03*
%TO.P,J6,32*%
%TO.N,Net-(J4-PadB72)*%
X195580000Y-119380000D03*
%TO.P,J6,31*%
%TO.N,Net-(J4-PadB71)*%
X193040000Y-119380000D03*
%TO.P,J6,30*%
%TO.N,Net-(J4-PadB70)*%
X190500000Y-119380000D03*
%TO.P,J6,29*%
%TO.N,Net-(J4-PadB69)*%
X187960000Y-119380000D03*
%TO.P,J6,28*%
%TO.N,Net-(J4-PadB68)*%
X185420000Y-119380000D03*
%TO.P,J6,27*%
%TO.N,Net-(J4-PadB67)*%
X182880000Y-119380000D03*
%TO.P,J6,26*%
%TO.N,Net-(J4-PadB66)*%
X180340000Y-119380000D03*
%TO.P,J6,25*%
%TO.N,Net-(J4-PadB65)*%
X177800000Y-119380000D03*
%TO.P,J6,24*%
%TO.N,Net-(J4-PadB64)*%
X175260000Y-119380000D03*
%TO.P,J6,23*%
%TO.N,Net-(J4-PadB63)*%
X172720000Y-119380000D03*
%TO.P,J6,22*%
%TO.N,Net-(J4-PadB62)*%
X170180000Y-119380000D03*
%TO.P,J6,21*%
%TO.N,Net-(J4-PadB61)*%
X167640000Y-119380000D03*
%TO.P,J6,20*%
%TO.N,Net-(J4-PadB60)*%
X165100000Y-119380000D03*
%TO.P,J6,19*%
%TO.N,Net-(J4-PadB59)*%
X162560000Y-119380000D03*
%TO.P,J6,18*%
%TO.N,Net-(J4-PadB58)*%
X160020000Y-119380000D03*
%TO.P,J6,17*%
%TO.N,Net-(J4-PadB57)*%
X157480000Y-119380000D03*
%TO.P,J6,16*%
%TO.N,Net-(J4-PadB56)*%
X154940000Y-119380000D03*
%TO.P,J6,15*%
%TO.N,Net-(J4-PadB55)*%
X152400000Y-119380000D03*
%TO.P,J6,14*%
%TO.N,Net-(J4-PadB54)*%
X149860000Y-119380000D03*
%TO.P,J6,13*%
%TO.N,Net-(J4-PadB53)*%
X147320000Y-119380000D03*
%TO.P,J6,12*%
%TO.N,Net-(J4-PadB52)*%
X144780000Y-119380000D03*
%TO.P,J6,11*%
%TO.N,Net-(J4-PadB51)*%
X142240000Y-119380000D03*
%TO.P,J6,10*%
%TO.N,Net-(J4-PadB50)*%
X139700000Y-119380000D03*
%TO.P,J6,9*%
%TO.N,Net-(J4-PadB49)*%
X137160000Y-119380000D03*
%TO.P,J6,8*%
%TO.N,Net-(J4-PadB48)*%
X134620000Y-119380000D03*
%TO.P,J6,7*%
%TO.N,Net-(J4-PadB47)*%
X132080000Y-119380000D03*
%TO.P,J6,6*%
%TO.N,Net-(J4-PadB46)*%
X129540000Y-119380000D03*
%TO.P,J6,5*%
%TO.N,Net-(J4-PadB45)*%
X127000000Y-119380000D03*
%TO.P,J6,4*%
%TO.N,Net-(J4-PadB44)*%
X124460000Y-119380000D03*
%TO.P,J6,3*%
%TO.N,Net-(J4-PadB43)*%
X121920000Y-119380000D03*
%TO.P,J6,2*%
%TO.N,Net-(J4-PadB42)*%
X119380000Y-119380000D03*
%TO.P,J6,1*%
%TO.N,Net-(J4-PadB41)*%
X116840000Y-119380000D03*
%TD*%
%TO.P,J5,40*%
%TO.N,Net-(J4-PadB40)*%
X114300000Y-119380000D03*
%TO.P,J5,39*%
%TO.N,Net-(J4-PadB39)*%
X111760000Y-119380000D03*
%TO.P,J5,38*%
%TO.N,Net-(J4-PadB38)*%
X109220000Y-119380000D03*
%TO.P,J5,37*%
%TO.N,Net-(J4-PadB37)*%
X106680000Y-119380000D03*
%TO.P,J5,36*%
%TO.N,Net-(J4-PadB36)*%
X104140000Y-119380000D03*
%TO.P,J5,35*%
%TO.N,Net-(J4-PadB35)*%
X101600000Y-119380000D03*
%TO.P,J5,34*%
%TO.N,Net-(J4-PadB34)*%
X99060000Y-119380000D03*
%TO.P,J5,33*%
%TO.N,Net-(J4-PadB33)*%
X96520000Y-119380000D03*
%TO.P,J5,32*%
%TO.N,Net-(J4-PadB32)*%
X93980000Y-119380000D03*
%TO.P,J5,31*%
%TO.N,Net-(J4-PadB31)*%
X91440000Y-119380000D03*
%TO.P,J5,30*%
%TO.N,Net-(J4-PadB30)*%
X88900000Y-119380000D03*
%TO.P,J5,29*%
%TO.N,Net-(J4-PadB29)*%
X86360000Y-119380000D03*
%TO.P,J5,28*%
%TO.N,Net-(J4-PadB28)*%
X83820000Y-119380000D03*
%TO.P,J5,27*%
%TO.N,Net-(J4-PadB27)*%
X81280000Y-119380000D03*
%TO.P,J5,26*%
%TO.N,Net-(J4-PadB26)*%
X78740000Y-119380000D03*
%TO.P,J5,25*%
%TO.N,Net-(J4-PadB25)*%
X76200000Y-119380000D03*
%TO.P,J5,24*%
%TO.N,Net-(J4-PadB24)*%
X73660000Y-119380000D03*
%TO.P,J5,23*%
%TO.N,Net-(J4-PadB23)*%
X71120000Y-119380000D03*
%TO.P,J5,22*%
%TO.N,Net-(J4-PadB22)*%
X68580000Y-119380000D03*
%TO.P,J5,21*%
%TO.N,Net-(J4-PadB21)*%
X66040000Y-119380000D03*
%TO.P,J5,20*%
%TO.N,Net-(J4-PadB20)*%
X63500000Y-119380000D03*
%TO.P,J5,19*%
%TO.N,Net-(J4-PadB19)*%
X60960000Y-119380000D03*
%TO.P,J5,18*%
%TO.N,Net-(J4-PadB18)*%
X58420000Y-119380000D03*
%TO.P,J5,17*%
%TO.N,Net-(J4-PadB17)*%
X55880000Y-119380000D03*
%TO.P,J5,16*%
%TO.N,Net-(J4-PadB16)*%
X53340000Y-119380000D03*
%TO.P,J5,15*%
%TO.N,Net-(J4-PadB15)*%
X50800000Y-119380000D03*
%TO.P,J5,14*%
%TO.N,Net-(J4-PadB14)*%
X48260000Y-119380000D03*
%TO.P,J5,13*%
%TO.N,Net-(J4-PadB13)*%
X45720000Y-119380000D03*
%TO.P,J5,12*%
%TO.N,Net-(J4-PadB12)*%
X43180000Y-119380000D03*
%TO.P,J5,11*%
%TO.N,Net-(J4-PadB11)*%
X40640000Y-119380000D03*
%TO.P,J5,10*%
%TO.N,Net-(J4-PadB10)*%
X38100000Y-119380000D03*
%TO.P,J5,9*%
%TO.N,Net-(J4-PadB9)*%
X35560000Y-119380000D03*
%TO.P,J5,8*%
%TO.N,Net-(J4-PadB8)*%
X33020000Y-119380000D03*
%TO.P,J5,7*%
%TO.N,Net-(J4-PadB7)*%
X30480000Y-119380000D03*
%TO.P,J5,6*%
%TO.N,Net-(J4-PadB6)*%
X27940000Y-119380000D03*
%TO.P,J5,5*%
%TO.N,Net-(J4-PadB5)*%
X25400000Y-119380000D03*
%TO.P,J5,4*%
%TO.N,Net-(J4-PadB4)*%
X22860000Y-119380000D03*
%TO.P,J5,3*%
%TO.N,Net-(J4-PadB3)*%
X20320000Y-119380000D03*
%TO.P,J5,2*%
%TO.N,Net-(J4-PadB2)*%
X17780000Y-119380000D03*
%TO.P,J5,1*%
%TO.N,Net-(J4-PadB1)*%
X15240000Y-119380000D03*
%TD*%
D12*
%TO.N,Net-(J4-PadB82)*%
X221280000Y-118430000D02*
X188550000Y-85700000D01*
X188550000Y-85700000D02*
X108200000Y-85700000D01*
X108200000Y-85700000D02*
X107840000Y-85340000D01*
X107840000Y-85340000D02*
X107840000Y-83900000D01*
%TO.N,Net-(J4-PadB81)*%
X186377010Y-86077010D02*
X218700000Y-118400000D01*
X106840000Y-83900000D02*
X106840000Y-85503602D01*
X106840000Y-85503602D02*
X107413408Y-86077010D01*
X107413408Y-86077010D02*
X186377010Y-86077010D01*
%TO.N,Net-(J4-PadB80)*%
X213705479Y-115977494D02*
X213766005Y-116006642D01*
X213055981Y-115378542D02*
X213055981Y-115445721D01*
X213041032Y-115511215D02*
X213011885Y-115571741D01*
X212865699Y-116417351D02*
X212932878Y-116417351D01*
X213639985Y-115962545D02*
X213705479Y-115977494D01*
X213446786Y-116006642D02*
X213507312Y-115977494D01*
X212998372Y-116402402D02*
X213058898Y-116373255D01*
X212616124Y-116218322D02*
X212645272Y-116278848D01*
X212645272Y-116278848D02*
X212687157Y-116331370D01*
X212601175Y-116152828D02*
X212616124Y-116218322D01*
X212739679Y-116373255D02*
X212800205Y-116402402D01*
X213111421Y-116331370D02*
X213394263Y-116048527D01*
X212645272Y-115959629D02*
X212616124Y-116020155D01*
X212616124Y-116020155D02*
X212601175Y-116085649D01*
X213766005Y-116006642D02*
X213818528Y-116048528D01*
X212687157Y-116331370D02*
X212739679Y-116373255D01*
X213055981Y-115445721D02*
X213041032Y-115511215D01*
X212932878Y-116417351D02*
X212998372Y-116402402D01*
X213394263Y-116048527D02*
X213446786Y-116006642D01*
X212970000Y-115624264D02*
X212687157Y-115907106D01*
X213507312Y-115977494D02*
X213572806Y-115962545D01*
X213011885Y-115571741D02*
X212970000Y-115624264D01*
X213041032Y-115313048D02*
X213055981Y-115378542D01*
X213058898Y-116373255D02*
X213111421Y-116331370D01*
X212601175Y-116085649D02*
X212601175Y-116152828D01*
X213011885Y-115252522D02*
X213041032Y-115313048D01*
X212687157Y-115907106D02*
X212645272Y-115959629D01*
X212970000Y-115200000D02*
X213011885Y-115252522D01*
X212800205Y-116402402D02*
X212865699Y-116417351D01*
X213572806Y-115962545D02*
X213639985Y-115962545D01*
X105800000Y-85463602D02*
X105800000Y-84000000D01*
X106790418Y-86454020D02*
X105800000Y-85463602D01*
X184224020Y-86454020D02*
X106790418Y-86454020D01*
X215900000Y-118130000D02*
X213818528Y-116048528D01*
X215900000Y-119380000D02*
X215900000Y-118130000D01*
X184224020Y-86454020D02*
X212970000Y-115200000D01*
%TO.N,Net-(J4-PadB79)*%
X213660000Y-118460000D02*
X182031030Y-86831030D01*
X182031030Y-86831030D02*
X178768970Y-86831030D01*
X104840000Y-83900000D02*
X104840000Y-85440000D01*
X106368970Y-86831030D02*
X178768970Y-86831030D01*
X106231030Y-86831030D02*
X106368970Y-86831030D01*
X104840000Y-85440000D02*
X106231030Y-86831030D01*
%TO.N,Net-(J4-PadB78)*%
X211120000Y-118520000D02*
X179808040Y-87208040D01*
X103800000Y-85443172D02*
X103800000Y-84000000D01*
X179808040Y-87208040D02*
X178925132Y-87208040D01*
X178925132Y-87208040D02*
X105564867Y-87208039D01*
X105564867Y-87208039D02*
X103800000Y-85443172D01*
%TO.N,Net-(J4-PadB77)*%
X208580000Y-118580000D02*
X177585049Y-87585049D01*
X102840000Y-83900000D02*
X102840000Y-85440000D01*
X104985049Y-87585049D02*
X105214951Y-87585049D01*
X102840000Y-85440000D02*
X104985049Y-87585049D01*
X177585049Y-87585049D02*
X105214951Y-87585049D01*
%TO.N,Net-(J4-PadB76)*%
X205740000Y-118240000D02*
X205740000Y-119380000D01*
X203496005Y-116006642D02*
X203548528Y-116048528D01*
X203369985Y-115962545D02*
X203435479Y-115977494D01*
X203302806Y-115962545D02*
X203369985Y-115962545D01*
X203237312Y-115977494D02*
X203302806Y-115962545D01*
X202417157Y-115907106D02*
X202375272Y-115959629D01*
X202771032Y-115511215D02*
X202741885Y-115571741D01*
X202346124Y-116020155D02*
X202331175Y-116085649D01*
X202375272Y-116278848D02*
X202417157Y-116331370D01*
X202785981Y-115445721D02*
X202771032Y-115511215D01*
X203548528Y-116048528D02*
X205740000Y-118240000D01*
X202741885Y-115252522D02*
X202771032Y-115313048D01*
X202530205Y-116402402D02*
X202595699Y-116417351D01*
X202700000Y-115200000D02*
X202741885Y-115252522D01*
X104362059Y-87962059D02*
X175462059Y-87962059D01*
X175462059Y-87962059D02*
X202700000Y-115200000D01*
X202728372Y-116402402D02*
X202788898Y-116373255D01*
X202741885Y-115571741D02*
X202700000Y-115624264D01*
X101840000Y-83900000D02*
X101840000Y-85440000D01*
X202331175Y-116085649D02*
X202331175Y-116152828D01*
X202700000Y-115624264D02*
X202417157Y-115907106D01*
X101840000Y-85440000D02*
X104362059Y-87962059D01*
X202469679Y-116373255D02*
X202530205Y-116402402D01*
X202331175Y-116152828D02*
X202346124Y-116218322D01*
X202346124Y-116218322D02*
X202375272Y-116278848D01*
X202785981Y-115378542D02*
X202785981Y-115445721D01*
X202417157Y-116331370D02*
X202469679Y-116373255D01*
X203435479Y-115977494D02*
X203496005Y-116006642D01*
X202771032Y-115313048D02*
X202785981Y-115378542D01*
X202375272Y-115959629D02*
X202346124Y-116020155D01*
X202595699Y-116417351D02*
X202662878Y-116417351D01*
X202662878Y-116417351D02*
X202728372Y-116402402D01*
X203176786Y-116006642D02*
X203237312Y-115977494D01*
X202841421Y-116331370D02*
X203124263Y-116048527D01*
X203124263Y-116048527D02*
X203176786Y-116006642D01*
X202788898Y-116373255D02*
X202841421Y-116331370D01*
%TO.N,Net-(J4-PadB75)*%
X203500000Y-118430000D02*
X173409069Y-88339069D01*
X100840000Y-83900000D02*
X100840000Y-85540000D01*
X100840000Y-83900000D02*
X100840000Y-85473172D01*
X103705897Y-88339069D02*
X103760931Y-88339069D01*
X100840000Y-85473172D02*
X103705897Y-88339069D01*
X173409069Y-88339069D02*
X103760931Y-88339069D01*
%TO.N,Net-(J4-PadB74)*%
X200300000Y-117800000D02*
X171216079Y-88716079D01*
X103052477Y-88716079D02*
X99800000Y-85463602D01*
X171216079Y-88716079D02*
X103052477Y-88716079D01*
X99800000Y-85463602D02*
X99800000Y-83900000D01*
%TO.N,Net-(J4-PadB73)*%
X198420000Y-118420000D02*
X169093089Y-89093089D01*
X98900000Y-84200000D02*
X99000000Y-84100000D01*
X98840000Y-83900000D02*
X98840000Y-85440000D01*
X102493089Y-89093089D02*
X102693089Y-89093089D01*
X98840000Y-85440000D02*
X102493089Y-89093089D01*
X169093089Y-89093089D02*
X102693089Y-89093089D01*
%TO.N,Net-(J4-PadB72)*%
X193508528Y-116048528D02*
X195580000Y-118120000D01*
X193395479Y-115977494D02*
X193456005Y-116006642D01*
X193329985Y-115962545D02*
X193395479Y-115977494D01*
X193262806Y-115962545D02*
X193329985Y-115962545D01*
X192660000Y-115624264D02*
X192377157Y-115907106D01*
X195580000Y-118120000D02*
X195580000Y-119380000D01*
X192701885Y-115571741D02*
X192660000Y-115624264D01*
X101870099Y-89470099D02*
X166930099Y-89470099D01*
X192731032Y-115511215D02*
X192701885Y-115571741D01*
X166930099Y-89470099D02*
X192660000Y-115200000D01*
X192745981Y-115378542D02*
X192745981Y-115445721D01*
X193456005Y-116006642D02*
X193508528Y-116048528D01*
X192731032Y-115313048D02*
X192745981Y-115378542D01*
X192335272Y-115959629D02*
X192306124Y-116020155D01*
X192660000Y-115200000D02*
X192701885Y-115252522D01*
X192377157Y-115907106D02*
X192335272Y-115959629D01*
X192555699Y-116417351D02*
X192622878Y-116417351D01*
X192622878Y-116417351D02*
X192688372Y-116402402D01*
X192377157Y-116331370D02*
X192429679Y-116373255D01*
X192701885Y-115252522D02*
X192731032Y-115313048D01*
X192291175Y-116085649D02*
X192291175Y-116152828D01*
X192688372Y-116402402D02*
X192748898Y-116373255D01*
X97840000Y-85440000D02*
X101870099Y-89470099D01*
X97840000Y-83900000D02*
X97840000Y-85440000D01*
X192306124Y-116020155D02*
X192291175Y-116085649D01*
X192429679Y-116373255D02*
X192490205Y-116402402D01*
X193136786Y-116006642D02*
X193197312Y-115977494D01*
X192291175Y-116152828D02*
X192306124Y-116218322D01*
X192306124Y-116218322D02*
X192335272Y-116278848D01*
X192335272Y-116278848D02*
X192377157Y-116331370D01*
X193197312Y-115977494D02*
X193262806Y-115962545D01*
X192490205Y-116402402D02*
X192555699Y-116417351D01*
X193084263Y-116048527D02*
X193136786Y-116006642D01*
X192748898Y-116373255D02*
X192801421Y-116331370D01*
X192745981Y-115445721D02*
X192731032Y-115511215D01*
X192801421Y-116331370D02*
X193084263Y-116048527D01*
%TO.N,Net-(J4-PadB71)*%
X193340000Y-118440000D02*
X164747109Y-89847109D01*
X96840000Y-83900000D02*
X96840000Y-85440000D01*
X98600000Y-87200000D02*
X98605782Y-87200000D01*
X98605782Y-87200000D02*
X101252891Y-89847109D01*
X96840000Y-85440000D02*
X98600000Y-87200000D01*
X164747109Y-89847109D02*
X101252891Y-89847109D01*
%TO.N,Net-(J4-PadB70)*%
X190800000Y-118400000D02*
X162624119Y-90224119D01*
X100624119Y-90224119D02*
X95800000Y-85400000D01*
X95800000Y-85400000D02*
X95800000Y-83900000D01*
X162624119Y-90224119D02*
X100624119Y-90224119D01*
%TO.N,Net-(J4-PadB69)*%
X94800000Y-85400000D02*
X94800000Y-83900000D01*
X160401129Y-90601129D02*
X100001129Y-90601129D01*
X100001129Y-90601129D02*
X94800000Y-85400000D01*
X188260000Y-118460000D02*
X160401129Y-90601129D01*
%TO.N,Net-(J4-PadB68)*%
X183235479Y-115977494D02*
X183296005Y-116006642D01*
X182585981Y-115378542D02*
X182585981Y-115445721D01*
X182571032Y-115511215D02*
X182541885Y-115571741D01*
X182395699Y-116417351D02*
X182462878Y-116417351D01*
X183169985Y-115962545D02*
X183235479Y-115977494D01*
X182976786Y-116006642D02*
X183037312Y-115977494D01*
X182528372Y-116402402D02*
X182588898Y-116373255D01*
X182146124Y-116218322D02*
X182175272Y-116278848D01*
X182175272Y-116278848D02*
X182217157Y-116331370D01*
X182131175Y-116152828D02*
X182146124Y-116218322D01*
X182269679Y-116373255D02*
X182330205Y-116402402D01*
X182641421Y-116331370D02*
X182924263Y-116048527D01*
X182175272Y-115959629D02*
X182146124Y-116020155D01*
X182146124Y-116020155D02*
X182131175Y-116085649D01*
X183296005Y-116006642D02*
X183348528Y-116048528D01*
X182217157Y-116331370D02*
X182269679Y-116373255D01*
X182585981Y-115445721D02*
X182571032Y-115511215D01*
X182462878Y-116417351D02*
X182528372Y-116402402D01*
X182924263Y-116048527D02*
X182976786Y-116006642D01*
X182500000Y-115624264D02*
X182217157Y-115907106D01*
X183037312Y-115977494D02*
X183102806Y-115962545D01*
X182541885Y-115571741D02*
X182500000Y-115624264D01*
X182571032Y-115313048D02*
X182585981Y-115378542D01*
X182588898Y-116373255D02*
X182641421Y-116331370D01*
X182131175Y-116085649D02*
X182131175Y-116152828D01*
X182541885Y-115252522D02*
X182571032Y-115313048D01*
X182217157Y-115907106D02*
X182175272Y-115959629D01*
X182500000Y-115200000D02*
X182541885Y-115252522D01*
X182330205Y-116402402D02*
X182395699Y-116417351D01*
X183102806Y-115962545D02*
X183169985Y-115962545D01*
X158278139Y-90978139D02*
X99378139Y-90978139D01*
X93800000Y-85400000D02*
X93800000Y-83900000D01*
X99378139Y-90978139D02*
X93800000Y-85400000D01*
X185420000Y-118120000D02*
X183348528Y-116048528D01*
X185420000Y-119380000D02*
X185420000Y-118120000D01*
X158278139Y-90978139D02*
X182500000Y-115200000D01*
%TO.N,Net-(J4-PadB67)*%
X156155149Y-91355149D02*
X98755149Y-91355149D01*
X183180000Y-118380000D02*
X156155149Y-91355149D01*
X98755149Y-91355149D02*
X92800000Y-85400000D01*
X92800000Y-85400000D02*
X92800000Y-83900000D01*
%TO.N,Net-(J4-PadB66)*%
X180640000Y-118340000D02*
X154032159Y-91732159D01*
X91800000Y-85400000D02*
X91800000Y-83900000D01*
X98132159Y-91732159D02*
X91800000Y-85400000D01*
X154032159Y-91732159D02*
X98132159Y-91732159D01*
%TO.N,Net-(J4-PadB65)*%
X151909169Y-92109169D02*
X98390831Y-92109169D01*
X90800000Y-85400000D02*
X90800000Y-83900000D01*
X178100000Y-118300000D02*
X151909169Y-92109169D01*
X98390831Y-92109169D02*
X97690831Y-92109169D01*
X97690831Y-92109169D02*
X97509169Y-92109169D01*
X97509169Y-92109169D02*
X90800000Y-85400000D01*
%TO.N,Net-(J4-PadB64)*%
X173235479Y-115977494D02*
X173296005Y-116006642D01*
X172585981Y-115378542D02*
X172585981Y-115445721D01*
X172571032Y-115511215D02*
X172541885Y-115571741D01*
X172395699Y-116417351D02*
X172462878Y-116417351D01*
X173169985Y-115962545D02*
X173235479Y-115977494D01*
X172976786Y-116006642D02*
X173037312Y-115977494D01*
X172528372Y-116402402D02*
X172588898Y-116373255D01*
X172146124Y-116218322D02*
X172175272Y-116278848D01*
X172175272Y-116278848D02*
X172217157Y-116331370D01*
X172131175Y-116152828D02*
X172146124Y-116218322D01*
X172269679Y-116373255D02*
X172330205Y-116402402D01*
X172641421Y-116331370D02*
X172924263Y-116048527D01*
X172175272Y-115959629D02*
X172146124Y-116020155D01*
X172146124Y-116020155D02*
X172131175Y-116085649D01*
X173296005Y-116006642D02*
X173348528Y-116048528D01*
X172217157Y-116331370D02*
X172269679Y-116373255D01*
X172585981Y-115445721D02*
X172571032Y-115511215D01*
X172462878Y-116417351D02*
X172528372Y-116402402D01*
X172924263Y-116048527D02*
X172976786Y-116006642D01*
X172500000Y-115624264D02*
X172217157Y-115907106D01*
X173037312Y-115977494D02*
X173102806Y-115962545D01*
X172541885Y-115571741D02*
X172500000Y-115624264D01*
X172571032Y-115313048D02*
X172585981Y-115378542D01*
X172588898Y-116373255D02*
X172641421Y-116331370D01*
X172131175Y-116085649D02*
X172131175Y-116152828D01*
X172541885Y-115252522D02*
X172571032Y-115313048D01*
X172217157Y-115907106D02*
X172175272Y-115959629D01*
X172500000Y-115200000D02*
X172541885Y-115252522D01*
X172330205Y-116402402D02*
X172395699Y-116417351D01*
X173102806Y-115962545D02*
X173169985Y-115962545D01*
X149786179Y-92486179D02*
X96886179Y-92486179D01*
X89840000Y-83900000D02*
X89840000Y-85440000D01*
X89840000Y-85440000D02*
X96886179Y-92486179D01*
X175260000Y-117960000D02*
X173348528Y-116048528D01*
X175260000Y-119380000D02*
X175260000Y-117960000D01*
X149786179Y-92486179D02*
X172500000Y-115200000D01*
%TO.N,Net-(J4-PadB63)*%
X173020000Y-118320000D02*
X147563189Y-92863189D01*
X147563189Y-92863189D02*
X96263189Y-92863189D01*
X96263189Y-92863189D02*
X88800000Y-85400000D01*
X88800000Y-85400000D02*
X88800000Y-84000000D01*
%TO.N,Net-(J4-PadB62)*%
X95959801Y-93240199D02*
X95640199Y-93240199D01*
X87840000Y-83900000D02*
X87840000Y-85440000D01*
X170480000Y-118380000D02*
X145340199Y-93240199D01*
X96259801Y-93240199D02*
X95959801Y-93240199D01*
X87840000Y-85440000D02*
X95640199Y-93240199D01*
X145340199Y-93240199D02*
X96259801Y-93240199D01*
%TO.N,Net-(J4-PadB61)*%
X86840000Y-85440000D02*
X95017209Y-93617209D01*
X143217209Y-93617209D02*
X167940000Y-118340000D01*
X86840000Y-83900000D02*
X86840000Y-85440000D01*
X95017209Y-93617209D02*
X143217209Y-93617209D01*
%TO.N,Net-(J4-PadB60)*%
X162935479Y-115977494D02*
X162996005Y-116006642D01*
X162285981Y-115378542D02*
X162285981Y-115445721D01*
X162271032Y-115511215D02*
X162241885Y-115571741D01*
X162095699Y-116417351D02*
X162162878Y-116417351D01*
X162869985Y-115962545D02*
X162935479Y-115977494D01*
X162676786Y-116006642D02*
X162737312Y-115977494D01*
X162228372Y-116402402D02*
X162288898Y-116373255D01*
X161846124Y-116218322D02*
X161875272Y-116278848D01*
X161875272Y-116278848D02*
X161917157Y-116331370D01*
X161831175Y-116152828D02*
X161846124Y-116218322D01*
X161969679Y-116373255D02*
X162030205Y-116402402D01*
X162341421Y-116331370D02*
X162624263Y-116048527D01*
X161875272Y-115959629D02*
X161846124Y-116020155D01*
X161846124Y-116020155D02*
X161831175Y-116085649D01*
X162996005Y-116006642D02*
X163048528Y-116048528D01*
X161917157Y-116331370D02*
X161969679Y-116373255D01*
X162285981Y-115445721D02*
X162271032Y-115511215D01*
X162162878Y-116417351D02*
X162228372Y-116402402D01*
X162624263Y-116048527D02*
X162676786Y-116006642D01*
X162200000Y-115624264D02*
X161917157Y-115907106D01*
X162737312Y-115977494D02*
X162802806Y-115962545D01*
X162241885Y-115571741D02*
X162200000Y-115624264D01*
X162271032Y-115313048D02*
X162285981Y-115378542D01*
X162288898Y-116373255D02*
X162341421Y-116331370D01*
X161831175Y-116085649D02*
X161831175Y-116152828D01*
X162241885Y-115252522D02*
X162271032Y-115313048D01*
X161917157Y-115907106D02*
X161875272Y-115959629D01*
X162200000Y-115200000D02*
X162241885Y-115252522D01*
X162030205Y-116402402D02*
X162095699Y-116417351D01*
X162802806Y-115962545D02*
X162869985Y-115962545D01*
X140994219Y-93994219D02*
X94394219Y-93994219D01*
X85840000Y-83900000D02*
X85840000Y-85540000D01*
X85840000Y-85440000D02*
X85840000Y-83900000D01*
X94394219Y-93994219D02*
X85840000Y-85440000D01*
X165100000Y-118100000D02*
X163048528Y-116048528D01*
X165100000Y-119380000D02*
X165100000Y-118100000D01*
X140994219Y-93994219D02*
X162200000Y-115200000D01*
%TO.N,Net-(J4-PadB59)*%
X84840000Y-85440000D02*
X84840000Y-83900000D01*
X138871229Y-94371229D02*
X93771229Y-94371229D01*
X93771229Y-94371229D02*
X84840000Y-85440000D01*
X162860000Y-118360000D02*
X138871229Y-94371229D01*
%TO.N,Net-(J4-PadB58)*%
X83840000Y-85440000D02*
X83840000Y-83900000D01*
X93148239Y-94748239D02*
X83840000Y-85440000D01*
X160320000Y-118420000D02*
X136648239Y-94748239D01*
X136648239Y-94748239D02*
X93148239Y-94748239D01*
%TO.N,Net-(J4-PadB57)*%
X134425249Y-95125249D02*
X92525249Y-95125249D01*
X82840000Y-85440000D02*
X82840000Y-83900000D01*
X157780000Y-118480000D02*
X134425249Y-95125249D01*
X92525249Y-95125249D02*
X82840000Y-85440000D01*
%TO.N,Net-(J4-PadB56)*%
X152735479Y-115977494D02*
X152796005Y-116006642D01*
X152085981Y-115378542D02*
X152085981Y-115445721D01*
X152071032Y-115511215D02*
X152041885Y-115571741D01*
X151895699Y-116417351D02*
X151962878Y-116417351D01*
X152669985Y-115962545D02*
X152735479Y-115977494D01*
X152476786Y-116006642D02*
X152537312Y-115977494D01*
X152028372Y-116402402D02*
X152088898Y-116373255D01*
X151646124Y-116218322D02*
X151675272Y-116278848D01*
X151675272Y-116278848D02*
X151717157Y-116331370D01*
X151631175Y-116152828D02*
X151646124Y-116218322D01*
X151769679Y-116373255D02*
X151830205Y-116402402D01*
X152141421Y-116331370D02*
X152424263Y-116048527D01*
X151675272Y-115959629D02*
X151646124Y-116020155D01*
X151646124Y-116020155D02*
X151631175Y-116085649D01*
X152796005Y-116006642D02*
X152848528Y-116048528D01*
X151717157Y-116331370D02*
X151769679Y-116373255D01*
X152085981Y-115445721D02*
X152071032Y-115511215D01*
X151962878Y-116417351D02*
X152028372Y-116402402D01*
X152424263Y-116048527D02*
X152476786Y-116006642D01*
X152000000Y-115624264D02*
X151717157Y-115907106D01*
X152537312Y-115977494D02*
X152602806Y-115962545D01*
X152041885Y-115571741D02*
X152000000Y-115624264D01*
X152071032Y-115313048D02*
X152085981Y-115378542D01*
X152088898Y-116373255D02*
X152141421Y-116331370D01*
X151631175Y-116085649D02*
X151631175Y-116152828D01*
X152041885Y-115252522D02*
X152071032Y-115313048D01*
X151717157Y-115907106D02*
X151675272Y-115959629D01*
X152000000Y-115200000D02*
X152041885Y-115252522D01*
X151830205Y-116402402D02*
X151895699Y-116417351D01*
X152602806Y-115962545D02*
X152669985Y-115962545D01*
X91902259Y-95502259D02*
X81840000Y-85440000D01*
X132302259Y-95502259D02*
X91902259Y-95502259D01*
X81840000Y-85440000D02*
X81840000Y-83900000D01*
X154940000Y-118140000D02*
X152848528Y-116048528D01*
X154940000Y-119380000D02*
X154940000Y-118140000D01*
X132302259Y-95502259D02*
X152000000Y-115200000D01*
%TO.N,Net-(J4-PadB55)*%
X80840000Y-85440000D02*
X80840000Y-83900000D01*
X152700000Y-118500000D02*
X130079269Y-95879269D01*
X130079269Y-95879269D02*
X91279269Y-95879269D01*
X91279269Y-95879269D02*
X80840000Y-85440000D01*
%TO.N,Net-(J4-PadB54)*%
X90656279Y-96256279D02*
X79840000Y-85440000D01*
X127956279Y-96256279D02*
X90656279Y-96256279D01*
X150160000Y-118460000D02*
X127956279Y-96256279D01*
X79840000Y-85440000D02*
X79840000Y-83900000D01*
%TO.N,Net-(J4-PadB53)*%
X90033289Y-96633289D02*
X78840000Y-85440000D01*
X78840000Y-85440000D02*
X78840000Y-83900000D01*
X147620000Y-118420000D02*
X125833289Y-96633289D01*
X125833289Y-96633289D02*
X90033289Y-96633289D01*
%TO.N,Net-(J4-PadB52)*%
X142535479Y-115977494D02*
X142596005Y-116006642D01*
X141885981Y-115378542D02*
X141885981Y-115445721D01*
X141871032Y-115511215D02*
X141841885Y-115571741D01*
X141695699Y-116417351D02*
X141762878Y-116417351D01*
X142469985Y-115962545D02*
X142535479Y-115977494D01*
X142276786Y-116006642D02*
X142337312Y-115977494D01*
X141828372Y-116402402D02*
X141888898Y-116373255D01*
X141446124Y-116218322D02*
X141475272Y-116278848D01*
X141475272Y-116278848D02*
X141517157Y-116331370D01*
X141431175Y-116152828D02*
X141446124Y-116218322D01*
X141569679Y-116373255D02*
X141630205Y-116402402D01*
X141941421Y-116331370D02*
X142224263Y-116048527D01*
X141475272Y-115959629D02*
X141446124Y-116020155D01*
X141446124Y-116020155D02*
X141431175Y-116085649D01*
X142596005Y-116006642D02*
X142648528Y-116048528D01*
X141517157Y-116331370D02*
X141569679Y-116373255D01*
X141885981Y-115445721D02*
X141871032Y-115511215D01*
X141762878Y-116417351D02*
X141828372Y-116402402D01*
X142224263Y-116048527D02*
X142276786Y-116006642D01*
X141800000Y-115624264D02*
X141517157Y-115907106D01*
X142337312Y-115977494D02*
X142402806Y-115962545D01*
X141841885Y-115571741D02*
X141800000Y-115624264D01*
X141871032Y-115313048D02*
X141885981Y-115378542D01*
X141888898Y-116373255D02*
X141941421Y-116331370D01*
X141431175Y-116085649D02*
X141431175Y-116152828D01*
X141841885Y-115252522D02*
X141871032Y-115313048D01*
X141517157Y-115907106D02*
X141475272Y-115959629D01*
X141800000Y-115200000D02*
X141841885Y-115252522D01*
X141630205Y-116402402D02*
X141695699Y-116417351D01*
X142402806Y-115962545D02*
X142469985Y-115962545D01*
X123610299Y-97010299D02*
X89410299Y-97010299D01*
X89410299Y-97010299D02*
X77840000Y-85440000D01*
X77840000Y-85440000D02*
X77840000Y-83900000D01*
X144780000Y-118180000D02*
X142648528Y-116048528D01*
X144780000Y-119380000D02*
X144780000Y-118180000D01*
X123610299Y-97010299D02*
X141800000Y-115200000D01*
%TO.N,Net-(J4-PadB51)*%
X121487309Y-97387309D02*
X88787309Y-97387309D01*
X76840000Y-85440000D02*
X76840000Y-83900000D01*
X142540000Y-118440000D02*
X121487309Y-97387309D01*
X88787309Y-97387309D02*
X76840000Y-85440000D01*
%TO.N,Net-(J4-PadB50)*%
X75840000Y-85440000D02*
X75840000Y-83900000D01*
X140000000Y-118500000D02*
X119264319Y-97764319D01*
X88164319Y-97764319D02*
X75840000Y-85440000D01*
X119264319Y-97764319D02*
X88164319Y-97764319D01*
%TO.N,Net-(J4-PadB49)*%
X87541329Y-98141329D02*
X74840000Y-85440000D01*
X74840000Y-85440000D02*
X74840000Y-83900000D01*
X137460000Y-118460000D02*
X117141329Y-98141329D01*
X117141329Y-98141329D02*
X87541329Y-98141329D01*
%TO.N,Net-(J4-PadB48)*%
X134920000Y-118420000D02*
X115018339Y-98518339D01*
X73840000Y-85440000D02*
X73840000Y-83900000D01*
X115018339Y-98518339D02*
X86918339Y-98518339D01*
X86918339Y-98518339D02*
X73840000Y-85440000D01*
%TO.N,Net-(J4-PadB47)*%
X129935479Y-115977494D02*
X129996005Y-116006642D01*
X129285981Y-115378542D02*
X129285981Y-115445721D01*
X129271032Y-115511215D02*
X129241885Y-115571741D01*
X129095699Y-116417351D02*
X129162878Y-116417351D01*
X129869985Y-115962545D02*
X129935479Y-115977494D01*
X129676786Y-116006642D02*
X129737312Y-115977494D01*
X129228372Y-116402402D02*
X129288898Y-116373255D01*
X128846124Y-116218322D02*
X128875272Y-116278848D01*
X128875272Y-116278848D02*
X128917157Y-116331370D01*
X128831175Y-116152828D02*
X128846124Y-116218322D01*
X128969679Y-116373255D02*
X129030205Y-116402402D01*
X129341421Y-116331370D02*
X129624263Y-116048527D01*
X128875272Y-115959629D02*
X128846124Y-116020155D01*
X128846124Y-116020155D02*
X128831175Y-116085649D01*
X129996005Y-116006642D02*
X130048528Y-116048528D01*
X128917157Y-116331370D02*
X128969679Y-116373255D01*
X129285981Y-115445721D02*
X129271032Y-115511215D01*
X129162878Y-116417351D02*
X129228372Y-116402402D01*
X129624263Y-116048527D02*
X129676786Y-116006642D01*
X129200000Y-115624264D02*
X128917157Y-115907106D01*
X129737312Y-115977494D02*
X129802806Y-115962545D01*
X129241885Y-115571741D02*
X129200000Y-115624264D01*
X129271032Y-115313048D02*
X129285981Y-115378542D01*
X129288898Y-116373255D02*
X129341421Y-116331370D01*
X128831175Y-116085649D02*
X128831175Y-116152828D01*
X129241885Y-115252522D02*
X129271032Y-115313048D01*
X128917157Y-115907106D02*
X128875272Y-115959629D01*
X129200000Y-115200000D02*
X129241885Y-115252522D01*
X129030205Y-116402402D02*
X129095699Y-116417351D01*
X129802806Y-115962545D02*
X129869985Y-115962545D01*
X86295349Y-98895349D02*
X72840000Y-85440000D01*
X112895349Y-98895349D02*
X86295349Y-98895349D01*
X72840000Y-85440000D02*
X72840000Y-83900000D01*
X132080000Y-118080000D02*
X130048528Y-116048528D01*
X132080000Y-119380000D02*
X132080000Y-118080000D01*
X112895349Y-98895349D02*
X129200000Y-115200000D01*
%TO.N,Net-(J4-PadB46)*%
X71840000Y-85440000D02*
X71840000Y-83900000D01*
X129840000Y-118340000D02*
X110772359Y-99272359D01*
X85672359Y-99272359D02*
X71840000Y-85440000D01*
X110772359Y-99272359D02*
X85672359Y-99272359D01*
%TO.N,Net-(J4-PadB45)*%
X127300000Y-118300000D02*
X108649369Y-99649369D01*
X70840000Y-85440000D02*
X70840000Y-83900000D01*
X108649369Y-99649369D02*
X85049369Y-99649369D01*
X85049369Y-99649369D02*
X70840000Y-85440000D01*
%TO.N,Net-(J4-PadB44)*%
X124760000Y-118360000D02*
X106426379Y-100026379D01*
X106426379Y-100026379D02*
X84426379Y-100026379D01*
X69840000Y-85440000D02*
X69840000Y-83900000D01*
X84426379Y-100026379D02*
X69840000Y-85440000D01*
%TO.N,Net-(J4-PadB43)*%
X119835479Y-115977494D02*
X119896005Y-116006642D01*
X119185981Y-115378542D02*
X119185981Y-115445721D01*
X119171032Y-115511215D02*
X119141885Y-115571741D01*
X118995699Y-116417351D02*
X119062878Y-116417351D01*
X119769985Y-115962545D02*
X119835479Y-115977494D01*
X119576786Y-116006642D02*
X119637312Y-115977494D01*
X119128372Y-116402402D02*
X119188898Y-116373255D01*
X118746124Y-116218322D02*
X118775272Y-116278848D01*
X118775272Y-116278848D02*
X118817157Y-116331370D01*
X118731175Y-116152828D02*
X118746124Y-116218322D01*
X118869679Y-116373255D02*
X118930205Y-116402402D01*
X119241421Y-116331370D02*
X119524263Y-116048527D01*
X118775272Y-115959629D02*
X118746124Y-116020155D01*
X118746124Y-116020155D02*
X118731175Y-116085649D01*
X119896005Y-116006642D02*
X119948528Y-116048528D01*
X118817157Y-116331370D02*
X118869679Y-116373255D01*
X119185981Y-115445721D02*
X119171032Y-115511215D01*
X119062878Y-116417351D02*
X119128372Y-116402402D01*
X119524263Y-116048527D02*
X119576786Y-116006642D01*
X119100000Y-115624264D02*
X118817157Y-115907106D01*
X119637312Y-115977494D02*
X119702806Y-115962545D01*
X119141885Y-115571741D02*
X119100000Y-115624264D01*
X119171032Y-115313048D02*
X119185981Y-115378542D01*
X119188898Y-116373255D02*
X119241421Y-116331370D01*
X118731175Y-116085649D02*
X118731175Y-116152828D01*
X119141885Y-115252522D02*
X119171032Y-115313048D01*
X118817157Y-115907106D02*
X118775272Y-115959629D01*
X119100000Y-115200000D02*
X119141885Y-115252522D01*
X118930205Y-116402402D02*
X118995699Y-116417351D01*
X119702806Y-115962545D02*
X119769985Y-115962545D01*
X68840000Y-85440000D02*
X68840000Y-83900000D01*
X83803389Y-100403389D02*
X68840000Y-85440000D01*
X104303389Y-100403389D02*
X83803389Y-100403389D01*
X121920000Y-118020000D02*
X119948528Y-116048528D01*
X121920000Y-119380000D02*
X121920000Y-118020000D01*
X104303389Y-100403389D02*
X119100000Y-115200000D01*
%TO.N,Net-(J4-PadB42)*%
X83180399Y-100780399D02*
X67840000Y-85440000D01*
X119680000Y-118380000D02*
X102080399Y-100780399D01*
X102080399Y-100780399D02*
X83180399Y-100780399D01*
X67840000Y-85440000D02*
X67840000Y-83900000D01*
%TO.N,Net-(J4-PadB41)*%
X82557409Y-101157409D02*
X66840000Y-85440000D01*
X66840000Y-85440000D02*
X66840000Y-83900000D01*
X117140000Y-118340000D02*
X99957409Y-101157409D01*
X99957409Y-101157409D02*
X82557409Y-101157409D01*
%TO.N,Net-(J4-PadB40)*%
X97834419Y-101534419D02*
X81934419Y-101534419D01*
X81934419Y-101534419D02*
X65840000Y-85440000D01*
X65840000Y-85440000D02*
X65840000Y-83900000D01*
X114600000Y-118300000D02*
X97834419Y-101534419D01*
%TO.N,Net-(J4-PadB39)*%
X109635479Y-115977494D02*
X109696005Y-116006642D01*
X108985981Y-115378542D02*
X108985981Y-115445721D01*
X108971032Y-115511215D02*
X108941885Y-115571741D01*
X108795699Y-116417351D02*
X108862878Y-116417351D01*
X109569985Y-115962545D02*
X109635479Y-115977494D01*
X109376786Y-116006642D02*
X109437312Y-115977494D01*
X108928372Y-116402402D02*
X108988898Y-116373255D01*
X108546124Y-116218322D02*
X108575272Y-116278848D01*
X108575272Y-116278848D02*
X108617157Y-116331370D01*
X108531175Y-116152828D02*
X108546124Y-116218322D01*
X108669679Y-116373255D02*
X108730205Y-116402402D01*
X109041421Y-116331370D02*
X109324263Y-116048527D01*
X108575272Y-115959629D02*
X108546124Y-116020155D01*
X108546124Y-116020155D02*
X108531175Y-116085649D01*
X109696005Y-116006642D02*
X109748528Y-116048528D01*
X108617157Y-116331370D02*
X108669679Y-116373255D01*
X108985981Y-115445721D02*
X108971032Y-115511215D01*
X108862878Y-116417351D02*
X108928372Y-116402402D01*
X109324263Y-116048527D02*
X109376786Y-116006642D01*
X108900000Y-115624264D02*
X108617157Y-115907106D01*
X109437312Y-115977494D02*
X109502806Y-115962545D01*
X108941885Y-115571741D02*
X108900000Y-115624264D01*
X108971032Y-115313048D02*
X108985981Y-115378542D01*
X108988898Y-116373255D02*
X109041421Y-116331370D01*
X108531175Y-116085649D02*
X108531175Y-116152828D01*
X108941885Y-115252522D02*
X108971032Y-115313048D01*
X108617157Y-115907106D02*
X108575272Y-115959629D01*
X108900000Y-115200000D02*
X108941885Y-115252522D01*
X108730205Y-116402402D02*
X108795699Y-116417351D01*
X109502806Y-115962545D02*
X109569985Y-115962545D01*
X64840000Y-85440000D02*
X64840000Y-83900000D01*
X95611429Y-101911429D02*
X81311429Y-101911429D01*
X81311429Y-101911429D02*
X64840000Y-85440000D01*
X111760000Y-118060000D02*
X109748528Y-116048528D01*
X111760000Y-119380000D02*
X111760000Y-118060000D01*
X95611429Y-101911429D02*
X108900000Y-115200000D01*
%TO.N,Net-(J4-PadB38)*%
X109520000Y-118320000D02*
X93488439Y-102288439D01*
X93488439Y-102288439D02*
X80688439Y-102288439D01*
X80688439Y-102288439D02*
X63840000Y-85440000D01*
X63840000Y-85440000D02*
X63840000Y-83900000D01*
%TO.N,Net-(J4-PadB37)*%
X80065449Y-102665449D02*
X62840000Y-85440000D01*
X62840000Y-85440000D02*
X62840000Y-83900000D01*
X91365449Y-102665449D02*
X80065449Y-102665449D01*
X106980000Y-118280000D02*
X91365449Y-102665449D01*
%TO.N,Net-(J4-PadB36)*%
X79442459Y-103042459D02*
X61840000Y-85440000D01*
X89242459Y-103042459D02*
X79442459Y-103042459D01*
X104440000Y-118240000D02*
X89242459Y-103042459D01*
X61840000Y-85440000D02*
X61840000Y-83900000D01*
%TO.N,Net-(J4-PadB35)*%
X98741885Y-115471741D02*
X98700000Y-115524264D01*
X99237312Y-115877494D02*
X99302806Y-115862545D01*
X98700000Y-115524264D02*
X98417157Y-115807106D01*
X98595699Y-116317351D02*
X98662878Y-116317351D01*
X99435479Y-115877494D02*
X99496005Y-115906642D01*
X98785981Y-115278542D02*
X98785981Y-115345721D01*
X98771032Y-115411215D02*
X98741885Y-115471741D01*
X98771032Y-115213048D02*
X98785981Y-115278542D01*
X98788898Y-116273255D02*
X98841421Y-116231370D01*
X98741885Y-115152522D02*
X98771032Y-115213048D01*
X98417157Y-115807106D02*
X98375272Y-115859629D01*
X98700000Y-115100000D02*
X98741885Y-115152522D01*
X98530205Y-116302402D02*
X98595699Y-116317351D01*
X99302806Y-115862545D02*
X99369985Y-115862545D01*
X99369985Y-115862545D02*
X99435479Y-115877494D01*
X99176786Y-115906642D02*
X99237312Y-115877494D01*
X98728372Y-116302402D02*
X98788898Y-116273255D01*
X98331175Y-115985649D02*
X98331175Y-116052828D01*
X98346124Y-116118322D02*
X98375272Y-116178848D01*
X98375272Y-116178848D02*
X98417157Y-116231370D01*
X98331175Y-116052828D02*
X98346124Y-116118322D01*
X98469679Y-116273255D02*
X98530205Y-116302402D01*
X98841421Y-116231370D02*
X99124263Y-115948527D01*
X98375272Y-115859629D02*
X98346124Y-115920155D01*
X98346124Y-115920155D02*
X98331175Y-115985649D01*
X99496005Y-115906642D02*
X99548528Y-115948528D01*
X98417157Y-116231370D02*
X98469679Y-116273255D01*
X98785981Y-115345721D02*
X98771032Y-115411215D01*
X98662878Y-116317351D02*
X98728372Y-116302402D01*
X99124263Y-115948527D02*
X99176786Y-115906642D01*
X60840000Y-85440000D02*
X60840000Y-83900000D01*
X78819469Y-103419469D02*
X60840000Y-85440000D01*
X87019469Y-103419469D02*
X78819469Y-103419469D01*
X101600000Y-118000000D02*
X99548528Y-115948528D01*
X101600000Y-119380000D02*
X101600000Y-118000000D01*
X87019469Y-103419469D02*
X98700000Y-115100000D01*
%TO.N,Net-(J4-PadB34)*%
X84596479Y-103796479D02*
X78196479Y-103796479D01*
X99060000Y-118260000D02*
X84596479Y-103796479D01*
X99060000Y-119380000D02*
X99060000Y-118260000D01*
X78196479Y-103796479D02*
X59840000Y-85440000D01*
X59840000Y-85440000D02*
X59840000Y-83900000D01*
%TO.N,Net-(J4-PadB33)*%
X82473489Y-104173489D02*
X77573489Y-104173489D01*
X77573489Y-104173489D02*
X58840000Y-85440000D01*
X96520000Y-118220000D02*
X82473489Y-104173489D01*
X58840000Y-85440000D02*
X58840000Y-83900000D01*
X96520000Y-119380000D02*
X96520000Y-118220000D01*
%TO.N,Net-(J4-PadB32)*%
X93980000Y-119380000D02*
X93980000Y-118180000D01*
X93980000Y-118180000D02*
X80350499Y-104550499D01*
X57840000Y-85440000D02*
X57840000Y-83900000D01*
X76950499Y-104550499D02*
X57840000Y-85440000D01*
X80350499Y-104550499D02*
X76950499Y-104550499D01*
%TO.N,Net-(J4-PadB31)*%
X76327509Y-104927509D02*
X56840000Y-85440000D01*
X56840000Y-85440000D02*
X56840000Y-83900000D01*
X78127509Y-104927509D02*
X76327509Y-104927509D01*
X91440000Y-118240000D02*
X78127509Y-104927509D01*
X91440000Y-119380000D02*
X91440000Y-118240000D01*
%TO.N,Net-(J4-PadB30)*%
X75700000Y-105300000D02*
X55840000Y-85440000D01*
X88900000Y-119380000D02*
X88900000Y-118200000D01*
X55840000Y-85440000D02*
X55840000Y-83900000D01*
X88900000Y-118200000D02*
X76000000Y-105300000D01*
X76000000Y-105300000D02*
X75700000Y-105300000D01*
%TO.N,Net-(J4-PadB29)*%
X83948528Y-115748528D02*
X86360000Y-118160000D01*
X83835479Y-115677494D02*
X83896005Y-115706641D01*
X83769985Y-115662545D02*
X83835479Y-115677494D01*
X83052978Y-115371285D02*
X83011092Y-115423808D01*
X83424719Y-115837434D02*
X83477242Y-115795549D01*
X83637312Y-115677494D02*
X83702806Y-115662545D01*
X83141885Y-115271741D02*
X83100000Y-115324264D01*
X83185981Y-115145721D02*
X83171032Y-115211215D01*
X74700000Y-106500000D02*
X83100000Y-114900000D01*
X83171032Y-115013048D02*
X83185981Y-115078542D01*
X83185981Y-115078542D02*
X83185981Y-115145721D01*
X83100000Y-114900000D02*
X83141885Y-114952522D01*
X83702806Y-115662545D02*
X83769985Y-115662545D01*
X83052978Y-115795549D02*
X83105500Y-115837434D01*
X83141885Y-114952522D02*
X83171032Y-115013048D01*
X82966996Y-115549828D02*
X82966996Y-115617007D01*
X83011092Y-115743027D02*
X83052978Y-115795549D01*
X83231520Y-115881530D02*
X83298699Y-115881530D01*
X74700000Y-105300000D02*
X74700000Y-106500000D01*
X83171032Y-115211215D02*
X83141885Y-115271741D01*
X54840000Y-85440000D02*
X74700000Y-105300000D01*
X54840000Y-83900000D02*
X54840000Y-85440000D01*
X86360000Y-118160000D02*
X86360000Y-119380000D01*
X83011092Y-115423808D02*
X82981945Y-115484334D01*
X82981945Y-115484334D02*
X82966996Y-115549828D01*
X83896005Y-115706641D02*
X83948528Y-115748528D01*
X83576786Y-115706641D02*
X83637312Y-115677494D01*
X83166026Y-115866581D02*
X83231520Y-115881530D01*
X82966996Y-115617007D02*
X82981945Y-115682501D01*
X83105500Y-115837434D02*
X83166026Y-115866581D01*
X83298699Y-115881530D02*
X83364193Y-115866581D01*
X83100000Y-115324264D02*
X83052978Y-115371285D01*
X83364193Y-115866581D02*
X83424719Y-115837434D01*
X83477242Y-115795549D02*
X83524263Y-115748527D01*
X82981945Y-115682501D02*
X83011092Y-115743027D01*
X83524263Y-115748527D02*
X83576786Y-115706641D01*
%TO.N,Net-(J4-PadB28)*%
X74300000Y-108700000D02*
X74300000Y-105900000D01*
X83820000Y-119380000D02*
X83820000Y-118220000D01*
X74300000Y-105900000D02*
X53840000Y-85440000D01*
X53840000Y-85440000D02*
X53840000Y-83900000D01*
X83820000Y-118220000D02*
X74300000Y-108700000D01*
%TO.N,Net-(J4-PadB27)*%
X73922990Y-110922990D02*
X73922990Y-106522990D01*
X73922990Y-106522990D02*
X52840000Y-85440000D01*
X81280000Y-118280000D02*
X73922990Y-110922990D01*
X81280000Y-119380000D02*
X81280000Y-118280000D01*
X52840000Y-85440000D02*
X52840000Y-83900000D01*
%TO.N,Net-(J4-PadB26)*%
X78740000Y-119380000D02*
X78740000Y-118240000D01*
X51840000Y-85440000D02*
X51840000Y-83900000D01*
X73545980Y-113045980D02*
X73545980Y-107145980D01*
X78740000Y-118240000D02*
X73545980Y-113045980D01*
X73545980Y-107145980D02*
X51840000Y-85440000D01*
%TO.N,Net-(J4-PadB25)*%
X73168970Y-115168970D02*
X73168970Y-107768970D01*
X50840000Y-85440000D02*
X50840000Y-83900000D01*
X76200000Y-118200000D02*
X73168970Y-115168970D01*
X73168970Y-107768970D02*
X50840000Y-85440000D01*
X76200000Y-119380000D02*
X76200000Y-118200000D01*
%TO.N,Net-(J4-PadB24)*%
X73660000Y-119380000D02*
X73660000Y-118260000D01*
X49840000Y-85440000D02*
X49840000Y-83900000D01*
X72791960Y-112491960D02*
X72791960Y-108391960D01*
X72791960Y-117391960D02*
X72791960Y-112491960D01*
X73660000Y-118260000D02*
X72791960Y-117391960D01*
X72791960Y-108391960D02*
X49840000Y-85440000D01*
%TO.N,Net-(J4-PadB23)*%
X48840000Y-85440000D02*
X48840000Y-83900000D01*
X71120000Y-107720000D02*
X48840000Y-85440000D01*
X71120000Y-119380000D02*
X71120000Y-107720000D01*
%TO.N,Net-(J4-PadB22)*%
X47840000Y-85440000D02*
X47840000Y-83900000D01*
X68580000Y-119380000D02*
X68580000Y-106180000D01*
X68580000Y-106180000D02*
X47840000Y-85440000D01*
%TO.N,Net-(J4-PadB21)*%
X66040000Y-110789903D02*
X66040000Y-119380000D01*
X66040000Y-108838558D02*
X66040000Y-110789903D01*
X66032747Y-108774187D02*
X66040000Y-108838558D01*
X65570358Y-108012390D02*
X65524553Y-108058195D01*
X66040000Y-104640000D02*
X66040000Y-107660000D01*
X65524553Y-108440362D02*
X65570358Y-108486167D01*
X65976888Y-108658195D02*
X66011352Y-108713044D01*
X65625207Y-107977926D02*
X65570358Y-108012390D01*
X65468694Y-108174187D02*
X65461442Y-108238558D01*
X65976888Y-107840362D02*
X65931083Y-107886167D01*
X66011352Y-107785513D02*
X65976888Y-107840362D01*
X65876234Y-107920631D02*
X65815091Y-107942026D01*
X65570358Y-108486167D02*
X65625207Y-108520631D01*
X66040000Y-107660000D02*
X66032747Y-107724370D01*
X66032747Y-107724370D02*
X66011352Y-107785513D01*
X46840000Y-83900000D02*
X46840000Y-85440000D01*
X65524553Y-108058195D02*
X65490089Y-108113044D01*
X65876234Y-108577926D02*
X65931083Y-108612390D01*
X46840000Y-85440000D02*
X66040000Y-104640000D01*
X65490089Y-108113044D02*
X65468694Y-108174187D01*
X65815091Y-107942026D02*
X65686350Y-107956531D01*
X65686350Y-108542026D02*
X65815091Y-108556531D01*
X65461442Y-108238558D02*
X65461442Y-108260000D01*
X65461442Y-108260000D02*
X65468694Y-108324370D01*
X65931083Y-107886167D02*
X65876234Y-107920631D01*
X65686350Y-107956531D02*
X65625207Y-107977926D01*
X65468694Y-108324370D02*
X65490089Y-108385513D01*
X65490089Y-108385513D02*
X65524553Y-108440362D01*
X65625207Y-108520631D02*
X65686350Y-108542026D01*
X65815091Y-108556531D02*
X65876234Y-108577926D01*
X65931083Y-108612390D02*
X65976888Y-108658195D01*
X66011352Y-108713044D02*
X66032747Y-108774187D01*
%TO.N,Net-(J4-PadB20)*%
X45840000Y-85440000D02*
X45840000Y-83900000D01*
X63500000Y-119380000D02*
X63500000Y-103100000D01*
X63500000Y-103100000D02*
X45840000Y-85440000D01*
%TO.N,Net-(J4-PadB19)*%
X60960000Y-119380000D02*
X60960000Y-101560000D01*
X60960000Y-101560000D02*
X44840000Y-85440000D01*
X44840000Y-85440000D02*
X44840000Y-83900000D01*
%TO.N,Net-(J4-PadB18)*%
X58420000Y-119380000D02*
X58420000Y-100020000D01*
X58420000Y-100020000D02*
X43840000Y-85440000D01*
X43840000Y-85440000D02*
X43840000Y-83900000D01*
%TO.N,Net-(J4-PadB17)*%
X55880000Y-119380000D02*
X55880000Y-98480000D01*
X55880000Y-98480000D02*
X42840000Y-85440000D01*
X42840000Y-85440000D02*
X42840000Y-83900000D01*
%TO.N,Net-(J4-PadB16)*%
X41800000Y-83900000D02*
X41800000Y-85440000D01*
X53340000Y-103301045D02*
X53340000Y-119380000D01*
X53231135Y-100712221D02*
X53276918Y-100758004D01*
X53311366Y-99885453D02*
X53276918Y-99940275D01*
X52925405Y-100077773D02*
X52870583Y-100112221D01*
X52761719Y-100338280D02*
X52761719Y-100360000D01*
X52986519Y-100056389D02*
X52925405Y-100077773D01*
X53340000Y-100938280D02*
X53340000Y-103301045D01*
X53231135Y-99986058D02*
X53176313Y-100020506D01*
X52790352Y-100212826D02*
X52768968Y-100273940D01*
X52870583Y-100112221D02*
X52824800Y-100158004D01*
X52824800Y-100540275D02*
X52870583Y-100586058D01*
X53332750Y-99824339D02*
X53311366Y-99885453D01*
X53115199Y-100041890D02*
X52986519Y-100056389D01*
X53276918Y-99940275D02*
X53231135Y-99986058D01*
X53340000Y-96940000D02*
X53340000Y-99760000D01*
X53176313Y-100020506D02*
X53115199Y-100041890D01*
X52925405Y-100620506D02*
X52986519Y-100641890D01*
X53332750Y-100873940D02*
X53340000Y-100938280D01*
X41840000Y-85440000D02*
X53340000Y-96940000D01*
X53340000Y-99760000D02*
X53332750Y-99824339D01*
X52768968Y-100273940D02*
X52761719Y-100338280D01*
X41840000Y-83900000D02*
X41840000Y-85440000D01*
X52824800Y-100158004D02*
X52790352Y-100212826D01*
X52768968Y-100424339D02*
X52790352Y-100485453D01*
X53311366Y-100812826D02*
X53332750Y-100873940D01*
X53115199Y-100656389D02*
X53176313Y-100677773D01*
X52790352Y-100485453D02*
X52824800Y-100540275D01*
X52870583Y-100586058D02*
X52925405Y-100620506D01*
X52761719Y-100360000D02*
X52768968Y-100424339D01*
X52986519Y-100641890D02*
X53115199Y-100656389D01*
X53176313Y-100677773D02*
X53231135Y-100712221D01*
X53276918Y-100758004D02*
X53311366Y-100812826D01*
%TO.N,Net-(J4-PadB15)*%
X40800000Y-83900000D02*
X40800000Y-85440000D01*
X40840000Y-83900000D02*
X40840000Y-85440000D01*
X40840000Y-85440000D02*
X48950000Y-93550000D01*
X48950000Y-93550000D02*
X49017209Y-93617209D01*
X50800000Y-119380000D02*
X50800000Y-95400000D01*
X50800000Y-95400000D02*
X48950000Y-93550000D01*
%TO.N,Net-(J4-PadB14)*%
X39800000Y-83900000D02*
X39800000Y-85440000D01*
X48260000Y-100740000D02*
X48260000Y-102110593D01*
X48230290Y-100609834D02*
X48252478Y-100673243D01*
X48147046Y-100505450D02*
X48194549Y-100552953D01*
X47960000Y-99840000D02*
X47933831Y-99840000D01*
X48194549Y-100552953D02*
X48230290Y-100609834D01*
X48194549Y-99727046D02*
X48147046Y-99774549D01*
X48090165Y-100469709D02*
X48147046Y-100505450D01*
X48090165Y-99810290D02*
X48026756Y-99832478D01*
X47933831Y-99840000D02*
X47867074Y-99847521D01*
X48252478Y-99606756D02*
X48230290Y-99670165D01*
X47867074Y-99847521D02*
X47803665Y-99869709D01*
X48260000Y-99540000D02*
X48252478Y-99606756D01*
X48260000Y-102110593D02*
X48260000Y-119380000D01*
X47746784Y-100374549D02*
X47803665Y-100410290D01*
X47699281Y-99952953D02*
X47663540Y-100009834D01*
X47699281Y-100327046D02*
X47746784Y-100374549D01*
X48260000Y-93860000D02*
X48260000Y-99540000D01*
X47867074Y-100432478D02*
X47933831Y-100440000D01*
X39840000Y-83900000D02*
X39840000Y-85440000D01*
X47803665Y-99869709D02*
X47746784Y-99905450D01*
X47746784Y-99905450D02*
X47699281Y-99952953D01*
X48147046Y-99774549D02*
X48090165Y-99810290D01*
X48230290Y-99670165D02*
X48194549Y-99727046D01*
X47663540Y-100009834D02*
X47641352Y-100073243D01*
X48252478Y-100673243D02*
X48260000Y-100740000D01*
X47960000Y-100440000D02*
X48026756Y-100447521D01*
X47633831Y-100140000D02*
X47641352Y-100206756D01*
X47641352Y-100206756D02*
X47663540Y-100270165D01*
X39840000Y-85440000D02*
X48260000Y-93860000D01*
X47663540Y-100270165D02*
X47699281Y-100327046D01*
X48026756Y-99832478D02*
X47960000Y-99840000D01*
X47803665Y-100410290D02*
X47867074Y-100432478D01*
X47641352Y-100073243D02*
X47633831Y-100140000D01*
X47933831Y-100440000D02*
X47960000Y-100440000D01*
X48026756Y-100447521D02*
X48090165Y-100469709D01*
%TO.N,Net-(J4-PadB13)*%
X38800000Y-83900000D02*
X38800000Y-85440000D01*
X45720000Y-119380000D02*
X45720000Y-92320000D01*
X45720000Y-92320000D02*
X44750000Y-91350000D01*
X38840000Y-85440000D02*
X44750000Y-91350000D01*
X38840000Y-83900000D02*
X38840000Y-85440000D01*
%TO.N,Net-(J4-PadB12)*%
X37760000Y-85400000D02*
X37760000Y-83900000D01*
X37800000Y-83900000D02*
X37800000Y-85440000D01*
X37840000Y-83900000D02*
X37840000Y-85440000D01*
X43180000Y-119380000D02*
X43180000Y-90780000D01*
X43180000Y-90780000D02*
X37800000Y-85400000D01*
X37800000Y-85400000D02*
X37800000Y-83900000D01*
%TO.N,Net-(J4-PadB11)*%
X34810000Y-111230000D02*
X40570000Y-116990000D01*
X40570000Y-116990000D02*
X40570000Y-119390000D01*
X34810000Y-83890000D02*
X34810000Y-111230000D01*
%TO.N,Net-(J4-PadB10)*%
X33810000Y-83890000D02*
X33810000Y-112730000D01*
X33810000Y-112730000D02*
X38070000Y-116990000D01*
X38070000Y-116990000D02*
X38070000Y-119390000D01*
%TO.N,Net-(J4-PadB9)*%
X35570000Y-117090000D02*
X35570000Y-119390000D01*
X32810000Y-83890000D02*
X32810000Y-114330000D01*
X32810000Y-114330000D02*
X35570000Y-117090000D01*
%TO.N,Net-(J4-PadB8)*%
X31810000Y-83890000D02*
X31810000Y-115790000D01*
X31810000Y-115790000D02*
X32990000Y-116970000D01*
X32990000Y-119370000D02*
X32990000Y-116970000D01*
%TO.N,Net-(J4-PadB7)*%
X30800000Y-85400000D02*
X30800000Y-84100000D01*
X30480000Y-85720000D02*
X30800000Y-85400000D01*
X30480000Y-119380000D02*
X30480000Y-85720000D01*
%TO.N,Net-(J4-PadB6)*%
X27940000Y-119380000D02*
X27940000Y-87360000D01*
X29800000Y-85500000D02*
X29800000Y-84000000D01*
X27940000Y-87360000D02*
X29800000Y-85500000D01*
%TO.N,Net-(J4-PadB5)*%
X25400000Y-88900000D02*
X28800000Y-85500000D01*
X25400000Y-119380000D02*
X25400000Y-88900000D01*
X28800000Y-85500000D02*
X28800000Y-84000000D01*
%TO.N,Net-(J4-PadB4)*%
X22860000Y-119380000D02*
X22860000Y-90440000D01*
X27900000Y-85400000D02*
X27900000Y-83900000D01*
X22860000Y-90440000D02*
X27900000Y-85400000D01*
%TO.N,Net-(J4-PadB3)*%
X20320000Y-119380000D02*
X20320000Y-91980000D01*
X20320000Y-91980000D02*
X26800000Y-85500000D01*
X26800000Y-85500000D02*
X26800000Y-84000000D01*
%TO.N,Net-(J4-PadB2)*%
X17780000Y-93563602D02*
X25800000Y-85543602D01*
X17780000Y-119380000D02*
X17780000Y-93563602D01*
X25800000Y-85543602D02*
X25800000Y-84000000D01*
%TO.N,Net-(J4-PadB1)*%
X15240000Y-95060000D02*
X24800000Y-85500000D01*
X24800000Y-85500000D02*
X24800000Y-83900000D01*
X15240000Y-119380000D02*
X15240000Y-95060000D01*
%TD*%
M02*
