%TF.GenerationSoftware,KiCad,Pcbnew,5.1.6*%
%TF.CreationDate,2020-09-14T21:31:35+02:00*%
%TF.ProjectId,PCIe-pin-header-adapter,50434965-2d70-4696-9e2d-686561646572,rev?*%
%TF.SameCoordinates,Original*%
%TF.FileFunction,Legend,Bot*%
%TF.FilePolarity,Positive*%
%FSLAX46Y46*%
G04 Gerber Fmt 4.6, Leading zero omitted, Abs format (unit mm)*
G04 Created by KiCad (PCBNEW 5.1.6) date 2020-09-14 21:31:35*
%MOMM*%
%LPD*%
G01*
G04 APERTURE LIST*
%ADD10C,0.150000*%
G04 APERTURE END LIST*
D10*
X221480000Y-115980595D02*
X221527619Y-116075833D01*
X221527619Y-116218690D01*
X221480000Y-116361547D01*
X221384761Y-116456785D01*
X221289523Y-116504404D01*
X221099047Y-116552023D01*
X220956190Y-116552023D01*
X220765714Y-116504404D01*
X220670476Y-116456785D01*
X220575238Y-116361547D01*
X220527619Y-116218690D01*
X220527619Y-116123452D01*
X220575238Y-115980595D01*
X220622857Y-115932976D01*
X220956190Y-115932976D01*
X220956190Y-116123452D01*
X220527619Y-115504404D02*
X221527619Y-115504404D01*
X220527619Y-114932976D01*
X221527619Y-114932976D01*
X220527619Y-114456785D02*
X221527619Y-114456785D01*
X221527619Y-114218690D01*
X221480000Y-114075833D01*
X221384761Y-113980595D01*
X221289523Y-113932976D01*
X221099047Y-113885357D01*
X220956190Y-113885357D01*
X220765714Y-113932976D01*
X220670476Y-113980595D01*
X220575238Y-114075833D01*
X220527619Y-114218690D01*
X220527619Y-114456785D01*
X217987619Y-115932976D02*
X218463809Y-116266309D01*
X217987619Y-116504404D02*
X218987619Y-116504404D01*
X218987619Y-116123452D01*
X218940000Y-116028214D01*
X218892380Y-115980595D01*
X218797142Y-115932976D01*
X218654285Y-115932976D01*
X218559047Y-115980595D01*
X218511428Y-116028214D01*
X218463809Y-116123452D01*
X218463809Y-116504404D01*
X218987619Y-115599642D02*
X217987619Y-114932976D01*
X218987619Y-114932976D02*
X217987619Y-115599642D01*
X217987619Y-114028214D02*
X217987619Y-114599642D01*
X217987619Y-114313928D02*
X218987619Y-114313928D01*
X218844761Y-114409166D01*
X218749523Y-114504404D01*
X218701904Y-114599642D01*
X218987619Y-113123452D02*
X218987619Y-113599642D01*
X218511428Y-113647261D01*
X218559047Y-113599642D01*
X218606666Y-113504404D01*
X218606666Y-113266309D01*
X218559047Y-113171071D01*
X218511428Y-113123452D01*
X218416190Y-113075833D01*
X218178095Y-113075833D01*
X218082857Y-113123452D01*
X218035238Y-113171071D01*
X217987619Y-113266309D01*
X217987619Y-113504404D01*
X218035238Y-113599642D01*
X218082857Y-113647261D01*
X218368571Y-112647261D02*
X218368571Y-111885357D01*
X215447619Y-115932976D02*
X215923809Y-116266309D01*
X215447619Y-116504404D02*
X216447619Y-116504404D01*
X216447619Y-116123452D01*
X216400000Y-116028214D01*
X216352380Y-115980595D01*
X216257142Y-115932976D01*
X216114285Y-115932976D01*
X216019047Y-115980595D01*
X215971428Y-116028214D01*
X215923809Y-116123452D01*
X215923809Y-116504404D01*
X216447619Y-115599642D02*
X215447619Y-114932976D01*
X216447619Y-114932976D02*
X215447619Y-115599642D01*
X215447619Y-114028214D02*
X215447619Y-114599642D01*
X215447619Y-114313928D02*
X216447619Y-114313928D01*
X216304761Y-114409166D01*
X216209523Y-114504404D01*
X216161904Y-114599642D01*
X216447619Y-113123452D02*
X216447619Y-113599642D01*
X215971428Y-113647261D01*
X216019047Y-113599642D01*
X216066666Y-113504404D01*
X216066666Y-113266309D01*
X216019047Y-113171071D01*
X215971428Y-113123452D01*
X215876190Y-113075833D01*
X215638095Y-113075833D01*
X215542857Y-113123452D01*
X215495238Y-113171071D01*
X215447619Y-113266309D01*
X215447619Y-113504404D01*
X215495238Y-113599642D01*
X215542857Y-113647261D01*
X215828571Y-112647261D02*
X215828571Y-111885357D01*
X215447619Y-112266309D02*
X216209523Y-112266309D01*
X213860000Y-115980595D02*
X213907619Y-116075833D01*
X213907619Y-116218690D01*
X213860000Y-116361547D01*
X213764761Y-116456785D01*
X213669523Y-116504404D01*
X213479047Y-116552023D01*
X213336190Y-116552023D01*
X213145714Y-116504404D01*
X213050476Y-116456785D01*
X212955238Y-116361547D01*
X212907619Y-116218690D01*
X212907619Y-116123452D01*
X212955238Y-115980595D01*
X213002857Y-115932976D01*
X213336190Y-115932976D01*
X213336190Y-116123452D01*
X212907619Y-115504404D02*
X213907619Y-115504404D01*
X212907619Y-114932976D01*
X213907619Y-114932976D01*
X212907619Y-114456785D02*
X213907619Y-114456785D01*
X213907619Y-114218690D01*
X213860000Y-114075833D01*
X213764761Y-113980595D01*
X213669523Y-113932976D01*
X213479047Y-113885357D01*
X213336190Y-113885357D01*
X213145714Y-113932976D01*
X213050476Y-113980595D01*
X212955238Y-114075833D01*
X212907619Y-114218690D01*
X212907619Y-114456785D01*
X211320000Y-115980595D02*
X211367619Y-116075833D01*
X211367619Y-116218690D01*
X211320000Y-116361547D01*
X211224761Y-116456785D01*
X211129523Y-116504404D01*
X210939047Y-116552023D01*
X210796190Y-116552023D01*
X210605714Y-116504404D01*
X210510476Y-116456785D01*
X210415238Y-116361547D01*
X210367619Y-116218690D01*
X210367619Y-116123452D01*
X210415238Y-115980595D01*
X210462857Y-115932976D01*
X210796190Y-115932976D01*
X210796190Y-116123452D01*
X210367619Y-115504404D02*
X211367619Y-115504404D01*
X210367619Y-114932976D01*
X211367619Y-114932976D01*
X210367619Y-114456785D02*
X211367619Y-114456785D01*
X211367619Y-114218690D01*
X211320000Y-114075833D01*
X211224761Y-113980595D01*
X211129523Y-113932976D01*
X210939047Y-113885357D01*
X210796190Y-113885357D01*
X210605714Y-113932976D01*
X210510476Y-113980595D01*
X210415238Y-114075833D01*
X210367619Y-114218690D01*
X210367619Y-114456785D01*
X207827619Y-115932976D02*
X208303809Y-116266309D01*
X207827619Y-116504404D02*
X208827619Y-116504404D01*
X208827619Y-116123452D01*
X208780000Y-116028214D01*
X208732380Y-115980595D01*
X208637142Y-115932976D01*
X208494285Y-115932976D01*
X208399047Y-115980595D01*
X208351428Y-116028214D01*
X208303809Y-116123452D01*
X208303809Y-116504404D01*
X208827619Y-115599642D02*
X207827619Y-114932976D01*
X208827619Y-114932976D02*
X207827619Y-115599642D01*
X207827619Y-114028214D02*
X207827619Y-114599642D01*
X207827619Y-114313928D02*
X208827619Y-114313928D01*
X208684761Y-114409166D01*
X208589523Y-114504404D01*
X208541904Y-114599642D01*
X208494285Y-113171071D02*
X207827619Y-113171071D01*
X208875238Y-113409166D02*
X208160952Y-113647261D01*
X208160952Y-113028214D01*
X208208571Y-112647261D02*
X208208571Y-111885357D01*
X205287619Y-115932976D02*
X205763809Y-116266309D01*
X205287619Y-116504404D02*
X206287619Y-116504404D01*
X206287619Y-116123452D01*
X206240000Y-116028214D01*
X206192380Y-115980595D01*
X206097142Y-115932976D01*
X205954285Y-115932976D01*
X205859047Y-115980595D01*
X205811428Y-116028214D01*
X205763809Y-116123452D01*
X205763809Y-116504404D01*
X206287619Y-115599642D02*
X205287619Y-114932976D01*
X206287619Y-114932976D02*
X205287619Y-115599642D01*
X205287619Y-114028214D02*
X205287619Y-114599642D01*
X205287619Y-114313928D02*
X206287619Y-114313928D01*
X206144761Y-114409166D01*
X206049523Y-114504404D01*
X206001904Y-114599642D01*
X205954285Y-113171071D02*
X205287619Y-113171071D01*
X206335238Y-113409166D02*
X205620952Y-113647261D01*
X205620952Y-113028214D01*
X205668571Y-112647261D02*
X205668571Y-111885357D01*
X205287619Y-112266309D02*
X206049523Y-112266309D01*
X203700000Y-115980595D02*
X203747619Y-116075833D01*
X203747619Y-116218690D01*
X203700000Y-116361547D01*
X203604761Y-116456785D01*
X203509523Y-116504404D01*
X203319047Y-116552023D01*
X203176190Y-116552023D01*
X202985714Y-116504404D01*
X202890476Y-116456785D01*
X202795238Y-116361547D01*
X202747619Y-116218690D01*
X202747619Y-116123452D01*
X202795238Y-115980595D01*
X202842857Y-115932976D01*
X203176190Y-115932976D01*
X203176190Y-116123452D01*
X202747619Y-115504404D02*
X203747619Y-115504404D01*
X202747619Y-114932976D01*
X203747619Y-114932976D01*
X202747619Y-114456785D02*
X203747619Y-114456785D01*
X203747619Y-114218690D01*
X203700000Y-114075833D01*
X203604761Y-113980595D01*
X203509523Y-113932976D01*
X203319047Y-113885357D01*
X203176190Y-113885357D01*
X202985714Y-113932976D01*
X202890476Y-113980595D01*
X202795238Y-114075833D01*
X202747619Y-114218690D01*
X202747619Y-114456785D01*
X201160000Y-115980595D02*
X201207619Y-116075833D01*
X201207619Y-116218690D01*
X201160000Y-116361547D01*
X201064761Y-116456785D01*
X200969523Y-116504404D01*
X200779047Y-116552023D01*
X200636190Y-116552023D01*
X200445714Y-116504404D01*
X200350476Y-116456785D01*
X200255238Y-116361547D01*
X200207619Y-116218690D01*
X200207619Y-116123452D01*
X200255238Y-115980595D01*
X200302857Y-115932976D01*
X200636190Y-115932976D01*
X200636190Y-116123452D01*
X200207619Y-115504404D02*
X201207619Y-115504404D01*
X200207619Y-114932976D01*
X201207619Y-114932976D01*
X200207619Y-114456785D02*
X201207619Y-114456785D01*
X201207619Y-114218690D01*
X201160000Y-114075833D01*
X201064761Y-113980595D01*
X200969523Y-113932976D01*
X200779047Y-113885357D01*
X200636190Y-113885357D01*
X200445714Y-113932976D01*
X200350476Y-113980595D01*
X200255238Y-114075833D01*
X200207619Y-114218690D01*
X200207619Y-114456785D01*
X197667619Y-115932976D02*
X198143809Y-116266309D01*
X197667619Y-116504404D02*
X198667619Y-116504404D01*
X198667619Y-116123452D01*
X198620000Y-116028214D01*
X198572380Y-115980595D01*
X198477142Y-115932976D01*
X198334285Y-115932976D01*
X198239047Y-115980595D01*
X198191428Y-116028214D01*
X198143809Y-116123452D01*
X198143809Y-116504404D01*
X198667619Y-115599642D02*
X197667619Y-114932976D01*
X198667619Y-114932976D02*
X197667619Y-115599642D01*
X197667619Y-114028214D02*
X197667619Y-114599642D01*
X197667619Y-114313928D02*
X198667619Y-114313928D01*
X198524761Y-114409166D01*
X198429523Y-114504404D01*
X198381904Y-114599642D01*
X198667619Y-113694880D02*
X198667619Y-113075833D01*
X198286666Y-113409166D01*
X198286666Y-113266309D01*
X198239047Y-113171071D01*
X198191428Y-113123452D01*
X198096190Y-113075833D01*
X197858095Y-113075833D01*
X197762857Y-113123452D01*
X197715238Y-113171071D01*
X197667619Y-113266309D01*
X197667619Y-113552023D01*
X197715238Y-113647261D01*
X197762857Y-113694880D01*
X198048571Y-112647261D02*
X198048571Y-111885357D01*
X195127619Y-115932976D02*
X195603809Y-116266309D01*
X195127619Y-116504404D02*
X196127619Y-116504404D01*
X196127619Y-116123452D01*
X196080000Y-116028214D01*
X196032380Y-115980595D01*
X195937142Y-115932976D01*
X195794285Y-115932976D01*
X195699047Y-115980595D01*
X195651428Y-116028214D01*
X195603809Y-116123452D01*
X195603809Y-116504404D01*
X196127619Y-115599642D02*
X195127619Y-114932976D01*
X196127619Y-114932976D02*
X195127619Y-115599642D01*
X195127619Y-114028214D02*
X195127619Y-114599642D01*
X195127619Y-114313928D02*
X196127619Y-114313928D01*
X195984761Y-114409166D01*
X195889523Y-114504404D01*
X195841904Y-114599642D01*
X196127619Y-113694880D02*
X196127619Y-113075833D01*
X195746666Y-113409166D01*
X195746666Y-113266309D01*
X195699047Y-113171071D01*
X195651428Y-113123452D01*
X195556190Y-113075833D01*
X195318095Y-113075833D01*
X195222857Y-113123452D01*
X195175238Y-113171071D01*
X195127619Y-113266309D01*
X195127619Y-113552023D01*
X195175238Y-113647261D01*
X195222857Y-113694880D01*
X195508571Y-112647261D02*
X195508571Y-111885357D01*
X195127619Y-112266309D02*
X195889523Y-112266309D01*
X193540000Y-115980595D02*
X193587619Y-116075833D01*
X193587619Y-116218690D01*
X193540000Y-116361547D01*
X193444761Y-116456785D01*
X193349523Y-116504404D01*
X193159047Y-116552023D01*
X193016190Y-116552023D01*
X192825714Y-116504404D01*
X192730476Y-116456785D01*
X192635238Y-116361547D01*
X192587619Y-116218690D01*
X192587619Y-116123452D01*
X192635238Y-115980595D01*
X192682857Y-115932976D01*
X193016190Y-115932976D01*
X193016190Y-116123452D01*
X192587619Y-115504404D02*
X193587619Y-115504404D01*
X192587619Y-114932976D01*
X193587619Y-114932976D01*
X192587619Y-114456785D02*
X193587619Y-114456785D01*
X193587619Y-114218690D01*
X193540000Y-114075833D01*
X193444761Y-113980595D01*
X193349523Y-113932976D01*
X193159047Y-113885357D01*
X193016190Y-113885357D01*
X192825714Y-113932976D01*
X192730476Y-113980595D01*
X192635238Y-114075833D01*
X192587619Y-114218690D01*
X192587619Y-114456785D01*
X191000000Y-115980595D02*
X191047619Y-116075833D01*
X191047619Y-116218690D01*
X191000000Y-116361547D01*
X190904761Y-116456785D01*
X190809523Y-116504404D01*
X190619047Y-116552023D01*
X190476190Y-116552023D01*
X190285714Y-116504404D01*
X190190476Y-116456785D01*
X190095238Y-116361547D01*
X190047619Y-116218690D01*
X190047619Y-116123452D01*
X190095238Y-115980595D01*
X190142857Y-115932976D01*
X190476190Y-115932976D01*
X190476190Y-116123452D01*
X190047619Y-115504404D02*
X191047619Y-115504404D01*
X190047619Y-114932976D01*
X191047619Y-114932976D01*
X190047619Y-114456785D02*
X191047619Y-114456785D01*
X191047619Y-114218690D01*
X191000000Y-114075833D01*
X190904761Y-113980595D01*
X190809523Y-113932976D01*
X190619047Y-113885357D01*
X190476190Y-113885357D01*
X190285714Y-113932976D01*
X190190476Y-113980595D01*
X190095238Y-114075833D01*
X190047619Y-114218690D01*
X190047619Y-114456785D01*
X187507619Y-115932976D02*
X187983809Y-116266309D01*
X187507619Y-116504404D02*
X188507619Y-116504404D01*
X188507619Y-116123452D01*
X188460000Y-116028214D01*
X188412380Y-115980595D01*
X188317142Y-115932976D01*
X188174285Y-115932976D01*
X188079047Y-115980595D01*
X188031428Y-116028214D01*
X187983809Y-116123452D01*
X187983809Y-116504404D01*
X188507619Y-115599642D02*
X187507619Y-114932976D01*
X188507619Y-114932976D02*
X187507619Y-115599642D01*
X187507619Y-114028214D02*
X187507619Y-114599642D01*
X187507619Y-114313928D02*
X188507619Y-114313928D01*
X188364761Y-114409166D01*
X188269523Y-114504404D01*
X188221904Y-114599642D01*
X188412380Y-113647261D02*
X188460000Y-113599642D01*
X188507619Y-113504404D01*
X188507619Y-113266309D01*
X188460000Y-113171071D01*
X188412380Y-113123452D01*
X188317142Y-113075833D01*
X188221904Y-113075833D01*
X188079047Y-113123452D01*
X187507619Y-113694880D01*
X187507619Y-113075833D01*
X187888571Y-112647261D02*
X187888571Y-111885357D01*
X184967619Y-115932976D02*
X185443809Y-116266309D01*
X184967619Y-116504404D02*
X185967619Y-116504404D01*
X185967619Y-116123452D01*
X185920000Y-116028214D01*
X185872380Y-115980595D01*
X185777142Y-115932976D01*
X185634285Y-115932976D01*
X185539047Y-115980595D01*
X185491428Y-116028214D01*
X185443809Y-116123452D01*
X185443809Y-116504404D01*
X185967619Y-115599642D02*
X184967619Y-114932976D01*
X185967619Y-114932976D02*
X184967619Y-115599642D01*
X184967619Y-114028214D02*
X184967619Y-114599642D01*
X184967619Y-114313928D02*
X185967619Y-114313928D01*
X185824761Y-114409166D01*
X185729523Y-114504404D01*
X185681904Y-114599642D01*
X185872380Y-113647261D02*
X185920000Y-113599642D01*
X185967619Y-113504404D01*
X185967619Y-113266309D01*
X185920000Y-113171071D01*
X185872380Y-113123452D01*
X185777142Y-113075833D01*
X185681904Y-113075833D01*
X185539047Y-113123452D01*
X184967619Y-113694880D01*
X184967619Y-113075833D01*
X185348571Y-112647261D02*
X185348571Y-111885357D01*
X184967619Y-112266309D02*
X185729523Y-112266309D01*
X183380000Y-115980595D02*
X183427619Y-116075833D01*
X183427619Y-116218690D01*
X183380000Y-116361547D01*
X183284761Y-116456785D01*
X183189523Y-116504404D01*
X182999047Y-116552023D01*
X182856190Y-116552023D01*
X182665714Y-116504404D01*
X182570476Y-116456785D01*
X182475238Y-116361547D01*
X182427619Y-116218690D01*
X182427619Y-116123452D01*
X182475238Y-115980595D01*
X182522857Y-115932976D01*
X182856190Y-115932976D01*
X182856190Y-116123452D01*
X182427619Y-115504404D02*
X183427619Y-115504404D01*
X182427619Y-114932976D01*
X183427619Y-114932976D01*
X182427619Y-114456785D02*
X183427619Y-114456785D01*
X183427619Y-114218690D01*
X183380000Y-114075833D01*
X183284761Y-113980595D01*
X183189523Y-113932976D01*
X182999047Y-113885357D01*
X182856190Y-113885357D01*
X182665714Y-113932976D01*
X182570476Y-113980595D01*
X182475238Y-114075833D01*
X182427619Y-114218690D01*
X182427619Y-114456785D01*
X180840000Y-115980595D02*
X180887619Y-116075833D01*
X180887619Y-116218690D01*
X180840000Y-116361547D01*
X180744761Y-116456785D01*
X180649523Y-116504404D01*
X180459047Y-116552023D01*
X180316190Y-116552023D01*
X180125714Y-116504404D01*
X180030476Y-116456785D01*
X179935238Y-116361547D01*
X179887619Y-116218690D01*
X179887619Y-116123452D01*
X179935238Y-115980595D01*
X179982857Y-115932976D01*
X180316190Y-115932976D01*
X180316190Y-116123452D01*
X179887619Y-115504404D02*
X180887619Y-115504404D01*
X179887619Y-114932976D01*
X180887619Y-114932976D01*
X179887619Y-114456785D02*
X180887619Y-114456785D01*
X180887619Y-114218690D01*
X180840000Y-114075833D01*
X180744761Y-113980595D01*
X180649523Y-113932976D01*
X180459047Y-113885357D01*
X180316190Y-113885357D01*
X180125714Y-113932976D01*
X180030476Y-113980595D01*
X179935238Y-114075833D01*
X179887619Y-114218690D01*
X179887619Y-114456785D01*
X177347619Y-115932976D02*
X177823809Y-116266309D01*
X177347619Y-116504404D02*
X178347619Y-116504404D01*
X178347619Y-116123452D01*
X178300000Y-116028214D01*
X178252380Y-115980595D01*
X178157142Y-115932976D01*
X178014285Y-115932976D01*
X177919047Y-115980595D01*
X177871428Y-116028214D01*
X177823809Y-116123452D01*
X177823809Y-116504404D01*
X178347619Y-115599642D02*
X177347619Y-114932976D01*
X178347619Y-114932976D02*
X177347619Y-115599642D01*
X177347619Y-114028214D02*
X177347619Y-114599642D01*
X177347619Y-114313928D02*
X178347619Y-114313928D01*
X178204761Y-114409166D01*
X178109523Y-114504404D01*
X178061904Y-114599642D01*
X177347619Y-113075833D02*
X177347619Y-113647261D01*
X177347619Y-113361547D02*
X178347619Y-113361547D01*
X178204761Y-113456785D01*
X178109523Y-113552023D01*
X178061904Y-113647261D01*
X177728571Y-112647261D02*
X177728571Y-111885357D01*
X174807619Y-115932976D02*
X175283809Y-116266309D01*
X174807619Y-116504404D02*
X175807619Y-116504404D01*
X175807619Y-116123452D01*
X175760000Y-116028214D01*
X175712380Y-115980595D01*
X175617142Y-115932976D01*
X175474285Y-115932976D01*
X175379047Y-115980595D01*
X175331428Y-116028214D01*
X175283809Y-116123452D01*
X175283809Y-116504404D01*
X175807619Y-115599642D02*
X174807619Y-114932976D01*
X175807619Y-114932976D02*
X174807619Y-115599642D01*
X174807619Y-114028214D02*
X174807619Y-114599642D01*
X174807619Y-114313928D02*
X175807619Y-114313928D01*
X175664761Y-114409166D01*
X175569523Y-114504404D01*
X175521904Y-114599642D01*
X174807619Y-113075833D02*
X174807619Y-113647261D01*
X174807619Y-113361547D02*
X175807619Y-113361547D01*
X175664761Y-113456785D01*
X175569523Y-113552023D01*
X175521904Y-113647261D01*
X175188571Y-112647261D02*
X175188571Y-111885357D01*
X174807619Y-112266309D02*
X175569523Y-112266309D01*
X173220000Y-115980595D02*
X173267619Y-116075833D01*
X173267619Y-116218690D01*
X173220000Y-116361547D01*
X173124761Y-116456785D01*
X173029523Y-116504404D01*
X172839047Y-116552023D01*
X172696190Y-116552023D01*
X172505714Y-116504404D01*
X172410476Y-116456785D01*
X172315238Y-116361547D01*
X172267619Y-116218690D01*
X172267619Y-116123452D01*
X172315238Y-115980595D01*
X172362857Y-115932976D01*
X172696190Y-115932976D01*
X172696190Y-116123452D01*
X172267619Y-115504404D02*
X173267619Y-115504404D01*
X172267619Y-114932976D01*
X173267619Y-114932976D01*
X172267619Y-114456785D02*
X173267619Y-114456785D01*
X173267619Y-114218690D01*
X173220000Y-114075833D01*
X173124761Y-113980595D01*
X173029523Y-113932976D01*
X172839047Y-113885357D01*
X172696190Y-113885357D01*
X172505714Y-113932976D01*
X172410476Y-113980595D01*
X172315238Y-114075833D01*
X172267619Y-114218690D01*
X172267619Y-114456785D01*
X170680000Y-115980595D02*
X170727619Y-116075833D01*
X170727619Y-116218690D01*
X170680000Y-116361547D01*
X170584761Y-116456785D01*
X170489523Y-116504404D01*
X170299047Y-116552023D01*
X170156190Y-116552023D01*
X169965714Y-116504404D01*
X169870476Y-116456785D01*
X169775238Y-116361547D01*
X169727619Y-116218690D01*
X169727619Y-116123452D01*
X169775238Y-115980595D01*
X169822857Y-115932976D01*
X170156190Y-115932976D01*
X170156190Y-116123452D01*
X169727619Y-115504404D02*
X170727619Y-115504404D01*
X169727619Y-114932976D01*
X170727619Y-114932976D01*
X169727619Y-114456785D02*
X170727619Y-114456785D01*
X170727619Y-114218690D01*
X170680000Y-114075833D01*
X170584761Y-113980595D01*
X170489523Y-113932976D01*
X170299047Y-113885357D01*
X170156190Y-113885357D01*
X169965714Y-113932976D01*
X169870476Y-113980595D01*
X169775238Y-114075833D01*
X169727619Y-114218690D01*
X169727619Y-114456785D01*
X167187619Y-115932976D02*
X167663809Y-116266309D01*
X167187619Y-116504404D02*
X168187619Y-116504404D01*
X168187619Y-116123452D01*
X168140000Y-116028214D01*
X168092380Y-115980595D01*
X167997142Y-115932976D01*
X167854285Y-115932976D01*
X167759047Y-115980595D01*
X167711428Y-116028214D01*
X167663809Y-116123452D01*
X167663809Y-116504404D01*
X168187619Y-115599642D02*
X167187619Y-114932976D01*
X168187619Y-114932976D02*
X167187619Y-115599642D01*
X167187619Y-114028214D02*
X167187619Y-114599642D01*
X167187619Y-114313928D02*
X168187619Y-114313928D01*
X168044761Y-114409166D01*
X167949523Y-114504404D01*
X167901904Y-114599642D01*
X168187619Y-113409166D02*
X168187619Y-113313928D01*
X168140000Y-113218690D01*
X168092380Y-113171071D01*
X167997142Y-113123452D01*
X167806666Y-113075833D01*
X167568571Y-113075833D01*
X167378095Y-113123452D01*
X167282857Y-113171071D01*
X167235238Y-113218690D01*
X167187619Y-113313928D01*
X167187619Y-113409166D01*
X167235238Y-113504404D01*
X167282857Y-113552023D01*
X167378095Y-113599642D01*
X167568571Y-113647261D01*
X167806666Y-113647261D01*
X167997142Y-113599642D01*
X168092380Y-113552023D01*
X168140000Y-113504404D01*
X168187619Y-113409166D01*
X167568571Y-112647261D02*
X167568571Y-111885357D01*
X164647619Y-115932976D02*
X165123809Y-116266309D01*
X164647619Y-116504404D02*
X165647619Y-116504404D01*
X165647619Y-116123452D01*
X165600000Y-116028214D01*
X165552380Y-115980595D01*
X165457142Y-115932976D01*
X165314285Y-115932976D01*
X165219047Y-115980595D01*
X165171428Y-116028214D01*
X165123809Y-116123452D01*
X165123809Y-116504404D01*
X165647619Y-115599642D02*
X164647619Y-114932976D01*
X165647619Y-114932976D02*
X164647619Y-115599642D01*
X164647619Y-114028214D02*
X164647619Y-114599642D01*
X164647619Y-114313928D02*
X165647619Y-114313928D01*
X165504761Y-114409166D01*
X165409523Y-114504404D01*
X165361904Y-114599642D01*
X165647619Y-113409166D02*
X165647619Y-113313928D01*
X165600000Y-113218690D01*
X165552380Y-113171071D01*
X165457142Y-113123452D01*
X165266666Y-113075833D01*
X165028571Y-113075833D01*
X164838095Y-113123452D01*
X164742857Y-113171071D01*
X164695238Y-113218690D01*
X164647619Y-113313928D01*
X164647619Y-113409166D01*
X164695238Y-113504404D01*
X164742857Y-113552023D01*
X164838095Y-113599642D01*
X165028571Y-113647261D01*
X165266666Y-113647261D01*
X165457142Y-113599642D01*
X165552380Y-113552023D01*
X165600000Y-113504404D01*
X165647619Y-113409166D01*
X165028571Y-112647261D02*
X165028571Y-111885357D01*
X164647619Y-112266309D02*
X165409523Y-112266309D01*
X163060000Y-115980595D02*
X163107619Y-116075833D01*
X163107619Y-116218690D01*
X163060000Y-116361547D01*
X162964761Y-116456785D01*
X162869523Y-116504404D01*
X162679047Y-116552023D01*
X162536190Y-116552023D01*
X162345714Y-116504404D01*
X162250476Y-116456785D01*
X162155238Y-116361547D01*
X162107619Y-116218690D01*
X162107619Y-116123452D01*
X162155238Y-115980595D01*
X162202857Y-115932976D01*
X162536190Y-115932976D01*
X162536190Y-116123452D01*
X162107619Y-115504404D02*
X163107619Y-115504404D01*
X162107619Y-114932976D01*
X163107619Y-114932976D01*
X162107619Y-114456785D02*
X163107619Y-114456785D01*
X163107619Y-114218690D01*
X163060000Y-114075833D01*
X162964761Y-113980595D01*
X162869523Y-113932976D01*
X162679047Y-113885357D01*
X162536190Y-113885357D01*
X162345714Y-113932976D01*
X162250476Y-113980595D01*
X162155238Y-114075833D01*
X162107619Y-114218690D01*
X162107619Y-114456785D01*
X160520000Y-115980595D02*
X160567619Y-116075833D01*
X160567619Y-116218690D01*
X160520000Y-116361547D01*
X160424761Y-116456785D01*
X160329523Y-116504404D01*
X160139047Y-116552023D01*
X159996190Y-116552023D01*
X159805714Y-116504404D01*
X159710476Y-116456785D01*
X159615238Y-116361547D01*
X159567619Y-116218690D01*
X159567619Y-116123452D01*
X159615238Y-115980595D01*
X159662857Y-115932976D01*
X159996190Y-115932976D01*
X159996190Y-116123452D01*
X159567619Y-115504404D02*
X160567619Y-115504404D01*
X159567619Y-114932976D01*
X160567619Y-114932976D01*
X159567619Y-114456785D02*
X160567619Y-114456785D01*
X160567619Y-114218690D01*
X160520000Y-114075833D01*
X160424761Y-113980595D01*
X160329523Y-113932976D01*
X160139047Y-113885357D01*
X159996190Y-113885357D01*
X159805714Y-113932976D01*
X159710476Y-113980595D01*
X159615238Y-114075833D01*
X159567619Y-114218690D01*
X159567619Y-114456785D01*
X157027619Y-115932976D02*
X157503809Y-116266309D01*
X157027619Y-116504404D02*
X158027619Y-116504404D01*
X158027619Y-116123452D01*
X157980000Y-116028214D01*
X157932380Y-115980595D01*
X157837142Y-115932976D01*
X157694285Y-115932976D01*
X157599047Y-115980595D01*
X157551428Y-116028214D01*
X157503809Y-116123452D01*
X157503809Y-116504404D01*
X158027619Y-115599642D02*
X157027619Y-114932976D01*
X158027619Y-114932976D02*
X157027619Y-115599642D01*
X157027619Y-114504404D02*
X157027619Y-114313928D01*
X157075238Y-114218690D01*
X157122857Y-114171071D01*
X157265714Y-114075833D01*
X157456190Y-114028214D01*
X157837142Y-114028214D01*
X157932380Y-114075833D01*
X157980000Y-114123452D01*
X158027619Y-114218690D01*
X158027619Y-114409166D01*
X157980000Y-114504404D01*
X157932380Y-114552023D01*
X157837142Y-114599642D01*
X157599047Y-114599642D01*
X157503809Y-114552023D01*
X157456190Y-114504404D01*
X157408571Y-114409166D01*
X157408571Y-114218690D01*
X157456190Y-114123452D01*
X157503809Y-114075833D01*
X157599047Y-114028214D01*
X157408571Y-113599642D02*
X157408571Y-112837738D01*
X154487619Y-115932976D02*
X154963809Y-116266309D01*
X154487619Y-116504404D02*
X155487619Y-116504404D01*
X155487619Y-116123452D01*
X155440000Y-116028214D01*
X155392380Y-115980595D01*
X155297142Y-115932976D01*
X155154285Y-115932976D01*
X155059047Y-115980595D01*
X155011428Y-116028214D01*
X154963809Y-116123452D01*
X154963809Y-116504404D01*
X155487619Y-115599642D02*
X154487619Y-114932976D01*
X155487619Y-114932976D02*
X154487619Y-115599642D01*
X154487619Y-114504404D02*
X154487619Y-114313928D01*
X154535238Y-114218690D01*
X154582857Y-114171071D01*
X154725714Y-114075833D01*
X154916190Y-114028214D01*
X155297142Y-114028214D01*
X155392380Y-114075833D01*
X155440000Y-114123452D01*
X155487619Y-114218690D01*
X155487619Y-114409166D01*
X155440000Y-114504404D01*
X155392380Y-114552023D01*
X155297142Y-114599642D01*
X155059047Y-114599642D01*
X154963809Y-114552023D01*
X154916190Y-114504404D01*
X154868571Y-114409166D01*
X154868571Y-114218690D01*
X154916190Y-114123452D01*
X154963809Y-114075833D01*
X155059047Y-114028214D01*
X154868571Y-113599642D02*
X154868571Y-112837738D01*
X154487619Y-113218690D02*
X155249523Y-113218690D01*
X152900000Y-115980595D02*
X152947619Y-116075833D01*
X152947619Y-116218690D01*
X152900000Y-116361547D01*
X152804761Y-116456785D01*
X152709523Y-116504404D01*
X152519047Y-116552023D01*
X152376190Y-116552023D01*
X152185714Y-116504404D01*
X152090476Y-116456785D01*
X151995238Y-116361547D01*
X151947619Y-116218690D01*
X151947619Y-116123452D01*
X151995238Y-115980595D01*
X152042857Y-115932976D01*
X152376190Y-115932976D01*
X152376190Y-116123452D01*
X151947619Y-115504404D02*
X152947619Y-115504404D01*
X151947619Y-114932976D01*
X152947619Y-114932976D01*
X151947619Y-114456785D02*
X152947619Y-114456785D01*
X152947619Y-114218690D01*
X152900000Y-114075833D01*
X152804761Y-113980595D01*
X152709523Y-113932976D01*
X152519047Y-113885357D01*
X152376190Y-113885357D01*
X152185714Y-113932976D01*
X152090476Y-113980595D01*
X151995238Y-114075833D01*
X151947619Y-114218690D01*
X151947619Y-114456785D01*
X150360000Y-115980595D02*
X150407619Y-116075833D01*
X150407619Y-116218690D01*
X150360000Y-116361547D01*
X150264761Y-116456785D01*
X150169523Y-116504404D01*
X149979047Y-116552023D01*
X149836190Y-116552023D01*
X149645714Y-116504404D01*
X149550476Y-116456785D01*
X149455238Y-116361547D01*
X149407619Y-116218690D01*
X149407619Y-116123452D01*
X149455238Y-115980595D01*
X149502857Y-115932976D01*
X149836190Y-115932976D01*
X149836190Y-116123452D01*
X149407619Y-115504404D02*
X150407619Y-115504404D01*
X149407619Y-114932976D01*
X150407619Y-114932976D01*
X149407619Y-114456785D02*
X150407619Y-114456785D01*
X150407619Y-114218690D01*
X150360000Y-114075833D01*
X150264761Y-113980595D01*
X150169523Y-113932976D01*
X149979047Y-113885357D01*
X149836190Y-113885357D01*
X149645714Y-113932976D01*
X149550476Y-113980595D01*
X149455238Y-114075833D01*
X149407619Y-114218690D01*
X149407619Y-114456785D01*
X146867619Y-115932976D02*
X147343809Y-116266309D01*
X146867619Y-116504404D02*
X147867619Y-116504404D01*
X147867619Y-116123452D01*
X147820000Y-116028214D01*
X147772380Y-115980595D01*
X147677142Y-115932976D01*
X147534285Y-115932976D01*
X147439047Y-115980595D01*
X147391428Y-116028214D01*
X147343809Y-116123452D01*
X147343809Y-116504404D01*
X147867619Y-115599642D02*
X146867619Y-114932976D01*
X147867619Y-114932976D02*
X146867619Y-115599642D01*
X147439047Y-114409166D02*
X147486666Y-114504404D01*
X147534285Y-114552023D01*
X147629523Y-114599642D01*
X147677142Y-114599642D01*
X147772380Y-114552023D01*
X147820000Y-114504404D01*
X147867619Y-114409166D01*
X147867619Y-114218690D01*
X147820000Y-114123452D01*
X147772380Y-114075833D01*
X147677142Y-114028214D01*
X147629523Y-114028214D01*
X147534285Y-114075833D01*
X147486666Y-114123452D01*
X147439047Y-114218690D01*
X147439047Y-114409166D01*
X147391428Y-114504404D01*
X147343809Y-114552023D01*
X147248571Y-114599642D01*
X147058095Y-114599642D01*
X146962857Y-114552023D01*
X146915238Y-114504404D01*
X146867619Y-114409166D01*
X146867619Y-114218690D01*
X146915238Y-114123452D01*
X146962857Y-114075833D01*
X147058095Y-114028214D01*
X147248571Y-114028214D01*
X147343809Y-114075833D01*
X147391428Y-114123452D01*
X147439047Y-114218690D01*
X147248571Y-113599642D02*
X147248571Y-112837738D01*
X144327619Y-115932976D02*
X144803809Y-116266309D01*
X144327619Y-116504404D02*
X145327619Y-116504404D01*
X145327619Y-116123452D01*
X145280000Y-116028214D01*
X145232380Y-115980595D01*
X145137142Y-115932976D01*
X144994285Y-115932976D01*
X144899047Y-115980595D01*
X144851428Y-116028214D01*
X144803809Y-116123452D01*
X144803809Y-116504404D01*
X145327619Y-115599642D02*
X144327619Y-114932976D01*
X145327619Y-114932976D02*
X144327619Y-115599642D01*
X144899047Y-114409166D02*
X144946666Y-114504404D01*
X144994285Y-114552023D01*
X145089523Y-114599642D01*
X145137142Y-114599642D01*
X145232380Y-114552023D01*
X145280000Y-114504404D01*
X145327619Y-114409166D01*
X145327619Y-114218690D01*
X145280000Y-114123452D01*
X145232380Y-114075833D01*
X145137142Y-114028214D01*
X145089523Y-114028214D01*
X144994285Y-114075833D01*
X144946666Y-114123452D01*
X144899047Y-114218690D01*
X144899047Y-114409166D01*
X144851428Y-114504404D01*
X144803809Y-114552023D01*
X144708571Y-114599642D01*
X144518095Y-114599642D01*
X144422857Y-114552023D01*
X144375238Y-114504404D01*
X144327619Y-114409166D01*
X144327619Y-114218690D01*
X144375238Y-114123452D01*
X144422857Y-114075833D01*
X144518095Y-114028214D01*
X144708571Y-114028214D01*
X144803809Y-114075833D01*
X144851428Y-114123452D01*
X144899047Y-114218690D01*
X144708571Y-113599642D02*
X144708571Y-112837738D01*
X144327619Y-113218690D02*
X145089523Y-113218690D01*
X142740000Y-115980595D02*
X142787619Y-116075833D01*
X142787619Y-116218690D01*
X142740000Y-116361547D01*
X142644761Y-116456785D01*
X142549523Y-116504404D01*
X142359047Y-116552023D01*
X142216190Y-116552023D01*
X142025714Y-116504404D01*
X141930476Y-116456785D01*
X141835238Y-116361547D01*
X141787619Y-116218690D01*
X141787619Y-116123452D01*
X141835238Y-115980595D01*
X141882857Y-115932976D01*
X142216190Y-115932976D01*
X142216190Y-116123452D01*
X141787619Y-115504404D02*
X142787619Y-115504404D01*
X141787619Y-114932976D01*
X142787619Y-114932976D01*
X141787619Y-114456785D02*
X142787619Y-114456785D01*
X142787619Y-114218690D01*
X142740000Y-114075833D01*
X142644761Y-113980595D01*
X142549523Y-113932976D01*
X142359047Y-113885357D01*
X142216190Y-113885357D01*
X142025714Y-113932976D01*
X141930476Y-113980595D01*
X141835238Y-114075833D01*
X141787619Y-114218690D01*
X141787619Y-114456785D01*
X139247619Y-115932976D02*
X139723809Y-116266309D01*
X139247619Y-116504404D02*
X140247619Y-116504404D01*
X140247619Y-116123452D01*
X140200000Y-116028214D01*
X140152380Y-115980595D01*
X140057142Y-115932976D01*
X139914285Y-115932976D01*
X139819047Y-115980595D01*
X139771428Y-116028214D01*
X139723809Y-116123452D01*
X139723809Y-116504404D01*
X139771428Y-115504404D02*
X139771428Y-115171071D01*
X139247619Y-115028214D02*
X139247619Y-115504404D01*
X140247619Y-115504404D01*
X140247619Y-115028214D01*
X139295238Y-114647261D02*
X139247619Y-114504404D01*
X139247619Y-114266309D01*
X139295238Y-114171071D01*
X139342857Y-114123452D01*
X139438095Y-114075833D01*
X139533333Y-114075833D01*
X139628571Y-114123452D01*
X139676190Y-114171071D01*
X139723809Y-114266309D01*
X139771428Y-114456785D01*
X139819047Y-114552023D01*
X139866666Y-114599642D01*
X139961904Y-114647261D01*
X140057142Y-114647261D01*
X140152380Y-114599642D01*
X140200000Y-114552023D01*
X140247619Y-114456785D01*
X140247619Y-114218690D01*
X140200000Y-114075833D01*
X139771428Y-113647261D02*
X139771428Y-113313928D01*
X139247619Y-113171071D02*
X139247619Y-113647261D01*
X140247619Y-113647261D01*
X140247619Y-113171071D01*
X139247619Y-112171071D02*
X139723809Y-112504404D01*
X139247619Y-112742500D02*
X140247619Y-112742500D01*
X140247619Y-112361547D01*
X140200000Y-112266309D01*
X140152380Y-112218690D01*
X140057142Y-112171071D01*
X139914285Y-112171071D01*
X139819047Y-112218690D01*
X139771428Y-112266309D01*
X139723809Y-112361547D01*
X139723809Y-112742500D01*
X140247619Y-111885357D02*
X139247619Y-111552023D01*
X140247619Y-111218690D01*
X139771428Y-110885357D02*
X139771428Y-110552023D01*
X139247619Y-110409166D02*
X139247619Y-110885357D01*
X140247619Y-110885357D01*
X140247619Y-110409166D01*
X139247619Y-109980595D02*
X140247619Y-109980595D01*
X140247619Y-109742500D01*
X140200000Y-109599642D01*
X140104761Y-109504404D01*
X140009523Y-109456785D01*
X139819047Y-109409166D01*
X139676190Y-109409166D01*
X139485714Y-109456785D01*
X139390476Y-109504404D01*
X139295238Y-109599642D01*
X139247619Y-109742500D01*
X139247619Y-109980595D01*
X137660000Y-115980595D02*
X137707619Y-116075833D01*
X137707619Y-116218690D01*
X137660000Y-116361547D01*
X137564761Y-116456785D01*
X137469523Y-116504404D01*
X137279047Y-116552023D01*
X137136190Y-116552023D01*
X136945714Y-116504404D01*
X136850476Y-116456785D01*
X136755238Y-116361547D01*
X136707619Y-116218690D01*
X136707619Y-116123452D01*
X136755238Y-115980595D01*
X136802857Y-115932976D01*
X137136190Y-115932976D01*
X137136190Y-116123452D01*
X136707619Y-115504404D02*
X137707619Y-115504404D01*
X136707619Y-114932976D01*
X137707619Y-114932976D01*
X136707619Y-114456785D02*
X137707619Y-114456785D01*
X137707619Y-114218690D01*
X137660000Y-114075833D01*
X137564761Y-113980595D01*
X137469523Y-113932976D01*
X137279047Y-113885357D01*
X137136190Y-113885357D01*
X136945714Y-113932976D01*
X136850476Y-113980595D01*
X136755238Y-114075833D01*
X136707619Y-114218690D01*
X136707619Y-114456785D01*
X134167619Y-115932976D02*
X134643809Y-116266309D01*
X134167619Y-116504404D02*
X135167619Y-116504404D01*
X135167619Y-116123452D01*
X135120000Y-116028214D01*
X135072380Y-115980595D01*
X134977142Y-115932976D01*
X134834285Y-115932976D01*
X134739047Y-115980595D01*
X134691428Y-116028214D01*
X134643809Y-116123452D01*
X134643809Y-116504404D01*
X135167619Y-115599642D02*
X134167619Y-114932976D01*
X135167619Y-114932976D02*
X134167619Y-115599642D01*
X135167619Y-114647261D02*
X135167619Y-113980595D01*
X134167619Y-114409166D01*
X134548571Y-113599642D02*
X134548571Y-112837738D01*
X131627619Y-115932976D02*
X132103809Y-116266309D01*
X131627619Y-116504404D02*
X132627619Y-116504404D01*
X132627619Y-116123452D01*
X132580000Y-116028214D01*
X132532380Y-115980595D01*
X132437142Y-115932976D01*
X132294285Y-115932976D01*
X132199047Y-115980595D01*
X132151428Y-116028214D01*
X132103809Y-116123452D01*
X132103809Y-116504404D01*
X132627619Y-115599642D02*
X131627619Y-114932976D01*
X132627619Y-114932976D02*
X131627619Y-115599642D01*
X132627619Y-114647261D02*
X132627619Y-113980595D01*
X131627619Y-114409166D01*
X132008571Y-113599642D02*
X132008571Y-112837738D01*
X131627619Y-113218690D02*
X132389523Y-113218690D01*
X130040000Y-115980595D02*
X130087619Y-116075833D01*
X130087619Y-116218690D01*
X130040000Y-116361547D01*
X129944761Y-116456785D01*
X129849523Y-116504404D01*
X129659047Y-116552023D01*
X129516190Y-116552023D01*
X129325714Y-116504404D01*
X129230476Y-116456785D01*
X129135238Y-116361547D01*
X129087619Y-116218690D01*
X129087619Y-116123452D01*
X129135238Y-115980595D01*
X129182857Y-115932976D01*
X129516190Y-115932976D01*
X129516190Y-116123452D01*
X129087619Y-115504404D02*
X130087619Y-115504404D01*
X129087619Y-114932976D01*
X130087619Y-114932976D01*
X129087619Y-114456785D02*
X130087619Y-114456785D01*
X130087619Y-114218690D01*
X130040000Y-114075833D01*
X129944761Y-113980595D01*
X129849523Y-113932976D01*
X129659047Y-113885357D01*
X129516190Y-113885357D01*
X129325714Y-113932976D01*
X129230476Y-113980595D01*
X129135238Y-114075833D01*
X129087619Y-114218690D01*
X129087619Y-114456785D01*
X127500000Y-115980595D02*
X127547619Y-116075833D01*
X127547619Y-116218690D01*
X127500000Y-116361547D01*
X127404761Y-116456785D01*
X127309523Y-116504404D01*
X127119047Y-116552023D01*
X126976190Y-116552023D01*
X126785714Y-116504404D01*
X126690476Y-116456785D01*
X126595238Y-116361547D01*
X126547619Y-116218690D01*
X126547619Y-116123452D01*
X126595238Y-115980595D01*
X126642857Y-115932976D01*
X126976190Y-115932976D01*
X126976190Y-116123452D01*
X126547619Y-115504404D02*
X127547619Y-115504404D01*
X126547619Y-114932976D01*
X127547619Y-114932976D01*
X126547619Y-114456785D02*
X127547619Y-114456785D01*
X127547619Y-114218690D01*
X127500000Y-114075833D01*
X127404761Y-113980595D01*
X127309523Y-113932976D01*
X127119047Y-113885357D01*
X126976190Y-113885357D01*
X126785714Y-113932976D01*
X126690476Y-113980595D01*
X126595238Y-114075833D01*
X126547619Y-114218690D01*
X126547619Y-114456785D01*
X124007619Y-115932976D02*
X124483809Y-116266309D01*
X124007619Y-116504404D02*
X125007619Y-116504404D01*
X125007619Y-116123452D01*
X124960000Y-116028214D01*
X124912380Y-115980595D01*
X124817142Y-115932976D01*
X124674285Y-115932976D01*
X124579047Y-115980595D01*
X124531428Y-116028214D01*
X124483809Y-116123452D01*
X124483809Y-116504404D01*
X125007619Y-115599642D02*
X124007619Y-114932976D01*
X125007619Y-114932976D02*
X124007619Y-115599642D01*
X125007619Y-114123452D02*
X125007619Y-114313928D01*
X124960000Y-114409166D01*
X124912380Y-114456785D01*
X124769523Y-114552023D01*
X124579047Y-114599642D01*
X124198095Y-114599642D01*
X124102857Y-114552023D01*
X124055238Y-114504404D01*
X124007619Y-114409166D01*
X124007619Y-114218690D01*
X124055238Y-114123452D01*
X124102857Y-114075833D01*
X124198095Y-114028214D01*
X124436190Y-114028214D01*
X124531428Y-114075833D01*
X124579047Y-114123452D01*
X124626666Y-114218690D01*
X124626666Y-114409166D01*
X124579047Y-114504404D01*
X124531428Y-114552023D01*
X124436190Y-114599642D01*
X124388571Y-113599642D02*
X124388571Y-112837738D01*
X121467619Y-115932976D02*
X121943809Y-116266309D01*
X121467619Y-116504404D02*
X122467619Y-116504404D01*
X122467619Y-116123452D01*
X122420000Y-116028214D01*
X122372380Y-115980595D01*
X122277142Y-115932976D01*
X122134285Y-115932976D01*
X122039047Y-115980595D01*
X121991428Y-116028214D01*
X121943809Y-116123452D01*
X121943809Y-116504404D01*
X122467619Y-115599642D02*
X121467619Y-114932976D01*
X122467619Y-114932976D02*
X121467619Y-115599642D01*
X122467619Y-114123452D02*
X122467619Y-114313928D01*
X122420000Y-114409166D01*
X122372380Y-114456785D01*
X122229523Y-114552023D01*
X122039047Y-114599642D01*
X121658095Y-114599642D01*
X121562857Y-114552023D01*
X121515238Y-114504404D01*
X121467619Y-114409166D01*
X121467619Y-114218690D01*
X121515238Y-114123452D01*
X121562857Y-114075833D01*
X121658095Y-114028214D01*
X121896190Y-114028214D01*
X121991428Y-114075833D01*
X122039047Y-114123452D01*
X122086666Y-114218690D01*
X122086666Y-114409166D01*
X122039047Y-114504404D01*
X121991428Y-114552023D01*
X121896190Y-114599642D01*
X121848571Y-113599642D02*
X121848571Y-112837738D01*
X121467619Y-113218690D02*
X122229523Y-113218690D01*
X119880000Y-115980595D02*
X119927619Y-116075833D01*
X119927619Y-116218690D01*
X119880000Y-116361547D01*
X119784761Y-116456785D01*
X119689523Y-116504404D01*
X119499047Y-116552023D01*
X119356190Y-116552023D01*
X119165714Y-116504404D01*
X119070476Y-116456785D01*
X118975238Y-116361547D01*
X118927619Y-116218690D01*
X118927619Y-116123452D01*
X118975238Y-115980595D01*
X119022857Y-115932976D01*
X119356190Y-115932976D01*
X119356190Y-116123452D01*
X118927619Y-115504404D02*
X119927619Y-115504404D01*
X118927619Y-114932976D01*
X119927619Y-114932976D01*
X118927619Y-114456785D02*
X119927619Y-114456785D01*
X119927619Y-114218690D01*
X119880000Y-114075833D01*
X119784761Y-113980595D01*
X119689523Y-113932976D01*
X119499047Y-113885357D01*
X119356190Y-113885357D01*
X119165714Y-113932976D01*
X119070476Y-113980595D01*
X118975238Y-114075833D01*
X118927619Y-114218690D01*
X118927619Y-114456785D01*
X117340000Y-115980595D02*
X117387619Y-116075833D01*
X117387619Y-116218690D01*
X117340000Y-116361547D01*
X117244761Y-116456785D01*
X117149523Y-116504404D01*
X116959047Y-116552023D01*
X116816190Y-116552023D01*
X116625714Y-116504404D01*
X116530476Y-116456785D01*
X116435238Y-116361547D01*
X116387619Y-116218690D01*
X116387619Y-116123452D01*
X116435238Y-115980595D01*
X116482857Y-115932976D01*
X116816190Y-115932976D01*
X116816190Y-116123452D01*
X116387619Y-115504404D02*
X117387619Y-115504404D01*
X116387619Y-114932976D01*
X117387619Y-114932976D01*
X116387619Y-114456785D02*
X117387619Y-114456785D01*
X117387619Y-114218690D01*
X117340000Y-114075833D01*
X117244761Y-113980595D01*
X117149523Y-113932976D01*
X116959047Y-113885357D01*
X116816190Y-113885357D01*
X116625714Y-113932976D01*
X116530476Y-113980595D01*
X116435238Y-114075833D01*
X116387619Y-114218690D01*
X116387619Y-114456785D01*
X113847619Y-115932976D02*
X114323809Y-116266309D01*
X113847619Y-116504404D02*
X114847619Y-116504404D01*
X114847619Y-116123452D01*
X114800000Y-116028214D01*
X114752380Y-115980595D01*
X114657142Y-115932976D01*
X114514285Y-115932976D01*
X114419047Y-115980595D01*
X114371428Y-116028214D01*
X114323809Y-116123452D01*
X114323809Y-116504404D01*
X114847619Y-115599642D02*
X113847619Y-114932976D01*
X114847619Y-114932976D02*
X113847619Y-115599642D01*
X114847619Y-114075833D02*
X114847619Y-114552023D01*
X114371428Y-114599642D01*
X114419047Y-114552023D01*
X114466666Y-114456785D01*
X114466666Y-114218690D01*
X114419047Y-114123452D01*
X114371428Y-114075833D01*
X114276190Y-114028214D01*
X114038095Y-114028214D01*
X113942857Y-114075833D01*
X113895238Y-114123452D01*
X113847619Y-114218690D01*
X113847619Y-114456785D01*
X113895238Y-114552023D01*
X113942857Y-114599642D01*
X114228571Y-113599642D02*
X114228571Y-112837738D01*
X111307619Y-115932976D02*
X111783809Y-116266309D01*
X111307619Y-116504404D02*
X112307619Y-116504404D01*
X112307619Y-116123452D01*
X112260000Y-116028214D01*
X112212380Y-115980595D01*
X112117142Y-115932976D01*
X111974285Y-115932976D01*
X111879047Y-115980595D01*
X111831428Y-116028214D01*
X111783809Y-116123452D01*
X111783809Y-116504404D01*
X112307619Y-115599642D02*
X111307619Y-114932976D01*
X112307619Y-114932976D02*
X111307619Y-115599642D01*
X112307619Y-114075833D02*
X112307619Y-114552023D01*
X111831428Y-114599642D01*
X111879047Y-114552023D01*
X111926666Y-114456785D01*
X111926666Y-114218690D01*
X111879047Y-114123452D01*
X111831428Y-114075833D01*
X111736190Y-114028214D01*
X111498095Y-114028214D01*
X111402857Y-114075833D01*
X111355238Y-114123452D01*
X111307619Y-114218690D01*
X111307619Y-114456785D01*
X111355238Y-114552023D01*
X111402857Y-114599642D01*
X111688571Y-113599642D02*
X111688571Y-112837738D01*
X111307619Y-113218690D02*
X112069523Y-113218690D01*
X109720000Y-115980595D02*
X109767619Y-116075833D01*
X109767619Y-116218690D01*
X109720000Y-116361547D01*
X109624761Y-116456785D01*
X109529523Y-116504404D01*
X109339047Y-116552023D01*
X109196190Y-116552023D01*
X109005714Y-116504404D01*
X108910476Y-116456785D01*
X108815238Y-116361547D01*
X108767619Y-116218690D01*
X108767619Y-116123452D01*
X108815238Y-115980595D01*
X108862857Y-115932976D01*
X109196190Y-115932976D01*
X109196190Y-116123452D01*
X108767619Y-115504404D02*
X109767619Y-115504404D01*
X108767619Y-114932976D01*
X109767619Y-114932976D01*
X108767619Y-114456785D02*
X109767619Y-114456785D01*
X109767619Y-114218690D01*
X109720000Y-114075833D01*
X109624761Y-113980595D01*
X109529523Y-113932976D01*
X109339047Y-113885357D01*
X109196190Y-113885357D01*
X109005714Y-113932976D01*
X108910476Y-113980595D01*
X108815238Y-114075833D01*
X108767619Y-114218690D01*
X108767619Y-114456785D01*
X107180000Y-115980595D02*
X107227619Y-116075833D01*
X107227619Y-116218690D01*
X107180000Y-116361547D01*
X107084761Y-116456785D01*
X106989523Y-116504404D01*
X106799047Y-116552023D01*
X106656190Y-116552023D01*
X106465714Y-116504404D01*
X106370476Y-116456785D01*
X106275238Y-116361547D01*
X106227619Y-116218690D01*
X106227619Y-116123452D01*
X106275238Y-115980595D01*
X106322857Y-115932976D01*
X106656190Y-115932976D01*
X106656190Y-116123452D01*
X106227619Y-115504404D02*
X107227619Y-115504404D01*
X106227619Y-114932976D01*
X107227619Y-114932976D01*
X106227619Y-114456785D02*
X107227619Y-114456785D01*
X107227619Y-114218690D01*
X107180000Y-114075833D01*
X107084761Y-113980595D01*
X106989523Y-113932976D01*
X106799047Y-113885357D01*
X106656190Y-113885357D01*
X106465714Y-113932976D01*
X106370476Y-113980595D01*
X106275238Y-114075833D01*
X106227619Y-114218690D01*
X106227619Y-114456785D01*
X103687619Y-115932976D02*
X104163809Y-116266309D01*
X103687619Y-116504404D02*
X104687619Y-116504404D01*
X104687619Y-116123452D01*
X104640000Y-116028214D01*
X104592380Y-115980595D01*
X104497142Y-115932976D01*
X104354285Y-115932976D01*
X104259047Y-115980595D01*
X104211428Y-116028214D01*
X104163809Y-116123452D01*
X104163809Y-116504404D01*
X104687619Y-115599642D02*
X103687619Y-114932976D01*
X104687619Y-114932976D02*
X103687619Y-115599642D01*
X104354285Y-114123452D02*
X103687619Y-114123452D01*
X104735238Y-114361547D02*
X104020952Y-114599642D01*
X104020952Y-113980595D01*
X104068571Y-113599642D02*
X104068571Y-112837738D01*
X101147619Y-115932976D02*
X101623809Y-116266309D01*
X101147619Y-116504404D02*
X102147619Y-116504404D01*
X102147619Y-116123452D01*
X102100000Y-116028214D01*
X102052380Y-115980595D01*
X101957142Y-115932976D01*
X101814285Y-115932976D01*
X101719047Y-115980595D01*
X101671428Y-116028214D01*
X101623809Y-116123452D01*
X101623809Y-116504404D01*
X102147619Y-115599642D02*
X101147619Y-114932976D01*
X102147619Y-114932976D02*
X101147619Y-115599642D01*
X101814285Y-114123452D02*
X101147619Y-114123452D01*
X102195238Y-114361547D02*
X101480952Y-114599642D01*
X101480952Y-113980595D01*
X101528571Y-113599642D02*
X101528571Y-112837738D01*
X101147619Y-113218690D02*
X101909523Y-113218690D01*
X99560000Y-115980595D02*
X99607619Y-116075833D01*
X99607619Y-116218690D01*
X99560000Y-116361547D01*
X99464761Y-116456785D01*
X99369523Y-116504404D01*
X99179047Y-116552023D01*
X99036190Y-116552023D01*
X98845714Y-116504404D01*
X98750476Y-116456785D01*
X98655238Y-116361547D01*
X98607619Y-116218690D01*
X98607619Y-116123452D01*
X98655238Y-115980595D01*
X98702857Y-115932976D01*
X99036190Y-115932976D01*
X99036190Y-116123452D01*
X98607619Y-115504404D02*
X99607619Y-115504404D01*
X98607619Y-114932976D01*
X99607619Y-114932976D01*
X98607619Y-114456785D02*
X99607619Y-114456785D01*
X99607619Y-114218690D01*
X99560000Y-114075833D01*
X99464761Y-113980595D01*
X99369523Y-113932976D01*
X99179047Y-113885357D01*
X99036190Y-113885357D01*
X98845714Y-113932976D01*
X98750476Y-113980595D01*
X98655238Y-114075833D01*
X98607619Y-114218690D01*
X98607619Y-114456785D01*
X96067619Y-115932976D02*
X96543809Y-116266309D01*
X96067619Y-116504404D02*
X97067619Y-116504404D01*
X97067619Y-116123452D01*
X97020000Y-116028214D01*
X96972380Y-115980595D01*
X96877142Y-115932976D01*
X96734285Y-115932976D01*
X96639047Y-115980595D01*
X96591428Y-116028214D01*
X96543809Y-116123452D01*
X96543809Y-116504404D01*
X96591428Y-115504404D02*
X96591428Y-115171071D01*
X96067619Y-115028214D02*
X96067619Y-115504404D01*
X97067619Y-115504404D01*
X97067619Y-115028214D01*
X96115238Y-114647261D02*
X96067619Y-114504404D01*
X96067619Y-114266309D01*
X96115238Y-114171071D01*
X96162857Y-114123452D01*
X96258095Y-114075833D01*
X96353333Y-114075833D01*
X96448571Y-114123452D01*
X96496190Y-114171071D01*
X96543809Y-114266309D01*
X96591428Y-114456785D01*
X96639047Y-114552023D01*
X96686666Y-114599642D01*
X96781904Y-114647261D01*
X96877142Y-114647261D01*
X96972380Y-114599642D01*
X97020000Y-114552023D01*
X97067619Y-114456785D01*
X97067619Y-114218690D01*
X97020000Y-114075833D01*
X96591428Y-113647261D02*
X96591428Y-113313928D01*
X96067619Y-113171071D02*
X96067619Y-113647261D01*
X97067619Y-113647261D01*
X97067619Y-113171071D01*
X96067619Y-112171071D02*
X96543809Y-112504404D01*
X96067619Y-112742500D02*
X97067619Y-112742500D01*
X97067619Y-112361547D01*
X97020000Y-112266309D01*
X96972380Y-112218690D01*
X96877142Y-112171071D01*
X96734285Y-112171071D01*
X96639047Y-112218690D01*
X96591428Y-112266309D01*
X96543809Y-112361547D01*
X96543809Y-112742500D01*
X97067619Y-111885357D02*
X96067619Y-111552023D01*
X97067619Y-111218690D01*
X96591428Y-110885357D02*
X96591428Y-110552023D01*
X96067619Y-110409166D02*
X96067619Y-110885357D01*
X97067619Y-110885357D01*
X97067619Y-110409166D01*
X96067619Y-109980595D02*
X97067619Y-109980595D01*
X97067619Y-109742500D01*
X97020000Y-109599642D01*
X96924761Y-109504404D01*
X96829523Y-109456785D01*
X96639047Y-109409166D01*
X96496190Y-109409166D01*
X96305714Y-109456785D01*
X96210476Y-109504404D01*
X96115238Y-109599642D01*
X96067619Y-109742500D01*
X96067619Y-109980595D01*
X93527619Y-115932976D02*
X94003809Y-116266309D01*
X93527619Y-116504404D02*
X94527619Y-116504404D01*
X94527619Y-116123452D01*
X94480000Y-116028214D01*
X94432380Y-115980595D01*
X94337142Y-115932976D01*
X94194285Y-115932976D01*
X94099047Y-115980595D01*
X94051428Y-116028214D01*
X94003809Y-116123452D01*
X94003809Y-116504404D01*
X94051428Y-115504404D02*
X94051428Y-115171071D01*
X93527619Y-115028214D02*
X93527619Y-115504404D01*
X94527619Y-115504404D01*
X94527619Y-115028214D01*
X93575238Y-114647261D02*
X93527619Y-114504404D01*
X93527619Y-114266309D01*
X93575238Y-114171071D01*
X93622857Y-114123452D01*
X93718095Y-114075833D01*
X93813333Y-114075833D01*
X93908571Y-114123452D01*
X93956190Y-114171071D01*
X94003809Y-114266309D01*
X94051428Y-114456785D01*
X94099047Y-114552023D01*
X94146666Y-114599642D01*
X94241904Y-114647261D01*
X94337142Y-114647261D01*
X94432380Y-114599642D01*
X94480000Y-114552023D01*
X94527619Y-114456785D01*
X94527619Y-114218690D01*
X94480000Y-114075833D01*
X94051428Y-113647261D02*
X94051428Y-113313928D01*
X93527619Y-113171071D02*
X93527619Y-113647261D01*
X94527619Y-113647261D01*
X94527619Y-113171071D01*
X93527619Y-112171071D02*
X94003809Y-112504404D01*
X93527619Y-112742500D02*
X94527619Y-112742500D01*
X94527619Y-112361547D01*
X94480000Y-112266309D01*
X94432380Y-112218690D01*
X94337142Y-112171071D01*
X94194285Y-112171071D01*
X94099047Y-112218690D01*
X94051428Y-112266309D01*
X94003809Y-112361547D01*
X94003809Y-112742500D01*
X94527619Y-111885357D02*
X93527619Y-111552023D01*
X94527619Y-111218690D01*
X94051428Y-110885357D02*
X94051428Y-110552023D01*
X93527619Y-110409166D02*
X93527619Y-110885357D01*
X94527619Y-110885357D01*
X94527619Y-110409166D01*
X93527619Y-109980595D02*
X94527619Y-109980595D01*
X94527619Y-109742500D01*
X94480000Y-109599642D01*
X94384761Y-109504404D01*
X94289523Y-109456785D01*
X94099047Y-109409166D01*
X93956190Y-109409166D01*
X93765714Y-109456785D01*
X93670476Y-109504404D01*
X93575238Y-109599642D01*
X93527619Y-109742500D01*
X93527619Y-109980595D01*
X91940000Y-115980595D02*
X91987619Y-116075833D01*
X91987619Y-116218690D01*
X91940000Y-116361547D01*
X91844761Y-116456785D01*
X91749523Y-116504404D01*
X91559047Y-116552023D01*
X91416190Y-116552023D01*
X91225714Y-116504404D01*
X91130476Y-116456785D01*
X91035238Y-116361547D01*
X90987619Y-116218690D01*
X90987619Y-116123452D01*
X91035238Y-115980595D01*
X91082857Y-115932976D01*
X91416190Y-115932976D01*
X91416190Y-116123452D01*
X90987619Y-115504404D02*
X91987619Y-115504404D01*
X90987619Y-114932976D01*
X91987619Y-114932976D01*
X90987619Y-114456785D02*
X91987619Y-114456785D01*
X91987619Y-114218690D01*
X91940000Y-114075833D01*
X91844761Y-113980595D01*
X91749523Y-113932976D01*
X91559047Y-113885357D01*
X91416190Y-113885357D01*
X91225714Y-113932976D01*
X91130476Y-113980595D01*
X91035238Y-114075833D01*
X90987619Y-114218690D01*
X90987619Y-114456785D01*
X88447619Y-115932976D02*
X88923809Y-116266309D01*
X88447619Y-116504404D02*
X89447619Y-116504404D01*
X89447619Y-116123452D01*
X89400000Y-116028214D01*
X89352380Y-115980595D01*
X89257142Y-115932976D01*
X89114285Y-115932976D01*
X89019047Y-115980595D01*
X88971428Y-116028214D01*
X88923809Y-116123452D01*
X88923809Y-116504404D01*
X89447619Y-115599642D02*
X88447619Y-114932976D01*
X89447619Y-114932976D02*
X88447619Y-115599642D01*
X89447619Y-114647261D02*
X89447619Y-114028214D01*
X89066666Y-114361547D01*
X89066666Y-114218690D01*
X89019047Y-114123452D01*
X88971428Y-114075833D01*
X88876190Y-114028214D01*
X88638095Y-114028214D01*
X88542857Y-114075833D01*
X88495238Y-114123452D01*
X88447619Y-114218690D01*
X88447619Y-114504404D01*
X88495238Y-114599642D01*
X88542857Y-114647261D01*
X88828571Y-113599642D02*
X88828571Y-112837738D01*
X85907619Y-115932976D02*
X86383809Y-116266309D01*
X85907619Y-116504404D02*
X86907619Y-116504404D01*
X86907619Y-116123452D01*
X86860000Y-116028214D01*
X86812380Y-115980595D01*
X86717142Y-115932976D01*
X86574285Y-115932976D01*
X86479047Y-115980595D01*
X86431428Y-116028214D01*
X86383809Y-116123452D01*
X86383809Y-116504404D01*
X86907619Y-115599642D02*
X85907619Y-114932976D01*
X86907619Y-114932976D02*
X85907619Y-115599642D01*
X86907619Y-114647261D02*
X86907619Y-114028214D01*
X86526666Y-114361547D01*
X86526666Y-114218690D01*
X86479047Y-114123452D01*
X86431428Y-114075833D01*
X86336190Y-114028214D01*
X86098095Y-114028214D01*
X86002857Y-114075833D01*
X85955238Y-114123452D01*
X85907619Y-114218690D01*
X85907619Y-114504404D01*
X85955238Y-114599642D01*
X86002857Y-114647261D01*
X86288571Y-113599642D02*
X86288571Y-112837738D01*
X85907619Y-113218690D02*
X86669523Y-113218690D01*
X84320000Y-115980595D02*
X84367619Y-116075833D01*
X84367619Y-116218690D01*
X84320000Y-116361547D01*
X84224761Y-116456785D01*
X84129523Y-116504404D01*
X83939047Y-116552023D01*
X83796190Y-116552023D01*
X83605714Y-116504404D01*
X83510476Y-116456785D01*
X83415238Y-116361547D01*
X83367619Y-116218690D01*
X83367619Y-116123452D01*
X83415238Y-115980595D01*
X83462857Y-115932976D01*
X83796190Y-115932976D01*
X83796190Y-116123452D01*
X83367619Y-115504404D02*
X84367619Y-115504404D01*
X83367619Y-114932976D01*
X84367619Y-114932976D01*
X83367619Y-114456785D02*
X84367619Y-114456785D01*
X84367619Y-114218690D01*
X84320000Y-114075833D01*
X84224761Y-113980595D01*
X84129523Y-113932976D01*
X83939047Y-113885357D01*
X83796190Y-113885357D01*
X83605714Y-113932976D01*
X83510476Y-113980595D01*
X83415238Y-114075833D01*
X83367619Y-114218690D01*
X83367619Y-114456785D01*
X81780000Y-115980595D02*
X81827619Y-116075833D01*
X81827619Y-116218690D01*
X81780000Y-116361547D01*
X81684761Y-116456785D01*
X81589523Y-116504404D01*
X81399047Y-116552023D01*
X81256190Y-116552023D01*
X81065714Y-116504404D01*
X80970476Y-116456785D01*
X80875238Y-116361547D01*
X80827619Y-116218690D01*
X80827619Y-116123452D01*
X80875238Y-115980595D01*
X80922857Y-115932976D01*
X81256190Y-115932976D01*
X81256190Y-116123452D01*
X80827619Y-115504404D02*
X81827619Y-115504404D01*
X80827619Y-114932976D01*
X81827619Y-114932976D01*
X80827619Y-114456785D02*
X81827619Y-114456785D01*
X81827619Y-114218690D01*
X81780000Y-114075833D01*
X81684761Y-113980595D01*
X81589523Y-113932976D01*
X81399047Y-113885357D01*
X81256190Y-113885357D01*
X81065714Y-113932976D01*
X80970476Y-113980595D01*
X80875238Y-114075833D01*
X80827619Y-114218690D01*
X80827619Y-114456785D01*
X78287619Y-115932976D02*
X78763809Y-116266309D01*
X78287619Y-116504404D02*
X79287619Y-116504404D01*
X79287619Y-116123452D01*
X79240000Y-116028214D01*
X79192380Y-115980595D01*
X79097142Y-115932976D01*
X78954285Y-115932976D01*
X78859047Y-115980595D01*
X78811428Y-116028214D01*
X78763809Y-116123452D01*
X78763809Y-116504404D01*
X79287619Y-115599642D02*
X78287619Y-114932976D01*
X79287619Y-114932976D02*
X78287619Y-115599642D01*
X79192380Y-114599642D02*
X79240000Y-114552023D01*
X79287619Y-114456785D01*
X79287619Y-114218690D01*
X79240000Y-114123452D01*
X79192380Y-114075833D01*
X79097142Y-114028214D01*
X79001904Y-114028214D01*
X78859047Y-114075833D01*
X78287619Y-114647261D01*
X78287619Y-114028214D01*
X78668571Y-113599642D02*
X78668571Y-112837738D01*
X75747619Y-115932976D02*
X76223809Y-116266309D01*
X75747619Y-116504404D02*
X76747619Y-116504404D01*
X76747619Y-116123452D01*
X76700000Y-116028214D01*
X76652380Y-115980595D01*
X76557142Y-115932976D01*
X76414285Y-115932976D01*
X76319047Y-115980595D01*
X76271428Y-116028214D01*
X76223809Y-116123452D01*
X76223809Y-116504404D01*
X76747619Y-115599642D02*
X75747619Y-114932976D01*
X76747619Y-114932976D02*
X75747619Y-115599642D01*
X76652380Y-114599642D02*
X76700000Y-114552023D01*
X76747619Y-114456785D01*
X76747619Y-114218690D01*
X76700000Y-114123452D01*
X76652380Y-114075833D01*
X76557142Y-114028214D01*
X76461904Y-114028214D01*
X76319047Y-114075833D01*
X75747619Y-114647261D01*
X75747619Y-114028214D01*
X76128571Y-113599642D02*
X76128571Y-112837738D01*
X75747619Y-113218690D02*
X76509523Y-113218690D01*
X74160000Y-115980595D02*
X74207619Y-116075833D01*
X74207619Y-116218690D01*
X74160000Y-116361547D01*
X74064761Y-116456785D01*
X73969523Y-116504404D01*
X73779047Y-116552023D01*
X73636190Y-116552023D01*
X73445714Y-116504404D01*
X73350476Y-116456785D01*
X73255238Y-116361547D01*
X73207619Y-116218690D01*
X73207619Y-116123452D01*
X73255238Y-115980595D01*
X73302857Y-115932976D01*
X73636190Y-115932976D01*
X73636190Y-116123452D01*
X73207619Y-115504404D02*
X74207619Y-115504404D01*
X73207619Y-114932976D01*
X74207619Y-114932976D01*
X73207619Y-114456785D02*
X74207619Y-114456785D01*
X74207619Y-114218690D01*
X74160000Y-114075833D01*
X74064761Y-113980595D01*
X73969523Y-113932976D01*
X73779047Y-113885357D01*
X73636190Y-113885357D01*
X73445714Y-113932976D01*
X73350476Y-113980595D01*
X73255238Y-114075833D01*
X73207619Y-114218690D01*
X73207619Y-114456785D01*
X71620000Y-115980595D02*
X71667619Y-116075833D01*
X71667619Y-116218690D01*
X71620000Y-116361547D01*
X71524761Y-116456785D01*
X71429523Y-116504404D01*
X71239047Y-116552023D01*
X71096190Y-116552023D01*
X70905714Y-116504404D01*
X70810476Y-116456785D01*
X70715238Y-116361547D01*
X70667619Y-116218690D01*
X70667619Y-116123452D01*
X70715238Y-115980595D01*
X70762857Y-115932976D01*
X71096190Y-115932976D01*
X71096190Y-116123452D01*
X70667619Y-115504404D02*
X71667619Y-115504404D01*
X70667619Y-114932976D01*
X71667619Y-114932976D01*
X70667619Y-114456785D02*
X71667619Y-114456785D01*
X71667619Y-114218690D01*
X71620000Y-114075833D01*
X71524761Y-113980595D01*
X71429523Y-113932976D01*
X71239047Y-113885357D01*
X71096190Y-113885357D01*
X70905714Y-113932976D01*
X70810476Y-113980595D01*
X70715238Y-114075833D01*
X70667619Y-114218690D01*
X70667619Y-114456785D01*
X68127619Y-115932976D02*
X68603809Y-116266309D01*
X68127619Y-116504404D02*
X69127619Y-116504404D01*
X69127619Y-116123452D01*
X69080000Y-116028214D01*
X69032380Y-115980595D01*
X68937142Y-115932976D01*
X68794285Y-115932976D01*
X68699047Y-115980595D01*
X68651428Y-116028214D01*
X68603809Y-116123452D01*
X68603809Y-116504404D01*
X69127619Y-115599642D02*
X68127619Y-114932976D01*
X69127619Y-114932976D02*
X68127619Y-115599642D01*
X68127619Y-114028214D02*
X68127619Y-114599642D01*
X68127619Y-114313928D02*
X69127619Y-114313928D01*
X68984761Y-114409166D01*
X68889523Y-114504404D01*
X68841904Y-114599642D01*
X68508571Y-113599642D02*
X68508571Y-112837738D01*
X65587619Y-115932976D02*
X66063809Y-116266309D01*
X65587619Y-116504404D02*
X66587619Y-116504404D01*
X66587619Y-116123452D01*
X66540000Y-116028214D01*
X66492380Y-115980595D01*
X66397142Y-115932976D01*
X66254285Y-115932976D01*
X66159047Y-115980595D01*
X66111428Y-116028214D01*
X66063809Y-116123452D01*
X66063809Y-116504404D01*
X66587619Y-115599642D02*
X65587619Y-114932976D01*
X66587619Y-114932976D02*
X65587619Y-115599642D01*
X65587619Y-114028214D02*
X65587619Y-114599642D01*
X65587619Y-114313928D02*
X66587619Y-114313928D01*
X66444761Y-114409166D01*
X66349523Y-114504404D01*
X66301904Y-114599642D01*
X65968571Y-113599642D02*
X65968571Y-112837738D01*
X65587619Y-113218690D02*
X66349523Y-113218690D01*
X64000000Y-115980595D02*
X64047619Y-116075833D01*
X64047619Y-116218690D01*
X64000000Y-116361547D01*
X63904761Y-116456785D01*
X63809523Y-116504404D01*
X63619047Y-116552023D01*
X63476190Y-116552023D01*
X63285714Y-116504404D01*
X63190476Y-116456785D01*
X63095238Y-116361547D01*
X63047619Y-116218690D01*
X63047619Y-116123452D01*
X63095238Y-115980595D01*
X63142857Y-115932976D01*
X63476190Y-115932976D01*
X63476190Y-116123452D01*
X63047619Y-115504404D02*
X64047619Y-115504404D01*
X63047619Y-114932976D01*
X64047619Y-114932976D01*
X63047619Y-114456785D02*
X64047619Y-114456785D01*
X64047619Y-114218690D01*
X64000000Y-114075833D01*
X63904761Y-113980595D01*
X63809523Y-113932976D01*
X63619047Y-113885357D01*
X63476190Y-113885357D01*
X63285714Y-113932976D01*
X63190476Y-113980595D01*
X63095238Y-114075833D01*
X63047619Y-114218690D01*
X63047619Y-114456785D01*
X60507619Y-115932976D02*
X60983809Y-116266309D01*
X60507619Y-116504404D02*
X61507619Y-116504404D01*
X61507619Y-116123452D01*
X61460000Y-116028214D01*
X61412380Y-115980595D01*
X61317142Y-115932976D01*
X61174285Y-115932976D01*
X61079047Y-115980595D01*
X61031428Y-116028214D01*
X60983809Y-116123452D01*
X60983809Y-116504404D01*
X61031428Y-115504404D02*
X61031428Y-115171071D01*
X60507619Y-115028214D02*
X60507619Y-115504404D01*
X61507619Y-115504404D01*
X61507619Y-115028214D01*
X60555238Y-114647261D02*
X60507619Y-114504404D01*
X60507619Y-114266309D01*
X60555238Y-114171071D01*
X60602857Y-114123452D01*
X60698095Y-114075833D01*
X60793333Y-114075833D01*
X60888571Y-114123452D01*
X60936190Y-114171071D01*
X60983809Y-114266309D01*
X61031428Y-114456785D01*
X61079047Y-114552023D01*
X61126666Y-114599642D01*
X61221904Y-114647261D01*
X61317142Y-114647261D01*
X61412380Y-114599642D01*
X61460000Y-114552023D01*
X61507619Y-114456785D01*
X61507619Y-114218690D01*
X61460000Y-114075833D01*
X61031428Y-113647261D02*
X61031428Y-113313928D01*
X60507619Y-113171071D02*
X60507619Y-113647261D01*
X61507619Y-113647261D01*
X61507619Y-113171071D01*
X60507619Y-112171071D02*
X60983809Y-112504404D01*
X60507619Y-112742500D02*
X61507619Y-112742500D01*
X61507619Y-112361547D01*
X61460000Y-112266309D01*
X61412380Y-112218690D01*
X61317142Y-112171071D01*
X61174285Y-112171071D01*
X61079047Y-112218690D01*
X61031428Y-112266309D01*
X60983809Y-112361547D01*
X60983809Y-112742500D01*
X61507619Y-111885357D02*
X60507619Y-111552023D01*
X61507619Y-111218690D01*
X61031428Y-110885357D02*
X61031428Y-110552023D01*
X60507619Y-110409166D02*
X60507619Y-110885357D01*
X61507619Y-110885357D01*
X61507619Y-110409166D01*
X60507619Y-109980595D02*
X61507619Y-109980595D01*
X61507619Y-109742500D01*
X61460000Y-109599642D01*
X61364761Y-109504404D01*
X61269523Y-109456785D01*
X61079047Y-109409166D01*
X60936190Y-109409166D01*
X60745714Y-109456785D01*
X60650476Y-109504404D01*
X60555238Y-109599642D01*
X60507619Y-109742500D01*
X60507619Y-109980595D01*
X58920000Y-115980595D02*
X58967619Y-116075833D01*
X58967619Y-116218690D01*
X58920000Y-116361547D01*
X58824761Y-116456785D01*
X58729523Y-116504404D01*
X58539047Y-116552023D01*
X58396190Y-116552023D01*
X58205714Y-116504404D01*
X58110476Y-116456785D01*
X58015238Y-116361547D01*
X57967619Y-116218690D01*
X57967619Y-116123452D01*
X58015238Y-115980595D01*
X58062857Y-115932976D01*
X58396190Y-115932976D01*
X58396190Y-116123452D01*
X57967619Y-115504404D02*
X58967619Y-115504404D01*
X57967619Y-114932976D01*
X58967619Y-114932976D01*
X57967619Y-114456785D02*
X58967619Y-114456785D01*
X58967619Y-114218690D01*
X58920000Y-114075833D01*
X58824761Y-113980595D01*
X58729523Y-113932976D01*
X58539047Y-113885357D01*
X58396190Y-113885357D01*
X58205714Y-113932976D01*
X58110476Y-113980595D01*
X58015238Y-114075833D01*
X57967619Y-114218690D01*
X57967619Y-114456785D01*
X55427619Y-115932976D02*
X55903809Y-116266309D01*
X55427619Y-116504404D02*
X56427619Y-116504404D01*
X56427619Y-116123452D01*
X56380000Y-116028214D01*
X56332380Y-115980595D01*
X56237142Y-115932976D01*
X56094285Y-115932976D01*
X55999047Y-115980595D01*
X55951428Y-116028214D01*
X55903809Y-116123452D01*
X55903809Y-116504404D01*
X56427619Y-115599642D02*
X55427619Y-114932976D01*
X56427619Y-114932976D02*
X55427619Y-115599642D01*
X56427619Y-114361547D02*
X56427619Y-114266309D01*
X56380000Y-114171071D01*
X56332380Y-114123452D01*
X56237142Y-114075833D01*
X56046666Y-114028214D01*
X55808571Y-114028214D01*
X55618095Y-114075833D01*
X55522857Y-114123452D01*
X55475238Y-114171071D01*
X55427619Y-114266309D01*
X55427619Y-114361547D01*
X55475238Y-114456785D01*
X55522857Y-114504404D01*
X55618095Y-114552023D01*
X55808571Y-114599642D01*
X56046666Y-114599642D01*
X56237142Y-114552023D01*
X56332380Y-114504404D01*
X56380000Y-114456785D01*
X56427619Y-114361547D01*
X55808571Y-113599642D02*
X55808571Y-112837738D01*
X52887619Y-115932976D02*
X53363809Y-116266309D01*
X52887619Y-116504404D02*
X53887619Y-116504404D01*
X53887619Y-116123452D01*
X53840000Y-116028214D01*
X53792380Y-115980595D01*
X53697142Y-115932976D01*
X53554285Y-115932976D01*
X53459047Y-115980595D01*
X53411428Y-116028214D01*
X53363809Y-116123452D01*
X53363809Y-116504404D01*
X53887619Y-115599642D02*
X52887619Y-114932976D01*
X53887619Y-114932976D02*
X52887619Y-115599642D01*
X53887619Y-114361547D02*
X53887619Y-114266309D01*
X53840000Y-114171071D01*
X53792380Y-114123452D01*
X53697142Y-114075833D01*
X53506666Y-114028214D01*
X53268571Y-114028214D01*
X53078095Y-114075833D01*
X52982857Y-114123452D01*
X52935238Y-114171071D01*
X52887619Y-114266309D01*
X52887619Y-114361547D01*
X52935238Y-114456785D01*
X52982857Y-114504404D01*
X53078095Y-114552023D01*
X53268571Y-114599642D01*
X53506666Y-114599642D01*
X53697142Y-114552023D01*
X53792380Y-114504404D01*
X53840000Y-114456785D01*
X53887619Y-114361547D01*
X53268571Y-113599642D02*
X53268571Y-112837738D01*
X52887619Y-113218690D02*
X53649523Y-113218690D01*
X51300000Y-115980595D02*
X51347619Y-116075833D01*
X51347619Y-116218690D01*
X51300000Y-116361547D01*
X51204761Y-116456785D01*
X51109523Y-116504404D01*
X50919047Y-116552023D01*
X50776190Y-116552023D01*
X50585714Y-116504404D01*
X50490476Y-116456785D01*
X50395238Y-116361547D01*
X50347619Y-116218690D01*
X50347619Y-116123452D01*
X50395238Y-115980595D01*
X50442857Y-115932976D01*
X50776190Y-115932976D01*
X50776190Y-116123452D01*
X50347619Y-115504404D02*
X51347619Y-115504404D01*
X50347619Y-114932976D01*
X51347619Y-114932976D01*
X50347619Y-114456785D02*
X51347619Y-114456785D01*
X51347619Y-114218690D01*
X51300000Y-114075833D01*
X51204761Y-113980595D01*
X51109523Y-113932976D01*
X50919047Y-113885357D01*
X50776190Y-113885357D01*
X50585714Y-113932976D01*
X50490476Y-113980595D01*
X50395238Y-114075833D01*
X50347619Y-114218690D01*
X50347619Y-114456785D01*
X47807619Y-115932976D02*
X48283809Y-116266309D01*
X47807619Y-116504404D02*
X48807619Y-116504404D01*
X48807619Y-116123452D01*
X48760000Y-116028214D01*
X48712380Y-115980595D01*
X48617142Y-115932976D01*
X48474285Y-115932976D01*
X48379047Y-115980595D01*
X48331428Y-116028214D01*
X48283809Y-116123452D01*
X48283809Y-116504404D01*
X48331428Y-115504404D02*
X48331428Y-115171071D01*
X47807619Y-115028214D02*
X47807619Y-115504404D01*
X48807619Y-115504404D01*
X48807619Y-115028214D01*
X48331428Y-114266309D02*
X48331428Y-114599642D01*
X47807619Y-114599642D02*
X48807619Y-114599642D01*
X48807619Y-114123452D01*
X47902857Y-113171071D02*
X47855238Y-113218690D01*
X47807619Y-113361547D01*
X47807619Y-113456785D01*
X47855238Y-113599642D01*
X47950476Y-113694880D01*
X48045714Y-113742500D01*
X48236190Y-113790119D01*
X48379047Y-113790119D01*
X48569523Y-113742500D01*
X48664761Y-113694880D01*
X48760000Y-113599642D01*
X48807619Y-113456785D01*
X48807619Y-113361547D01*
X48760000Y-113218690D01*
X48712380Y-113171071D01*
X47807619Y-112266309D02*
X47807619Y-112742500D01*
X48807619Y-112742500D01*
X47807619Y-111932976D02*
X48807619Y-111932976D01*
X47807619Y-111361547D02*
X48379047Y-111790119D01*
X48807619Y-111361547D02*
X48236190Y-111932976D01*
X48188571Y-110932976D02*
X48188571Y-110171071D01*
X45267619Y-115932976D02*
X45743809Y-116266309D01*
X45267619Y-116504404D02*
X46267619Y-116504404D01*
X46267619Y-116123452D01*
X46220000Y-116028214D01*
X46172380Y-115980595D01*
X46077142Y-115932976D01*
X45934285Y-115932976D01*
X45839047Y-115980595D01*
X45791428Y-116028214D01*
X45743809Y-116123452D01*
X45743809Y-116504404D01*
X45791428Y-115504404D02*
X45791428Y-115171071D01*
X45267619Y-115028214D02*
X45267619Y-115504404D01*
X46267619Y-115504404D01*
X46267619Y-115028214D01*
X45791428Y-114266309D02*
X45791428Y-114599642D01*
X45267619Y-114599642D02*
X46267619Y-114599642D01*
X46267619Y-114123452D01*
X45362857Y-113171071D02*
X45315238Y-113218690D01*
X45267619Y-113361547D01*
X45267619Y-113456785D01*
X45315238Y-113599642D01*
X45410476Y-113694880D01*
X45505714Y-113742500D01*
X45696190Y-113790119D01*
X45839047Y-113790119D01*
X46029523Y-113742500D01*
X46124761Y-113694880D01*
X46220000Y-113599642D01*
X46267619Y-113456785D01*
X46267619Y-113361547D01*
X46220000Y-113218690D01*
X46172380Y-113171071D01*
X45267619Y-112266309D02*
X45267619Y-112742500D01*
X46267619Y-112742500D01*
X45267619Y-111932976D02*
X46267619Y-111932976D01*
X45267619Y-111361547D02*
X45839047Y-111790119D01*
X46267619Y-111361547D02*
X45696190Y-111932976D01*
X45648571Y-110932976D02*
X45648571Y-110171071D01*
X45267619Y-110552023D02*
X46029523Y-110552023D01*
X43680000Y-115980595D02*
X43727619Y-116075833D01*
X43727619Y-116218690D01*
X43680000Y-116361547D01*
X43584761Y-116456785D01*
X43489523Y-116504404D01*
X43299047Y-116552023D01*
X43156190Y-116552023D01*
X42965714Y-116504404D01*
X42870476Y-116456785D01*
X42775238Y-116361547D01*
X42727619Y-116218690D01*
X42727619Y-116123452D01*
X42775238Y-115980595D01*
X42822857Y-115932976D01*
X43156190Y-115932976D01*
X43156190Y-116123452D01*
X42727619Y-115504404D02*
X43727619Y-115504404D01*
X42727619Y-114932976D01*
X43727619Y-114932976D01*
X42727619Y-114456785D02*
X43727619Y-114456785D01*
X43727619Y-114218690D01*
X43680000Y-114075833D01*
X43584761Y-113980595D01*
X43489523Y-113932976D01*
X43299047Y-113885357D01*
X43156190Y-113885357D01*
X42965714Y-113932976D01*
X42870476Y-113980595D01*
X42775238Y-114075833D01*
X42727619Y-114218690D01*
X42727619Y-114456785D01*
X41555000Y-116742500D02*
X41555000Y-115742500D01*
X40187619Y-116504404D02*
X41187619Y-116504404D01*
X41187619Y-116123452D01*
X41140000Y-116028214D01*
X41092380Y-115980595D01*
X40997142Y-115932976D01*
X40854285Y-115932976D01*
X40759047Y-115980595D01*
X40711428Y-116028214D01*
X40663809Y-116123452D01*
X40663809Y-116504404D01*
X41555000Y-115742500D02*
X41555000Y-114837738D01*
X40711428Y-115504404D02*
X40711428Y-115171071D01*
X40187619Y-115028214D02*
X40187619Y-115504404D01*
X41187619Y-115504404D01*
X41187619Y-115028214D01*
X41555000Y-114837738D02*
X41555000Y-113837738D01*
X40187619Y-114028214D02*
X40663809Y-114361547D01*
X40187619Y-114599642D02*
X41187619Y-114599642D01*
X41187619Y-114218690D01*
X41140000Y-114123452D01*
X41092380Y-114075833D01*
X40997142Y-114028214D01*
X40854285Y-114028214D01*
X40759047Y-114075833D01*
X40711428Y-114123452D01*
X40663809Y-114218690D01*
X40663809Y-114599642D01*
X41555000Y-113837738D02*
X41555000Y-112885357D01*
X40235238Y-113647261D02*
X40187619Y-113504404D01*
X40187619Y-113266309D01*
X40235238Y-113171071D01*
X40282857Y-113123452D01*
X40378095Y-113075833D01*
X40473333Y-113075833D01*
X40568571Y-113123452D01*
X40616190Y-113171071D01*
X40663809Y-113266309D01*
X40711428Y-113456785D01*
X40759047Y-113552023D01*
X40806666Y-113599642D01*
X40901904Y-113647261D01*
X40997142Y-113647261D01*
X41092380Y-113599642D01*
X41140000Y-113552023D01*
X41187619Y-113456785D01*
X41187619Y-113218690D01*
X41140000Y-113075833D01*
X41555000Y-112885357D02*
X41555000Y-112123452D01*
X41187619Y-112790119D02*
X41187619Y-112218690D01*
X40187619Y-112504404D02*
X41187619Y-112504404D01*
X38028571Y-116504404D02*
X38028571Y-115742500D01*
X37647619Y-116123452D02*
X38409523Y-116123452D01*
X38647619Y-115361547D02*
X38647619Y-114742500D01*
X38266666Y-115075833D01*
X38266666Y-114932976D01*
X38219047Y-114837738D01*
X38171428Y-114790119D01*
X38076190Y-114742500D01*
X37838095Y-114742500D01*
X37742857Y-114790119D01*
X37695238Y-114837738D01*
X37647619Y-114932976D01*
X37647619Y-115218690D01*
X37695238Y-115313928D01*
X37742857Y-115361547D01*
X38314285Y-114409166D02*
X37647619Y-114171071D01*
X38314285Y-113932976D01*
X38647619Y-113647261D02*
X38647619Y-113028214D01*
X38266666Y-113361547D01*
X38266666Y-113218690D01*
X38219047Y-113123452D01*
X38171428Y-113075833D01*
X38076190Y-113028214D01*
X37838095Y-113028214D01*
X37742857Y-113075833D01*
X37695238Y-113123452D01*
X37647619Y-113218690D01*
X37647619Y-113504404D01*
X37695238Y-113599642D01*
X37742857Y-113647261D01*
X35488571Y-116504404D02*
X35488571Y-115742500D01*
X35107619Y-116123452D02*
X35869523Y-116123452D01*
X36107619Y-115361547D02*
X36107619Y-114742500D01*
X35726666Y-115075833D01*
X35726666Y-114932976D01*
X35679047Y-114837738D01*
X35631428Y-114790119D01*
X35536190Y-114742500D01*
X35298095Y-114742500D01*
X35202857Y-114790119D01*
X35155238Y-114837738D01*
X35107619Y-114932976D01*
X35107619Y-115218690D01*
X35155238Y-115313928D01*
X35202857Y-115361547D01*
X35774285Y-114409166D02*
X35107619Y-114171071D01*
X35774285Y-113932976D01*
X36107619Y-113647261D02*
X36107619Y-113028214D01*
X35726666Y-113361547D01*
X35726666Y-113218690D01*
X35679047Y-113123452D01*
X35631428Y-113075833D01*
X35536190Y-113028214D01*
X35298095Y-113028214D01*
X35202857Y-113075833D01*
X35155238Y-113123452D01*
X35107619Y-113218690D01*
X35107619Y-113504404D01*
X35155238Y-113599642D01*
X35202857Y-113647261D01*
X33567619Y-116647261D02*
X33567619Y-116075833D01*
X32567619Y-116361547D02*
X33567619Y-116361547D01*
X32567619Y-115742500D02*
X33567619Y-115742500D01*
X32853333Y-115409166D01*
X33567619Y-115075833D01*
X32567619Y-115075833D01*
X32615238Y-114647261D02*
X32567619Y-114504404D01*
X32567619Y-114266309D01*
X32615238Y-114171071D01*
X32662857Y-114123452D01*
X32758095Y-114075833D01*
X32853333Y-114075833D01*
X32948571Y-114123452D01*
X32996190Y-114171071D01*
X33043809Y-114266309D01*
X33091428Y-114456785D01*
X33139047Y-114552023D01*
X33186666Y-114599642D01*
X33281904Y-114647261D01*
X33377142Y-114647261D01*
X33472380Y-114599642D01*
X33520000Y-114552023D01*
X33567619Y-114456785D01*
X33567619Y-114218690D01*
X33520000Y-114075833D01*
X31027619Y-116647261D02*
X31027619Y-116075833D01*
X30027619Y-116361547D02*
X31027619Y-116361547D01*
X30027619Y-115742500D02*
X31027619Y-115742500D01*
X31027619Y-115504404D01*
X30980000Y-115361547D01*
X30884761Y-115266309D01*
X30789523Y-115218690D01*
X30599047Y-115171071D01*
X30456190Y-115171071D01*
X30265714Y-115218690D01*
X30170476Y-115266309D01*
X30075238Y-115361547D01*
X30027619Y-115504404D01*
X30027619Y-115742500D01*
X31027619Y-114552023D02*
X31027619Y-114361547D01*
X30980000Y-114266309D01*
X30884761Y-114171071D01*
X30694285Y-114123452D01*
X30360952Y-114123452D01*
X30170476Y-114171071D01*
X30075238Y-114266309D01*
X30027619Y-114361547D01*
X30027619Y-114552023D01*
X30075238Y-114647261D01*
X30170476Y-114742500D01*
X30360952Y-114790119D01*
X30694285Y-114790119D01*
X30884761Y-114742500D01*
X30980000Y-114647261D01*
X31027619Y-114552023D01*
X28487619Y-116647261D02*
X28487619Y-116075833D01*
X27487619Y-116361547D02*
X28487619Y-116361547D01*
X27487619Y-115742500D02*
X28487619Y-115742500D01*
X28487619Y-115504404D01*
X28440000Y-115361547D01*
X28344761Y-115266309D01*
X28249523Y-115218690D01*
X28059047Y-115171071D01*
X27916190Y-115171071D01*
X27725714Y-115218690D01*
X27630476Y-115266309D01*
X27535238Y-115361547D01*
X27487619Y-115504404D01*
X27487619Y-115742500D01*
X27487619Y-114742500D02*
X28487619Y-114742500D01*
X25947619Y-116647261D02*
X25947619Y-116075833D01*
X24947619Y-116361547D02*
X25947619Y-116361547D01*
X25042857Y-115171071D02*
X24995238Y-115218690D01*
X24947619Y-115361547D01*
X24947619Y-115456785D01*
X24995238Y-115599642D01*
X25090476Y-115694880D01*
X25185714Y-115742500D01*
X25376190Y-115790119D01*
X25519047Y-115790119D01*
X25709523Y-115742500D01*
X25804761Y-115694880D01*
X25900000Y-115599642D01*
X25947619Y-115456785D01*
X25947619Y-115361547D01*
X25900000Y-115218690D01*
X25852380Y-115171071D01*
X24947619Y-114742500D02*
X25947619Y-114742500D01*
X24947619Y-114171071D02*
X25519047Y-114599642D01*
X25947619Y-114171071D02*
X25376190Y-114742500D01*
X23360000Y-115980595D02*
X23407619Y-116075833D01*
X23407619Y-116218690D01*
X23360000Y-116361547D01*
X23264761Y-116456785D01*
X23169523Y-116504404D01*
X22979047Y-116552023D01*
X22836190Y-116552023D01*
X22645714Y-116504404D01*
X22550476Y-116456785D01*
X22455238Y-116361547D01*
X22407619Y-116218690D01*
X22407619Y-116123452D01*
X22455238Y-115980595D01*
X22502857Y-115932976D01*
X22836190Y-115932976D01*
X22836190Y-116123452D01*
X22407619Y-115504404D02*
X23407619Y-115504404D01*
X22407619Y-114932976D01*
X23407619Y-114932976D01*
X22407619Y-114456785D02*
X23407619Y-114456785D01*
X23407619Y-114218690D01*
X23360000Y-114075833D01*
X23264761Y-113980595D01*
X23169523Y-113932976D01*
X22979047Y-113885357D01*
X22836190Y-113885357D01*
X22645714Y-113932976D01*
X22550476Y-113980595D01*
X22455238Y-114075833D01*
X22407619Y-114218690D01*
X22407619Y-114456785D01*
X20248571Y-116504404D02*
X20248571Y-115742500D01*
X19867619Y-116123452D02*
X20629523Y-116123452D01*
X19867619Y-114742500D02*
X19867619Y-115313928D01*
X19867619Y-115028214D02*
X20867619Y-115028214D01*
X20724761Y-115123452D01*
X20629523Y-115218690D01*
X20581904Y-115313928D01*
X20772380Y-114361547D02*
X20820000Y-114313928D01*
X20867619Y-114218690D01*
X20867619Y-113980595D01*
X20820000Y-113885357D01*
X20772380Y-113837738D01*
X20677142Y-113790119D01*
X20581904Y-113790119D01*
X20439047Y-113837738D01*
X19867619Y-114409166D01*
X19867619Y-113790119D01*
X20867619Y-113504404D02*
X19867619Y-113171071D01*
X20867619Y-112837738D01*
X17708571Y-116504404D02*
X17708571Y-115742500D01*
X17327619Y-116123452D02*
X18089523Y-116123452D01*
X17327619Y-114742500D02*
X17327619Y-115313928D01*
X17327619Y-115028214D02*
X18327619Y-115028214D01*
X18184761Y-115123452D01*
X18089523Y-115218690D01*
X18041904Y-115313928D01*
X18232380Y-114361547D02*
X18280000Y-114313928D01*
X18327619Y-114218690D01*
X18327619Y-113980595D01*
X18280000Y-113885357D01*
X18232380Y-113837738D01*
X18137142Y-113790119D01*
X18041904Y-113790119D01*
X17899047Y-113837738D01*
X17327619Y-114409166D01*
X17327619Y-113790119D01*
X18327619Y-113504404D02*
X17327619Y-113171071D01*
X18327619Y-112837738D01*
X16155000Y-116742500D02*
X16155000Y-115742500D01*
X14787619Y-116504404D02*
X15787619Y-116504404D01*
X15787619Y-116123452D01*
X15740000Y-116028214D01*
X15692380Y-115980595D01*
X15597142Y-115932976D01*
X15454285Y-115932976D01*
X15359047Y-115980595D01*
X15311428Y-116028214D01*
X15263809Y-116123452D01*
X15263809Y-116504404D01*
X16155000Y-115742500D02*
X16155000Y-114742500D01*
X14787619Y-114932976D02*
X15263809Y-115266309D01*
X14787619Y-115504404D02*
X15787619Y-115504404D01*
X15787619Y-115123452D01*
X15740000Y-115028214D01*
X15692380Y-114980595D01*
X15597142Y-114932976D01*
X15454285Y-114932976D01*
X15359047Y-114980595D01*
X15311428Y-115028214D01*
X15263809Y-115123452D01*
X15263809Y-115504404D01*
X16155000Y-114742500D02*
X16155000Y-113790119D01*
X14835238Y-114552023D02*
X14787619Y-114409166D01*
X14787619Y-114171071D01*
X14835238Y-114075833D01*
X14882857Y-114028214D01*
X14978095Y-113980595D01*
X15073333Y-113980595D01*
X15168571Y-114028214D01*
X15216190Y-114075833D01*
X15263809Y-114171071D01*
X15311428Y-114361547D01*
X15359047Y-114456785D01*
X15406666Y-114504404D01*
X15501904Y-114552023D01*
X15597142Y-114552023D01*
X15692380Y-114504404D01*
X15740000Y-114456785D01*
X15787619Y-114361547D01*
X15787619Y-114123452D01*
X15740000Y-113980595D01*
X16155000Y-113790119D02*
X16155000Y-112742500D01*
X14787619Y-113552023D02*
X15787619Y-113552023D01*
X14787619Y-112980595D01*
X15787619Y-112980595D01*
X16155000Y-112742500D02*
X16155000Y-111980595D01*
X15787619Y-112647261D02*
X15787619Y-112075833D01*
X14787619Y-112361547D02*
X15787619Y-112361547D01*
X16155000Y-111980595D02*
X16155000Y-111028214D01*
X14787619Y-111218690D02*
X14787619Y-111790119D01*
X14787619Y-111504404D02*
X15787619Y-111504404D01*
X15644761Y-111599642D01*
X15549523Y-111694880D01*
X15501904Y-111790119D01*
M02*
