%TF.GenerationSoftware,KiCad,Pcbnew,5.1.6*%
%TF.CreationDate,2020-09-14T21:31:35+02:00*%
%TF.ProjectId,PCIe-pin-header-adapter,50434965-2d70-4696-9e2d-686561646572,rev?*%
%TF.SameCoordinates,Original*%
%TF.FileFunction,Soldermask,Top*%
%TF.FilePolarity,Negative*%
%FSLAX46Y46*%
G04 Gerber Fmt 4.6, Leading zero omitted, Abs format (unit mm)*
G04 Created by KiCad (PCBNEW 5.1.6) date 2020-09-14 21:31:35*
%MOMM*%
%LPD*%
G01*
G04 APERTURE LIST*
%ADD10R,0.800000X3.700000*%
%ADD11C,2.300000*%
%ADD12R,1.800000X4.100000*%
G04 APERTURE END LIST*
D10*
%TO.C,J4*%
X107840000Y-83900000D03*
X106840000Y-83900000D03*
X105840000Y-83900000D03*
X104840000Y-83900000D03*
X103840000Y-83900000D03*
X102840000Y-83900000D03*
X101840000Y-83900000D03*
X100840000Y-83900000D03*
X99840000Y-83900000D03*
X98840000Y-83900000D03*
X97840000Y-83900000D03*
X96840000Y-83900000D03*
X95840000Y-83900000D03*
X94840000Y-83900000D03*
X93840000Y-83900000D03*
X92840000Y-83900000D03*
X91840000Y-83900000D03*
X90840000Y-83900000D03*
X89840000Y-83900000D03*
X88840000Y-83900000D03*
X87840000Y-83900000D03*
X86840000Y-83900000D03*
X85840000Y-83900000D03*
X84840000Y-83900000D03*
X83840000Y-83900000D03*
X82840000Y-83900000D03*
X81840000Y-83900000D03*
X80840000Y-83900000D03*
X79840000Y-83900000D03*
X78840000Y-83900000D03*
X77840000Y-83900000D03*
X76840000Y-83900000D03*
X75840000Y-83900000D03*
X74840000Y-83900000D03*
X73840000Y-83900000D03*
X72840000Y-83900000D03*
X71840000Y-83900000D03*
X70840000Y-83900000D03*
X69840000Y-83900000D03*
X68840000Y-83900000D03*
X67840000Y-83900000D03*
X66840000Y-83900000D03*
X65840000Y-83900000D03*
X64840000Y-83900000D03*
X63840000Y-83900000D03*
X62840000Y-83900000D03*
X61840000Y-83900000D03*
X60840000Y-83900000D03*
X59840000Y-83900000D03*
X58840000Y-83900000D03*
X57840000Y-83900000D03*
X56840000Y-83900000D03*
X55840000Y-83900000D03*
X54840000Y-83900000D03*
X53840000Y-83900000D03*
X52840000Y-83900000D03*
X51840000Y-83900000D03*
X50840000Y-83900000D03*
X49840000Y-83900000D03*
X48840000Y-83900000D03*
X47840000Y-83900000D03*
X46840000Y-83900000D03*
X45840000Y-83900000D03*
X44840000Y-83900000D03*
X43840000Y-83900000D03*
X42840000Y-83900000D03*
X41840000Y-83900000D03*
X40840000Y-83900000D03*
X39840000Y-83900000D03*
X38840000Y-83900000D03*
X37840000Y-83900000D03*
X34840000Y-83900000D03*
X33840000Y-83900000D03*
X32840000Y-83900000D03*
X31840000Y-83900000D03*
X30840000Y-83900000D03*
X29840000Y-83900000D03*
X28840000Y-83900000D03*
X27840000Y-83900000D03*
X26840000Y-83900000D03*
X25840000Y-83900000D03*
X24840000Y-83900000D03*
D11*
X20040000Y-83200000D03*
X112640000Y-83200000D03*
%TD*%
D12*
%TO.C,J3*%
X218440000Y-119380000D03*
X220980000Y-119380000D03*
%TD*%
%TO.C,J2*%
X116840000Y-119380000D03*
X119380000Y-119380000D03*
X121920000Y-119380000D03*
X124460000Y-119380000D03*
X127000000Y-119380000D03*
X129540000Y-119380000D03*
X132080000Y-119380000D03*
X134620000Y-119380000D03*
X137160000Y-119380000D03*
X139700000Y-119380000D03*
X142240000Y-119380000D03*
X144780000Y-119380000D03*
X147320000Y-119380000D03*
X149860000Y-119380000D03*
X152400000Y-119380000D03*
X154940000Y-119380000D03*
X157480000Y-119380000D03*
X160020000Y-119380000D03*
X162560000Y-119380000D03*
X165100000Y-119380000D03*
X167640000Y-119380000D03*
X170180000Y-119380000D03*
X172720000Y-119380000D03*
X175260000Y-119380000D03*
X177800000Y-119380000D03*
X180340000Y-119380000D03*
X182880000Y-119380000D03*
X185420000Y-119380000D03*
X187960000Y-119380000D03*
X190500000Y-119380000D03*
X193040000Y-119380000D03*
X195580000Y-119380000D03*
X198120000Y-119380000D03*
X200660000Y-119380000D03*
X203200000Y-119380000D03*
X205740000Y-119380000D03*
X208280000Y-119380000D03*
X210820000Y-119380000D03*
X213360000Y-119380000D03*
X215900000Y-119380000D03*
%TD*%
%TO.C,J1*%
X15240000Y-119380000D03*
X17780000Y-119380000D03*
X20320000Y-119380000D03*
X22860000Y-119380000D03*
X25400000Y-119380000D03*
X27940000Y-119380000D03*
X30480000Y-119380000D03*
X33020000Y-119380000D03*
X35560000Y-119380000D03*
X38100000Y-119380000D03*
X40640000Y-119380000D03*
X43180000Y-119380000D03*
X45720000Y-119380000D03*
X48260000Y-119380000D03*
X50800000Y-119380000D03*
X53340000Y-119380000D03*
X55880000Y-119380000D03*
X58420000Y-119380000D03*
X60960000Y-119380000D03*
X63500000Y-119380000D03*
X66040000Y-119380000D03*
X68580000Y-119380000D03*
X71120000Y-119380000D03*
X73660000Y-119380000D03*
X76200000Y-119380000D03*
X78740000Y-119380000D03*
X81280000Y-119380000D03*
X83820000Y-119380000D03*
X86360000Y-119380000D03*
X88900000Y-119380000D03*
X91440000Y-119380000D03*
X93980000Y-119380000D03*
X96520000Y-119380000D03*
X99060000Y-119380000D03*
X101600000Y-119380000D03*
X104140000Y-119380000D03*
X106680000Y-119380000D03*
X109220000Y-119380000D03*
X111760000Y-119380000D03*
X114300000Y-119380000D03*
%TD*%
M02*
