%TF.GenerationSoftware,KiCad,Pcbnew,5.1.6*%
%TF.CreationDate,2020-09-02T12:15:33+02:00*%
%TF.ProjectId,host_adapter,686f7374-5f61-4646-9170-7465722e6b69,rev?*%
%TF.SameCoordinates,Original*%
%TF.FileFunction,Copper,L2,Bot*%
%TF.FilePolarity,Positive*%
%FSLAX46Y46*%
G04 Gerber Fmt 4.6, Leading zero omitted, Abs format (unit mm)*
G04 Created by KiCad (PCBNEW 5.1.6) date 2020-09-02 12:15:33*
%MOMM*%
%LPD*%
G01*
G04 APERTURE LIST*
%TA.AperFunction,ConnectorPad*%
%ADD10R,0.700000X4.300000*%
%TD*%
%TA.AperFunction,ConnectorPad*%
%ADD11R,0.700000X3.200000*%
%TD*%
%TA.AperFunction,SMDPad,CuDef*%
%ADD12R,1.700000X4.000000*%
%TD*%
%TA.AperFunction,Conductor*%
%ADD13C,0.250000*%
%TD*%
G04 APERTURE END LIST*
D10*
%TO.P,J4,B82*%
%TO.N,Net-(J4-PadB82)*%
X118790000Y-70050000D03*
D11*
%TO.P,J4,B81*%
%TO.N,Net-(J4-PadB81)*%
X117790000Y-70600000D03*
D10*
%TO.P,J4,B80*%
%TO.N,Net-(J4-PadB80)*%
X116790000Y-70050000D03*
%TO.P,J4,B79*%
%TO.N,Net-(J4-PadB79)*%
X115790000Y-70050000D03*
%TO.P,J4,B78*%
%TO.N,Net-(J4-PadB78)*%
X114790000Y-70050000D03*
%TO.P,J4,B77*%
%TO.N,Net-(J4-PadB77)*%
X113790000Y-70050000D03*
%TO.P,J4,B76*%
%TO.N,Net-(J4-PadB76)*%
X112790000Y-70050000D03*
%TO.P,J4,B75*%
%TO.N,Net-(J4-PadB75)*%
X111790000Y-70050000D03*
%TO.P,J4,B74*%
%TO.N,Net-(J4-PadB74)*%
X110790000Y-70050000D03*
%TO.P,J4,B73*%
%TO.N,Net-(J4-PadB73)*%
X109790000Y-70050000D03*
%TO.P,J4,B72*%
%TO.N,Net-(J4-PadB72)*%
X108790000Y-70050000D03*
%TO.P,J4,B71*%
%TO.N,Net-(J4-PadB71)*%
X107790000Y-70050000D03*
%TO.P,J4,B70*%
%TO.N,Net-(J4-PadB70)*%
X106790000Y-70050000D03*
%TO.P,J4,B69*%
%TO.N,Net-(J4-PadB69)*%
X105790000Y-70050000D03*
%TO.P,J4,B68*%
%TO.N,Net-(J4-PadB68)*%
X104790000Y-70050000D03*
%TO.P,J4,B67*%
%TO.N,Net-(J4-PadB67)*%
X103790000Y-70050000D03*
%TO.P,J4,B66*%
%TO.N,Net-(J4-PadB66)*%
X102790000Y-70050000D03*
%TO.P,J4,B65*%
%TO.N,Net-(J4-PadB65)*%
X101790000Y-70050000D03*
%TO.P,J4,B64*%
%TO.N,Net-(J4-PadB64)*%
X100790000Y-70050000D03*
%TO.P,J4,B63*%
%TO.N,Net-(J4-PadB63)*%
X99790000Y-70050000D03*
%TO.P,J4,B62*%
%TO.N,Net-(J4-PadB62)*%
X98790000Y-70050000D03*
%TO.P,J4,B61*%
%TO.N,Net-(J4-PadB61)*%
X97790000Y-70050000D03*
%TO.P,J4,B60*%
%TO.N,Net-(J4-PadB60)*%
X96790000Y-70050000D03*
%TO.P,J4,B59*%
%TO.N,Net-(J4-PadB59)*%
X95790000Y-70050000D03*
%TO.P,J4,B58*%
%TO.N,Net-(J4-PadB58)*%
X94790000Y-70050000D03*
%TO.P,J4,B57*%
%TO.N,Net-(J4-PadB57)*%
X93790000Y-70050000D03*
%TO.P,J4,B56*%
%TO.N,Net-(J4-PadB56)*%
X92790000Y-70050000D03*
%TO.P,J4,B55*%
%TO.N,Net-(J4-PadB55)*%
X91790000Y-70050000D03*
%TO.P,J4,B54*%
%TO.N,Net-(J4-PadB54)*%
X90790000Y-70050000D03*
%TO.P,J4,B53*%
%TO.N,Net-(J4-PadB53)*%
X89790000Y-70050000D03*
%TO.P,J4,B52*%
%TO.N,Net-(J4-PadB52)*%
X88790000Y-70050000D03*
%TO.P,J4,B51*%
%TO.N,Net-(J4-PadB51)*%
X87790000Y-70050000D03*
%TO.P,J4,B50*%
%TO.N,Net-(J4-PadB50)*%
X86790000Y-70050000D03*
%TO.P,J4,B13*%
%TO.N,Net-(J4-PadB13)*%
X49790000Y-70050000D03*
%TO.P,J4,B12*%
%TO.N,Net-(J4-PadB12)*%
X48790000Y-70050000D03*
%TO.P,J4,B18*%
%TO.N,Net-(J4-PadB18)*%
X54790000Y-70050000D03*
%TO.P,J4,B17*%
%TO.N,Net-(J4-PadB17)*%
X53790000Y-70050000D03*
%TO.P,J4,B16*%
%TO.N,Net-(J4-PadB16)*%
X52790000Y-70050000D03*
%TO.P,J4,B15*%
%TO.N,Net-(J4-PadB15)*%
X51790000Y-70050000D03*
%TO.P,J4,B14*%
%TO.N,Net-(J4-PadB14)*%
X50790000Y-70050000D03*
%TO.P,J4,B11*%
%TO.N,Net-(J4-PadB11)*%
X45790000Y-70050000D03*
%TO.P,J4,B10*%
%TO.N,Net-(J4-PadB10)*%
X44790000Y-70050000D03*
%TO.P,J4,B9*%
%TO.N,Net-(J4-PadB9)*%
X43790000Y-70050000D03*
%TO.P,J4,B8*%
%TO.N,Net-(J4-PadB8)*%
X42790000Y-70050000D03*
%TO.P,J4,B7*%
%TO.N,Net-(J4-PadB7)*%
X41790000Y-70050000D03*
%TO.P,J4,B6*%
%TO.N,Net-(J4-PadB6)*%
X40790000Y-70050000D03*
%TO.P,J4,B5*%
%TO.N,Net-(J4-PadB5)*%
X39790000Y-70050000D03*
%TO.P,J4,B4*%
%TO.N,Net-(J4-PadB4)*%
X38790000Y-70050000D03*
%TO.P,J4,B3*%
%TO.N,Net-(J4-PadB3)*%
X37790000Y-70050000D03*
%TO.P,J4,B2*%
%TO.N,Net-(J4-PadB2)*%
X36790000Y-70050000D03*
%TO.P,J4,B1*%
%TO.N,Net-(J4-PadB1)*%
X35790000Y-70050000D03*
%TO.P,J4,B19*%
%TO.N,Net-(J4-PadB19)*%
X55790000Y-70050000D03*
%TO.P,J4,B20*%
%TO.N,Net-(J4-PadB20)*%
X56790000Y-70050000D03*
%TO.P,J4,B21*%
%TO.N,Net-(J4-PadB21)*%
X57790000Y-70050000D03*
%TO.P,J4,B22*%
%TO.N,Net-(J4-PadB22)*%
X58790000Y-70050000D03*
%TO.P,J4,B23*%
%TO.N,Net-(J4-PadB23)*%
X59790000Y-70050000D03*
%TO.P,J4,B24*%
%TO.N,Net-(J4-PadB24)*%
X60790000Y-70050000D03*
%TO.P,J4,B25*%
%TO.N,Net-(J4-PadB25)*%
X61790000Y-70050000D03*
%TO.P,J4,B26*%
%TO.N,Net-(J4-PadB26)*%
X62790000Y-70050000D03*
%TO.P,J4,B27*%
%TO.N,Net-(J4-PadB27)*%
X63790000Y-70050000D03*
%TO.P,J4,B28*%
%TO.N,Net-(J4-PadB28)*%
X64790000Y-70050000D03*
%TO.P,J4,B29*%
%TO.N,Net-(J4-PadB29)*%
X65790000Y-70050000D03*
%TO.P,J4,B30*%
%TO.N,Net-(J4-PadB30)*%
X66790000Y-70050000D03*
%TO.P,J4,B31*%
%TO.N,Net-(J4-PadB31)*%
X67790000Y-70050000D03*
%TO.P,J4,B32*%
%TO.N,Net-(J4-PadB32)*%
X68790000Y-70050000D03*
%TO.P,J4,B33*%
%TO.N,Net-(J4-PadB33)*%
X69790000Y-70050000D03*
%TO.P,J4,B34*%
%TO.N,Net-(J4-PadB34)*%
X70790000Y-70050000D03*
%TO.P,J4,B35*%
%TO.N,Net-(J4-PadB35)*%
X71790000Y-70050000D03*
%TO.P,J4,B36*%
%TO.N,Net-(J4-PadB36)*%
X72790000Y-70050000D03*
%TO.P,J4,B37*%
%TO.N,Net-(J4-PadB37)*%
X73790000Y-70050000D03*
%TO.P,J4,B38*%
%TO.N,Net-(J4-PadB38)*%
X74790000Y-70050000D03*
%TO.P,J4,B39*%
%TO.N,Net-(J4-PadB39)*%
X75790000Y-70050000D03*
%TO.P,J4,B40*%
%TO.N,Net-(J4-PadB40)*%
X76790000Y-70050000D03*
%TO.P,J4,B41*%
%TO.N,Net-(J4-PadB41)*%
X77790000Y-70050000D03*
%TO.P,J4,B42*%
%TO.N,Net-(J4-PadB42)*%
X78790000Y-70050000D03*
%TO.P,J4,B43*%
%TO.N,Net-(J4-PadB43)*%
X79790000Y-70050000D03*
%TO.P,J4,B44*%
%TO.N,Net-(J4-PadB44)*%
X80790000Y-70050000D03*
%TO.P,J4,B45*%
%TO.N,Net-(J4-PadB45)*%
X81790000Y-70050000D03*
%TO.P,J4,B46*%
%TO.N,Net-(J4-PadB46)*%
X82790000Y-70050000D03*
%TO.P,J4,B47*%
%TO.N,Net-(J4-PadB47)*%
X83790000Y-70050000D03*
%TO.P,J4,B48*%
%TO.N,Net-(J4-PadB48)*%
X84790000Y-70050000D03*
%TO.P,J4,B49*%
%TO.N,Net-(J4-PadB49)*%
X85790000Y-70050000D03*
%TD*%
D12*
%TO.P,J6,1*%
%TO.N,Net-(J4-PadB41)*%
X127815000Y-113680000D03*
%TO.P,J6,2*%
%TO.N,Net-(J4-PadB42)*%
X130355000Y-113680000D03*
%TO.P,J6,3*%
%TO.N,Net-(J4-PadB43)*%
X132895000Y-113680000D03*
%TO.P,J6,4*%
%TO.N,Net-(J4-PadB44)*%
X135435000Y-113680000D03*
%TO.P,J6,5*%
%TO.N,Net-(J4-PadB45)*%
X137975000Y-113680000D03*
%TO.P,J6,6*%
%TO.N,Net-(J4-PadB46)*%
X140515000Y-113680000D03*
%TO.P,J6,7*%
%TO.N,Net-(J4-PadB47)*%
X143055000Y-113680000D03*
%TO.P,J6,8*%
%TO.N,Net-(J4-PadB48)*%
X145595000Y-113680000D03*
%TO.P,J6,9*%
%TO.N,Net-(J4-PadB49)*%
X148135000Y-113680000D03*
%TO.P,J6,10*%
%TO.N,Net-(J4-PadB50)*%
X150675000Y-113680000D03*
%TO.P,J6,11*%
%TO.N,Net-(J4-PadB51)*%
X153215000Y-113680000D03*
%TO.P,J6,12*%
%TO.N,Net-(J4-PadB52)*%
X155755000Y-113680000D03*
%TO.P,J6,13*%
%TO.N,Net-(J4-PadB53)*%
X158295000Y-113680000D03*
%TO.P,J6,14*%
%TO.N,Net-(J4-PadB54)*%
X160835000Y-113680000D03*
%TO.P,J6,15*%
%TO.N,Net-(J4-PadB55)*%
X163375000Y-113680000D03*
%TO.P,J6,16*%
%TO.N,Net-(J4-PadB56)*%
X165915000Y-113680000D03*
%TO.P,J6,17*%
%TO.N,Net-(J4-PadB57)*%
X168455000Y-113680000D03*
%TO.P,J6,18*%
%TO.N,Net-(J4-PadB58)*%
X170995000Y-113680000D03*
%TO.P,J6,19*%
%TO.N,Net-(J4-PadB59)*%
X173535000Y-113680000D03*
%TO.P,J6,20*%
%TO.N,Net-(J4-PadB60)*%
X176075000Y-113680000D03*
%TO.P,J6,21*%
%TO.N,Net-(J4-PadB61)*%
X178615000Y-113680000D03*
%TO.P,J6,22*%
%TO.N,Net-(J4-PadB62)*%
X181155000Y-113680000D03*
%TO.P,J6,23*%
%TO.N,Net-(J4-PadB63)*%
X183695000Y-113680000D03*
%TO.P,J6,24*%
%TO.N,Net-(J4-PadB64)*%
X186235000Y-113680000D03*
%TO.P,J6,25*%
%TO.N,Net-(J4-PadB65)*%
X188775000Y-113680000D03*
%TO.P,J6,26*%
%TO.N,Net-(J4-PadB66)*%
X191315000Y-113680000D03*
%TO.P,J6,27*%
%TO.N,Net-(J4-PadB67)*%
X193855000Y-113680000D03*
%TO.P,J6,28*%
%TO.N,Net-(J4-PadB68)*%
X196395000Y-113680000D03*
%TO.P,J6,29*%
%TO.N,Net-(J4-PadB69)*%
X198935000Y-113680000D03*
%TO.P,J6,30*%
%TO.N,Net-(J4-PadB70)*%
X201475000Y-113680000D03*
%TO.P,J6,31*%
%TO.N,Net-(J4-PadB71)*%
X204015000Y-113680000D03*
%TO.P,J6,32*%
%TO.N,Net-(J4-PadB72)*%
X206555000Y-113680000D03*
%TO.P,J6,33*%
%TO.N,Net-(J4-PadB73)*%
X209095000Y-113680000D03*
%TO.P,J6,34*%
%TO.N,Net-(J4-PadB74)*%
X211635000Y-113680000D03*
%TO.P,J6,35*%
%TO.N,Net-(J4-PadB75)*%
X214175000Y-113680000D03*
%TO.P,J6,36*%
%TO.N,Net-(J4-PadB76)*%
X216715000Y-113680000D03*
%TO.P,J6,37*%
%TO.N,Net-(J4-PadB77)*%
X219255000Y-113680000D03*
%TO.P,J6,38*%
%TO.N,Net-(J4-PadB78)*%
X221795000Y-113680000D03*
%TO.P,J6,39*%
%TO.N,Net-(J4-PadB79)*%
X224335000Y-113680000D03*
%TO.P,J6,40*%
%TO.N,Net-(J4-PadB80)*%
X226875000Y-113680000D03*
%TD*%
%TO.P,J5,1*%
%TO.N,Net-(J4-PadB1)*%
X26215000Y-113680000D03*
%TO.P,J5,2*%
%TO.N,Net-(J4-PadB2)*%
X28755000Y-113680000D03*
%TO.P,J5,3*%
%TO.N,Net-(J4-PadB3)*%
X31295000Y-113680000D03*
%TO.P,J5,4*%
%TO.N,Net-(J4-PadB4)*%
X33835000Y-113680000D03*
%TO.P,J5,5*%
%TO.N,Net-(J4-PadB5)*%
X36375000Y-113680000D03*
%TO.P,J5,6*%
%TO.N,Net-(J4-PadB6)*%
X38915000Y-113680000D03*
%TO.P,J5,7*%
%TO.N,Net-(J4-PadB7)*%
X41455000Y-113680000D03*
%TO.P,J5,8*%
%TO.N,Net-(J4-PadB8)*%
X43995000Y-113680000D03*
%TO.P,J5,9*%
%TO.N,Net-(J4-PadB9)*%
X46535000Y-113680000D03*
%TO.P,J5,10*%
%TO.N,Net-(J4-PadB10)*%
X49075000Y-113680000D03*
%TO.P,J5,11*%
%TO.N,Net-(J4-PadB11)*%
X51615000Y-113680000D03*
%TO.P,J5,12*%
%TO.N,Net-(J4-PadB12)*%
X54155000Y-113680000D03*
%TO.P,J5,13*%
%TO.N,Net-(J4-PadB13)*%
X56695000Y-113680000D03*
%TO.P,J5,14*%
%TO.N,Net-(J4-PadB14)*%
X59235000Y-113680000D03*
%TO.P,J5,15*%
%TO.N,Net-(J4-PadB15)*%
X61775000Y-113680000D03*
%TO.P,J5,16*%
%TO.N,Net-(J4-PadB16)*%
X64315000Y-113680000D03*
%TO.P,J5,17*%
%TO.N,Net-(J4-PadB17)*%
X66855000Y-113680000D03*
%TO.P,J5,18*%
%TO.N,Net-(J4-PadB18)*%
X69395000Y-113680000D03*
%TO.P,J5,19*%
%TO.N,Net-(J4-PadB19)*%
X71935000Y-113680000D03*
%TO.P,J5,20*%
%TO.N,Net-(J4-PadB20)*%
X74475000Y-113680000D03*
%TO.P,J5,21*%
%TO.N,Net-(J4-PadB21)*%
X77015000Y-113680000D03*
%TO.P,J5,22*%
%TO.N,Net-(J4-PadB22)*%
X79555000Y-113680000D03*
%TO.P,J5,23*%
%TO.N,Net-(J4-PadB23)*%
X82095000Y-113680000D03*
%TO.P,J5,24*%
%TO.N,Net-(J4-PadB24)*%
X84635000Y-113680000D03*
%TO.P,J5,25*%
%TO.N,Net-(J4-PadB25)*%
X87175000Y-113680000D03*
%TO.P,J5,26*%
%TO.N,Net-(J4-PadB26)*%
X89715000Y-113680000D03*
%TO.P,J5,27*%
%TO.N,Net-(J4-PadB27)*%
X92255000Y-113680000D03*
%TO.P,J5,28*%
%TO.N,Net-(J4-PadB28)*%
X94795000Y-113680000D03*
%TO.P,J5,29*%
%TO.N,Net-(J4-PadB29)*%
X97335000Y-113680000D03*
%TO.P,J5,30*%
%TO.N,Net-(J4-PadB30)*%
X99875000Y-113680000D03*
%TO.P,J5,31*%
%TO.N,Net-(J4-PadB31)*%
X102415000Y-113680000D03*
%TO.P,J5,32*%
%TO.N,Net-(J4-PadB32)*%
X104955000Y-113680000D03*
%TO.P,J5,33*%
%TO.N,Net-(J4-PadB33)*%
X107495000Y-113680000D03*
%TO.P,J5,34*%
%TO.N,Net-(J4-PadB34)*%
X110035000Y-113680000D03*
%TO.P,J5,35*%
%TO.N,Net-(J4-PadB35)*%
X112575000Y-113680000D03*
%TO.P,J5,36*%
%TO.N,Net-(J4-PadB36)*%
X115115000Y-113680000D03*
%TO.P,J5,37*%
%TO.N,Net-(J4-PadB37)*%
X117655000Y-113680000D03*
%TO.P,J5,38*%
%TO.N,Net-(J4-PadB38)*%
X120195000Y-113680000D03*
%TO.P,J5,39*%
%TO.N,Net-(J4-PadB39)*%
X122735000Y-113680000D03*
%TO.P,J5,40*%
%TO.N,Net-(J4-PadB40)*%
X125275000Y-113680000D03*
%TD*%
%TO.P,J7,1*%
%TO.N,Net-(J4-PadB81)*%
X229415000Y-113680000D03*
%TO.P,J7,2*%
%TO.N,Net-(J4-PadB82)*%
X231955000Y-113680000D03*
%TD*%
D13*
%TO.N,Net-(J4-PadB82)*%
X118815000Y-78200000D02*
X118815000Y-69800000D01*
X199525000Y-80000000D02*
X119175000Y-80000000D01*
X232255000Y-112730000D02*
X199525000Y-80000000D01*
X119175000Y-80000000D02*
X118815000Y-79640000D01*
X118815000Y-79640000D02*
X118815000Y-78200000D01*
%TO.N,Net-(J4-PadB81)*%
X117815000Y-78200000D02*
X117815000Y-69800000D01*
X197352010Y-80377010D02*
X229675000Y-112700000D01*
X117815000Y-78200000D02*
X117815000Y-79803602D01*
X117815000Y-79803602D02*
X118388408Y-80377010D01*
X118388408Y-80377010D02*
X197352010Y-80377010D01*
%TO.N,Net-(J4-PadB80)*%
X116775000Y-78300000D02*
X116775000Y-69925000D01*
X195199020Y-80754020D02*
X117765418Y-80754020D01*
X117765418Y-80754020D02*
X116775000Y-79763602D01*
X223840699Y-110717351D02*
X223907878Y-110717351D01*
X116775000Y-79763602D02*
X116775000Y-78300000D01*
X224421786Y-110306642D02*
X224482312Y-110277494D01*
X223973372Y-110702402D02*
X224033898Y-110673255D01*
X223591124Y-110518322D02*
X223620272Y-110578848D01*
X223620272Y-110578848D02*
X223662157Y-110631370D01*
X223907878Y-110717351D02*
X223973372Y-110702402D01*
X223576175Y-110452828D02*
X223591124Y-110518322D01*
X223714679Y-110673255D02*
X223775205Y-110702402D01*
X224086421Y-110631370D02*
X224369263Y-110348527D01*
X223620272Y-110259629D02*
X223591124Y-110320155D01*
X223591124Y-110320155D02*
X223576175Y-110385649D01*
X224741005Y-110306642D02*
X224793528Y-110348528D01*
X223662157Y-110631370D02*
X223714679Y-110673255D01*
X224030981Y-109745721D02*
X224016032Y-109811215D01*
X224369263Y-110348527D02*
X224421786Y-110306642D01*
X223945000Y-109924264D02*
X223662157Y-110207106D01*
X224482312Y-110277494D02*
X224547806Y-110262545D01*
X223986885Y-109871741D02*
X223945000Y-109924264D01*
X224016032Y-109613048D02*
X224030981Y-109678542D01*
X224033898Y-110673255D02*
X224086421Y-110631370D01*
X223576175Y-110385649D02*
X223576175Y-110452828D01*
X223986885Y-109552522D02*
X224016032Y-109613048D01*
X223662157Y-110207106D02*
X223620272Y-110259629D01*
X223945000Y-109500000D02*
X223986885Y-109552522D01*
X223775205Y-110702402D02*
X223840699Y-110717351D01*
X224547806Y-110262545D02*
X224614985Y-110262545D01*
X226875000Y-113680000D02*
X226875000Y-112430000D01*
X226875000Y-112430000D02*
X224793528Y-110348528D01*
X224614985Y-110262545D02*
X224680479Y-110277494D01*
X224030981Y-109678542D02*
X224030981Y-109745721D01*
X224016032Y-109811215D02*
X223986885Y-109871741D01*
X195199020Y-80754020D02*
X223945000Y-109500000D01*
X224680479Y-110277494D02*
X224741005Y-110306642D01*
%TO.N,Net-(J4-PadB79)*%
X115815000Y-78200000D02*
X115815000Y-69800000D01*
X115815000Y-78200000D02*
X115815000Y-79740000D01*
X224635000Y-112760000D02*
X193006030Y-81131030D01*
X115815000Y-79740000D02*
X117206030Y-81131030D01*
X117206030Y-81131030D02*
X117343970Y-81131030D01*
X117343970Y-81131030D02*
X189743970Y-81131030D01*
X193006030Y-81131030D02*
X189743970Y-81131030D01*
%TO.N,Net-(J4-PadB78)*%
X114775000Y-78300000D02*
X114775000Y-69825000D01*
X190783040Y-81508040D02*
X189900132Y-81508040D01*
X189900132Y-81508040D02*
X116539867Y-81508039D01*
X114775000Y-79743172D02*
X114775000Y-78300000D01*
X222095000Y-112820000D02*
X190783040Y-81508040D01*
X116539867Y-81508039D02*
X114775000Y-79743172D01*
%TO.N,Net-(J4-PadB77)*%
X113815000Y-78200000D02*
X113815000Y-69800000D01*
X219555000Y-112880000D02*
X188560049Y-81885049D01*
X188560049Y-81885049D02*
X116189951Y-81885049D01*
X115960049Y-81885049D02*
X116189951Y-81885049D01*
X113815000Y-78200000D02*
X113815000Y-79740000D01*
X113815000Y-79740000D02*
X115960049Y-81885049D01*
%TO.N,Net-(J4-PadB76)*%
X112815000Y-78200000D02*
X112815000Y-69800000D01*
X213505205Y-110702402D02*
X213570699Y-110717351D01*
X213675000Y-109500000D02*
X213716885Y-109552522D01*
X115337059Y-82262059D02*
X186437059Y-82262059D01*
X213746032Y-109811215D02*
X213716885Y-109871741D01*
X213321124Y-110320155D02*
X213306175Y-110385649D01*
X213350272Y-110578848D02*
X213392157Y-110631370D01*
X186437059Y-82262059D02*
X213675000Y-109500000D01*
X213703372Y-110702402D02*
X213763898Y-110673255D01*
X213716885Y-109871741D02*
X213675000Y-109924264D01*
X112815000Y-78200000D02*
X112815000Y-79740000D01*
X213306175Y-110452828D02*
X213321124Y-110518322D01*
X213321124Y-110518322D02*
X213350272Y-110578848D01*
X213760981Y-109678542D02*
X213760981Y-109745721D01*
X213392157Y-110631370D02*
X213444679Y-110673255D01*
X213637878Y-110717351D02*
X213703372Y-110702402D01*
X214151786Y-110306642D02*
X214212312Y-110277494D01*
X213816421Y-110631370D02*
X214099263Y-110348527D01*
X214099263Y-110348527D02*
X214151786Y-110306642D01*
X213763898Y-110673255D02*
X213816421Y-110631370D01*
X213306175Y-110385649D02*
X213306175Y-110452828D01*
X213675000Y-109924264D02*
X213392157Y-110207106D01*
X112815000Y-79740000D02*
X115337059Y-82262059D01*
X213444679Y-110673255D02*
X213505205Y-110702402D01*
X214410479Y-110277494D02*
X214471005Y-110306642D01*
X213746032Y-109613048D02*
X213760981Y-109678542D01*
X213350272Y-110259629D02*
X213321124Y-110320155D01*
X213570699Y-110717351D02*
X213637878Y-110717351D01*
X213760981Y-109745721D02*
X213746032Y-109811215D01*
X214523528Y-110348528D02*
X216715000Y-112540000D01*
X213716885Y-109552522D02*
X213746032Y-109613048D01*
X216715000Y-112540000D02*
X216715000Y-113680000D01*
X214277806Y-110262545D02*
X214344985Y-110262545D01*
X214212312Y-110277494D02*
X214277806Y-110262545D01*
X213392157Y-110207106D02*
X213350272Y-110259629D01*
X214471005Y-110306642D02*
X214523528Y-110348528D01*
X214344985Y-110262545D02*
X214410479Y-110277494D01*
%TO.N,Net-(J4-PadB75)*%
X111815000Y-78200000D02*
X111815000Y-69800000D01*
X214475000Y-112730000D02*
X184384069Y-82639069D01*
X114680897Y-82639069D02*
X114735931Y-82639069D01*
X184384069Y-82639069D02*
X114735931Y-82639069D01*
X111815000Y-78200000D02*
X111815000Y-79773172D01*
X111815000Y-79773172D02*
X114680897Y-82639069D01*
%TO.N,Net-(J4-PadB74)*%
X110775000Y-78200000D02*
X110775000Y-70025000D01*
X182191079Y-83016079D02*
X114027477Y-83016079D01*
X211275000Y-112100000D02*
X182191079Y-83016079D01*
X114027477Y-83016079D02*
X110775000Y-79763602D01*
X110775000Y-79763602D02*
X110775000Y-78200000D01*
%TO.N,Net-(J4-PadB73)*%
X109815000Y-78200000D02*
X109815000Y-69800000D01*
X109815000Y-79740000D02*
X113468089Y-83393089D01*
X109815000Y-78200000D02*
X109815000Y-79740000D01*
X209395000Y-112720000D02*
X180068089Y-83393089D01*
X180068089Y-83393089D02*
X113668089Y-83393089D01*
X113468089Y-83393089D02*
X113668089Y-83393089D01*
%TO.N,Net-(J4-PadB72)*%
X108815000Y-78200000D02*
X108815000Y-69800000D01*
X203352157Y-110631370D02*
X203404679Y-110673255D01*
X203676885Y-109552522D02*
X203706032Y-109613048D01*
X203266175Y-110385649D02*
X203266175Y-110452828D01*
X203266175Y-110452828D02*
X203281124Y-110518322D01*
X203281124Y-110518322D02*
X203310272Y-110578848D01*
X203310272Y-110578848D02*
X203352157Y-110631370D01*
X177905099Y-83770099D02*
X203635000Y-109500000D01*
X203720981Y-109678542D02*
X203720981Y-109745721D01*
X204431005Y-110306642D02*
X204483528Y-110348528D01*
X203706032Y-109613048D02*
X203720981Y-109678542D01*
X203310272Y-110259629D02*
X203281124Y-110320155D01*
X203635000Y-109500000D02*
X203676885Y-109552522D01*
X204172312Y-110277494D02*
X204237806Y-110262545D01*
X203465205Y-110702402D02*
X203530699Y-110717351D01*
X203776421Y-110631370D02*
X204059263Y-110348527D01*
X204059263Y-110348527D02*
X204111786Y-110306642D01*
X203723898Y-110673255D02*
X203776421Y-110631370D01*
X203720981Y-109745721D02*
X203706032Y-109811215D01*
X203352157Y-110207106D02*
X203310272Y-110259629D01*
X203530699Y-110717351D02*
X203597878Y-110717351D01*
X203597878Y-110717351D02*
X203663372Y-110702402D01*
X203281124Y-110320155D02*
X203266175Y-110385649D01*
X203404679Y-110673255D02*
X203465205Y-110702402D01*
X204111786Y-110306642D02*
X204172312Y-110277494D01*
X203676885Y-109871741D02*
X203635000Y-109924264D01*
X112845099Y-83770099D02*
X177905099Y-83770099D01*
X203706032Y-109811215D02*
X203676885Y-109871741D01*
X204370479Y-110277494D02*
X204431005Y-110306642D01*
X204237806Y-110262545D02*
X204304985Y-110262545D01*
X203635000Y-109924264D02*
X203352157Y-110207106D01*
X206555000Y-112420000D02*
X206555000Y-113680000D01*
X203663372Y-110702402D02*
X203723898Y-110673255D01*
X108815000Y-79740000D02*
X112845099Y-83770099D01*
X108815000Y-78200000D02*
X108815000Y-79740000D01*
X204304985Y-110262545D02*
X204370479Y-110277494D01*
X204483528Y-110348528D02*
X206555000Y-112420000D01*
%TO.N,Net-(J4-PadB71)*%
X107815000Y-78200000D02*
X107815000Y-69800000D01*
X109575000Y-81500000D02*
X109580782Y-81500000D01*
X107815000Y-79740000D02*
X109575000Y-81500000D01*
X175722109Y-84147109D02*
X112227891Y-84147109D01*
X107815000Y-78200000D02*
X107815000Y-79740000D01*
X204315000Y-112740000D02*
X175722109Y-84147109D01*
X109580782Y-81500000D02*
X112227891Y-84147109D01*
%TO.N,Net-(J4-PadB70)*%
X106775000Y-78200000D02*
X106775000Y-69800000D01*
X111599119Y-84524119D02*
X106775000Y-79700000D01*
X201775000Y-112700000D02*
X173599119Y-84524119D01*
X106775000Y-79700000D02*
X106775000Y-78200000D01*
X173599119Y-84524119D02*
X111599119Y-84524119D01*
%TO.N,Net-(J4-PadB69)*%
X105775000Y-78200000D02*
X105775000Y-69800000D01*
X199235000Y-112760000D02*
X171376129Y-84901129D01*
X171376129Y-84901129D02*
X110976129Y-84901129D01*
X105775000Y-79700000D02*
X105775000Y-78200000D01*
X110976129Y-84901129D02*
X105775000Y-79700000D01*
%TO.N,Net-(J4-PadB68)*%
X104775000Y-78200000D02*
X104775000Y-69800000D01*
X169253139Y-85278139D02*
X110353139Y-85278139D01*
X110353139Y-85278139D02*
X104775000Y-79700000D01*
X169253139Y-85278139D02*
X193475000Y-109500000D01*
X194210479Y-110277494D02*
X194271005Y-110306642D01*
X194144985Y-110262545D02*
X194210479Y-110277494D01*
X193546032Y-109811215D02*
X193516885Y-109871741D01*
X193560981Y-109678542D02*
X193560981Y-109745721D01*
X104775000Y-79700000D02*
X104775000Y-78200000D01*
X196395000Y-112420000D02*
X194323528Y-110348528D01*
X196395000Y-113680000D02*
X196395000Y-112420000D01*
X193370699Y-110717351D02*
X193437878Y-110717351D01*
X193951786Y-110306642D02*
X194012312Y-110277494D01*
X193503372Y-110702402D02*
X193563898Y-110673255D01*
X193121124Y-110518322D02*
X193150272Y-110578848D01*
X193150272Y-110578848D02*
X193192157Y-110631370D01*
X193437878Y-110717351D02*
X193503372Y-110702402D01*
X193106175Y-110452828D02*
X193121124Y-110518322D01*
X193244679Y-110673255D02*
X193305205Y-110702402D01*
X193616421Y-110631370D02*
X193899263Y-110348527D01*
X193150272Y-110259629D02*
X193121124Y-110320155D01*
X193121124Y-110320155D02*
X193106175Y-110385649D01*
X194271005Y-110306642D02*
X194323528Y-110348528D01*
X193192157Y-110631370D02*
X193244679Y-110673255D01*
X193560981Y-109745721D02*
X193546032Y-109811215D01*
X193899263Y-110348527D02*
X193951786Y-110306642D01*
X193475000Y-109924264D02*
X193192157Y-110207106D01*
X194012312Y-110277494D02*
X194077806Y-110262545D01*
X193516885Y-109871741D02*
X193475000Y-109924264D01*
X193546032Y-109613048D02*
X193560981Y-109678542D01*
X193563898Y-110673255D02*
X193616421Y-110631370D01*
X193106175Y-110385649D02*
X193106175Y-110452828D01*
X193516885Y-109552522D02*
X193546032Y-109613048D01*
X193192157Y-110207106D02*
X193150272Y-110259629D01*
X193475000Y-109500000D02*
X193516885Y-109552522D01*
X193305205Y-110702402D02*
X193370699Y-110717351D01*
X194077806Y-110262545D02*
X194144985Y-110262545D01*
%TO.N,Net-(J4-PadB67)*%
X103775000Y-78200000D02*
X103775000Y-69800000D01*
X194155000Y-112680000D02*
X167130149Y-85655149D01*
X167130149Y-85655149D02*
X109730149Y-85655149D01*
X103775000Y-79700000D02*
X103775000Y-78200000D01*
X109730149Y-85655149D02*
X103775000Y-79700000D01*
%TO.N,Net-(J4-PadB66)*%
X102775000Y-78200000D02*
X102775000Y-69800000D01*
X191615000Y-112640000D02*
X165007159Y-86032159D01*
X109107159Y-86032159D02*
X102775000Y-79700000D01*
X102775000Y-79700000D02*
X102775000Y-78200000D01*
X165007159Y-86032159D02*
X109107159Y-86032159D01*
%TO.N,Net-(J4-PadB65)*%
X101775000Y-78200000D02*
X101775000Y-69800000D01*
X101775000Y-79700000D02*
X101775000Y-78200000D01*
X108665831Y-86409169D02*
X108484169Y-86409169D01*
X162884169Y-86409169D02*
X109365831Y-86409169D01*
X108484169Y-86409169D02*
X101775000Y-79700000D01*
X189075000Y-112600000D02*
X162884169Y-86409169D01*
X109365831Y-86409169D02*
X108665831Y-86409169D01*
%TO.N,Net-(J4-PadB64)*%
X100815000Y-78200000D02*
X100815000Y-69800000D01*
X100815000Y-78200000D02*
X100815000Y-79740000D01*
X100815000Y-79740000D02*
X107861179Y-86786179D01*
X183370699Y-110717351D02*
X183437878Y-110717351D01*
X183560981Y-109678542D02*
X183560981Y-109745721D01*
X186235000Y-113680000D02*
X186235000Y-112260000D01*
X160761179Y-86786179D02*
X183475000Y-109500000D01*
X160761179Y-86786179D02*
X107861179Y-86786179D01*
X183546032Y-109811215D02*
X183516885Y-109871741D01*
X186235000Y-112260000D02*
X184323528Y-110348528D01*
X184210479Y-110277494D02*
X184271005Y-110306642D01*
X184144985Y-110262545D02*
X184210479Y-110277494D01*
X183951786Y-110306642D02*
X184012312Y-110277494D01*
X183503372Y-110702402D02*
X183563898Y-110673255D01*
X183121124Y-110518322D02*
X183150272Y-110578848D01*
X183150272Y-110578848D02*
X183192157Y-110631370D01*
X183437878Y-110717351D02*
X183503372Y-110702402D01*
X183106175Y-110452828D02*
X183121124Y-110518322D01*
X183244679Y-110673255D02*
X183305205Y-110702402D01*
X183616421Y-110631370D02*
X183899263Y-110348527D01*
X183150272Y-110259629D02*
X183121124Y-110320155D01*
X183121124Y-110320155D02*
X183106175Y-110385649D01*
X184271005Y-110306642D02*
X184323528Y-110348528D01*
X183192157Y-110631370D02*
X183244679Y-110673255D01*
X183560981Y-109745721D02*
X183546032Y-109811215D01*
X183899263Y-110348527D02*
X183951786Y-110306642D01*
X183475000Y-109924264D02*
X183192157Y-110207106D01*
X184012312Y-110277494D02*
X184077806Y-110262545D01*
X183516885Y-109871741D02*
X183475000Y-109924264D01*
X183546032Y-109613048D02*
X183560981Y-109678542D01*
X183563898Y-110673255D02*
X183616421Y-110631370D01*
X183106175Y-110385649D02*
X183106175Y-110452828D01*
X183516885Y-109552522D02*
X183546032Y-109613048D01*
X183192157Y-110207106D02*
X183150272Y-110259629D01*
X183475000Y-109500000D02*
X183516885Y-109552522D01*
X183305205Y-110702402D02*
X183370699Y-110717351D01*
X184077806Y-110262545D02*
X184144985Y-110262545D01*
%TO.N,Net-(J4-PadB63)*%
X99775000Y-78200000D02*
X99775000Y-69800000D01*
X183995000Y-112620000D02*
X158538189Y-87163189D01*
X107238189Y-87163189D02*
X99775000Y-79700000D01*
X158538189Y-87163189D02*
X107238189Y-87163189D01*
X99775000Y-79700000D02*
X99775000Y-78300000D01*
%TO.N,Net-(J4-PadB62)*%
X98815000Y-78200000D02*
X98815000Y-69800000D01*
X98815000Y-78200000D02*
X98815000Y-79740000D01*
X107234801Y-87540199D02*
X106934801Y-87540199D01*
X106934801Y-87540199D02*
X106615199Y-87540199D01*
X156315199Y-87540199D02*
X107234801Y-87540199D01*
X181455000Y-112680000D02*
X156315199Y-87540199D01*
X98815000Y-79740000D02*
X106615199Y-87540199D01*
%TO.N,Net-(J4-PadB61)*%
X97815000Y-78200000D02*
X97815000Y-69800000D01*
X97815000Y-79740000D02*
X105992209Y-87917209D01*
X154192209Y-87917209D02*
X178915000Y-112640000D01*
X97815000Y-78200000D02*
X97815000Y-79740000D01*
X105992209Y-87917209D02*
X154192209Y-87917209D01*
%TO.N,Net-(J4-PadB60)*%
X96815000Y-78200000D02*
X96815000Y-69800000D01*
X173246032Y-109811215D02*
X173216885Y-109871741D01*
X151969219Y-88294219D02*
X105369219Y-88294219D01*
X151969219Y-88294219D02*
X173175000Y-109500000D01*
X96815000Y-79740000D02*
X96815000Y-78200000D01*
X105369219Y-88294219D02*
X96815000Y-79740000D01*
X176075000Y-112400000D02*
X174023528Y-110348528D01*
X176075000Y-113680000D02*
X176075000Y-112400000D01*
X173070699Y-110717351D02*
X173137878Y-110717351D01*
X173910479Y-110277494D02*
X173971005Y-110306642D01*
X173844985Y-110262545D02*
X173910479Y-110277494D01*
X173260981Y-109678542D02*
X173260981Y-109745721D01*
X173651786Y-110306642D02*
X173712312Y-110277494D01*
X173203372Y-110702402D02*
X173263898Y-110673255D01*
X172821124Y-110518322D02*
X172850272Y-110578848D01*
X172850272Y-110578848D02*
X172892157Y-110631370D01*
X173137878Y-110717351D02*
X173203372Y-110702402D01*
X172806175Y-110452828D02*
X172821124Y-110518322D01*
X172944679Y-110673255D02*
X173005205Y-110702402D01*
X173316421Y-110631370D02*
X173599263Y-110348527D01*
X172850272Y-110259629D02*
X172821124Y-110320155D01*
X172821124Y-110320155D02*
X172806175Y-110385649D01*
X173971005Y-110306642D02*
X174023528Y-110348528D01*
X172892157Y-110631370D02*
X172944679Y-110673255D01*
X173260981Y-109745721D02*
X173246032Y-109811215D01*
X173599263Y-110348527D02*
X173651786Y-110306642D01*
X173175000Y-109924264D02*
X172892157Y-110207106D01*
X173712312Y-110277494D02*
X173777806Y-110262545D01*
X173216885Y-109871741D02*
X173175000Y-109924264D01*
X173246032Y-109613048D02*
X173260981Y-109678542D01*
X173263898Y-110673255D02*
X173316421Y-110631370D01*
X172806175Y-110385649D02*
X172806175Y-110452828D01*
X173216885Y-109552522D02*
X173246032Y-109613048D01*
X172892157Y-110207106D02*
X172850272Y-110259629D01*
X173175000Y-109500000D02*
X173216885Y-109552522D01*
X173005205Y-110702402D02*
X173070699Y-110717351D01*
X173777806Y-110262545D02*
X173844985Y-110262545D01*
%TO.N,Net-(J4-PadB59)*%
X95815000Y-78200000D02*
X95815000Y-69800000D01*
X95815000Y-79740000D02*
X95815000Y-78200000D01*
X104746229Y-88671229D02*
X95815000Y-79740000D01*
X149846229Y-88671229D02*
X104746229Y-88671229D01*
X173835000Y-112660000D02*
X149846229Y-88671229D01*
%TO.N,Net-(J4-PadB58)*%
X94815000Y-78200000D02*
X94815000Y-69800000D01*
X171295000Y-112720000D02*
X147623239Y-89048239D01*
X104123239Y-89048239D02*
X94815000Y-79740000D01*
X94815000Y-79740000D02*
X94815000Y-78200000D01*
X147623239Y-89048239D02*
X104123239Y-89048239D01*
%TO.N,Net-(J4-PadB57)*%
X93815000Y-78200000D02*
X93815000Y-69800000D01*
X145400249Y-89425249D02*
X103500249Y-89425249D01*
X103500249Y-89425249D02*
X93815000Y-79740000D01*
X168755000Y-112780000D02*
X145400249Y-89425249D01*
X93815000Y-79740000D02*
X93815000Y-78200000D01*
%TO.N,Net-(J4-PadB56)*%
X92815000Y-78200000D02*
X92815000Y-69800000D01*
X92815000Y-79740000D02*
X92815000Y-78200000D01*
X143277259Y-89802259D02*
X162975000Y-109500000D01*
X143277259Y-89802259D02*
X102877259Y-89802259D01*
X163060981Y-109678542D02*
X163060981Y-109745721D01*
X163046032Y-109811215D02*
X163016885Y-109871741D01*
X165915000Y-112440000D02*
X163823528Y-110348528D01*
X165915000Y-113680000D02*
X165915000Y-112440000D01*
X102877259Y-89802259D02*
X92815000Y-79740000D01*
X163710479Y-110277494D02*
X163771005Y-110306642D01*
X162870699Y-110717351D02*
X162937878Y-110717351D01*
X163451786Y-110306642D02*
X163512312Y-110277494D01*
X163003372Y-110702402D02*
X163063898Y-110673255D01*
X162621124Y-110518322D02*
X162650272Y-110578848D01*
X162650272Y-110578848D02*
X162692157Y-110631370D01*
X162937878Y-110717351D02*
X163003372Y-110702402D01*
X162606175Y-110452828D02*
X162621124Y-110518322D01*
X162744679Y-110673255D02*
X162805205Y-110702402D01*
X163116421Y-110631370D02*
X163399263Y-110348527D01*
X162650272Y-110259629D02*
X162621124Y-110320155D01*
X162621124Y-110320155D02*
X162606175Y-110385649D01*
X163771005Y-110306642D02*
X163823528Y-110348528D01*
X162692157Y-110631370D02*
X162744679Y-110673255D01*
X163060981Y-109745721D02*
X163046032Y-109811215D01*
X163399263Y-110348527D02*
X163451786Y-110306642D01*
X162975000Y-109924264D02*
X162692157Y-110207106D01*
X163512312Y-110277494D02*
X163577806Y-110262545D01*
X163016885Y-109871741D02*
X162975000Y-109924264D01*
X163046032Y-109613048D02*
X163060981Y-109678542D01*
X163063898Y-110673255D02*
X163116421Y-110631370D01*
X162606175Y-110385649D02*
X162606175Y-110452828D01*
X163016885Y-109552522D02*
X163046032Y-109613048D01*
X162692157Y-110207106D02*
X162650272Y-110259629D01*
X162975000Y-109500000D02*
X163016885Y-109552522D01*
X162805205Y-110702402D02*
X162870699Y-110717351D01*
X163577806Y-110262545D02*
X163644985Y-110262545D01*
X163644985Y-110262545D02*
X163710479Y-110277494D01*
%TO.N,Net-(J4-PadB55)*%
X91815000Y-78200000D02*
X91815000Y-69800000D01*
X102254269Y-90179269D02*
X91815000Y-79740000D01*
X163675000Y-112800000D02*
X141054269Y-90179269D01*
X141054269Y-90179269D02*
X102254269Y-90179269D01*
X91815000Y-79740000D02*
X91815000Y-78200000D01*
%TO.N,Net-(J4-PadB54)*%
X90815000Y-78200000D02*
X90815000Y-69800000D01*
X161135000Y-112760000D02*
X138931279Y-90556279D01*
X138931279Y-90556279D02*
X101631279Y-90556279D01*
X101631279Y-90556279D02*
X90815000Y-79740000D01*
X90815000Y-79740000D02*
X90815000Y-78200000D01*
%TO.N,Net-(J4-PadB53)*%
X89815000Y-78200000D02*
X89815000Y-69800000D01*
X101008289Y-90933289D02*
X89815000Y-79740000D01*
X158595000Y-112720000D02*
X136808289Y-90933289D01*
X136808289Y-90933289D02*
X101008289Y-90933289D01*
X89815000Y-79740000D02*
X89815000Y-78200000D01*
%TO.N,Net-(J4-PadB52)*%
X88815000Y-78200000D02*
X88815000Y-69800000D01*
X155755000Y-113680000D02*
X155755000Y-112480000D01*
X88815000Y-79740000D02*
X88815000Y-78200000D01*
X153444985Y-110262545D02*
X153510479Y-110277494D01*
X100385299Y-91310299D02*
X88815000Y-79740000D01*
X153510479Y-110277494D02*
X153571005Y-110306642D01*
X152670699Y-110717351D02*
X152737878Y-110717351D01*
X152860981Y-109678542D02*
X152860981Y-109745721D01*
X153251786Y-110306642D02*
X153312312Y-110277494D01*
X152803372Y-110702402D02*
X152863898Y-110673255D01*
X152421124Y-110518322D02*
X152450272Y-110578848D01*
X152450272Y-110578848D02*
X152492157Y-110631370D01*
X152737878Y-110717351D02*
X152803372Y-110702402D01*
X152406175Y-110452828D02*
X152421124Y-110518322D01*
X152544679Y-110673255D02*
X152605205Y-110702402D01*
X152916421Y-110631370D02*
X153199263Y-110348527D01*
X152450272Y-110259629D02*
X152421124Y-110320155D01*
X152421124Y-110320155D02*
X152406175Y-110385649D01*
X153571005Y-110306642D02*
X153623528Y-110348528D01*
X152492157Y-110631370D02*
X152544679Y-110673255D01*
X152860981Y-109745721D02*
X152846032Y-109811215D01*
X153199263Y-110348527D02*
X153251786Y-110306642D01*
X152775000Y-109924264D02*
X152492157Y-110207106D01*
X153312312Y-110277494D02*
X153377806Y-110262545D01*
X152816885Y-109871741D02*
X152775000Y-109924264D01*
X152846032Y-109613048D02*
X152860981Y-109678542D01*
X152863898Y-110673255D02*
X152916421Y-110631370D01*
X152406175Y-110385649D02*
X152406175Y-110452828D01*
X152816885Y-109552522D02*
X152846032Y-109613048D01*
X152492157Y-110207106D02*
X152450272Y-110259629D01*
X152775000Y-109500000D02*
X152816885Y-109552522D01*
X152605205Y-110702402D02*
X152670699Y-110717351D01*
X153377806Y-110262545D02*
X153444985Y-110262545D01*
X134585299Y-91310299D02*
X152775000Y-109500000D01*
X155755000Y-112480000D02*
X153623528Y-110348528D01*
X134585299Y-91310299D02*
X100385299Y-91310299D01*
X152846032Y-109811215D02*
X152816885Y-109871741D01*
%TO.N,Net-(J4-PadB51)*%
X87815000Y-78200000D02*
X87815000Y-69800000D01*
X99762309Y-91687309D02*
X87815000Y-79740000D01*
X87815000Y-79740000D02*
X87815000Y-78200000D01*
X132462309Y-91687309D02*
X99762309Y-91687309D01*
X153515000Y-112740000D02*
X132462309Y-91687309D01*
%TO.N,Net-(J4-PadB50)*%
X86815000Y-78200000D02*
X86815000Y-69800000D01*
X86815000Y-79740000D02*
X86815000Y-78200000D01*
X150975000Y-112800000D02*
X130239319Y-92064319D01*
X99139319Y-92064319D02*
X86815000Y-79740000D01*
X130239319Y-92064319D02*
X99139319Y-92064319D01*
%TO.N,Net-(J4-PadB13)*%
X49815000Y-78200000D02*
X49815000Y-70200000D01*
X49815000Y-79740000D02*
X55725000Y-85650000D01*
X56695000Y-113680000D02*
X56695000Y-86620000D01*
X49815000Y-78200000D02*
X49815000Y-79740000D01*
X56695000Y-86620000D02*
X55725000Y-85650000D01*
%TO.N,Net-(J4-PadB12)*%
X48815000Y-78200000D02*
X48815000Y-71115000D01*
X48815000Y-71115000D02*
X48740000Y-71040000D01*
X48815000Y-78200000D02*
X48815000Y-79740000D01*
X54155000Y-113680000D02*
X54155000Y-85080000D01*
X48815000Y-79740000D02*
X54155000Y-85080000D01*
%TO.N,Net-(J4-PadB18)*%
X54815000Y-78200000D02*
X54815000Y-69800000D01*
X54815000Y-79740000D02*
X54815000Y-78200000D01*
X69395000Y-113680000D02*
X69395000Y-94320000D01*
X69395000Y-94320000D02*
X54815000Y-79740000D01*
%TO.N,Net-(J4-PadB17)*%
X53815000Y-78200000D02*
X53815000Y-69800000D01*
X66855000Y-92780000D02*
X53815000Y-79740000D01*
X66855000Y-113680000D02*
X66855000Y-92780000D01*
X53815000Y-79740000D02*
X53815000Y-78200000D01*
%TO.N,Net-(J4-PadB16)*%
X52815000Y-78200000D02*
X52815000Y-70000000D01*
X64307750Y-95173940D02*
X64315000Y-95238280D01*
X52815000Y-79740000D02*
X64315000Y-91240000D01*
X64315000Y-94060000D02*
X64307750Y-94124339D01*
X63743968Y-94573940D02*
X63736719Y-94638280D01*
X64251918Y-94240275D02*
X64206135Y-94286058D01*
X64315000Y-91240000D02*
X64315000Y-94060000D01*
X64151313Y-94320506D02*
X64090199Y-94341890D01*
X63900405Y-94920506D02*
X63961519Y-94941890D01*
X63900405Y-94377773D02*
X63845583Y-94412221D01*
X63736719Y-94638280D02*
X63736719Y-94660000D01*
X63961519Y-94356389D02*
X63900405Y-94377773D01*
X63961519Y-94941890D02*
X64090199Y-94956389D01*
X63845583Y-94412221D02*
X63799800Y-94458004D01*
X63799800Y-94840275D02*
X63845583Y-94886058D01*
X64307750Y-94124339D02*
X64286366Y-94185453D01*
X64090199Y-94341890D02*
X63961519Y-94356389D01*
X64090199Y-94956389D02*
X64151313Y-94977773D01*
X63765352Y-94785453D02*
X63799800Y-94840275D01*
X63845583Y-94886058D02*
X63900405Y-94920506D01*
X63736719Y-94660000D02*
X63743968Y-94724339D01*
X64251918Y-95058004D02*
X64286366Y-95112826D01*
X52815000Y-78200000D02*
X52815000Y-79740000D01*
X63799800Y-94458004D02*
X63765352Y-94512826D01*
X63743968Y-94724339D02*
X63765352Y-94785453D01*
X64286366Y-95112826D02*
X64307750Y-95173940D01*
X64315000Y-97601045D02*
X64315000Y-113680000D01*
X64315000Y-95238280D02*
X64315000Y-97601045D01*
X64206135Y-94286058D02*
X64151313Y-94320506D01*
X63765352Y-94512826D02*
X63743968Y-94573940D01*
X64151313Y-94977773D02*
X64206135Y-95012221D01*
X64206135Y-95012221D02*
X64251918Y-95058004D01*
X64286366Y-94185453D02*
X64251918Y-94240275D01*
%TO.N,Net-(J4-PadB15)*%
X51815000Y-78200000D02*
X51815000Y-70100000D01*
X51815000Y-78200000D02*
X51815000Y-79740000D01*
X51815000Y-79740000D02*
X59925000Y-87850000D01*
X61775000Y-89700000D02*
X59925000Y-87850000D01*
X59925000Y-87850000D02*
X59992209Y-87917209D01*
X61775000Y-113680000D02*
X61775000Y-89700000D01*
%TO.N,Net-(J4-PadB14)*%
X50815000Y-78200000D02*
X50815000Y-69800000D01*
X59065165Y-94769709D02*
X59122046Y-94805450D01*
X59122046Y-94805450D02*
X59169549Y-94852953D01*
X58616352Y-94373243D02*
X58608831Y-94440000D01*
X59001756Y-94747521D02*
X59065165Y-94769709D01*
X59235000Y-95040000D02*
X59235000Y-96410593D01*
X58842074Y-94732478D02*
X58908831Y-94740000D01*
X58616352Y-94506756D02*
X58638540Y-94570165D01*
X58778665Y-94169709D02*
X58721784Y-94205450D01*
X50815000Y-78200000D02*
X50815000Y-79740000D01*
X59227478Y-94973243D02*
X59235000Y-95040000D01*
X59205290Y-94909834D02*
X59227478Y-94973243D01*
X58935000Y-94740000D02*
X59001756Y-94747521D01*
X59235000Y-88160000D02*
X59235000Y-93840000D01*
X59235000Y-96410593D02*
X59235000Y-113680000D01*
X58674281Y-94627046D02*
X58721784Y-94674549D01*
X58935000Y-94140000D02*
X58908831Y-94140000D01*
X58908831Y-94140000D02*
X58842074Y-94147521D01*
X59235000Y-93840000D02*
X59227478Y-93906756D01*
X50815000Y-79740000D02*
X59235000Y-88160000D01*
X59205290Y-93970165D02*
X59169549Y-94027046D01*
X59122046Y-94074549D02*
X59065165Y-94110290D01*
X58908831Y-94740000D02*
X58935000Y-94740000D01*
X58638540Y-94570165D02*
X58674281Y-94627046D01*
X58674281Y-94252953D02*
X58638540Y-94309834D01*
X59065165Y-94110290D02*
X59001756Y-94132478D01*
X58608831Y-94440000D02*
X58616352Y-94506756D01*
X59001756Y-94132478D02*
X58935000Y-94140000D01*
X58721784Y-94674549D02*
X58778665Y-94710290D01*
X58778665Y-94710290D02*
X58842074Y-94732478D01*
X59169549Y-94852953D02*
X59205290Y-94909834D01*
X59169549Y-94027046D02*
X59122046Y-94074549D01*
X58842074Y-94147521D02*
X58778665Y-94169709D01*
X58721784Y-94205450D02*
X58674281Y-94252953D01*
X59227478Y-93906756D02*
X59205290Y-93970165D01*
X58638540Y-94309834D02*
X58616352Y-94373243D01*
%TO.N,Net-(J4-PadB11)*%
X45815000Y-78200000D02*
X45815000Y-70700000D01*
X51615000Y-85440000D02*
X51615000Y-86040000D01*
X51615000Y-113680000D02*
X51615000Y-86040000D01*
X45815000Y-78200000D02*
X45815000Y-79640000D01*
X45815000Y-79640000D02*
X51615000Y-85440000D01*
%TO.N,Net-(J4-PadB10)*%
X44875000Y-78200000D02*
X44875000Y-70400000D01*
X44875000Y-79800000D02*
X44875000Y-78200000D01*
X49075000Y-84000000D02*
X44875000Y-79800000D01*
X49075000Y-113680000D02*
X49075000Y-84000000D01*
%TO.N,Net-(J4-PadB9)*%
X43775000Y-78400000D02*
X43775000Y-70200000D01*
X46535000Y-113680000D02*
X46535000Y-82460000D01*
X46535000Y-82460000D02*
X43775000Y-79700000D01*
X43775000Y-79700000D02*
X43775000Y-78400000D01*
%TO.N,Net-(J4-PadB8)*%
X42775000Y-78300000D02*
X42775000Y-70400000D01*
X43995000Y-113680000D02*
X43995000Y-80920000D01*
X43995000Y-80920000D02*
X42775000Y-79700000D01*
X42775000Y-79700000D02*
X42775000Y-78300000D01*
%TO.N,Net-(J4-PadB7)*%
X41775000Y-78400000D02*
X41775000Y-70000000D01*
X41455000Y-80020000D02*
X41775000Y-79700000D01*
X41775000Y-79700000D02*
X41775000Y-78400000D01*
X41455000Y-113680000D02*
X41455000Y-80020000D01*
%TO.N,Net-(J4-PadB6)*%
X40775000Y-78300000D02*
X40775000Y-70000000D01*
X38915000Y-81660000D02*
X40775000Y-79800000D01*
X40775000Y-79800000D02*
X40775000Y-78300000D01*
X38915000Y-113680000D02*
X38915000Y-81660000D01*
%TO.N,Net-(J4-PadB5)*%
X39775000Y-78300000D02*
X39775000Y-70100000D01*
X36375000Y-113680000D02*
X36375000Y-83200000D01*
X39775000Y-79800000D02*
X39775000Y-78300000D01*
X36375000Y-83200000D02*
X39775000Y-79800000D01*
%TO.N,Net-(J4-PadB4)*%
X38875000Y-78200000D02*
X38875000Y-70100000D01*
X33835000Y-113680000D02*
X33835000Y-84740000D01*
X38875000Y-79700000D02*
X38875000Y-78200000D01*
X33835000Y-84740000D02*
X38875000Y-79700000D01*
%TO.N,Net-(J4-PadB3)*%
X37775000Y-78300000D02*
X37775000Y-70000000D01*
X31295000Y-86280000D02*
X37775000Y-79800000D01*
X31295000Y-113680000D02*
X31295000Y-86280000D01*
X37775000Y-79800000D02*
X37775000Y-78300000D01*
%TO.N,Net-(J4-PadB2)*%
X36775000Y-78300000D02*
X36775000Y-70030000D01*
X36775000Y-79843602D02*
X36775000Y-78300000D01*
X28755000Y-113680000D02*
X28755000Y-87863602D01*
X28755000Y-87863602D02*
X36775000Y-79843602D01*
%TO.N,Net-(J4-PadB1)*%
X35775000Y-78200000D02*
X35775000Y-70580000D01*
X26215000Y-89360000D02*
X35775000Y-79800000D01*
X26215000Y-113680000D02*
X26215000Y-89360000D01*
X35775000Y-79800000D02*
X35775000Y-78200000D01*
%TO.N,Net-(J4-PadB19)*%
X55815000Y-78200000D02*
X55815000Y-69800000D01*
X71935000Y-113680000D02*
X71935000Y-95860000D01*
X71935000Y-95860000D02*
X55815000Y-79740000D01*
X55815000Y-79740000D02*
X55815000Y-78200000D01*
%TO.N,Net-(J4-PadB20)*%
X56815000Y-78200000D02*
X56815000Y-69800000D01*
X74475000Y-113680000D02*
X74475000Y-97400000D01*
X74475000Y-97400000D02*
X56815000Y-79740000D01*
X56815000Y-79740000D02*
X56815000Y-78200000D01*
%TO.N,Net-(J4-PadB21)*%
X57815000Y-78200000D02*
X57815000Y-69800000D01*
X76545358Y-102786167D02*
X76600207Y-102820631D01*
X76600207Y-102277926D02*
X76545358Y-102312390D01*
X76851234Y-102877926D02*
X76906083Y-102912390D01*
X76465089Y-102413044D02*
X76443694Y-102474187D01*
X76790091Y-102242026D02*
X76661350Y-102256531D01*
X76661350Y-102842026D02*
X76790091Y-102856531D01*
X76436442Y-102538558D02*
X76436442Y-102560000D01*
X76436442Y-102560000D02*
X76443694Y-102624370D01*
X76906083Y-102186167D02*
X76851234Y-102220631D01*
X76661350Y-102256531D02*
X76600207Y-102277926D01*
X76443694Y-102624370D02*
X76465089Y-102685513D01*
X76465089Y-102685513D02*
X76499553Y-102740362D01*
X76600207Y-102820631D02*
X76661350Y-102842026D01*
X76790091Y-102856531D02*
X76851234Y-102877926D01*
X76906083Y-102912390D02*
X76951888Y-102958195D01*
X76986352Y-103013044D02*
X77007747Y-103074187D01*
X57815000Y-78200000D02*
X57815000Y-79740000D01*
X76951888Y-102140362D02*
X76906083Y-102186167D01*
X76951888Y-102958195D02*
X76986352Y-103013044D01*
X76499553Y-102740362D02*
X76545358Y-102786167D01*
X77015000Y-103138558D02*
X77015000Y-105089903D01*
X76986352Y-102085513D02*
X76951888Y-102140362D01*
X77015000Y-98940000D02*
X77015000Y-101960000D01*
X77015000Y-101960000D02*
X77007747Y-102024370D01*
X76499553Y-102358195D02*
X76465089Y-102413044D01*
X76443694Y-102474187D02*
X76436442Y-102538558D01*
X77015000Y-105089903D02*
X77015000Y-113680000D01*
X77007747Y-103074187D02*
X77015000Y-103138558D01*
X76545358Y-102312390D02*
X76499553Y-102358195D01*
X77007747Y-102024370D02*
X76986352Y-102085513D01*
X57815000Y-79740000D02*
X77015000Y-98940000D01*
X76851234Y-102220631D02*
X76790091Y-102242026D01*
%TO.N,Net-(J4-PadB22)*%
X58815000Y-78200000D02*
X58815000Y-69800000D01*
X79555000Y-100480000D02*
X58815000Y-79740000D01*
X79555000Y-113680000D02*
X79555000Y-100480000D01*
X58815000Y-79740000D02*
X58815000Y-78200000D01*
%TO.N,Net-(J4-PadB23)*%
X59815000Y-78200000D02*
X59815000Y-69800000D01*
X59815000Y-79740000D02*
X59815000Y-78200000D01*
X82095000Y-102020000D02*
X59815000Y-79740000D01*
X82095000Y-113680000D02*
X82095000Y-102020000D01*
%TO.N,Net-(J4-PadB24)*%
X60815000Y-78200000D02*
X60815000Y-69800000D01*
X84635000Y-112560000D02*
X83766960Y-111691960D01*
X84635000Y-113680000D02*
X84635000Y-112560000D01*
X83766960Y-102691960D02*
X60815000Y-79740000D01*
X83766960Y-111691960D02*
X83766960Y-106791960D01*
X83766960Y-106791960D02*
X83766960Y-102691960D01*
X60815000Y-79740000D02*
X60815000Y-78200000D01*
%TO.N,Net-(J4-PadB25)*%
X61815000Y-78200000D02*
X61815000Y-69800000D01*
X84143970Y-102068970D02*
X61815000Y-79740000D01*
X87175000Y-112500000D02*
X84143970Y-109468970D01*
X84143970Y-109468970D02*
X84143970Y-102068970D01*
X61815000Y-79740000D02*
X61815000Y-78200000D01*
X87175000Y-113680000D02*
X87175000Y-112500000D01*
%TO.N,Net-(J4-PadB26)*%
X62815000Y-78200000D02*
X62815000Y-69800000D01*
X89715000Y-113680000D02*
X89715000Y-112540000D01*
X84520980Y-107345980D02*
X84520980Y-101445980D01*
X84520980Y-101445980D02*
X62815000Y-79740000D01*
X62815000Y-79740000D02*
X62815000Y-78200000D01*
X89715000Y-112540000D02*
X84520980Y-107345980D01*
%TO.N,Net-(J4-PadB27)*%
X63815000Y-78200000D02*
X63815000Y-69800000D01*
X84897990Y-105222990D02*
X84897990Y-100822990D01*
X63815000Y-79740000D02*
X63815000Y-78200000D01*
X92255000Y-113680000D02*
X92255000Y-112580000D01*
X92255000Y-112580000D02*
X84897990Y-105222990D01*
X84897990Y-100822990D02*
X63815000Y-79740000D01*
%TO.N,Net-(J4-PadB28)*%
X64815000Y-78200000D02*
X64815000Y-69800000D01*
X64815000Y-79740000D02*
X64815000Y-78200000D01*
X85275000Y-100200000D02*
X64815000Y-79740000D01*
X85275000Y-103000000D02*
X85275000Y-100200000D01*
X94795000Y-113680000D02*
X94795000Y-112520000D01*
X94795000Y-112520000D02*
X85275000Y-103000000D01*
%TO.N,Net-(J4-PadB29)*%
X65815000Y-78200000D02*
X65815000Y-69800000D01*
X94141026Y-110166581D02*
X94206520Y-110181530D01*
X93941996Y-109917007D02*
X93956945Y-109982501D01*
X94080500Y-110137434D02*
X94141026Y-110166581D01*
X94273699Y-110181530D02*
X94339193Y-110166581D01*
X94075000Y-109624264D02*
X94027978Y-109671285D01*
X94146032Y-109313048D02*
X94160981Y-109378542D01*
X94160981Y-109378542D02*
X94160981Y-109445721D01*
X94075000Y-109200000D02*
X94116885Y-109252522D01*
X94677806Y-109962545D02*
X94744985Y-109962545D01*
X94027978Y-110095549D02*
X94080500Y-110137434D01*
X94116885Y-109252522D02*
X94146032Y-109313048D01*
X93941996Y-109849828D02*
X93941996Y-109917007D01*
X93986092Y-110043027D02*
X94027978Y-110095549D01*
X94206520Y-110181530D02*
X94273699Y-110181530D01*
X85675000Y-99600000D02*
X85675000Y-100800000D01*
X94146032Y-109511215D02*
X94116885Y-109571741D01*
X65815000Y-79740000D02*
X85675000Y-99600000D01*
X65815000Y-78200000D02*
X65815000Y-79740000D01*
X97335000Y-112460000D02*
X97335000Y-113680000D01*
X93986092Y-109723808D02*
X93956945Y-109784334D01*
X93956945Y-109784334D02*
X93941996Y-109849828D01*
X94871005Y-110006641D02*
X94923528Y-110048528D01*
X94551786Y-110006641D02*
X94612312Y-109977494D01*
X94339193Y-110166581D02*
X94399719Y-110137434D01*
X94452242Y-110095549D02*
X94499263Y-110048527D01*
X93956945Y-109982501D02*
X93986092Y-110043027D01*
X94499263Y-110048527D02*
X94551786Y-110006641D01*
X94923528Y-110048528D02*
X97335000Y-112460000D01*
X94810479Y-109977494D02*
X94871005Y-110006641D01*
X94744985Y-109962545D02*
X94810479Y-109977494D01*
X94027978Y-109671285D02*
X93986092Y-109723808D01*
X94399719Y-110137434D02*
X94452242Y-110095549D01*
X94612312Y-109977494D02*
X94677806Y-109962545D01*
X94116885Y-109571741D02*
X94075000Y-109624264D01*
X94160981Y-109445721D02*
X94146032Y-109511215D01*
X85675000Y-100800000D02*
X94075000Y-109200000D01*
%TO.N,Net-(J4-PadB30)*%
X66815000Y-78200000D02*
X66815000Y-69800000D01*
X86975000Y-99600000D02*
X86675000Y-99600000D01*
X86675000Y-99600000D02*
X66815000Y-79740000D01*
X66815000Y-79740000D02*
X66815000Y-78200000D01*
X99875000Y-112500000D02*
X86975000Y-99600000D01*
X99875000Y-113680000D02*
X99875000Y-112500000D01*
%TO.N,Net-(J4-PadB31)*%
X67815000Y-78200000D02*
X67815000Y-69800000D01*
X102415000Y-112540000D02*
X89102509Y-99227509D01*
X89102509Y-99227509D02*
X87302509Y-99227509D01*
X67815000Y-79740000D02*
X67815000Y-78200000D01*
X102415000Y-113680000D02*
X102415000Y-112540000D01*
X87302509Y-99227509D02*
X67815000Y-79740000D01*
%TO.N,Net-(J4-PadB32)*%
X68815000Y-78200000D02*
X68815000Y-69800000D01*
X104955000Y-113680000D02*
X104955000Y-112480000D01*
X104955000Y-112480000D02*
X91325499Y-98850499D01*
X68815000Y-79740000D02*
X68815000Y-78200000D01*
X87925499Y-98850499D02*
X68815000Y-79740000D01*
X91325499Y-98850499D02*
X87925499Y-98850499D01*
%TO.N,Net-(J4-PadB33)*%
X69815000Y-78200000D02*
X69815000Y-69800000D01*
X107495000Y-112520000D02*
X93448489Y-98473489D01*
X93448489Y-98473489D02*
X88548489Y-98473489D01*
X107495000Y-113680000D02*
X107495000Y-112520000D01*
X69815000Y-79740000D02*
X69815000Y-78200000D01*
X88548489Y-98473489D02*
X69815000Y-79740000D01*
%TO.N,Net-(J4-PadB34)*%
X70815000Y-78200000D02*
X70815000Y-69800000D01*
X95571479Y-98096479D02*
X89171479Y-98096479D01*
X89171479Y-98096479D02*
X70815000Y-79740000D01*
X110035000Y-113680000D02*
X110035000Y-112560000D01*
X110035000Y-112560000D02*
X95571479Y-98096479D01*
X70815000Y-79740000D02*
X70815000Y-78200000D01*
%TO.N,Net-(J4-PadB35)*%
X71815000Y-78200000D02*
X71815000Y-69800000D01*
X89794469Y-97719469D02*
X71815000Y-79740000D01*
X97994469Y-97719469D02*
X109675000Y-109400000D01*
X112575000Y-112300000D02*
X110523528Y-110248528D01*
X112575000Y-113680000D02*
X112575000Y-112300000D01*
X110410479Y-110177494D02*
X110471005Y-110206642D01*
X71815000Y-79740000D02*
X71815000Y-78200000D01*
X97994469Y-97719469D02*
X89794469Y-97719469D01*
X109760981Y-109578542D02*
X109760981Y-109645721D01*
X109746032Y-109711215D02*
X109716885Y-109771741D01*
X109570699Y-110617351D02*
X109637878Y-110617351D01*
X110344985Y-110162545D02*
X110410479Y-110177494D01*
X110151786Y-110206642D02*
X110212312Y-110177494D01*
X109703372Y-110602402D02*
X109763898Y-110573255D01*
X109321124Y-110418322D02*
X109350272Y-110478848D01*
X109350272Y-110478848D02*
X109392157Y-110531370D01*
X109306175Y-110352828D02*
X109321124Y-110418322D01*
X109444679Y-110573255D02*
X109505205Y-110602402D01*
X109816421Y-110531370D02*
X110099263Y-110248527D01*
X109350272Y-110159629D02*
X109321124Y-110220155D01*
X109321124Y-110220155D02*
X109306175Y-110285649D01*
X110471005Y-110206642D02*
X110523528Y-110248528D01*
X109392157Y-110531370D02*
X109444679Y-110573255D01*
X109760981Y-109645721D02*
X109746032Y-109711215D01*
X109637878Y-110617351D02*
X109703372Y-110602402D01*
X110099263Y-110248527D02*
X110151786Y-110206642D01*
X109675000Y-109824264D02*
X109392157Y-110107106D01*
X110212312Y-110177494D02*
X110277806Y-110162545D01*
X109716885Y-109771741D02*
X109675000Y-109824264D01*
X109746032Y-109513048D02*
X109760981Y-109578542D01*
X109763898Y-110573255D02*
X109816421Y-110531370D01*
X109306175Y-110285649D02*
X109306175Y-110352828D01*
X109716885Y-109452522D02*
X109746032Y-109513048D01*
X109392157Y-110107106D02*
X109350272Y-110159629D01*
X109675000Y-109400000D02*
X109716885Y-109452522D01*
X109505205Y-110602402D02*
X109570699Y-110617351D01*
X110277806Y-110162545D02*
X110344985Y-110162545D01*
%TO.N,Net-(J4-PadB36)*%
X72815000Y-78200000D02*
X72815000Y-69800000D01*
X90417459Y-97342459D02*
X72815000Y-79740000D01*
X115415000Y-112540000D02*
X100217459Y-97342459D01*
X72815000Y-79740000D02*
X72815000Y-78200000D01*
X100217459Y-97342459D02*
X90417459Y-97342459D01*
%TO.N,Net-(J4-PadB37)*%
X73815000Y-78200000D02*
X73815000Y-69800000D01*
X91040449Y-96965449D02*
X73815000Y-79740000D01*
X117955000Y-112580000D02*
X102340449Y-96965449D01*
X102340449Y-96965449D02*
X91040449Y-96965449D01*
X73815000Y-79740000D02*
X73815000Y-78200000D01*
%TO.N,Net-(J4-PadB38)*%
X74815000Y-78200000D02*
X74815000Y-69800000D01*
X120495000Y-112620000D02*
X104463439Y-96588439D01*
X91663439Y-96588439D02*
X74815000Y-79740000D01*
X74815000Y-79740000D02*
X74815000Y-78200000D01*
X104463439Y-96588439D02*
X91663439Y-96588439D01*
%TO.N,Net-(J4-PadB39)*%
X75815000Y-78200000D02*
X75815000Y-69800000D01*
X119946032Y-109811215D02*
X119916885Y-109871741D01*
X119837878Y-110717351D02*
X119903372Y-110702402D01*
X119506175Y-110452828D02*
X119521124Y-110518322D01*
X119644679Y-110673255D02*
X119705205Y-110702402D01*
X120016421Y-110631370D02*
X120299263Y-110348527D01*
X119550272Y-110259629D02*
X119521124Y-110320155D01*
X120351786Y-110306642D02*
X120412312Y-110277494D01*
X119903372Y-110702402D02*
X119963898Y-110673255D01*
X119521124Y-110518322D02*
X119550272Y-110578848D01*
X119550272Y-110578848D02*
X119592157Y-110631370D01*
X92286429Y-96211429D02*
X75815000Y-79740000D01*
X120610479Y-110277494D02*
X120671005Y-110306642D01*
X119875000Y-109924264D02*
X119592157Y-110207106D01*
X120412312Y-110277494D02*
X120477806Y-110262545D01*
X119916885Y-109871741D02*
X119875000Y-109924264D01*
X119946032Y-109613048D02*
X119960981Y-109678542D01*
X119963898Y-110673255D02*
X120016421Y-110631370D01*
X119506175Y-110385649D02*
X119506175Y-110452828D01*
X119916885Y-109552522D02*
X119946032Y-109613048D01*
X119592157Y-110207106D02*
X119550272Y-110259629D01*
X119875000Y-109500000D02*
X119916885Y-109552522D01*
X119705205Y-110702402D02*
X119770699Y-110717351D01*
X120477806Y-110262545D02*
X120544985Y-110262545D01*
X106586429Y-96211429D02*
X92286429Y-96211429D01*
X122735000Y-112360000D02*
X120723528Y-110348528D01*
X106586429Y-96211429D02*
X119875000Y-109500000D01*
X122735000Y-113680000D02*
X122735000Y-112360000D01*
X119770699Y-110717351D02*
X119837878Y-110717351D01*
X120544985Y-110262545D02*
X120610479Y-110277494D01*
X119521124Y-110320155D02*
X119506175Y-110385649D01*
X120671005Y-110306642D02*
X120723528Y-110348528D01*
X119592157Y-110631370D02*
X119644679Y-110673255D01*
X119960981Y-109745721D02*
X119946032Y-109811215D01*
X120299263Y-110348527D02*
X120351786Y-110306642D01*
X75815000Y-79740000D02*
X75815000Y-78200000D01*
X119960981Y-109678542D02*
X119960981Y-109745721D01*
%TO.N,Net-(J4-PadB40)*%
X76815000Y-78200000D02*
X76815000Y-69800000D01*
X92909419Y-95834419D02*
X76815000Y-79740000D01*
X76815000Y-79740000D02*
X76815000Y-78200000D01*
X108809419Y-95834419D02*
X92909419Y-95834419D01*
X125575000Y-112600000D02*
X108809419Y-95834419D01*
%TO.N,Net-(J4-PadB41)*%
X77815000Y-78200000D02*
X77815000Y-69800000D01*
X110932409Y-95457409D02*
X93532409Y-95457409D01*
X77815000Y-79740000D02*
X77815000Y-78200000D01*
X93532409Y-95457409D02*
X77815000Y-79740000D01*
X128115000Y-112640000D02*
X110932409Y-95457409D01*
%TO.N,Net-(J4-PadB42)*%
X78815000Y-78200000D02*
X78815000Y-69800000D01*
X78815000Y-79740000D02*
X78815000Y-78200000D01*
X130655000Y-112680000D02*
X113055399Y-95080399D01*
X113055399Y-95080399D02*
X94155399Y-95080399D01*
X94155399Y-95080399D02*
X78815000Y-79740000D01*
%TO.N,Net-(J4-PadB43)*%
X79815000Y-78200000D02*
X79815000Y-69800000D01*
X115278389Y-94703389D02*
X130075000Y-109500000D01*
X132895000Y-112320000D02*
X130923528Y-110348528D01*
X79815000Y-79740000D02*
X79815000Y-78200000D01*
X130810479Y-110277494D02*
X130871005Y-110306642D01*
X130551786Y-110306642D02*
X130612312Y-110277494D01*
X130103372Y-110702402D02*
X130163898Y-110673255D01*
X129721124Y-110518322D02*
X129750272Y-110578848D01*
X129750272Y-110578848D02*
X129792157Y-110631370D01*
X130037878Y-110717351D02*
X130103372Y-110702402D01*
X129706175Y-110452828D02*
X129721124Y-110518322D01*
X129844679Y-110673255D02*
X129905205Y-110702402D01*
X130216421Y-110631370D02*
X130499263Y-110348527D01*
X129750272Y-110259629D02*
X129721124Y-110320155D01*
X129721124Y-110320155D02*
X129706175Y-110385649D01*
X130871005Y-110306642D02*
X130923528Y-110348528D01*
X129792157Y-110631370D02*
X129844679Y-110673255D01*
X130160981Y-109745721D02*
X130146032Y-109811215D01*
X130499263Y-110348527D02*
X130551786Y-110306642D01*
X130075000Y-109924264D02*
X129792157Y-110207106D01*
X130612312Y-110277494D02*
X130677806Y-110262545D01*
X130116885Y-109871741D02*
X130075000Y-109924264D01*
X130146032Y-109613048D02*
X130160981Y-109678542D01*
X130163898Y-110673255D02*
X130216421Y-110631370D01*
X129706175Y-110385649D02*
X129706175Y-110452828D01*
X130116885Y-109552522D02*
X130146032Y-109613048D01*
X129792157Y-110207106D02*
X129750272Y-110259629D01*
X130075000Y-109500000D02*
X130116885Y-109552522D01*
X129905205Y-110702402D02*
X129970699Y-110717351D01*
X130677806Y-110262545D02*
X130744985Y-110262545D01*
X94778389Y-94703389D02*
X79815000Y-79740000D01*
X130146032Y-109811215D02*
X130116885Y-109871741D01*
X129970699Y-110717351D02*
X130037878Y-110717351D01*
X132895000Y-113680000D02*
X132895000Y-112320000D01*
X130744985Y-110262545D02*
X130810479Y-110277494D01*
X130160981Y-109678542D02*
X130160981Y-109745721D01*
X115278389Y-94703389D02*
X94778389Y-94703389D01*
%TO.N,Net-(J4-PadB44)*%
X80815000Y-78200000D02*
X80815000Y-69800000D01*
X95401379Y-94326379D02*
X80815000Y-79740000D01*
X80815000Y-79740000D02*
X80815000Y-78200000D01*
X135735000Y-112660000D02*
X117401379Y-94326379D01*
X117401379Y-94326379D02*
X95401379Y-94326379D01*
%TO.N,Net-(J4-PadB45)*%
X81815000Y-78200000D02*
X81815000Y-69800000D01*
X81815000Y-79740000D02*
X81815000Y-78200000D01*
X96024369Y-93949369D02*
X81815000Y-79740000D01*
X138275000Y-112600000D02*
X119624369Y-93949369D01*
X119624369Y-93949369D02*
X96024369Y-93949369D01*
%TO.N,Net-(J4-PadB46)*%
X82815000Y-78200000D02*
X82815000Y-69800000D01*
X140815000Y-112640000D02*
X121747359Y-93572359D01*
X121747359Y-93572359D02*
X96647359Y-93572359D01*
X82815000Y-79740000D02*
X82815000Y-78200000D01*
X96647359Y-93572359D02*
X82815000Y-79740000D01*
%TO.N,Net-(J4-PadB47)*%
X83815000Y-78200000D02*
X83815000Y-69800000D01*
X140260981Y-109678542D02*
X140260981Y-109745721D01*
X140246032Y-109811215D02*
X140216885Y-109871741D01*
X123870349Y-93195349D02*
X97270349Y-93195349D01*
X140844985Y-110262545D02*
X140910479Y-110277494D01*
X140910479Y-110277494D02*
X140971005Y-110306642D01*
X140070699Y-110717351D02*
X140137878Y-110717351D01*
X97270349Y-93195349D02*
X83815000Y-79740000D01*
X140651786Y-110306642D02*
X140712312Y-110277494D01*
X140203372Y-110702402D02*
X140263898Y-110673255D01*
X139821124Y-110518322D02*
X139850272Y-110578848D01*
X139850272Y-110578848D02*
X139892157Y-110631370D01*
X140137878Y-110717351D02*
X140203372Y-110702402D01*
X139806175Y-110452828D02*
X139821124Y-110518322D01*
X139944679Y-110673255D02*
X140005205Y-110702402D01*
X140316421Y-110631370D02*
X140599263Y-110348527D01*
X139850272Y-110259629D02*
X139821124Y-110320155D01*
X139821124Y-110320155D02*
X139806175Y-110385649D01*
X140971005Y-110306642D02*
X141023528Y-110348528D01*
X139892157Y-110631370D02*
X139944679Y-110673255D01*
X140260981Y-109745721D02*
X140246032Y-109811215D01*
X140599263Y-110348527D02*
X140651786Y-110306642D01*
X140175000Y-109924264D02*
X139892157Y-110207106D01*
X140712312Y-110277494D02*
X140777806Y-110262545D01*
X140216885Y-109871741D02*
X140175000Y-109924264D01*
X140246032Y-109613048D02*
X140260981Y-109678542D01*
X140263898Y-110673255D02*
X140316421Y-110631370D01*
X139806175Y-110385649D02*
X139806175Y-110452828D01*
X140216885Y-109552522D02*
X140246032Y-109613048D01*
X139892157Y-110207106D02*
X139850272Y-110259629D01*
X140175000Y-109500000D02*
X140216885Y-109552522D01*
X140005205Y-110702402D02*
X140070699Y-110717351D01*
X140777806Y-110262545D02*
X140844985Y-110262545D01*
X143055000Y-112380000D02*
X141023528Y-110348528D01*
X83815000Y-79740000D02*
X83815000Y-78200000D01*
X123870349Y-93195349D02*
X140175000Y-109500000D01*
X143055000Y-113680000D02*
X143055000Y-112380000D01*
%TO.N,Net-(J4-PadB48)*%
X84815000Y-78200000D02*
X84815000Y-69800000D01*
X145895000Y-112720000D02*
X125993339Y-92818339D01*
X97893339Y-92818339D02*
X84815000Y-79740000D01*
X125993339Y-92818339D02*
X97893339Y-92818339D01*
X84815000Y-79740000D02*
X84815000Y-78200000D01*
%TO.N,Net-(J4-PadB49)*%
X85815000Y-78200000D02*
X85815000Y-69800000D01*
X85815000Y-79740000D02*
X85815000Y-78200000D01*
X98516329Y-92441329D02*
X85815000Y-79740000D01*
X128116329Y-92441329D02*
X98516329Y-92441329D01*
X148435000Y-112760000D02*
X128116329Y-92441329D01*
%TD*%
M02*
