%TF.GenerationSoftware,KiCad,Pcbnew,5.1.6*%
%TF.CreationDate,2020-09-02T12:15:33+02:00*%
%TF.ProjectId,host_adapter,686f7374-5f61-4646-9170-7465722e6b69,rev?*%
%TF.SameCoordinates,Original*%
%TF.FileFunction,Legend,Bot*%
%TF.FilePolarity,Positive*%
%FSLAX46Y46*%
G04 Gerber Fmt 4.6, Leading zero omitted, Abs format (unit mm)*
G04 Created by KiCad (PCBNEW 5.1.6) date 2020-09-02 12:15:33*
%MOMM*%
%LPD*%
G01*
G04 APERTURE LIST*
%ADD10C,0.150000*%
G04 APERTURE END LIST*
D10*
X92802619Y-110947261D02*
X92802619Y-110375833D01*
X91802619Y-110661547D02*
X92802619Y-110661547D01*
X92802619Y-110137738D02*
X91802619Y-109471071D01*
X92802619Y-109471071D02*
X91802619Y-110137738D01*
X92802619Y-109185357D02*
X92802619Y-108566309D01*
X92421666Y-108899642D01*
X92421666Y-108756785D01*
X92374047Y-108661547D01*
X92326428Y-108613928D01*
X92231190Y-108566309D01*
X91993095Y-108566309D01*
X91897857Y-108613928D01*
X91850238Y-108661547D01*
X91802619Y-108756785D01*
X91802619Y-109042500D01*
X91850238Y-109137738D01*
X91897857Y-109185357D01*
X92183571Y-108137738D02*
X92183571Y-107375833D01*
X91802619Y-107756785D02*
X92564523Y-107756785D01*
X97835000Y-110280595D02*
X97882619Y-110375833D01*
X97882619Y-110518690D01*
X97835000Y-110661547D01*
X97739761Y-110756785D01*
X97644523Y-110804404D01*
X97454047Y-110852023D01*
X97311190Y-110852023D01*
X97120714Y-110804404D01*
X97025476Y-110756785D01*
X96930238Y-110661547D01*
X96882619Y-110518690D01*
X96882619Y-110423452D01*
X96930238Y-110280595D01*
X96977857Y-110232976D01*
X97311190Y-110232976D01*
X97311190Y-110423452D01*
X96882619Y-109804404D02*
X97882619Y-109804404D01*
X96882619Y-109232976D01*
X97882619Y-109232976D01*
X96882619Y-108756785D02*
X97882619Y-108756785D01*
X97882619Y-108518690D01*
X97835000Y-108375833D01*
X97739761Y-108280595D01*
X97644523Y-108232976D01*
X97454047Y-108185357D01*
X97311190Y-108185357D01*
X97120714Y-108232976D01*
X97025476Y-108280595D01*
X96930238Y-108375833D01*
X96882619Y-108518690D01*
X96882619Y-108756785D01*
X99422619Y-110232976D02*
X99898809Y-110566309D01*
X99422619Y-110804404D02*
X100422619Y-110804404D01*
X100422619Y-110423452D01*
X100375000Y-110328214D01*
X100327380Y-110280595D01*
X100232142Y-110232976D01*
X100089285Y-110232976D01*
X99994047Y-110280595D01*
X99946428Y-110328214D01*
X99898809Y-110423452D01*
X99898809Y-110804404D01*
X99946428Y-109804404D02*
X99946428Y-109471071D01*
X99422619Y-109328214D02*
X99422619Y-109804404D01*
X100422619Y-109804404D01*
X100422619Y-109328214D01*
X99470238Y-108947261D02*
X99422619Y-108804404D01*
X99422619Y-108566309D01*
X99470238Y-108471071D01*
X99517857Y-108423452D01*
X99613095Y-108375833D01*
X99708333Y-108375833D01*
X99803571Y-108423452D01*
X99851190Y-108471071D01*
X99898809Y-108566309D01*
X99946428Y-108756785D01*
X99994047Y-108852023D01*
X100041666Y-108899642D01*
X100136904Y-108947261D01*
X100232142Y-108947261D01*
X100327380Y-108899642D01*
X100375000Y-108852023D01*
X100422619Y-108756785D01*
X100422619Y-108518690D01*
X100375000Y-108375833D01*
X99946428Y-107947261D02*
X99946428Y-107613928D01*
X99422619Y-107471071D02*
X99422619Y-107947261D01*
X100422619Y-107947261D01*
X100422619Y-107471071D01*
X99422619Y-106471071D02*
X99898809Y-106804404D01*
X99422619Y-107042500D02*
X100422619Y-107042500D01*
X100422619Y-106661547D01*
X100375000Y-106566309D01*
X100327380Y-106518690D01*
X100232142Y-106471071D01*
X100089285Y-106471071D01*
X99994047Y-106518690D01*
X99946428Y-106566309D01*
X99898809Y-106661547D01*
X99898809Y-107042500D01*
X100422619Y-106185357D02*
X99422619Y-105852023D01*
X100422619Y-105518690D01*
X99946428Y-105185357D02*
X99946428Y-104852023D01*
X99422619Y-104709166D02*
X99422619Y-105185357D01*
X100422619Y-105185357D01*
X100422619Y-104709166D01*
X99422619Y-104280595D02*
X100422619Y-104280595D01*
X100422619Y-104042500D01*
X100375000Y-103899642D01*
X100279761Y-103804404D01*
X100184523Y-103756785D01*
X99994047Y-103709166D01*
X99851190Y-103709166D01*
X99660714Y-103756785D01*
X99565476Y-103804404D01*
X99470238Y-103899642D01*
X99422619Y-104042500D01*
X99422619Y-104280595D01*
X75022619Y-110947261D02*
X75022619Y-110375833D01*
X74022619Y-110661547D02*
X75022619Y-110661547D01*
X75022619Y-110137738D02*
X74022619Y-109471071D01*
X75022619Y-109471071D02*
X74022619Y-110137738D01*
X74022619Y-108566309D02*
X74022619Y-109137738D01*
X74022619Y-108852023D02*
X75022619Y-108852023D01*
X74879761Y-108947261D01*
X74784523Y-109042500D01*
X74736904Y-109137738D01*
X74403571Y-108137738D02*
X74403571Y-107375833D01*
X80055000Y-110427595D02*
X80102619Y-110522833D01*
X80102619Y-110665690D01*
X80055000Y-110808547D01*
X79959761Y-110903785D01*
X79864523Y-110951404D01*
X79674047Y-110999023D01*
X79531190Y-110999023D01*
X79340714Y-110951404D01*
X79245476Y-110903785D01*
X79150238Y-110808547D01*
X79102619Y-110665690D01*
X79102619Y-110570452D01*
X79150238Y-110427595D01*
X79197857Y-110379976D01*
X79531190Y-110379976D01*
X79531190Y-110570452D01*
X79102619Y-109951404D02*
X80102619Y-109951404D01*
X79102619Y-109379976D01*
X80102619Y-109379976D01*
X79102619Y-108903785D02*
X80102619Y-108903785D01*
X80102619Y-108665690D01*
X80055000Y-108522833D01*
X79959761Y-108427595D01*
X79864523Y-108379976D01*
X79674047Y-108332357D01*
X79531190Y-108332357D01*
X79340714Y-108379976D01*
X79245476Y-108427595D01*
X79150238Y-108522833D01*
X79102619Y-108665690D01*
X79102619Y-108903785D01*
X72482619Y-110947261D02*
X72482619Y-110375833D01*
X71482619Y-110661547D02*
X72482619Y-110661547D01*
X72482619Y-110137738D02*
X71482619Y-109471071D01*
X72482619Y-109471071D02*
X71482619Y-110137738D01*
X71482619Y-108566309D02*
X71482619Y-109137738D01*
X71482619Y-108852023D02*
X72482619Y-108852023D01*
X72339761Y-108947261D01*
X72244523Y-109042500D01*
X72196904Y-109137738D01*
X71863571Y-108137738D02*
X71863571Y-107375833D01*
X71482619Y-107756785D02*
X72244523Y-107756785D01*
X77515000Y-110280595D02*
X77562619Y-110375833D01*
X77562619Y-110518690D01*
X77515000Y-110661547D01*
X77419761Y-110756785D01*
X77324523Y-110804404D01*
X77134047Y-110852023D01*
X76991190Y-110852023D01*
X76800714Y-110804404D01*
X76705476Y-110756785D01*
X76610238Y-110661547D01*
X76562619Y-110518690D01*
X76562619Y-110423452D01*
X76610238Y-110280595D01*
X76657857Y-110232976D01*
X76991190Y-110232976D01*
X76991190Y-110423452D01*
X76562619Y-109804404D02*
X77562619Y-109804404D01*
X76562619Y-109232976D01*
X77562619Y-109232976D01*
X76562619Y-108756785D02*
X77562619Y-108756785D01*
X77562619Y-108518690D01*
X77515000Y-108375833D01*
X77419761Y-108280595D01*
X77324523Y-108232976D01*
X77134047Y-108185357D01*
X76991190Y-108185357D01*
X76800714Y-108232976D01*
X76705476Y-108280595D01*
X76610238Y-108375833D01*
X76562619Y-108518690D01*
X76562619Y-108756785D01*
X64815000Y-110280595D02*
X64862619Y-110375833D01*
X64862619Y-110518690D01*
X64815000Y-110661547D01*
X64719761Y-110756785D01*
X64624523Y-110804404D01*
X64434047Y-110852023D01*
X64291190Y-110852023D01*
X64100714Y-110804404D01*
X64005476Y-110756785D01*
X63910238Y-110661547D01*
X63862619Y-110518690D01*
X63862619Y-110423452D01*
X63910238Y-110280595D01*
X63957857Y-110232976D01*
X64291190Y-110232976D01*
X64291190Y-110423452D01*
X63862619Y-109804404D02*
X64862619Y-109804404D01*
X63862619Y-109232976D01*
X64862619Y-109232976D01*
X63862619Y-108756785D02*
X64862619Y-108756785D01*
X64862619Y-108518690D01*
X64815000Y-108375833D01*
X64719761Y-108280595D01*
X64624523Y-108232976D01*
X64434047Y-108185357D01*
X64291190Y-108185357D01*
X64100714Y-108232976D01*
X64005476Y-108280595D01*
X63910238Y-108375833D01*
X63862619Y-108518690D01*
X63862619Y-108756785D01*
X222342619Y-110947261D02*
X222342619Y-110375833D01*
X221342619Y-110661547D02*
X222342619Y-110661547D01*
X222342619Y-110137738D02*
X221342619Y-109471071D01*
X222342619Y-109471071D02*
X221342619Y-110137738D01*
X221342619Y-108566309D02*
X221342619Y-109137738D01*
X221342619Y-108852023D02*
X222342619Y-108852023D01*
X222199761Y-108947261D01*
X222104523Y-109042500D01*
X222056904Y-109137738D01*
X222342619Y-107661547D02*
X222342619Y-108137738D01*
X221866428Y-108185357D01*
X221914047Y-108137738D01*
X221961666Y-108042500D01*
X221961666Y-107804404D01*
X221914047Y-107709166D01*
X221866428Y-107661547D01*
X221771190Y-107613928D01*
X221533095Y-107613928D01*
X221437857Y-107661547D01*
X221390238Y-107709166D01*
X221342619Y-107804404D01*
X221342619Y-108042500D01*
X221390238Y-108137738D01*
X221437857Y-108185357D01*
X221723571Y-107185357D02*
X221723571Y-106423452D01*
X221342619Y-106804404D02*
X222104523Y-106804404D01*
X224882619Y-110947261D02*
X224882619Y-110375833D01*
X223882619Y-110661547D02*
X224882619Y-110661547D01*
X224882619Y-110137738D02*
X223882619Y-109471071D01*
X224882619Y-109471071D02*
X223882619Y-110137738D01*
X223882619Y-108566309D02*
X223882619Y-109137738D01*
X223882619Y-108852023D02*
X224882619Y-108852023D01*
X224739761Y-108947261D01*
X224644523Y-109042500D01*
X224596904Y-109137738D01*
X224882619Y-107661547D02*
X224882619Y-108137738D01*
X224406428Y-108185357D01*
X224454047Y-108137738D01*
X224501666Y-108042500D01*
X224501666Y-107804404D01*
X224454047Y-107709166D01*
X224406428Y-107661547D01*
X224311190Y-107613928D01*
X224073095Y-107613928D01*
X223977857Y-107661547D01*
X223930238Y-107709166D01*
X223882619Y-107804404D01*
X223882619Y-108042500D01*
X223930238Y-108137738D01*
X223977857Y-108185357D01*
X224263571Y-107185357D02*
X224263571Y-106423452D01*
X219755000Y-110280595D02*
X219802619Y-110375833D01*
X219802619Y-110518690D01*
X219755000Y-110661547D01*
X219659761Y-110756785D01*
X219564523Y-110804404D01*
X219374047Y-110852023D01*
X219231190Y-110852023D01*
X219040714Y-110804404D01*
X218945476Y-110756785D01*
X218850238Y-110661547D01*
X218802619Y-110518690D01*
X218802619Y-110423452D01*
X218850238Y-110280595D01*
X218897857Y-110232976D01*
X219231190Y-110232976D01*
X219231190Y-110423452D01*
X218802619Y-109804404D02*
X219802619Y-109804404D01*
X218802619Y-109232976D01*
X219802619Y-109232976D01*
X218802619Y-108756785D02*
X219802619Y-108756785D01*
X219802619Y-108518690D01*
X219755000Y-108375833D01*
X219659761Y-108280595D01*
X219564523Y-108232976D01*
X219374047Y-108185357D01*
X219231190Y-108185357D01*
X219040714Y-108232976D01*
X218945476Y-108280595D01*
X218850238Y-108375833D01*
X218802619Y-108518690D01*
X218802619Y-108756785D01*
X217215000Y-110280595D02*
X217262619Y-110375833D01*
X217262619Y-110518690D01*
X217215000Y-110661547D01*
X217119761Y-110756785D01*
X217024523Y-110804404D01*
X216834047Y-110852023D01*
X216691190Y-110852023D01*
X216500714Y-110804404D01*
X216405476Y-110756785D01*
X216310238Y-110661547D01*
X216262619Y-110518690D01*
X216262619Y-110423452D01*
X216310238Y-110280595D01*
X216357857Y-110232976D01*
X216691190Y-110232976D01*
X216691190Y-110423452D01*
X216262619Y-109804404D02*
X217262619Y-109804404D01*
X216262619Y-109232976D01*
X217262619Y-109232976D01*
X216262619Y-108756785D02*
X217262619Y-108756785D01*
X217262619Y-108518690D01*
X217215000Y-108375833D01*
X217119761Y-108280595D01*
X217024523Y-108232976D01*
X216834047Y-108185357D01*
X216691190Y-108185357D01*
X216500714Y-108232976D01*
X216405476Y-108280595D01*
X216310238Y-108375833D01*
X216262619Y-108518690D01*
X216262619Y-108756785D01*
X212182619Y-110947261D02*
X212182619Y-110375833D01*
X211182619Y-110661547D02*
X212182619Y-110661547D01*
X212182619Y-110137738D02*
X211182619Y-109471071D01*
X212182619Y-109471071D02*
X211182619Y-110137738D01*
X211182619Y-108566309D02*
X211182619Y-109137738D01*
X211182619Y-108852023D02*
X212182619Y-108852023D01*
X212039761Y-108947261D01*
X211944523Y-109042500D01*
X211896904Y-109137738D01*
X211849285Y-107709166D02*
X211182619Y-107709166D01*
X212230238Y-107947261D02*
X211515952Y-108185357D01*
X211515952Y-107566309D01*
X211563571Y-107185357D02*
X211563571Y-106423452D01*
X211182619Y-106804404D02*
X211944523Y-106804404D01*
X227375000Y-110280595D02*
X227422619Y-110375833D01*
X227422619Y-110518690D01*
X227375000Y-110661547D01*
X227279761Y-110756785D01*
X227184523Y-110804404D01*
X226994047Y-110852023D01*
X226851190Y-110852023D01*
X226660714Y-110804404D01*
X226565476Y-110756785D01*
X226470238Y-110661547D01*
X226422619Y-110518690D01*
X226422619Y-110423452D01*
X226470238Y-110280595D01*
X226517857Y-110232976D01*
X226851190Y-110232976D01*
X226851190Y-110423452D01*
X226422619Y-109804404D02*
X227422619Y-109804404D01*
X226422619Y-109232976D01*
X227422619Y-109232976D01*
X226422619Y-108756785D02*
X227422619Y-108756785D01*
X227422619Y-108518690D01*
X227375000Y-108375833D01*
X227279761Y-108280595D01*
X227184523Y-108232976D01*
X226994047Y-108185357D01*
X226851190Y-108185357D01*
X226660714Y-108232976D01*
X226565476Y-108280595D01*
X226470238Y-108375833D01*
X226422619Y-108518690D01*
X226422619Y-108756785D01*
X207055000Y-110280595D02*
X207102619Y-110375833D01*
X207102619Y-110518690D01*
X207055000Y-110661547D01*
X206959761Y-110756785D01*
X206864523Y-110804404D01*
X206674047Y-110852023D01*
X206531190Y-110852023D01*
X206340714Y-110804404D01*
X206245476Y-110756785D01*
X206150238Y-110661547D01*
X206102619Y-110518690D01*
X206102619Y-110423452D01*
X206150238Y-110280595D01*
X206197857Y-110232976D01*
X206531190Y-110232976D01*
X206531190Y-110423452D01*
X206102619Y-109804404D02*
X207102619Y-109804404D01*
X206102619Y-109232976D01*
X207102619Y-109232976D01*
X206102619Y-108756785D02*
X207102619Y-108756785D01*
X207102619Y-108518690D01*
X207055000Y-108375833D01*
X206959761Y-108280595D01*
X206864523Y-108232976D01*
X206674047Y-108185357D01*
X206531190Y-108185357D01*
X206340714Y-108232976D01*
X206245476Y-108280595D01*
X206150238Y-108375833D01*
X206102619Y-108518690D01*
X206102619Y-108756785D01*
X214722619Y-110947261D02*
X214722619Y-110375833D01*
X213722619Y-110661547D02*
X214722619Y-110661547D01*
X214722619Y-110137738D02*
X213722619Y-109471071D01*
X214722619Y-109471071D02*
X213722619Y-110137738D01*
X213722619Y-108566309D02*
X213722619Y-109137738D01*
X213722619Y-108852023D02*
X214722619Y-108852023D01*
X214579761Y-108947261D01*
X214484523Y-109042500D01*
X214436904Y-109137738D01*
X214389285Y-107709166D02*
X213722619Y-107709166D01*
X214770238Y-107947261D02*
X214055952Y-108185357D01*
X214055952Y-107566309D01*
X214103571Y-107185357D02*
X214103571Y-106423452D01*
X209595000Y-110280595D02*
X209642619Y-110375833D01*
X209642619Y-110518690D01*
X209595000Y-110661547D01*
X209499761Y-110756785D01*
X209404523Y-110804404D01*
X209214047Y-110852023D01*
X209071190Y-110852023D01*
X208880714Y-110804404D01*
X208785476Y-110756785D01*
X208690238Y-110661547D01*
X208642619Y-110518690D01*
X208642619Y-110423452D01*
X208690238Y-110280595D01*
X208737857Y-110232976D01*
X209071190Y-110232976D01*
X209071190Y-110423452D01*
X208642619Y-109804404D02*
X209642619Y-109804404D01*
X208642619Y-109232976D01*
X209642619Y-109232976D01*
X208642619Y-108756785D02*
X209642619Y-108756785D01*
X209642619Y-108518690D01*
X209595000Y-108375833D01*
X209499761Y-108280595D01*
X209404523Y-108232976D01*
X209214047Y-108185357D01*
X209071190Y-108185357D01*
X208880714Y-108232976D01*
X208785476Y-108280595D01*
X208690238Y-108375833D01*
X208642619Y-108518690D01*
X208642619Y-108756785D01*
X202022619Y-110947261D02*
X202022619Y-110375833D01*
X201022619Y-110661547D02*
X202022619Y-110661547D01*
X202022619Y-110137738D02*
X201022619Y-109471071D01*
X202022619Y-109471071D02*
X201022619Y-110137738D01*
X201022619Y-108566309D02*
X201022619Y-109137738D01*
X201022619Y-108852023D02*
X202022619Y-108852023D01*
X201879761Y-108947261D01*
X201784523Y-109042500D01*
X201736904Y-109137738D01*
X202022619Y-108232976D02*
X202022619Y-107613928D01*
X201641666Y-107947261D01*
X201641666Y-107804404D01*
X201594047Y-107709166D01*
X201546428Y-107661547D01*
X201451190Y-107613928D01*
X201213095Y-107613928D01*
X201117857Y-107661547D01*
X201070238Y-107709166D01*
X201022619Y-107804404D01*
X201022619Y-108090119D01*
X201070238Y-108185357D01*
X201117857Y-108232976D01*
X201403571Y-107185357D02*
X201403571Y-106423452D01*
X201022619Y-106804404D02*
X201784523Y-106804404D01*
X204562619Y-110947261D02*
X204562619Y-110375833D01*
X203562619Y-110661547D02*
X204562619Y-110661547D01*
X204562619Y-110137738D02*
X203562619Y-109471071D01*
X204562619Y-109471071D02*
X203562619Y-110137738D01*
X203562619Y-108566309D02*
X203562619Y-109137738D01*
X203562619Y-108852023D02*
X204562619Y-108852023D01*
X204419761Y-108947261D01*
X204324523Y-109042500D01*
X204276904Y-109137738D01*
X204562619Y-108232976D02*
X204562619Y-107613928D01*
X204181666Y-107947261D01*
X204181666Y-107804404D01*
X204134047Y-107709166D01*
X204086428Y-107661547D01*
X203991190Y-107613928D01*
X203753095Y-107613928D01*
X203657857Y-107661547D01*
X203610238Y-107709166D01*
X203562619Y-107804404D01*
X203562619Y-108090119D01*
X203610238Y-108185357D01*
X203657857Y-108232976D01*
X203943571Y-107185357D02*
X203943571Y-106423452D01*
X199435000Y-110280595D02*
X199482619Y-110375833D01*
X199482619Y-110518690D01*
X199435000Y-110661547D01*
X199339761Y-110756785D01*
X199244523Y-110804404D01*
X199054047Y-110852023D01*
X198911190Y-110852023D01*
X198720714Y-110804404D01*
X198625476Y-110756785D01*
X198530238Y-110661547D01*
X198482619Y-110518690D01*
X198482619Y-110423452D01*
X198530238Y-110280595D01*
X198577857Y-110232976D01*
X198911190Y-110232976D01*
X198911190Y-110423452D01*
X198482619Y-109804404D02*
X199482619Y-109804404D01*
X198482619Y-109232976D01*
X199482619Y-109232976D01*
X198482619Y-108756785D02*
X199482619Y-108756785D01*
X199482619Y-108518690D01*
X199435000Y-108375833D01*
X199339761Y-108280595D01*
X199244523Y-108232976D01*
X199054047Y-108185357D01*
X198911190Y-108185357D01*
X198720714Y-108232976D01*
X198625476Y-108280595D01*
X198530238Y-108375833D01*
X198482619Y-108518690D01*
X198482619Y-108756785D01*
X194402619Y-110947261D02*
X194402619Y-110375833D01*
X193402619Y-110661547D02*
X194402619Y-110661547D01*
X194402619Y-110137738D02*
X193402619Y-109471071D01*
X194402619Y-109471071D02*
X193402619Y-110137738D01*
X193402619Y-108566309D02*
X193402619Y-109137738D01*
X193402619Y-108852023D02*
X194402619Y-108852023D01*
X194259761Y-108947261D01*
X194164523Y-109042500D01*
X194116904Y-109137738D01*
X194307380Y-108185357D02*
X194355000Y-108137738D01*
X194402619Y-108042500D01*
X194402619Y-107804404D01*
X194355000Y-107709166D01*
X194307380Y-107661547D01*
X194212142Y-107613928D01*
X194116904Y-107613928D01*
X193974047Y-107661547D01*
X193402619Y-108232976D01*
X193402619Y-107613928D01*
X193783571Y-107185357D02*
X193783571Y-106423452D01*
X196895000Y-110280595D02*
X196942619Y-110375833D01*
X196942619Y-110518690D01*
X196895000Y-110661547D01*
X196799761Y-110756785D01*
X196704523Y-110804404D01*
X196514047Y-110852023D01*
X196371190Y-110852023D01*
X196180714Y-110804404D01*
X196085476Y-110756785D01*
X195990238Y-110661547D01*
X195942619Y-110518690D01*
X195942619Y-110423452D01*
X195990238Y-110280595D01*
X196037857Y-110232976D01*
X196371190Y-110232976D01*
X196371190Y-110423452D01*
X195942619Y-109804404D02*
X196942619Y-109804404D01*
X195942619Y-109232976D01*
X196942619Y-109232976D01*
X195942619Y-108756785D02*
X196942619Y-108756785D01*
X196942619Y-108518690D01*
X196895000Y-108375833D01*
X196799761Y-108280595D01*
X196704523Y-108232976D01*
X196514047Y-108185357D01*
X196371190Y-108185357D01*
X196180714Y-108232976D01*
X196085476Y-108280595D01*
X195990238Y-108375833D01*
X195942619Y-108518690D01*
X195942619Y-108756785D01*
X181702619Y-110947261D02*
X181702619Y-110375833D01*
X180702619Y-110661547D02*
X181702619Y-110661547D01*
X181702619Y-110137738D02*
X180702619Y-109471071D01*
X181702619Y-109471071D02*
X180702619Y-110137738D01*
X180702619Y-108566309D02*
X180702619Y-109137738D01*
X180702619Y-108852023D02*
X181702619Y-108852023D01*
X181559761Y-108947261D01*
X181464523Y-109042500D01*
X181416904Y-109137738D01*
X180702619Y-107613928D02*
X180702619Y-108185357D01*
X180702619Y-107899642D02*
X181702619Y-107899642D01*
X181559761Y-107994880D01*
X181464523Y-108090119D01*
X181416904Y-108185357D01*
X181083571Y-107185357D02*
X181083571Y-106423452D01*
X180702619Y-106804404D02*
X181464523Y-106804404D01*
X230330000Y-111042500D02*
X230330000Y-110042500D01*
X228962619Y-110804404D02*
X229962619Y-110804404D01*
X229962619Y-110423452D01*
X229915000Y-110328214D01*
X229867380Y-110280595D01*
X229772142Y-110232976D01*
X229629285Y-110232976D01*
X229534047Y-110280595D01*
X229486428Y-110328214D01*
X229438809Y-110423452D01*
X229438809Y-110804404D01*
X230330000Y-110042500D02*
X230330000Y-109042500D01*
X228962619Y-109232976D02*
X229438809Y-109566309D01*
X228962619Y-109804404D02*
X229962619Y-109804404D01*
X229962619Y-109423452D01*
X229915000Y-109328214D01*
X229867380Y-109280595D01*
X229772142Y-109232976D01*
X229629285Y-109232976D01*
X229534047Y-109280595D01*
X229486428Y-109328214D01*
X229438809Y-109423452D01*
X229438809Y-109804404D01*
X230330000Y-109042500D02*
X230330000Y-108090119D01*
X229010238Y-108852023D02*
X228962619Y-108709166D01*
X228962619Y-108471071D01*
X229010238Y-108375833D01*
X229057857Y-108328214D01*
X229153095Y-108280595D01*
X229248333Y-108280595D01*
X229343571Y-108328214D01*
X229391190Y-108375833D01*
X229438809Y-108471071D01*
X229486428Y-108661547D01*
X229534047Y-108756785D01*
X229581666Y-108804404D01*
X229676904Y-108852023D01*
X229772142Y-108852023D01*
X229867380Y-108804404D01*
X229915000Y-108756785D01*
X229962619Y-108661547D01*
X229962619Y-108423452D01*
X229915000Y-108280595D01*
X230330000Y-108090119D02*
X230330000Y-107042500D01*
X228962619Y-107852023D02*
X229962619Y-107852023D01*
X228962619Y-107280595D01*
X229962619Y-107280595D01*
X230330000Y-107042500D02*
X230330000Y-106280595D01*
X229962619Y-106947261D02*
X229962619Y-106375833D01*
X228962619Y-106661547D02*
X229962619Y-106661547D01*
X230330000Y-106280595D02*
X230330000Y-105328214D01*
X229867380Y-106090119D02*
X229915000Y-106042500D01*
X229962619Y-105947261D01*
X229962619Y-105709166D01*
X229915000Y-105613928D01*
X229867380Y-105566309D01*
X229772142Y-105518690D01*
X229676904Y-105518690D01*
X229534047Y-105566309D01*
X228962619Y-106137738D01*
X228962619Y-105518690D01*
X231502619Y-110232976D02*
X231978809Y-110566309D01*
X231502619Y-110804404D02*
X232502619Y-110804404D01*
X232502619Y-110423452D01*
X232455000Y-110328214D01*
X232407380Y-110280595D01*
X232312142Y-110232976D01*
X232169285Y-110232976D01*
X232074047Y-110280595D01*
X232026428Y-110328214D01*
X231978809Y-110423452D01*
X231978809Y-110804404D01*
X232026428Y-109804404D02*
X232026428Y-109471071D01*
X231502619Y-109328214D02*
X231502619Y-109804404D01*
X232502619Y-109804404D01*
X232502619Y-109328214D01*
X231550238Y-108947261D02*
X231502619Y-108804404D01*
X231502619Y-108566309D01*
X231550238Y-108471071D01*
X231597857Y-108423452D01*
X231693095Y-108375833D01*
X231788333Y-108375833D01*
X231883571Y-108423452D01*
X231931190Y-108471071D01*
X231978809Y-108566309D01*
X232026428Y-108756785D01*
X232074047Y-108852023D01*
X232121666Y-108899642D01*
X232216904Y-108947261D01*
X232312142Y-108947261D01*
X232407380Y-108899642D01*
X232455000Y-108852023D01*
X232502619Y-108756785D01*
X232502619Y-108518690D01*
X232455000Y-108375833D01*
X232026428Y-107947261D02*
X232026428Y-107613928D01*
X231502619Y-107471071D02*
X231502619Y-107947261D01*
X232502619Y-107947261D01*
X232502619Y-107471071D01*
X231502619Y-106471071D02*
X231978809Y-106804404D01*
X231502619Y-107042500D02*
X232502619Y-107042500D01*
X232502619Y-106661547D01*
X232455000Y-106566309D01*
X232407380Y-106518690D01*
X232312142Y-106471071D01*
X232169285Y-106471071D01*
X232074047Y-106518690D01*
X232026428Y-106566309D01*
X231978809Y-106661547D01*
X231978809Y-107042500D01*
X232502619Y-106185357D02*
X231502619Y-105852023D01*
X232502619Y-105518690D01*
X232026428Y-105185357D02*
X232026428Y-104852023D01*
X231502619Y-104709166D02*
X231502619Y-105185357D01*
X232502619Y-105185357D01*
X232502619Y-104709166D01*
X231502619Y-104280595D02*
X232502619Y-104280595D01*
X232502619Y-104042500D01*
X232455000Y-103899642D01*
X232359761Y-103804404D01*
X232264523Y-103756785D01*
X232074047Y-103709166D01*
X231931190Y-103709166D01*
X231740714Y-103756785D01*
X231645476Y-103804404D01*
X231550238Y-103899642D01*
X231502619Y-104042500D01*
X231502619Y-104280595D01*
X189275000Y-110280595D02*
X189322619Y-110375833D01*
X189322619Y-110518690D01*
X189275000Y-110661547D01*
X189179761Y-110756785D01*
X189084523Y-110804404D01*
X188894047Y-110852023D01*
X188751190Y-110852023D01*
X188560714Y-110804404D01*
X188465476Y-110756785D01*
X188370238Y-110661547D01*
X188322619Y-110518690D01*
X188322619Y-110423452D01*
X188370238Y-110280595D01*
X188417857Y-110232976D01*
X188751190Y-110232976D01*
X188751190Y-110423452D01*
X188322619Y-109804404D02*
X189322619Y-109804404D01*
X188322619Y-109232976D01*
X189322619Y-109232976D01*
X188322619Y-108756785D02*
X189322619Y-108756785D01*
X189322619Y-108518690D01*
X189275000Y-108375833D01*
X189179761Y-108280595D01*
X189084523Y-108232976D01*
X188894047Y-108185357D01*
X188751190Y-108185357D01*
X188560714Y-108232976D01*
X188465476Y-108280595D01*
X188370238Y-108375833D01*
X188322619Y-108518690D01*
X188322619Y-108756785D01*
X184242619Y-110947261D02*
X184242619Y-110375833D01*
X183242619Y-110661547D02*
X184242619Y-110661547D01*
X184242619Y-110137738D02*
X183242619Y-109471071D01*
X184242619Y-109471071D02*
X183242619Y-110137738D01*
X183242619Y-108566309D02*
X183242619Y-109137738D01*
X183242619Y-108852023D02*
X184242619Y-108852023D01*
X184099761Y-108947261D01*
X184004523Y-109042500D01*
X183956904Y-109137738D01*
X183242619Y-107613928D02*
X183242619Y-108185357D01*
X183242619Y-107899642D02*
X184242619Y-107899642D01*
X184099761Y-107994880D01*
X184004523Y-108090119D01*
X183956904Y-108185357D01*
X183623571Y-107185357D02*
X183623571Y-106423452D01*
X186735000Y-110280595D02*
X186782619Y-110375833D01*
X186782619Y-110518690D01*
X186735000Y-110661547D01*
X186639761Y-110756785D01*
X186544523Y-110804404D01*
X186354047Y-110852023D01*
X186211190Y-110852023D01*
X186020714Y-110804404D01*
X185925476Y-110756785D01*
X185830238Y-110661547D01*
X185782619Y-110518690D01*
X185782619Y-110423452D01*
X185830238Y-110280595D01*
X185877857Y-110232976D01*
X186211190Y-110232976D01*
X186211190Y-110423452D01*
X185782619Y-109804404D02*
X186782619Y-109804404D01*
X185782619Y-109232976D01*
X186782619Y-109232976D01*
X185782619Y-108756785D02*
X186782619Y-108756785D01*
X186782619Y-108518690D01*
X186735000Y-108375833D01*
X186639761Y-108280595D01*
X186544523Y-108232976D01*
X186354047Y-108185357D01*
X186211190Y-108185357D01*
X186020714Y-108232976D01*
X185925476Y-108280595D01*
X185830238Y-108375833D01*
X185782619Y-108518690D01*
X185782619Y-108756785D01*
X191862619Y-110947261D02*
X191862619Y-110375833D01*
X190862619Y-110661547D02*
X191862619Y-110661547D01*
X191862619Y-110137738D02*
X190862619Y-109471071D01*
X191862619Y-109471071D02*
X190862619Y-110137738D01*
X190862619Y-108566309D02*
X190862619Y-109137738D01*
X190862619Y-108852023D02*
X191862619Y-108852023D01*
X191719761Y-108947261D01*
X191624523Y-109042500D01*
X191576904Y-109137738D01*
X191767380Y-108185357D02*
X191815000Y-108137738D01*
X191862619Y-108042500D01*
X191862619Y-107804404D01*
X191815000Y-107709166D01*
X191767380Y-107661547D01*
X191672142Y-107613928D01*
X191576904Y-107613928D01*
X191434047Y-107661547D01*
X190862619Y-108232976D01*
X190862619Y-107613928D01*
X191243571Y-107185357D02*
X191243571Y-106423452D01*
X190862619Y-106804404D02*
X191624523Y-106804404D01*
X62322619Y-110947261D02*
X62322619Y-110375833D01*
X61322619Y-110661547D02*
X62322619Y-110661547D01*
X62322619Y-110137738D02*
X61322619Y-109471071D01*
X62322619Y-109471071D02*
X61322619Y-110137738D01*
X62322619Y-108899642D02*
X62322619Y-108804404D01*
X62275000Y-108709166D01*
X62227380Y-108661547D01*
X62132142Y-108613928D01*
X61941666Y-108566309D01*
X61703571Y-108566309D01*
X61513095Y-108613928D01*
X61417857Y-108661547D01*
X61370238Y-108709166D01*
X61322619Y-108804404D01*
X61322619Y-108899642D01*
X61370238Y-108994880D01*
X61417857Y-109042500D01*
X61513095Y-109090119D01*
X61703571Y-109137738D01*
X61941666Y-109137738D01*
X62132142Y-109090119D01*
X62227380Y-109042500D01*
X62275000Y-108994880D01*
X62322619Y-108899642D01*
X61703571Y-108137738D02*
X61703571Y-107375833D01*
X130902619Y-110947261D02*
X130902619Y-110375833D01*
X129902619Y-110661547D02*
X130902619Y-110661547D01*
X130902619Y-110137738D02*
X129902619Y-109471071D01*
X130902619Y-109471071D02*
X129902619Y-110137738D01*
X130902619Y-108661547D02*
X130902619Y-108852023D01*
X130855000Y-108947261D01*
X130807380Y-108994880D01*
X130664523Y-109090119D01*
X130474047Y-109137738D01*
X130093095Y-109137738D01*
X129997857Y-109090119D01*
X129950238Y-109042500D01*
X129902619Y-108947261D01*
X129902619Y-108756785D01*
X129950238Y-108661547D01*
X129997857Y-108613928D01*
X130093095Y-108566309D01*
X130331190Y-108566309D01*
X130426428Y-108613928D01*
X130474047Y-108661547D01*
X130521666Y-108756785D01*
X130521666Y-108947261D01*
X130474047Y-109042500D01*
X130426428Y-109090119D01*
X130331190Y-109137738D01*
X130283571Y-108137738D02*
X130283571Y-107375833D01*
X135935000Y-110280595D02*
X135982619Y-110375833D01*
X135982619Y-110518690D01*
X135935000Y-110661547D01*
X135839761Y-110756785D01*
X135744523Y-110804404D01*
X135554047Y-110852023D01*
X135411190Y-110852023D01*
X135220714Y-110804404D01*
X135125476Y-110756785D01*
X135030238Y-110661547D01*
X134982619Y-110518690D01*
X134982619Y-110423452D01*
X135030238Y-110280595D01*
X135077857Y-110232976D01*
X135411190Y-110232976D01*
X135411190Y-110423452D01*
X134982619Y-109804404D02*
X135982619Y-109804404D01*
X134982619Y-109232976D01*
X135982619Y-109232976D01*
X134982619Y-108756785D02*
X135982619Y-108756785D01*
X135982619Y-108518690D01*
X135935000Y-108375833D01*
X135839761Y-108280595D01*
X135744523Y-108232976D01*
X135554047Y-108185357D01*
X135411190Y-108185357D01*
X135220714Y-108232976D01*
X135125476Y-108280595D01*
X135030238Y-108375833D01*
X134982619Y-108518690D01*
X134982619Y-108756785D01*
X143555000Y-110280595D02*
X143602619Y-110375833D01*
X143602619Y-110518690D01*
X143555000Y-110661547D01*
X143459761Y-110756785D01*
X143364523Y-110804404D01*
X143174047Y-110852023D01*
X143031190Y-110852023D01*
X142840714Y-110804404D01*
X142745476Y-110756785D01*
X142650238Y-110661547D01*
X142602619Y-110518690D01*
X142602619Y-110423452D01*
X142650238Y-110280595D01*
X142697857Y-110232976D01*
X143031190Y-110232976D01*
X143031190Y-110423452D01*
X142602619Y-109804404D02*
X143602619Y-109804404D01*
X142602619Y-109232976D01*
X143602619Y-109232976D01*
X142602619Y-108756785D02*
X143602619Y-108756785D01*
X143602619Y-108518690D01*
X143555000Y-108375833D01*
X143459761Y-108280595D01*
X143364523Y-108232976D01*
X143174047Y-108185357D01*
X143031190Y-108185357D01*
X142840714Y-108232976D01*
X142745476Y-108280595D01*
X142650238Y-108375833D01*
X142602619Y-108518690D01*
X142602619Y-108756785D01*
X138522619Y-110947261D02*
X138522619Y-110375833D01*
X137522619Y-110661547D02*
X138522619Y-110661547D01*
X138522619Y-110137738D02*
X137522619Y-109471071D01*
X138522619Y-109471071D02*
X137522619Y-110137738D01*
X138522619Y-109185357D02*
X138522619Y-108518690D01*
X137522619Y-108947261D01*
X137903571Y-108137738D02*
X137903571Y-107375833D01*
X137522619Y-107756785D02*
X138284523Y-107756785D01*
X115615000Y-110280595D02*
X115662619Y-110375833D01*
X115662619Y-110518690D01*
X115615000Y-110661547D01*
X115519761Y-110756785D01*
X115424523Y-110804404D01*
X115234047Y-110852023D01*
X115091190Y-110852023D01*
X114900714Y-110804404D01*
X114805476Y-110756785D01*
X114710238Y-110661547D01*
X114662619Y-110518690D01*
X114662619Y-110423452D01*
X114710238Y-110280595D01*
X114757857Y-110232976D01*
X115091190Y-110232976D01*
X115091190Y-110423452D01*
X114662619Y-109804404D02*
X115662619Y-109804404D01*
X114662619Y-109232976D01*
X115662619Y-109232976D01*
X114662619Y-108756785D02*
X115662619Y-108756785D01*
X115662619Y-108518690D01*
X115615000Y-108375833D01*
X115519761Y-108280595D01*
X115424523Y-108232976D01*
X115234047Y-108185357D01*
X115091190Y-108185357D01*
X114900714Y-108232976D01*
X114805476Y-108280595D01*
X114710238Y-108375833D01*
X114662619Y-108518690D01*
X114662619Y-108756785D01*
X125775000Y-110280595D02*
X125822619Y-110375833D01*
X125822619Y-110518690D01*
X125775000Y-110661547D01*
X125679761Y-110756785D01*
X125584523Y-110804404D01*
X125394047Y-110852023D01*
X125251190Y-110852023D01*
X125060714Y-110804404D01*
X124965476Y-110756785D01*
X124870238Y-110661547D01*
X124822619Y-110518690D01*
X124822619Y-110423452D01*
X124870238Y-110280595D01*
X124917857Y-110232976D01*
X125251190Y-110232976D01*
X125251190Y-110423452D01*
X124822619Y-109804404D02*
X125822619Y-109804404D01*
X124822619Y-109232976D01*
X125822619Y-109232976D01*
X124822619Y-108756785D02*
X125822619Y-108756785D01*
X125822619Y-108518690D01*
X125775000Y-108375833D01*
X125679761Y-108280595D01*
X125584523Y-108232976D01*
X125394047Y-108185357D01*
X125251190Y-108185357D01*
X125060714Y-108232976D01*
X124965476Y-108280595D01*
X124870238Y-108375833D01*
X124822619Y-108518690D01*
X124822619Y-108756785D01*
X133395000Y-110280595D02*
X133442619Y-110375833D01*
X133442619Y-110518690D01*
X133395000Y-110661547D01*
X133299761Y-110756785D01*
X133204523Y-110804404D01*
X133014047Y-110852023D01*
X132871190Y-110852023D01*
X132680714Y-110804404D01*
X132585476Y-110756785D01*
X132490238Y-110661547D01*
X132442619Y-110518690D01*
X132442619Y-110423452D01*
X132490238Y-110280595D01*
X132537857Y-110232976D01*
X132871190Y-110232976D01*
X132871190Y-110423452D01*
X132442619Y-109804404D02*
X133442619Y-109804404D01*
X132442619Y-109232976D01*
X133442619Y-109232976D01*
X132442619Y-108756785D02*
X133442619Y-108756785D01*
X133442619Y-108518690D01*
X133395000Y-108375833D01*
X133299761Y-108280595D01*
X133204523Y-108232976D01*
X133014047Y-108185357D01*
X132871190Y-108185357D01*
X132680714Y-108232976D01*
X132585476Y-108280595D01*
X132490238Y-108375833D01*
X132442619Y-108518690D01*
X132442619Y-108756785D01*
X123235000Y-110280595D02*
X123282619Y-110375833D01*
X123282619Y-110518690D01*
X123235000Y-110661547D01*
X123139761Y-110756785D01*
X123044523Y-110804404D01*
X122854047Y-110852023D01*
X122711190Y-110852023D01*
X122520714Y-110804404D01*
X122425476Y-110756785D01*
X122330238Y-110661547D01*
X122282619Y-110518690D01*
X122282619Y-110423452D01*
X122330238Y-110280595D01*
X122377857Y-110232976D01*
X122711190Y-110232976D01*
X122711190Y-110423452D01*
X122282619Y-109804404D02*
X123282619Y-109804404D01*
X122282619Y-109232976D01*
X123282619Y-109232976D01*
X122282619Y-108756785D02*
X123282619Y-108756785D01*
X123282619Y-108518690D01*
X123235000Y-108375833D01*
X123139761Y-108280595D01*
X123044523Y-108232976D01*
X122854047Y-108185357D01*
X122711190Y-108185357D01*
X122520714Y-108232976D01*
X122425476Y-108280595D01*
X122330238Y-108375833D01*
X122282619Y-108518690D01*
X122282619Y-108756785D01*
X118202619Y-110947261D02*
X118202619Y-110375833D01*
X117202619Y-110661547D02*
X118202619Y-110661547D01*
X118202619Y-110137738D02*
X117202619Y-109471071D01*
X118202619Y-109471071D02*
X117202619Y-110137738D01*
X118202619Y-108613928D02*
X118202619Y-109090119D01*
X117726428Y-109137738D01*
X117774047Y-109090119D01*
X117821666Y-108994880D01*
X117821666Y-108756785D01*
X117774047Y-108661547D01*
X117726428Y-108613928D01*
X117631190Y-108566309D01*
X117393095Y-108566309D01*
X117297857Y-108613928D01*
X117250238Y-108661547D01*
X117202619Y-108756785D01*
X117202619Y-108994880D01*
X117250238Y-109090119D01*
X117297857Y-109137738D01*
X117583571Y-108137738D02*
X117583571Y-107375833D01*
X117202619Y-107756785D02*
X117964523Y-107756785D01*
X120742619Y-110947261D02*
X120742619Y-110375833D01*
X119742619Y-110661547D02*
X120742619Y-110661547D01*
X120742619Y-110137738D02*
X119742619Y-109471071D01*
X120742619Y-109471071D02*
X119742619Y-110137738D01*
X120742619Y-108613928D02*
X120742619Y-109090119D01*
X120266428Y-109137738D01*
X120314047Y-109090119D01*
X120361666Y-108994880D01*
X120361666Y-108756785D01*
X120314047Y-108661547D01*
X120266428Y-108613928D01*
X120171190Y-108566309D01*
X119933095Y-108566309D01*
X119837857Y-108613928D01*
X119790238Y-108661547D01*
X119742619Y-108756785D01*
X119742619Y-108994880D01*
X119790238Y-109090119D01*
X119837857Y-109137738D01*
X120123571Y-108137738D02*
X120123571Y-107375833D01*
X110582619Y-110947261D02*
X110582619Y-110375833D01*
X109582619Y-110661547D02*
X110582619Y-110661547D01*
X110582619Y-110137738D02*
X109582619Y-109471071D01*
X110582619Y-109471071D02*
X109582619Y-110137738D01*
X110249285Y-108661547D02*
X109582619Y-108661547D01*
X110630238Y-108899642D02*
X109915952Y-109137738D01*
X109915952Y-108518690D01*
X109963571Y-108137738D02*
X109963571Y-107375833D01*
X128362619Y-110947261D02*
X128362619Y-110375833D01*
X127362619Y-110661547D02*
X128362619Y-110661547D01*
X128362619Y-110137738D02*
X127362619Y-109471071D01*
X128362619Y-109471071D02*
X127362619Y-110137738D01*
X128362619Y-108661547D02*
X128362619Y-108852023D01*
X128315000Y-108947261D01*
X128267380Y-108994880D01*
X128124523Y-109090119D01*
X127934047Y-109137738D01*
X127553095Y-109137738D01*
X127457857Y-109090119D01*
X127410238Y-109042500D01*
X127362619Y-108947261D01*
X127362619Y-108756785D01*
X127410238Y-108661547D01*
X127457857Y-108613928D01*
X127553095Y-108566309D01*
X127791190Y-108566309D01*
X127886428Y-108613928D01*
X127934047Y-108661547D01*
X127981666Y-108756785D01*
X127981666Y-108947261D01*
X127934047Y-109042500D01*
X127886428Y-109090119D01*
X127791190Y-109137738D01*
X127743571Y-108137738D02*
X127743571Y-107375833D01*
X127362619Y-107756785D02*
X128124523Y-107756785D01*
X34335000Y-110280595D02*
X34382619Y-110375833D01*
X34382619Y-110518690D01*
X34335000Y-110661547D01*
X34239761Y-110756785D01*
X34144523Y-110804404D01*
X33954047Y-110852023D01*
X33811190Y-110852023D01*
X33620714Y-110804404D01*
X33525476Y-110756785D01*
X33430238Y-110661547D01*
X33382619Y-110518690D01*
X33382619Y-110423452D01*
X33430238Y-110280595D01*
X33477857Y-110232976D01*
X33811190Y-110232976D01*
X33811190Y-110423452D01*
X33382619Y-109804404D02*
X34382619Y-109804404D01*
X33382619Y-109232976D01*
X34382619Y-109232976D01*
X33382619Y-108756785D02*
X34382619Y-108756785D01*
X34382619Y-108518690D01*
X34335000Y-108375833D01*
X34239761Y-108280595D01*
X34144523Y-108232976D01*
X33954047Y-108185357D01*
X33811190Y-108185357D01*
X33620714Y-108232976D01*
X33525476Y-108280595D01*
X33430238Y-108375833D01*
X33382619Y-108518690D01*
X33382619Y-108756785D01*
X171542619Y-110947261D02*
X171542619Y-110375833D01*
X170542619Y-110661547D02*
X171542619Y-110661547D01*
X171542619Y-110137738D02*
X170542619Y-109471071D01*
X171542619Y-109471071D02*
X170542619Y-110137738D01*
X170542619Y-108566309D02*
X170542619Y-109137738D01*
X170542619Y-108852023D02*
X171542619Y-108852023D01*
X171399761Y-108947261D01*
X171304523Y-109042500D01*
X171256904Y-109137738D01*
X171542619Y-107947261D02*
X171542619Y-107852023D01*
X171495000Y-107756785D01*
X171447380Y-107709166D01*
X171352142Y-107661547D01*
X171161666Y-107613928D01*
X170923571Y-107613928D01*
X170733095Y-107661547D01*
X170637857Y-107709166D01*
X170590238Y-107756785D01*
X170542619Y-107852023D01*
X170542619Y-107947261D01*
X170590238Y-108042500D01*
X170637857Y-108090119D01*
X170733095Y-108137738D01*
X170923571Y-108185357D01*
X171161666Y-108185357D01*
X171352142Y-108137738D01*
X171447380Y-108090119D01*
X171495000Y-108042500D01*
X171542619Y-107947261D01*
X170923571Y-107185357D02*
X170923571Y-106423452D01*
X170542619Y-106804404D02*
X171304523Y-106804404D01*
X176575000Y-110280595D02*
X176622619Y-110375833D01*
X176622619Y-110518690D01*
X176575000Y-110661547D01*
X176479761Y-110756785D01*
X176384523Y-110804404D01*
X176194047Y-110852023D01*
X176051190Y-110852023D01*
X175860714Y-110804404D01*
X175765476Y-110756785D01*
X175670238Y-110661547D01*
X175622619Y-110518690D01*
X175622619Y-110423452D01*
X175670238Y-110280595D01*
X175717857Y-110232976D01*
X176051190Y-110232976D01*
X176051190Y-110423452D01*
X175622619Y-109804404D02*
X176622619Y-109804404D01*
X175622619Y-109232976D01*
X176622619Y-109232976D01*
X175622619Y-108756785D02*
X176622619Y-108756785D01*
X176622619Y-108518690D01*
X176575000Y-108375833D01*
X176479761Y-108280595D01*
X176384523Y-108232976D01*
X176194047Y-108185357D01*
X176051190Y-108185357D01*
X175860714Y-108232976D01*
X175765476Y-108280595D01*
X175670238Y-108375833D01*
X175622619Y-108518690D01*
X175622619Y-108756785D01*
X174082619Y-110947261D02*
X174082619Y-110375833D01*
X173082619Y-110661547D02*
X174082619Y-110661547D01*
X174082619Y-110137738D02*
X173082619Y-109471071D01*
X174082619Y-109471071D02*
X173082619Y-110137738D01*
X173082619Y-108566309D02*
X173082619Y-109137738D01*
X173082619Y-108852023D02*
X174082619Y-108852023D01*
X173939761Y-108947261D01*
X173844523Y-109042500D01*
X173796904Y-109137738D01*
X174082619Y-107947261D02*
X174082619Y-107852023D01*
X174035000Y-107756785D01*
X173987380Y-107709166D01*
X173892142Y-107661547D01*
X173701666Y-107613928D01*
X173463571Y-107613928D01*
X173273095Y-107661547D01*
X173177857Y-107709166D01*
X173130238Y-107756785D01*
X173082619Y-107852023D01*
X173082619Y-107947261D01*
X173130238Y-108042500D01*
X173177857Y-108090119D01*
X173273095Y-108137738D01*
X173463571Y-108185357D01*
X173701666Y-108185357D01*
X173892142Y-108137738D01*
X173987380Y-108090119D01*
X174035000Y-108042500D01*
X174082619Y-107947261D01*
X173463571Y-107185357D02*
X173463571Y-106423452D01*
X82642619Y-110947261D02*
X82642619Y-110375833D01*
X81642619Y-110661547D02*
X82642619Y-110661547D01*
X82642619Y-110137738D02*
X81642619Y-109471071D01*
X82642619Y-109471071D02*
X81642619Y-110137738D01*
X82547380Y-109137738D02*
X82595000Y-109090119D01*
X82642619Y-108994880D01*
X82642619Y-108756785D01*
X82595000Y-108661547D01*
X82547380Y-108613928D01*
X82452142Y-108566309D01*
X82356904Y-108566309D01*
X82214047Y-108613928D01*
X81642619Y-109185357D01*
X81642619Y-108566309D01*
X82023571Y-108137738D02*
X82023571Y-107375833D01*
X81642619Y-107756785D02*
X82404523Y-107756785D01*
X87675000Y-110280595D02*
X87722619Y-110375833D01*
X87722619Y-110518690D01*
X87675000Y-110661547D01*
X87579761Y-110756785D01*
X87484523Y-110804404D01*
X87294047Y-110852023D01*
X87151190Y-110852023D01*
X86960714Y-110804404D01*
X86865476Y-110756785D01*
X86770238Y-110661547D01*
X86722619Y-110518690D01*
X86722619Y-110423452D01*
X86770238Y-110280595D01*
X86817857Y-110232976D01*
X87151190Y-110232976D01*
X87151190Y-110423452D01*
X86722619Y-109804404D02*
X87722619Y-109804404D01*
X86722619Y-109232976D01*
X87722619Y-109232976D01*
X86722619Y-108756785D02*
X87722619Y-108756785D01*
X87722619Y-108518690D01*
X87675000Y-108375833D01*
X87579761Y-108280595D01*
X87484523Y-108232976D01*
X87294047Y-108185357D01*
X87151190Y-108185357D01*
X86960714Y-108232976D01*
X86865476Y-108280595D01*
X86770238Y-108375833D01*
X86722619Y-108518690D01*
X86722619Y-108756785D01*
X85182619Y-110947261D02*
X85182619Y-110375833D01*
X84182619Y-110661547D02*
X85182619Y-110661547D01*
X85182619Y-110137738D02*
X84182619Y-109471071D01*
X85182619Y-109471071D02*
X84182619Y-110137738D01*
X85087380Y-109137738D02*
X85135000Y-109090119D01*
X85182619Y-108994880D01*
X85182619Y-108756785D01*
X85135000Y-108661547D01*
X85087380Y-108613928D01*
X84992142Y-108566309D01*
X84896904Y-108566309D01*
X84754047Y-108613928D01*
X84182619Y-109185357D01*
X84182619Y-108566309D01*
X84563571Y-108137738D02*
X84563571Y-107375833D01*
X179115000Y-110280595D02*
X179162619Y-110375833D01*
X179162619Y-110518690D01*
X179115000Y-110661547D01*
X179019761Y-110756785D01*
X178924523Y-110804404D01*
X178734047Y-110852023D01*
X178591190Y-110852023D01*
X178400714Y-110804404D01*
X178305476Y-110756785D01*
X178210238Y-110661547D01*
X178162619Y-110518690D01*
X178162619Y-110423452D01*
X178210238Y-110280595D01*
X178257857Y-110232976D01*
X178591190Y-110232976D01*
X178591190Y-110423452D01*
X178162619Y-109804404D02*
X179162619Y-109804404D01*
X178162619Y-109232976D01*
X179162619Y-109232976D01*
X178162619Y-108756785D02*
X179162619Y-108756785D01*
X179162619Y-108518690D01*
X179115000Y-108375833D01*
X179019761Y-108280595D01*
X178924523Y-108232976D01*
X178734047Y-108185357D01*
X178591190Y-108185357D01*
X178400714Y-108232976D01*
X178305476Y-108280595D01*
X178210238Y-108375833D01*
X178162619Y-108518690D01*
X178162619Y-108756785D01*
X90215000Y-110280595D02*
X90262619Y-110375833D01*
X90262619Y-110518690D01*
X90215000Y-110661547D01*
X90119761Y-110756785D01*
X90024523Y-110804404D01*
X89834047Y-110852023D01*
X89691190Y-110852023D01*
X89500714Y-110804404D01*
X89405476Y-110756785D01*
X89310238Y-110661547D01*
X89262619Y-110518690D01*
X89262619Y-110423452D01*
X89310238Y-110280595D01*
X89357857Y-110232976D01*
X89691190Y-110232976D01*
X89691190Y-110423452D01*
X89262619Y-109804404D02*
X90262619Y-109804404D01*
X89262619Y-109232976D01*
X90262619Y-109232976D01*
X89262619Y-108756785D02*
X90262619Y-108756785D01*
X90262619Y-108518690D01*
X90215000Y-108375833D01*
X90119761Y-108280595D01*
X90024523Y-108232976D01*
X89834047Y-108185357D01*
X89691190Y-108185357D01*
X89500714Y-108232976D01*
X89405476Y-108280595D01*
X89310238Y-108375833D01*
X89262619Y-108518690D01*
X89262619Y-108756785D01*
X163922619Y-110947261D02*
X163922619Y-110375833D01*
X162922619Y-110661547D02*
X163922619Y-110661547D01*
X163922619Y-110137738D02*
X162922619Y-109471071D01*
X163922619Y-109471071D02*
X162922619Y-110137738D01*
X162922619Y-109042500D02*
X162922619Y-108852023D01*
X162970238Y-108756785D01*
X163017857Y-108709166D01*
X163160714Y-108613928D01*
X163351190Y-108566309D01*
X163732142Y-108566309D01*
X163827380Y-108613928D01*
X163875000Y-108661547D01*
X163922619Y-108756785D01*
X163922619Y-108947261D01*
X163875000Y-109042500D01*
X163827380Y-109090119D01*
X163732142Y-109137738D01*
X163494047Y-109137738D01*
X163398809Y-109090119D01*
X163351190Y-109042500D01*
X163303571Y-108947261D01*
X163303571Y-108756785D01*
X163351190Y-108661547D01*
X163398809Y-108613928D01*
X163494047Y-108566309D01*
X163303571Y-108137738D02*
X163303571Y-107375833D01*
X168955000Y-110280595D02*
X169002619Y-110375833D01*
X169002619Y-110518690D01*
X168955000Y-110661547D01*
X168859761Y-110756785D01*
X168764523Y-110804404D01*
X168574047Y-110852023D01*
X168431190Y-110852023D01*
X168240714Y-110804404D01*
X168145476Y-110756785D01*
X168050238Y-110661547D01*
X168002619Y-110518690D01*
X168002619Y-110423452D01*
X168050238Y-110280595D01*
X168097857Y-110232976D01*
X168431190Y-110232976D01*
X168431190Y-110423452D01*
X168002619Y-109804404D02*
X169002619Y-109804404D01*
X168002619Y-109232976D01*
X169002619Y-109232976D01*
X168002619Y-108756785D02*
X169002619Y-108756785D01*
X169002619Y-108518690D01*
X168955000Y-108375833D01*
X168859761Y-108280595D01*
X168764523Y-108232976D01*
X168574047Y-108185357D01*
X168431190Y-108185357D01*
X168240714Y-108232976D01*
X168145476Y-108280595D01*
X168050238Y-108375833D01*
X168002619Y-108518690D01*
X168002619Y-108756785D01*
X166415000Y-110280595D02*
X166462619Y-110375833D01*
X166462619Y-110518690D01*
X166415000Y-110661547D01*
X166319761Y-110756785D01*
X166224523Y-110804404D01*
X166034047Y-110852023D01*
X165891190Y-110852023D01*
X165700714Y-110804404D01*
X165605476Y-110756785D01*
X165510238Y-110661547D01*
X165462619Y-110518690D01*
X165462619Y-110423452D01*
X165510238Y-110280595D01*
X165557857Y-110232976D01*
X165891190Y-110232976D01*
X165891190Y-110423452D01*
X165462619Y-109804404D02*
X166462619Y-109804404D01*
X165462619Y-109232976D01*
X166462619Y-109232976D01*
X165462619Y-108756785D02*
X166462619Y-108756785D01*
X166462619Y-108518690D01*
X166415000Y-108375833D01*
X166319761Y-108280595D01*
X166224523Y-108232976D01*
X166034047Y-108185357D01*
X165891190Y-108185357D01*
X165700714Y-108232976D01*
X165605476Y-108280595D01*
X165510238Y-108375833D01*
X165462619Y-108518690D01*
X165462619Y-108756785D01*
X151222619Y-110947261D02*
X151222619Y-110375833D01*
X150222619Y-110661547D02*
X151222619Y-110661547D01*
X151222619Y-110137738D02*
X150222619Y-109471071D01*
X151222619Y-109471071D02*
X150222619Y-110137738D01*
X150794047Y-108947261D02*
X150841666Y-109042500D01*
X150889285Y-109090119D01*
X150984523Y-109137738D01*
X151032142Y-109137738D01*
X151127380Y-109090119D01*
X151175000Y-109042500D01*
X151222619Y-108947261D01*
X151222619Y-108756785D01*
X151175000Y-108661547D01*
X151127380Y-108613928D01*
X151032142Y-108566309D01*
X150984523Y-108566309D01*
X150889285Y-108613928D01*
X150841666Y-108661547D01*
X150794047Y-108756785D01*
X150794047Y-108947261D01*
X150746428Y-109042500D01*
X150698809Y-109090119D01*
X150603571Y-109137738D01*
X150413095Y-109137738D01*
X150317857Y-109090119D01*
X150270238Y-109042500D01*
X150222619Y-108947261D01*
X150222619Y-108756785D01*
X150270238Y-108661547D01*
X150317857Y-108613928D01*
X150413095Y-108566309D01*
X150603571Y-108566309D01*
X150698809Y-108613928D01*
X150746428Y-108661547D01*
X150794047Y-108756785D01*
X150603571Y-108137738D02*
X150603571Y-107375833D01*
X150222619Y-107756785D02*
X150984523Y-107756785D01*
X161382619Y-110947261D02*
X161382619Y-110375833D01*
X160382619Y-110661547D02*
X161382619Y-110661547D01*
X161382619Y-110137738D02*
X160382619Y-109471071D01*
X161382619Y-109471071D02*
X160382619Y-110137738D01*
X160382619Y-109042500D02*
X160382619Y-108852023D01*
X160430238Y-108756785D01*
X160477857Y-108709166D01*
X160620714Y-108613928D01*
X160811190Y-108566309D01*
X161192142Y-108566309D01*
X161287380Y-108613928D01*
X161335000Y-108661547D01*
X161382619Y-108756785D01*
X161382619Y-108947261D01*
X161335000Y-109042500D01*
X161287380Y-109090119D01*
X161192142Y-109137738D01*
X160954047Y-109137738D01*
X160858809Y-109090119D01*
X160811190Y-109042500D01*
X160763571Y-108947261D01*
X160763571Y-108756785D01*
X160811190Y-108661547D01*
X160858809Y-108613928D01*
X160954047Y-108566309D01*
X160763571Y-108137738D02*
X160763571Y-107375833D01*
X160382619Y-107756785D02*
X161144523Y-107756785D01*
X156255000Y-110280595D02*
X156302619Y-110375833D01*
X156302619Y-110518690D01*
X156255000Y-110661547D01*
X156159761Y-110756785D01*
X156064523Y-110804404D01*
X155874047Y-110852023D01*
X155731190Y-110852023D01*
X155540714Y-110804404D01*
X155445476Y-110756785D01*
X155350238Y-110661547D01*
X155302619Y-110518690D01*
X155302619Y-110423452D01*
X155350238Y-110280595D01*
X155397857Y-110232976D01*
X155731190Y-110232976D01*
X155731190Y-110423452D01*
X155302619Y-109804404D02*
X156302619Y-109804404D01*
X155302619Y-109232976D01*
X156302619Y-109232976D01*
X155302619Y-108756785D02*
X156302619Y-108756785D01*
X156302619Y-108518690D01*
X156255000Y-108375833D01*
X156159761Y-108280595D01*
X156064523Y-108232976D01*
X155874047Y-108185357D01*
X155731190Y-108185357D01*
X155540714Y-108232976D01*
X155445476Y-108280595D01*
X155350238Y-108375833D01*
X155302619Y-108518690D01*
X155302619Y-108756785D01*
X158795000Y-110280595D02*
X158842619Y-110375833D01*
X158842619Y-110518690D01*
X158795000Y-110661547D01*
X158699761Y-110756785D01*
X158604523Y-110804404D01*
X158414047Y-110852023D01*
X158271190Y-110852023D01*
X158080714Y-110804404D01*
X157985476Y-110756785D01*
X157890238Y-110661547D01*
X157842619Y-110518690D01*
X157842619Y-110423452D01*
X157890238Y-110280595D01*
X157937857Y-110232976D01*
X158271190Y-110232976D01*
X158271190Y-110423452D01*
X157842619Y-109804404D02*
X158842619Y-109804404D01*
X157842619Y-109232976D01*
X158842619Y-109232976D01*
X157842619Y-108756785D02*
X158842619Y-108756785D01*
X158842619Y-108518690D01*
X158795000Y-108375833D01*
X158699761Y-108280595D01*
X158604523Y-108232976D01*
X158414047Y-108185357D01*
X158271190Y-108185357D01*
X158080714Y-108232976D01*
X157985476Y-108280595D01*
X157890238Y-108375833D01*
X157842619Y-108518690D01*
X157842619Y-108756785D01*
X148635000Y-110280595D02*
X148682619Y-110375833D01*
X148682619Y-110518690D01*
X148635000Y-110661547D01*
X148539761Y-110756785D01*
X148444523Y-110804404D01*
X148254047Y-110852023D01*
X148111190Y-110852023D01*
X147920714Y-110804404D01*
X147825476Y-110756785D01*
X147730238Y-110661547D01*
X147682619Y-110518690D01*
X147682619Y-110423452D01*
X147730238Y-110280595D01*
X147777857Y-110232976D01*
X148111190Y-110232976D01*
X148111190Y-110423452D01*
X147682619Y-109804404D02*
X148682619Y-109804404D01*
X147682619Y-109232976D01*
X148682619Y-109232976D01*
X147682619Y-108756785D02*
X148682619Y-108756785D01*
X148682619Y-108518690D01*
X148635000Y-108375833D01*
X148539761Y-108280595D01*
X148444523Y-108232976D01*
X148254047Y-108185357D01*
X148111190Y-108185357D01*
X147920714Y-108232976D01*
X147825476Y-108280595D01*
X147730238Y-108375833D01*
X147682619Y-108518690D01*
X147682619Y-108756785D01*
X153762619Y-110947261D02*
X153762619Y-110375833D01*
X152762619Y-110661547D02*
X153762619Y-110661547D01*
X153762619Y-110137738D02*
X152762619Y-109471071D01*
X153762619Y-109471071D02*
X152762619Y-110137738D01*
X153334047Y-108947261D02*
X153381666Y-109042500D01*
X153429285Y-109090119D01*
X153524523Y-109137738D01*
X153572142Y-109137738D01*
X153667380Y-109090119D01*
X153715000Y-109042500D01*
X153762619Y-108947261D01*
X153762619Y-108756785D01*
X153715000Y-108661547D01*
X153667380Y-108613928D01*
X153572142Y-108566309D01*
X153524523Y-108566309D01*
X153429285Y-108613928D01*
X153381666Y-108661547D01*
X153334047Y-108756785D01*
X153334047Y-108947261D01*
X153286428Y-109042500D01*
X153238809Y-109090119D01*
X153143571Y-109137738D01*
X152953095Y-109137738D01*
X152857857Y-109090119D01*
X152810238Y-109042500D01*
X152762619Y-108947261D01*
X152762619Y-108756785D01*
X152810238Y-108661547D01*
X152857857Y-108613928D01*
X152953095Y-108566309D01*
X153143571Y-108566309D01*
X153238809Y-108613928D01*
X153286428Y-108661547D01*
X153334047Y-108756785D01*
X153143571Y-108137738D02*
X153143571Y-107375833D01*
X141062619Y-110947261D02*
X141062619Y-110375833D01*
X140062619Y-110661547D02*
X141062619Y-110661547D01*
X141062619Y-110137738D02*
X140062619Y-109471071D01*
X141062619Y-109471071D02*
X140062619Y-110137738D01*
X141062619Y-109185357D02*
X141062619Y-108518690D01*
X140062619Y-108947261D01*
X140443571Y-108137738D02*
X140443571Y-107375833D01*
X146510000Y-111042500D02*
X146510000Y-110042500D01*
X145142619Y-110804404D02*
X146142619Y-110804404D01*
X146142619Y-110423452D01*
X146095000Y-110328214D01*
X146047380Y-110280595D01*
X145952142Y-110232976D01*
X145809285Y-110232976D01*
X145714047Y-110280595D01*
X145666428Y-110328214D01*
X145618809Y-110423452D01*
X145618809Y-110804404D01*
X146510000Y-110042500D02*
X146510000Y-109042500D01*
X145142619Y-109232976D02*
X145618809Y-109566309D01*
X145142619Y-109804404D02*
X146142619Y-109804404D01*
X146142619Y-109423452D01*
X146095000Y-109328214D01*
X146047380Y-109280595D01*
X145952142Y-109232976D01*
X145809285Y-109232976D01*
X145714047Y-109280595D01*
X145666428Y-109328214D01*
X145618809Y-109423452D01*
X145618809Y-109804404D01*
X146510000Y-109042500D02*
X146510000Y-108090119D01*
X145190238Y-108852023D02*
X145142619Y-108709166D01*
X145142619Y-108471071D01*
X145190238Y-108375833D01*
X145237857Y-108328214D01*
X145333095Y-108280595D01*
X145428333Y-108280595D01*
X145523571Y-108328214D01*
X145571190Y-108375833D01*
X145618809Y-108471071D01*
X145666428Y-108661547D01*
X145714047Y-108756785D01*
X145761666Y-108804404D01*
X145856904Y-108852023D01*
X145952142Y-108852023D01*
X146047380Y-108804404D01*
X146095000Y-108756785D01*
X146142619Y-108661547D01*
X146142619Y-108423452D01*
X146095000Y-108280595D01*
X146510000Y-108090119D02*
X146510000Y-107042500D01*
X145142619Y-107852023D02*
X146142619Y-107852023D01*
X145142619Y-107280595D01*
X146142619Y-107280595D01*
X146510000Y-107042500D02*
X146510000Y-106280595D01*
X146142619Y-106947261D02*
X146142619Y-106375833D01*
X145142619Y-106661547D02*
X146142619Y-106661547D01*
X146510000Y-106280595D02*
X146510000Y-105328214D01*
X146047380Y-106090119D02*
X146095000Y-106042500D01*
X146142619Y-105947261D01*
X146142619Y-105709166D01*
X146095000Y-105613928D01*
X146047380Y-105566309D01*
X145952142Y-105518690D01*
X145856904Y-105518690D01*
X145714047Y-105566309D01*
X145142619Y-106137738D01*
X145142619Y-105518690D01*
X28683571Y-110804404D02*
X28683571Y-110042500D01*
X28302619Y-110423452D02*
X29064523Y-110423452D01*
X28302619Y-109042500D02*
X28302619Y-109613928D01*
X28302619Y-109328214D02*
X29302619Y-109328214D01*
X29159761Y-109423452D01*
X29064523Y-109518690D01*
X29016904Y-109613928D01*
X29207380Y-108661547D02*
X29255000Y-108613928D01*
X29302619Y-108518690D01*
X29302619Y-108280595D01*
X29255000Y-108185357D01*
X29207380Y-108137738D01*
X29112142Y-108090119D01*
X29016904Y-108090119D01*
X28874047Y-108137738D01*
X28302619Y-108709166D01*
X28302619Y-108090119D01*
X29302619Y-107804404D02*
X28302619Y-107471071D01*
X29302619Y-107137738D01*
X43923571Y-110804404D02*
X43923571Y-110042500D01*
X43542619Y-110423452D02*
X44304523Y-110423452D01*
X44542619Y-109661547D02*
X44542619Y-109042500D01*
X44161666Y-109375833D01*
X44161666Y-109232976D01*
X44114047Y-109137738D01*
X44066428Y-109090119D01*
X43971190Y-109042500D01*
X43733095Y-109042500D01*
X43637857Y-109090119D01*
X43590238Y-109137738D01*
X43542619Y-109232976D01*
X43542619Y-109518690D01*
X43590238Y-109613928D01*
X43637857Y-109661547D01*
X44209285Y-108709166D02*
X43542619Y-108471071D01*
X44209285Y-108232976D01*
X44542619Y-107947261D02*
X44542619Y-107328214D01*
X44161666Y-107661547D01*
X44161666Y-107518690D01*
X44114047Y-107423452D01*
X44066428Y-107375833D01*
X43971190Y-107328214D01*
X43733095Y-107328214D01*
X43637857Y-107375833D01*
X43590238Y-107423452D01*
X43542619Y-107518690D01*
X43542619Y-107804404D01*
X43590238Y-107899642D01*
X43637857Y-107947261D01*
X49003571Y-110804404D02*
X49003571Y-110042500D01*
X48622619Y-110423452D02*
X49384523Y-110423452D01*
X49622619Y-109661547D02*
X49622619Y-109042500D01*
X49241666Y-109375833D01*
X49241666Y-109232976D01*
X49194047Y-109137738D01*
X49146428Y-109090119D01*
X49051190Y-109042500D01*
X48813095Y-109042500D01*
X48717857Y-109090119D01*
X48670238Y-109137738D01*
X48622619Y-109232976D01*
X48622619Y-109518690D01*
X48670238Y-109613928D01*
X48717857Y-109661547D01*
X49289285Y-108709166D02*
X48622619Y-108471071D01*
X49289285Y-108232976D01*
X49622619Y-107947261D02*
X49622619Y-107328214D01*
X49241666Y-107661547D01*
X49241666Y-107518690D01*
X49194047Y-107423452D01*
X49146428Y-107375833D01*
X49051190Y-107328214D01*
X48813095Y-107328214D01*
X48717857Y-107375833D01*
X48670238Y-107423452D01*
X48622619Y-107518690D01*
X48622619Y-107804404D01*
X48670238Y-107899642D01*
X48717857Y-107947261D01*
X48622619Y-105709166D02*
X49146428Y-105709166D01*
X49241666Y-105756785D01*
X49289285Y-105852023D01*
X49289285Y-106042500D01*
X49241666Y-106137738D01*
X48670238Y-105709166D02*
X48622619Y-105804404D01*
X48622619Y-106042500D01*
X48670238Y-106137738D01*
X48765476Y-106185357D01*
X48860714Y-106185357D01*
X48955952Y-106137738D01*
X49003571Y-106042500D01*
X49003571Y-105804404D01*
X49051190Y-105709166D01*
X49289285Y-104804404D02*
X48622619Y-104804404D01*
X49289285Y-105232976D02*
X48765476Y-105232976D01*
X48670238Y-105185357D01*
X48622619Y-105090119D01*
X48622619Y-104947261D01*
X48670238Y-104852023D01*
X48717857Y-104804404D01*
X48622619Y-104423452D02*
X49289285Y-103899642D01*
X49289285Y-104423452D02*
X48622619Y-103899642D01*
X113075000Y-110280595D02*
X113122619Y-110375833D01*
X113122619Y-110518690D01*
X113075000Y-110661547D01*
X112979761Y-110756785D01*
X112884523Y-110804404D01*
X112694047Y-110852023D01*
X112551190Y-110852023D01*
X112360714Y-110804404D01*
X112265476Y-110756785D01*
X112170238Y-110661547D01*
X112122619Y-110518690D01*
X112122619Y-110423452D01*
X112170238Y-110280595D01*
X112217857Y-110232976D01*
X112551190Y-110232976D01*
X112551190Y-110423452D01*
X112122619Y-109804404D02*
X113122619Y-109804404D01*
X112122619Y-109232976D01*
X113122619Y-109232976D01*
X112122619Y-108756785D02*
X113122619Y-108756785D01*
X113122619Y-108518690D01*
X113075000Y-108375833D01*
X112979761Y-108280595D01*
X112884523Y-108232976D01*
X112694047Y-108185357D01*
X112551190Y-108185357D01*
X112360714Y-108232976D01*
X112265476Y-108280595D01*
X112170238Y-108375833D01*
X112122619Y-108518690D01*
X112122619Y-108756785D01*
X108042619Y-110947261D02*
X108042619Y-110375833D01*
X107042619Y-110661547D02*
X108042619Y-110661547D01*
X108042619Y-110137738D02*
X107042619Y-109471071D01*
X108042619Y-109471071D02*
X107042619Y-110137738D01*
X107709285Y-108661547D02*
X107042619Y-108661547D01*
X108090238Y-108899642D02*
X107375952Y-109137738D01*
X107375952Y-108518690D01*
X107423571Y-108137738D02*
X107423571Y-107375833D01*
X107042619Y-107756785D02*
X107804523Y-107756785D01*
X103330000Y-111042500D02*
X103330000Y-110042500D01*
X101962619Y-110804404D02*
X102962619Y-110804404D01*
X102962619Y-110423452D01*
X102915000Y-110328214D01*
X102867380Y-110280595D01*
X102772142Y-110232976D01*
X102629285Y-110232976D01*
X102534047Y-110280595D01*
X102486428Y-110328214D01*
X102438809Y-110423452D01*
X102438809Y-110804404D01*
X103330000Y-110042500D02*
X103330000Y-109042500D01*
X101962619Y-109232976D02*
X102438809Y-109566309D01*
X101962619Y-109804404D02*
X102962619Y-109804404D01*
X102962619Y-109423452D01*
X102915000Y-109328214D01*
X102867380Y-109280595D01*
X102772142Y-109232976D01*
X102629285Y-109232976D01*
X102534047Y-109280595D01*
X102486428Y-109328214D01*
X102438809Y-109423452D01*
X102438809Y-109804404D01*
X103330000Y-109042500D02*
X103330000Y-108090119D01*
X102010238Y-108852023D02*
X101962619Y-108709166D01*
X101962619Y-108471071D01*
X102010238Y-108375833D01*
X102057857Y-108328214D01*
X102153095Y-108280595D01*
X102248333Y-108280595D01*
X102343571Y-108328214D01*
X102391190Y-108375833D01*
X102438809Y-108471071D01*
X102486428Y-108661547D01*
X102534047Y-108756785D01*
X102581666Y-108804404D01*
X102676904Y-108852023D01*
X102772142Y-108852023D01*
X102867380Y-108804404D01*
X102915000Y-108756785D01*
X102962619Y-108661547D01*
X102962619Y-108423452D01*
X102915000Y-108280595D01*
X103330000Y-108090119D02*
X103330000Y-107042500D01*
X101962619Y-107852023D02*
X102962619Y-107852023D01*
X101962619Y-107280595D01*
X102962619Y-107280595D01*
X103330000Y-107042500D02*
X103330000Y-106280595D01*
X102962619Y-106947261D02*
X102962619Y-106375833D01*
X101962619Y-106661547D02*
X102962619Y-106661547D01*
X103330000Y-106280595D02*
X103330000Y-105328214D01*
X102867380Y-106090119D02*
X102915000Y-106042500D01*
X102962619Y-105947261D01*
X102962619Y-105709166D01*
X102915000Y-105613928D01*
X102867380Y-105566309D01*
X102772142Y-105518690D01*
X102676904Y-105518690D01*
X102534047Y-105566309D01*
X101962619Y-106137738D01*
X101962619Y-105518690D01*
X95342619Y-110947261D02*
X95342619Y-110375833D01*
X94342619Y-110661547D02*
X95342619Y-110661547D01*
X95342619Y-110137738D02*
X94342619Y-109471071D01*
X95342619Y-109471071D02*
X94342619Y-110137738D01*
X95342619Y-109185357D02*
X95342619Y-108566309D01*
X94961666Y-108899642D01*
X94961666Y-108756785D01*
X94914047Y-108661547D01*
X94866428Y-108613928D01*
X94771190Y-108566309D01*
X94533095Y-108566309D01*
X94437857Y-108613928D01*
X94390238Y-108661547D01*
X94342619Y-108756785D01*
X94342619Y-109042500D01*
X94390238Y-109137738D01*
X94437857Y-109185357D01*
X94723571Y-108137738D02*
X94723571Y-107375833D01*
X105455000Y-110280595D02*
X105502619Y-110375833D01*
X105502619Y-110518690D01*
X105455000Y-110661547D01*
X105359761Y-110756785D01*
X105264523Y-110804404D01*
X105074047Y-110852023D01*
X104931190Y-110852023D01*
X104740714Y-110804404D01*
X104645476Y-110756785D01*
X104550238Y-110661547D01*
X104502619Y-110518690D01*
X104502619Y-110423452D01*
X104550238Y-110280595D01*
X104597857Y-110232976D01*
X104931190Y-110232976D01*
X104931190Y-110423452D01*
X104502619Y-109804404D02*
X105502619Y-109804404D01*
X104502619Y-109232976D01*
X105502619Y-109232976D01*
X104502619Y-108756785D02*
X105502619Y-108756785D01*
X105502619Y-108518690D01*
X105455000Y-108375833D01*
X105359761Y-108280595D01*
X105264523Y-108232976D01*
X105074047Y-108185357D01*
X104931190Y-108185357D01*
X104740714Y-108232976D01*
X104645476Y-108280595D01*
X104550238Y-108375833D01*
X104502619Y-108518690D01*
X104502619Y-108756785D01*
X38510238Y-110852023D02*
X38462619Y-110709166D01*
X38462619Y-110471071D01*
X38510238Y-110375833D01*
X38557857Y-110328214D01*
X38653095Y-110280595D01*
X38748333Y-110280595D01*
X38843571Y-110328214D01*
X38891190Y-110375833D01*
X38938809Y-110471071D01*
X38986428Y-110661547D01*
X39034047Y-110756785D01*
X39081666Y-110804404D01*
X39176904Y-110852023D01*
X39272142Y-110852023D01*
X39367380Y-110804404D01*
X39415000Y-110756785D01*
X39462619Y-110661547D01*
X39462619Y-110423452D01*
X39415000Y-110280595D01*
X38462619Y-109852023D02*
X39462619Y-109852023D01*
X38748333Y-109518690D01*
X39462619Y-109185357D01*
X38462619Y-109185357D01*
X38462619Y-108709166D02*
X39462619Y-108709166D01*
X39462619Y-108471071D01*
X39415000Y-108328214D01*
X39319761Y-108232976D01*
X39224523Y-108185357D01*
X39034047Y-108137738D01*
X38891190Y-108137738D01*
X38700714Y-108185357D01*
X38605476Y-108232976D01*
X38510238Y-108328214D01*
X38462619Y-108471071D01*
X38462619Y-108709166D01*
X38748333Y-107756785D02*
X38748333Y-107280595D01*
X38462619Y-107852023D02*
X39462619Y-107518690D01*
X38462619Y-107185357D01*
X39462619Y-106994880D02*
X39462619Y-106423452D01*
X38462619Y-106709166D02*
X39462619Y-106709166D01*
X26143571Y-110804404D02*
X26143571Y-110042500D01*
X25762619Y-110423452D02*
X26524523Y-110423452D01*
X25762619Y-109042500D02*
X25762619Y-109613928D01*
X25762619Y-109328214D02*
X26762619Y-109328214D01*
X26619761Y-109423452D01*
X26524523Y-109518690D01*
X26476904Y-109613928D01*
X26667380Y-108661547D02*
X26715000Y-108613928D01*
X26762619Y-108518690D01*
X26762619Y-108280595D01*
X26715000Y-108185357D01*
X26667380Y-108137738D01*
X26572142Y-108090119D01*
X26476904Y-108090119D01*
X26334047Y-108137738D01*
X25762619Y-108709166D01*
X25762619Y-108090119D01*
X26762619Y-107804404D02*
X25762619Y-107471071D01*
X26762619Y-107137738D01*
X59782619Y-110947261D02*
X59782619Y-110375833D01*
X58782619Y-110661547D02*
X59782619Y-110661547D01*
X59782619Y-110137738D02*
X58782619Y-109471071D01*
X59782619Y-109471071D02*
X58782619Y-110137738D01*
X59782619Y-108899642D02*
X59782619Y-108804404D01*
X59735000Y-108709166D01*
X59687380Y-108661547D01*
X59592142Y-108613928D01*
X59401666Y-108566309D01*
X59163571Y-108566309D01*
X58973095Y-108613928D01*
X58877857Y-108661547D01*
X58830238Y-108709166D01*
X58782619Y-108804404D01*
X58782619Y-108899642D01*
X58830238Y-108994880D01*
X58877857Y-109042500D01*
X58973095Y-109090119D01*
X59163571Y-109137738D01*
X59401666Y-109137738D01*
X59592142Y-109090119D01*
X59687380Y-109042500D01*
X59735000Y-108994880D01*
X59782619Y-108899642D01*
X59163571Y-108137738D02*
X59163571Y-107375833D01*
X58782619Y-107756785D02*
X59544523Y-107756785D01*
X69895000Y-110280595D02*
X69942619Y-110375833D01*
X69942619Y-110518690D01*
X69895000Y-110661547D01*
X69799761Y-110756785D01*
X69704523Y-110804404D01*
X69514047Y-110852023D01*
X69371190Y-110852023D01*
X69180714Y-110804404D01*
X69085476Y-110756785D01*
X68990238Y-110661547D01*
X68942619Y-110518690D01*
X68942619Y-110423452D01*
X68990238Y-110280595D01*
X69037857Y-110232976D01*
X69371190Y-110232976D01*
X69371190Y-110423452D01*
X68942619Y-109804404D02*
X69942619Y-109804404D01*
X68942619Y-109232976D01*
X69942619Y-109232976D01*
X68942619Y-108756785D02*
X69942619Y-108756785D01*
X69942619Y-108518690D01*
X69895000Y-108375833D01*
X69799761Y-108280595D01*
X69704523Y-108232976D01*
X69514047Y-108185357D01*
X69371190Y-108185357D01*
X69180714Y-108232976D01*
X69085476Y-108280595D01*
X68990238Y-108375833D01*
X68942619Y-108518690D01*
X68942619Y-108756785D01*
X53702619Y-110232976D02*
X54178809Y-110566309D01*
X53702619Y-110804404D02*
X54702619Y-110804404D01*
X54702619Y-110423452D01*
X54655000Y-110328214D01*
X54607380Y-110280595D01*
X54512142Y-110232976D01*
X54369285Y-110232976D01*
X54274047Y-110280595D01*
X54226428Y-110328214D01*
X54178809Y-110423452D01*
X54178809Y-110804404D01*
X54226428Y-109804404D02*
X54226428Y-109471071D01*
X53702619Y-109328214D02*
X53702619Y-109804404D01*
X54702619Y-109804404D01*
X54702619Y-109328214D01*
X53750238Y-108947261D02*
X53702619Y-108804404D01*
X53702619Y-108566309D01*
X53750238Y-108471071D01*
X53797857Y-108423452D01*
X53893095Y-108375833D01*
X53988333Y-108375833D01*
X54083571Y-108423452D01*
X54131190Y-108471071D01*
X54178809Y-108566309D01*
X54226428Y-108756785D01*
X54274047Y-108852023D01*
X54321666Y-108899642D01*
X54416904Y-108947261D01*
X54512142Y-108947261D01*
X54607380Y-108899642D01*
X54655000Y-108852023D01*
X54702619Y-108756785D01*
X54702619Y-108518690D01*
X54655000Y-108375833D01*
X54226428Y-107947261D02*
X54226428Y-107613928D01*
X53702619Y-107471071D02*
X53702619Y-107947261D01*
X54702619Y-107947261D01*
X54702619Y-107471071D01*
X53702619Y-106471071D02*
X54178809Y-106804404D01*
X53702619Y-107042500D02*
X54702619Y-107042500D01*
X54702619Y-106661547D01*
X54655000Y-106566309D01*
X54607380Y-106518690D01*
X54512142Y-106471071D01*
X54369285Y-106471071D01*
X54274047Y-106518690D01*
X54226428Y-106566309D01*
X54178809Y-106661547D01*
X54178809Y-107042500D01*
X54702619Y-106185357D02*
X53702619Y-105852023D01*
X54702619Y-105518690D01*
X54226428Y-105185357D02*
X54226428Y-104852023D01*
X53702619Y-104709166D02*
X53702619Y-105185357D01*
X54702619Y-105185357D01*
X54702619Y-104709166D01*
X53702619Y-104280595D02*
X54702619Y-104280595D01*
X54702619Y-104042500D01*
X54655000Y-103899642D01*
X54559761Y-103804404D01*
X54464523Y-103756785D01*
X54274047Y-103709166D01*
X54131190Y-103709166D01*
X53940714Y-103756785D01*
X53845476Y-103804404D01*
X53750238Y-103899642D01*
X53702619Y-104042500D01*
X53702619Y-104280595D01*
X67770000Y-111042500D02*
X67770000Y-110042500D01*
X66402619Y-110804404D02*
X67402619Y-110804404D01*
X67402619Y-110423452D01*
X67355000Y-110328214D01*
X67307380Y-110280595D01*
X67212142Y-110232976D01*
X67069285Y-110232976D01*
X66974047Y-110280595D01*
X66926428Y-110328214D01*
X66878809Y-110423452D01*
X66878809Y-110804404D01*
X67770000Y-110042500D02*
X67770000Y-109042500D01*
X66402619Y-109232976D02*
X66878809Y-109566309D01*
X66402619Y-109804404D02*
X67402619Y-109804404D01*
X67402619Y-109423452D01*
X67355000Y-109328214D01*
X67307380Y-109280595D01*
X67212142Y-109232976D01*
X67069285Y-109232976D01*
X66974047Y-109280595D01*
X66926428Y-109328214D01*
X66878809Y-109423452D01*
X66878809Y-109804404D01*
X67770000Y-109042500D02*
X67770000Y-108090119D01*
X66450238Y-108852023D02*
X66402619Y-108709166D01*
X66402619Y-108471071D01*
X66450238Y-108375833D01*
X66497857Y-108328214D01*
X66593095Y-108280595D01*
X66688333Y-108280595D01*
X66783571Y-108328214D01*
X66831190Y-108375833D01*
X66878809Y-108471071D01*
X66926428Y-108661547D01*
X66974047Y-108756785D01*
X67021666Y-108804404D01*
X67116904Y-108852023D01*
X67212142Y-108852023D01*
X67307380Y-108804404D01*
X67355000Y-108756785D01*
X67402619Y-108661547D01*
X67402619Y-108423452D01*
X67355000Y-108280595D01*
X67770000Y-108090119D02*
X67770000Y-107042500D01*
X66402619Y-107852023D02*
X67402619Y-107852023D01*
X66402619Y-107280595D01*
X67402619Y-107280595D01*
X67770000Y-107042500D02*
X67770000Y-106280595D01*
X67402619Y-106947261D02*
X67402619Y-106375833D01*
X66402619Y-106661547D02*
X67402619Y-106661547D01*
X67770000Y-106280595D02*
X67770000Y-105328214D01*
X67307380Y-106090119D02*
X67355000Y-106042500D01*
X67402619Y-105947261D01*
X67402619Y-105709166D01*
X67355000Y-105613928D01*
X67307380Y-105566309D01*
X67212142Y-105518690D01*
X67116904Y-105518690D01*
X66974047Y-105566309D01*
X66402619Y-106137738D01*
X66402619Y-105518690D01*
X52530000Y-111042500D02*
X52530000Y-109899642D01*
X52162619Y-110899642D02*
X51162619Y-110661547D01*
X51876904Y-110471071D01*
X51162619Y-110280595D01*
X52162619Y-110042500D01*
X52530000Y-109899642D02*
X52530000Y-109042500D01*
X51448333Y-109709166D02*
X51448333Y-109232976D01*
X51162619Y-109804404D02*
X52162619Y-109471071D01*
X51162619Y-109137738D01*
X52530000Y-109042500D02*
X52530000Y-108042500D01*
X51162619Y-108804404D02*
X52162619Y-108804404D01*
X51162619Y-108232976D02*
X51734047Y-108661547D01*
X52162619Y-108232976D02*
X51591190Y-108804404D01*
X52530000Y-108042500D02*
X52530000Y-107137738D01*
X51686428Y-107804404D02*
X51686428Y-107471071D01*
X51162619Y-107328214D02*
X51162619Y-107804404D01*
X52162619Y-107804404D01*
X52162619Y-107328214D01*
X57195000Y-110280595D02*
X57242619Y-110375833D01*
X57242619Y-110518690D01*
X57195000Y-110661547D01*
X57099761Y-110756785D01*
X57004523Y-110804404D01*
X56814047Y-110852023D01*
X56671190Y-110852023D01*
X56480714Y-110804404D01*
X56385476Y-110756785D01*
X56290238Y-110661547D01*
X56242619Y-110518690D01*
X56242619Y-110423452D01*
X56290238Y-110280595D01*
X56337857Y-110232976D01*
X56671190Y-110232976D01*
X56671190Y-110423452D01*
X56242619Y-109804404D02*
X57242619Y-109804404D01*
X56242619Y-109232976D01*
X57242619Y-109232976D01*
X56242619Y-108756785D02*
X57242619Y-108756785D01*
X57242619Y-108518690D01*
X57195000Y-108375833D01*
X57099761Y-108280595D01*
X57004523Y-108232976D01*
X56814047Y-108185357D01*
X56671190Y-108185357D01*
X56480714Y-108232976D01*
X56385476Y-108280595D01*
X56290238Y-108375833D01*
X56242619Y-108518690D01*
X56242619Y-108756785D01*
X41955000Y-110280595D02*
X42002619Y-110375833D01*
X42002619Y-110518690D01*
X41955000Y-110661547D01*
X41859761Y-110756785D01*
X41764523Y-110804404D01*
X41574047Y-110852023D01*
X41431190Y-110852023D01*
X41240714Y-110804404D01*
X41145476Y-110756785D01*
X41050238Y-110661547D01*
X41002619Y-110518690D01*
X41002619Y-110423452D01*
X41050238Y-110280595D01*
X41097857Y-110232976D01*
X41431190Y-110232976D01*
X41431190Y-110423452D01*
X41002619Y-109804404D02*
X42002619Y-109804404D01*
X41002619Y-109232976D01*
X42002619Y-109232976D01*
X41002619Y-108756785D02*
X42002619Y-108756785D01*
X42002619Y-108518690D01*
X41955000Y-108375833D01*
X41859761Y-108280595D01*
X41764523Y-108232976D01*
X41574047Y-108185357D01*
X41431190Y-108185357D01*
X41240714Y-108232976D01*
X41145476Y-108280595D01*
X41050238Y-108375833D01*
X41002619Y-108518690D01*
X41002619Y-108756785D01*
X31223571Y-110804404D02*
X31223571Y-110042500D01*
X30842619Y-110423452D02*
X31604523Y-110423452D01*
X30842619Y-109042500D02*
X30842619Y-109613928D01*
X30842619Y-109328214D02*
X31842619Y-109328214D01*
X31699761Y-109423452D01*
X31604523Y-109518690D01*
X31556904Y-109613928D01*
X31747380Y-108661547D02*
X31795000Y-108613928D01*
X31842619Y-108518690D01*
X31842619Y-108280595D01*
X31795000Y-108185357D01*
X31747380Y-108137738D01*
X31652142Y-108090119D01*
X31556904Y-108090119D01*
X31414047Y-108137738D01*
X30842619Y-108709166D01*
X30842619Y-108090119D01*
X31842619Y-107804404D02*
X30842619Y-107471071D01*
X31842619Y-107137738D01*
X47450000Y-111042500D02*
X47450000Y-110280595D01*
X47082619Y-110947261D02*
X47082619Y-110375833D01*
X46082619Y-110661547D02*
X47082619Y-110661547D01*
X47450000Y-110280595D02*
X47450000Y-109280595D01*
X46082619Y-109471071D02*
X46558809Y-109804404D01*
X46082619Y-110042500D02*
X47082619Y-110042500D01*
X47082619Y-109661547D01*
X47035000Y-109566309D01*
X46987380Y-109518690D01*
X46892142Y-109471071D01*
X46749285Y-109471071D01*
X46654047Y-109518690D01*
X46606428Y-109566309D01*
X46558809Y-109661547D01*
X46558809Y-110042500D01*
X47450000Y-109280595D02*
X47450000Y-108328214D01*
X46130238Y-109090119D02*
X46082619Y-108947261D01*
X46082619Y-108709166D01*
X46130238Y-108613928D01*
X46177857Y-108566309D01*
X46273095Y-108518690D01*
X46368333Y-108518690D01*
X46463571Y-108566309D01*
X46511190Y-108613928D01*
X46558809Y-108709166D01*
X46606428Y-108899642D01*
X46654047Y-108994880D01*
X46701666Y-109042500D01*
X46796904Y-109090119D01*
X46892142Y-109090119D01*
X46987380Y-109042500D01*
X47035000Y-108994880D01*
X47082619Y-108899642D01*
X47082619Y-108661547D01*
X47035000Y-108518690D01*
X47450000Y-108328214D02*
X47450000Y-107566309D01*
X47082619Y-108232976D02*
X47082619Y-107661547D01*
X46082619Y-107947261D02*
X47082619Y-107947261D01*
X35970238Y-110852023D02*
X35922619Y-110709166D01*
X35922619Y-110471071D01*
X35970238Y-110375833D01*
X36017857Y-110328214D01*
X36113095Y-110280595D01*
X36208333Y-110280595D01*
X36303571Y-110328214D01*
X36351190Y-110375833D01*
X36398809Y-110471071D01*
X36446428Y-110661547D01*
X36494047Y-110756785D01*
X36541666Y-110804404D01*
X36636904Y-110852023D01*
X36732142Y-110852023D01*
X36827380Y-110804404D01*
X36875000Y-110756785D01*
X36922619Y-110661547D01*
X36922619Y-110423452D01*
X36875000Y-110280595D01*
X35922619Y-109852023D02*
X36922619Y-109852023D01*
X36208333Y-109518690D01*
X36922619Y-109185357D01*
X35922619Y-109185357D01*
X36017857Y-108137738D02*
X35970238Y-108185357D01*
X35922619Y-108328214D01*
X35922619Y-108423452D01*
X35970238Y-108566309D01*
X36065476Y-108661547D01*
X36160714Y-108709166D01*
X36351190Y-108756785D01*
X36494047Y-108756785D01*
X36684523Y-108709166D01*
X36779761Y-108661547D01*
X36875000Y-108566309D01*
X36922619Y-108423452D01*
X36922619Y-108328214D01*
X36875000Y-108185357D01*
X36827380Y-108137738D01*
X35922619Y-107232976D02*
X35922619Y-107709166D01*
X36922619Y-107709166D01*
X35922619Y-106899642D02*
X36922619Y-106899642D01*
X35922619Y-106328214D02*
X36494047Y-106756785D01*
X36922619Y-106328214D02*
X36351190Y-106899642D01*
M02*
