%TF.GenerationSoftware,KiCad,Pcbnew,5.1.6*%
%TF.CreationDate,2020-09-02T12:15:33+02:00*%
%TF.ProjectId,host_adapter,686f7374-5f61-4646-9170-7465722e6b69,rev?*%
%TF.SameCoordinates,Original*%
%TF.FileFunction,Copper,L1,Top*%
%TF.FilePolarity,Positive*%
%FSLAX46Y46*%
G04 Gerber Fmt 4.6, Leading zero omitted, Abs format (unit mm)*
G04 Created by KiCad (PCBNEW 5.1.6) date 2020-09-02 12:15:33*
%MOMM*%
%LPD*%
G01*
G04 APERTURE LIST*
%TA.AperFunction,ConnectorPad*%
%ADD10R,0.700000X4.300000*%
%TD*%
%TA.AperFunction,ConnectorPad*%
%ADD11R,0.700000X3.200000*%
%TD*%
%TA.AperFunction,SMDPad,CuDef*%
%ADD12R,1.700000X4.000000*%
%TD*%
%TA.AperFunction,Conductor*%
%ADD13C,0.250000*%
%TD*%
G04 APERTURE END LIST*
D10*
%TO.P,J4,A82*%
%TO.N,Net-(J3-Pad1)*%
X118790000Y-70050000D03*
%TO.P,J4,A81*%
%TO.N,Net-(J3-Pad2)*%
X117790000Y-70050000D03*
%TO.P,J4,A80*%
%TO.N,Net-(J2-Pad1)*%
X116790000Y-70050000D03*
%TO.P,J4,A79*%
%TO.N,Net-(J2-Pad2)*%
X115790000Y-70050000D03*
%TO.P,J4,A78*%
%TO.N,Net-(J2-Pad3)*%
X114790000Y-70050000D03*
%TO.P,J4,A77*%
%TO.N,Net-(J2-Pad4)*%
X113790000Y-70050000D03*
%TO.P,J4,A76*%
%TO.N,Net-(J2-Pad5)*%
X112790000Y-70050000D03*
%TO.P,J4,A75*%
%TO.N,Net-(J2-Pad6)*%
X111790000Y-70050000D03*
%TO.P,J4,A74*%
%TO.N,Net-(J2-Pad7)*%
X110790000Y-70050000D03*
%TO.P,J4,A73*%
%TO.N,Net-(J2-Pad8)*%
X109790000Y-70050000D03*
%TO.P,J4,A72*%
%TO.N,Net-(J2-Pad9)*%
X108790000Y-70050000D03*
%TO.P,J4,A71*%
%TO.N,Net-(J2-Pad10)*%
X107790000Y-70050000D03*
%TO.P,J4,A70*%
%TO.N,Net-(J2-Pad11)*%
X106790000Y-70050000D03*
%TO.P,J4,A69*%
%TO.N,Net-(J2-Pad12)*%
X105790000Y-70050000D03*
%TO.P,J4,A68*%
%TO.N,Net-(J2-Pad13)*%
X104790000Y-70050000D03*
%TO.P,J4,A67*%
%TO.N,Net-(J2-Pad14)*%
X103790000Y-70050000D03*
%TO.P,J4,A66*%
%TO.N,Net-(J2-Pad15)*%
X102790000Y-70050000D03*
%TO.P,J4,A65*%
%TO.N,Net-(J2-Pad16)*%
X101790000Y-70050000D03*
%TO.P,J4,A64*%
%TO.N,Net-(J2-Pad17)*%
X100790000Y-70050000D03*
%TO.P,J4,A63*%
%TO.N,Net-(J2-Pad18)*%
X99790000Y-70050000D03*
%TO.P,J4,A62*%
%TO.N,Net-(J2-Pad19)*%
X98790000Y-70050000D03*
%TO.P,J4,A61*%
%TO.N,Net-(J2-Pad20)*%
X97790000Y-70050000D03*
%TO.P,J4,A60*%
%TO.N,Net-(J2-Pad21)*%
X96790000Y-70050000D03*
%TO.P,J4,A59*%
%TO.N,Net-(J2-Pad22)*%
X95790000Y-70050000D03*
%TO.P,J4,A58*%
%TO.N,Net-(J2-Pad23)*%
X94790000Y-70050000D03*
%TO.P,J4,A57*%
%TO.N,Net-(J2-Pad24)*%
X93790000Y-70050000D03*
%TO.P,J4,A56*%
%TO.N,Net-(J2-Pad25)*%
X92790000Y-70050000D03*
%TO.P,J4,A55*%
%TO.N,Net-(J2-Pad26)*%
X91790000Y-70050000D03*
%TO.P,J4,A54*%
%TO.N,Net-(J2-Pad27)*%
X90790000Y-70050000D03*
%TO.P,J4,A53*%
%TO.N,Net-(J2-Pad28)*%
X89790000Y-70050000D03*
%TO.P,J4,A52*%
%TO.N,Net-(J2-Pad29)*%
X88790000Y-70050000D03*
%TO.P,J4,A51*%
%TO.N,Net-(J2-Pad30)*%
X87790000Y-70050000D03*
%TO.P,J4,A50*%
%TO.N,Net-(J2-Pad31)*%
X86790000Y-70050000D03*
%TO.P,J4,A49*%
%TO.N,Net-(J2-Pad32)*%
X85790000Y-70050000D03*
%TO.P,J4,A48*%
%TO.N,Net-(J2-Pad33)*%
X84790000Y-70050000D03*
%TO.P,J4,A47*%
%TO.N,Net-(J2-Pad34)*%
X83790000Y-70050000D03*
%TO.P,J4,A46*%
%TO.N,Net-(J2-Pad35)*%
X82790000Y-70050000D03*
%TO.P,J4,A45*%
%TO.N,Net-(J2-Pad36)*%
X81790000Y-70050000D03*
%TO.P,J4,A44*%
%TO.N,Net-(J2-Pad37)*%
X80790000Y-70050000D03*
%TO.P,J4,A43*%
%TO.N,Net-(J2-Pad38)*%
X79790000Y-70050000D03*
%TO.P,J4,A42*%
%TO.N,Net-(J2-Pad39)*%
X78790000Y-70050000D03*
%TO.P,J4,A13*%
%TO.N,Net-(J1-Pad28)*%
X49790000Y-70050000D03*
%TO.P,J4,A12*%
%TO.N,Net-(J1-Pad29)*%
X48790000Y-70050000D03*
%TO.P,J4,A18*%
%TO.N,Net-(J1-Pad23)*%
X54790000Y-70050000D03*
%TO.P,J4,A17*%
%TO.N,Net-(J1-Pad24)*%
X53790000Y-70050000D03*
%TO.P,J4,A16*%
%TO.N,Net-(J1-Pad25)*%
X52790000Y-70050000D03*
%TO.P,J4,A15*%
%TO.N,Net-(J1-Pad26)*%
X51790000Y-70050000D03*
%TO.P,J4,A14*%
%TO.N,Net-(J1-Pad27)*%
X50790000Y-70050000D03*
%TO.P,J4,A11*%
%TO.N,Net-(J1-Pad30)*%
X45790000Y-70050000D03*
%TO.P,J4,A10*%
%TO.N,Net-(J1-Pad31)*%
X44790000Y-70050000D03*
%TO.P,J4,A9*%
%TO.N,Net-(J1-Pad32)*%
X43790000Y-70050000D03*
%TO.P,J4,A8*%
%TO.N,Net-(J1-Pad33)*%
X42790000Y-70050000D03*
%TO.P,J4,A7*%
%TO.N,Net-(J1-Pad34)*%
X41790000Y-70050000D03*
%TO.P,J4,A6*%
%TO.N,Net-(J1-Pad35)*%
X40790000Y-70050000D03*
%TO.P,J4,A5*%
%TO.N,Net-(J1-Pad36)*%
X39790000Y-70050000D03*
%TO.P,J4,A4*%
%TO.N,Net-(J1-Pad37)*%
X38790000Y-70050000D03*
%TO.P,J4,A3*%
%TO.N,Net-(J1-Pad38)*%
X37790000Y-70050000D03*
%TO.P,J4,A2*%
%TO.N,Net-(J1-Pad39)*%
X36790000Y-70050000D03*
D11*
%TO.P,J4,A1*%
%TO.N,Net-(J1-Pad40)*%
X35790000Y-70600000D03*
D10*
%TO.P,J4,A19*%
%TO.N,Net-(J1-Pad22)*%
X55790000Y-70050000D03*
%TO.P,J4,A20*%
%TO.N,Net-(J1-Pad21)*%
X56790000Y-70050000D03*
%TO.P,J4,A21*%
%TO.N,Net-(J1-Pad20)*%
X57790000Y-70050000D03*
%TO.P,J4,A22*%
%TO.N,Net-(J1-Pad19)*%
X58790000Y-70050000D03*
%TO.P,J4,A23*%
%TO.N,Net-(J1-Pad18)*%
X59790000Y-70050000D03*
%TO.P,J4,A24*%
%TO.N,Net-(J1-Pad17)*%
X60790000Y-70050000D03*
%TO.P,J4,A25*%
%TO.N,Net-(J1-Pad16)*%
X61790000Y-70050000D03*
%TO.P,J4,A26*%
%TO.N,Net-(J1-Pad15)*%
X62790000Y-70050000D03*
%TO.P,J4,A27*%
%TO.N,Net-(J1-Pad14)*%
X63790000Y-70050000D03*
%TO.P,J4,A28*%
%TO.N,Net-(J1-Pad13)*%
X64790000Y-70050000D03*
%TO.P,J4,A29*%
%TO.N,Net-(J1-Pad12)*%
X65790000Y-70050000D03*
%TO.P,J4,A30*%
%TO.N,Net-(J1-Pad11)*%
X66790000Y-70050000D03*
%TO.P,J4,A31*%
%TO.N,Net-(J1-Pad10)*%
X67790000Y-70050000D03*
%TO.P,J4,A32*%
%TO.N,Net-(J1-Pad9)*%
X68790000Y-70050000D03*
%TO.P,J4,A33*%
%TO.N,Net-(J1-Pad8)*%
X69790000Y-70050000D03*
%TO.P,J4,A34*%
%TO.N,Net-(J1-Pad7)*%
X70790000Y-70050000D03*
%TO.P,J4,A35*%
%TO.N,Net-(J1-Pad6)*%
X71790000Y-70050000D03*
%TO.P,J4,A36*%
%TO.N,Net-(J1-Pad5)*%
X72790000Y-70050000D03*
%TO.P,J4,A37*%
%TO.N,Net-(J1-Pad4)*%
X73790000Y-70050000D03*
%TO.P,J4,A38*%
%TO.N,Net-(J1-Pad3)*%
X74790000Y-70050000D03*
%TO.P,J4,A39*%
%TO.N,Net-(J1-Pad2)*%
X75790000Y-70050000D03*
%TO.P,J4,A40*%
%TO.N,Net-(J1-Pad1)*%
X76790000Y-70050000D03*
%TO.P,J4,A41*%
%TO.N,Net-(J2-Pad40)*%
X77790000Y-70050000D03*
%TD*%
D12*
%TO.P,J3,1*%
%TO.N,Net-(J3-Pad1)*%
X231955000Y-113680000D03*
%TO.P,J3,2*%
%TO.N,Net-(J3-Pad2)*%
X229415000Y-113680000D03*
%TD*%
%TO.P,J1,1*%
%TO.N,Net-(J1-Pad1)*%
X125275000Y-113680000D03*
%TO.P,J1,2*%
%TO.N,Net-(J1-Pad2)*%
X122735000Y-113680000D03*
%TO.P,J1,3*%
%TO.N,Net-(J1-Pad3)*%
X120195000Y-113680000D03*
%TO.P,J1,4*%
%TO.N,Net-(J1-Pad4)*%
X117655000Y-113680000D03*
%TO.P,J1,5*%
%TO.N,Net-(J1-Pad5)*%
X115115000Y-113680000D03*
%TO.P,J1,6*%
%TO.N,Net-(J1-Pad6)*%
X112575000Y-113680000D03*
%TO.P,J1,7*%
%TO.N,Net-(J1-Pad7)*%
X110035000Y-113680000D03*
%TO.P,J1,8*%
%TO.N,Net-(J1-Pad8)*%
X107495000Y-113680000D03*
%TO.P,J1,9*%
%TO.N,Net-(J1-Pad9)*%
X104955000Y-113680000D03*
%TO.P,J1,10*%
%TO.N,Net-(J1-Pad10)*%
X102415000Y-113680000D03*
%TO.P,J1,11*%
%TO.N,Net-(J1-Pad11)*%
X99875000Y-113680000D03*
%TO.P,J1,12*%
%TO.N,Net-(J1-Pad12)*%
X97335000Y-113680000D03*
%TO.P,J1,13*%
%TO.N,Net-(J1-Pad13)*%
X94795000Y-113680000D03*
%TO.P,J1,14*%
%TO.N,Net-(J1-Pad14)*%
X92255000Y-113680000D03*
%TO.P,J1,15*%
%TO.N,Net-(J1-Pad15)*%
X89715000Y-113680000D03*
%TO.P,J1,16*%
%TO.N,Net-(J1-Pad16)*%
X87175000Y-113680000D03*
%TO.P,J1,17*%
%TO.N,Net-(J1-Pad17)*%
X84635000Y-113680000D03*
%TO.P,J1,18*%
%TO.N,Net-(J1-Pad18)*%
X82095000Y-113680000D03*
%TO.P,J1,19*%
%TO.N,Net-(J1-Pad19)*%
X79555000Y-113680000D03*
%TO.P,J1,20*%
%TO.N,Net-(J1-Pad20)*%
X77015000Y-113680000D03*
%TO.P,J1,21*%
%TO.N,Net-(J1-Pad21)*%
X74475000Y-113680000D03*
%TO.P,J1,22*%
%TO.N,Net-(J1-Pad22)*%
X71935000Y-113680000D03*
%TO.P,J1,23*%
%TO.N,Net-(J1-Pad23)*%
X69395000Y-113680000D03*
%TO.P,J1,24*%
%TO.N,Net-(J1-Pad24)*%
X66855000Y-113680000D03*
%TO.P,J1,25*%
%TO.N,Net-(J1-Pad25)*%
X64315000Y-113680000D03*
%TO.P,J1,26*%
%TO.N,Net-(J1-Pad26)*%
X61775000Y-113680000D03*
%TO.P,J1,27*%
%TO.N,Net-(J1-Pad27)*%
X59235000Y-113680000D03*
%TO.P,J1,28*%
%TO.N,Net-(J1-Pad28)*%
X56695000Y-113680000D03*
%TO.P,J1,29*%
%TO.N,Net-(J1-Pad29)*%
X54155000Y-113680000D03*
%TO.P,J1,30*%
%TO.N,Net-(J1-Pad30)*%
X51615000Y-113680000D03*
%TO.P,J1,31*%
%TO.N,Net-(J1-Pad31)*%
X49075000Y-113680000D03*
%TO.P,J1,32*%
%TO.N,Net-(J1-Pad32)*%
X46535000Y-113680000D03*
%TO.P,J1,33*%
%TO.N,Net-(J1-Pad33)*%
X43995000Y-113680000D03*
%TO.P,J1,34*%
%TO.N,Net-(J1-Pad34)*%
X41455000Y-113680000D03*
%TO.P,J1,35*%
%TO.N,Net-(J1-Pad35)*%
X38915000Y-113680000D03*
%TO.P,J1,36*%
%TO.N,Net-(J1-Pad36)*%
X36375000Y-113680000D03*
%TO.P,J1,37*%
%TO.N,Net-(J1-Pad37)*%
X33835000Y-113680000D03*
%TO.P,J1,38*%
%TO.N,Net-(J1-Pad38)*%
X31295000Y-113680000D03*
%TO.P,J1,39*%
%TO.N,Net-(J1-Pad39)*%
X28755000Y-113680000D03*
%TO.P,J1,40*%
%TO.N,Net-(J1-Pad40)*%
X26215000Y-113680000D03*
%TD*%
%TO.P,J2,1*%
%TO.N,Net-(J2-Pad1)*%
X226875000Y-113680000D03*
%TO.P,J2,2*%
%TO.N,Net-(J2-Pad2)*%
X224335000Y-113680000D03*
%TO.P,J2,3*%
%TO.N,Net-(J2-Pad3)*%
X221795000Y-113680000D03*
%TO.P,J2,4*%
%TO.N,Net-(J2-Pad4)*%
X219255000Y-113680000D03*
%TO.P,J2,5*%
%TO.N,Net-(J2-Pad5)*%
X216715000Y-113680000D03*
%TO.P,J2,6*%
%TO.N,Net-(J2-Pad6)*%
X214175000Y-113680000D03*
%TO.P,J2,7*%
%TO.N,Net-(J2-Pad7)*%
X211635000Y-113680000D03*
%TO.P,J2,8*%
%TO.N,Net-(J2-Pad8)*%
X209095000Y-113680000D03*
%TO.P,J2,9*%
%TO.N,Net-(J2-Pad9)*%
X206555000Y-113680000D03*
%TO.P,J2,10*%
%TO.N,Net-(J2-Pad10)*%
X204015000Y-113680000D03*
%TO.P,J2,11*%
%TO.N,Net-(J2-Pad11)*%
X201475000Y-113680000D03*
%TO.P,J2,12*%
%TO.N,Net-(J2-Pad12)*%
X198935000Y-113680000D03*
%TO.P,J2,13*%
%TO.N,Net-(J2-Pad13)*%
X196395000Y-113680000D03*
%TO.P,J2,14*%
%TO.N,Net-(J2-Pad14)*%
X193855000Y-113680000D03*
%TO.P,J2,15*%
%TO.N,Net-(J2-Pad15)*%
X191315000Y-113680000D03*
%TO.P,J2,16*%
%TO.N,Net-(J2-Pad16)*%
X188775000Y-113680000D03*
%TO.P,J2,17*%
%TO.N,Net-(J2-Pad17)*%
X186235000Y-113680000D03*
%TO.P,J2,18*%
%TO.N,Net-(J2-Pad18)*%
X183695000Y-113680000D03*
%TO.P,J2,19*%
%TO.N,Net-(J2-Pad19)*%
X181155000Y-113680000D03*
%TO.P,J2,20*%
%TO.N,Net-(J2-Pad20)*%
X178615000Y-113680000D03*
%TO.P,J2,21*%
%TO.N,Net-(J2-Pad21)*%
X176075000Y-113680000D03*
%TO.P,J2,22*%
%TO.N,Net-(J2-Pad22)*%
X173535000Y-113680000D03*
%TO.P,J2,23*%
%TO.N,Net-(J2-Pad23)*%
X170995000Y-113680000D03*
%TO.P,J2,24*%
%TO.N,Net-(J2-Pad24)*%
X168455000Y-113680000D03*
%TO.P,J2,25*%
%TO.N,Net-(J2-Pad25)*%
X165915000Y-113680000D03*
%TO.P,J2,26*%
%TO.N,Net-(J2-Pad26)*%
X163375000Y-113680000D03*
%TO.P,J2,27*%
%TO.N,Net-(J2-Pad27)*%
X160835000Y-113680000D03*
%TO.P,J2,28*%
%TO.N,Net-(J2-Pad28)*%
X158295000Y-113680000D03*
%TO.P,J2,29*%
%TO.N,Net-(J2-Pad29)*%
X155755000Y-113680000D03*
%TO.P,J2,30*%
%TO.N,Net-(J2-Pad30)*%
X153215000Y-113680000D03*
%TO.P,J2,31*%
%TO.N,Net-(J2-Pad31)*%
X150675000Y-113680000D03*
%TO.P,J2,32*%
%TO.N,Net-(J2-Pad32)*%
X148135000Y-113680000D03*
%TO.P,J2,33*%
%TO.N,Net-(J2-Pad33)*%
X145595000Y-113680000D03*
%TO.P,J2,34*%
%TO.N,Net-(J2-Pad34)*%
X143055000Y-113680000D03*
%TO.P,J2,35*%
%TO.N,Net-(J2-Pad35)*%
X140515000Y-113680000D03*
%TO.P,J2,36*%
%TO.N,Net-(J2-Pad36)*%
X137975000Y-113680000D03*
%TO.P,J2,37*%
%TO.N,Net-(J2-Pad37)*%
X135435000Y-113680000D03*
%TO.P,J2,38*%
%TO.N,Net-(J2-Pad38)*%
X132895000Y-113680000D03*
%TO.P,J2,39*%
%TO.N,Net-(J2-Pad39)*%
X130355000Y-113680000D03*
%TO.P,J2,40*%
%TO.N,Net-(J2-Pad40)*%
X127815000Y-113680000D03*
%TD*%
D13*
%TO.N,Net-(J1-Pad1)*%
X108809419Y-95834419D02*
X92909419Y-95834419D01*
X92909419Y-95834419D02*
X76815000Y-79740000D01*
X76815000Y-79740000D02*
X76815000Y-78200000D01*
X125575000Y-112600000D02*
X108809419Y-95834419D01*
X76815000Y-78200000D02*
X76815000Y-69800000D01*
%TO.N,Net-(J1-Pad2)*%
X75815000Y-79740000D02*
X75815000Y-78200000D01*
X106586429Y-96211429D02*
X92286429Y-96211429D01*
X123035000Y-112660000D02*
X106586429Y-96211429D01*
X92286429Y-96211429D02*
X75815000Y-79740000D01*
X75815000Y-78200000D02*
X75815000Y-69800000D01*
%TO.N,Net-(J1-Pad3)*%
X120495000Y-112620000D02*
X104463439Y-96588439D01*
X104463439Y-96588439D02*
X91663439Y-96588439D01*
X91663439Y-96588439D02*
X74815000Y-79740000D01*
X74815000Y-79740000D02*
X74815000Y-78200000D01*
X74815000Y-78200000D02*
X74815000Y-69800000D01*
%TO.N,Net-(J1-Pad4)*%
X114492157Y-110531370D02*
X114544679Y-110573255D01*
X114605205Y-110602402D02*
X114670699Y-110617351D01*
X114421124Y-110418322D02*
X114450272Y-110478848D01*
X114803372Y-110602402D02*
X114863898Y-110573255D01*
X114863898Y-110573255D02*
X114916421Y-110531370D01*
X114450272Y-110159629D02*
X114421124Y-110220155D01*
X115571005Y-110206642D02*
X115623528Y-110248528D01*
X115510479Y-110177494D02*
X115571005Y-110206642D01*
X115444985Y-110162545D02*
X115510479Y-110177494D01*
X114544679Y-110573255D02*
X114605205Y-110602402D01*
X114450272Y-110478848D02*
X114492157Y-110531370D01*
X73815000Y-79740000D02*
X91040449Y-96965449D01*
X115623528Y-110248528D02*
X117655000Y-112280000D01*
X115251786Y-110206642D02*
X115312312Y-110177494D01*
X114816885Y-109771741D02*
X114775000Y-109824264D01*
X114860981Y-109645721D02*
X114846032Y-109711215D01*
X73815000Y-78200000D02*
X73815000Y-79740000D01*
X114406175Y-110285649D02*
X114406175Y-110352828D01*
X114670699Y-110617351D02*
X114737878Y-110617351D01*
X114406175Y-110352828D02*
X114421124Y-110418322D01*
X115377806Y-110162545D02*
X115444985Y-110162545D01*
X114816885Y-109452522D02*
X114846032Y-109513048D01*
X91040449Y-96965449D02*
X102340449Y-96965449D01*
X115199263Y-110248527D02*
X115251786Y-110206642D01*
X114860981Y-109578542D02*
X114860981Y-109645721D01*
X102340449Y-96965449D02*
X114775000Y-109400000D01*
X114775000Y-109824264D02*
X114492157Y-110107106D01*
X114846032Y-109711215D02*
X114816885Y-109771741D01*
X114737878Y-110617351D02*
X114803372Y-110602402D01*
X117655000Y-112280000D02*
X117655000Y-113680000D01*
X115312312Y-110177494D02*
X115377806Y-110162545D01*
X114846032Y-109513048D02*
X114860981Y-109578542D01*
X114775000Y-109400000D02*
X114816885Y-109452522D01*
X114492157Y-110107106D02*
X114450272Y-110159629D01*
X114421124Y-110220155D02*
X114406175Y-110285649D01*
X114916421Y-110531370D02*
X115199263Y-110248527D01*
X73815000Y-78200000D02*
X73815000Y-69800000D01*
%TO.N,Net-(J1-Pad5)*%
X90417459Y-97342459D02*
X72815000Y-79740000D01*
X100217459Y-97342459D02*
X90417459Y-97342459D01*
X115415000Y-112540000D02*
X100217459Y-97342459D01*
X72815000Y-79740000D02*
X72815000Y-78200000D01*
X72815000Y-78200000D02*
X72815000Y-69800000D01*
%TO.N,Net-(J1-Pad6)*%
X112875000Y-112600000D02*
X97994469Y-97719469D01*
X71815000Y-79740000D02*
X71815000Y-78200000D01*
X89794469Y-97719469D02*
X71815000Y-79740000D01*
X97994469Y-97719469D02*
X89794469Y-97719469D01*
X71815000Y-78200000D02*
X71815000Y-69800000D01*
%TO.N,Net-(J1-Pad7)*%
X95571479Y-98096479D02*
X89171479Y-98096479D01*
X110035000Y-112560000D02*
X95571479Y-98096479D01*
X110035000Y-113680000D02*
X110035000Y-112560000D01*
X89171479Y-98096479D02*
X70815000Y-79740000D01*
X70815000Y-79740000D02*
X70815000Y-78200000D01*
X70815000Y-78200000D02*
X70815000Y-69800000D01*
%TO.N,Net-(J1-Pad8)*%
X104416885Y-109771741D02*
X104375000Y-109824264D01*
X69815000Y-79740000D02*
X88548489Y-98473489D01*
X69815000Y-78200000D02*
X69815000Y-79740000D01*
X88548489Y-98473489D02*
X93448489Y-98473489D01*
X107495000Y-112520000D02*
X107495000Y-113680000D01*
X104912312Y-110177494D02*
X104977806Y-110162545D01*
X104375000Y-109824264D02*
X104092157Y-110107106D01*
X104270699Y-110617351D02*
X104337878Y-110617351D01*
X93448489Y-98473489D02*
X104375000Y-109400000D01*
X105110479Y-110177494D02*
X105171005Y-110206642D01*
X104460981Y-109578542D02*
X104460981Y-109645721D01*
X104446032Y-109711215D02*
X104416885Y-109771741D01*
X104446032Y-109513048D02*
X104460981Y-109578542D01*
X104463898Y-110573255D02*
X104516421Y-110531370D01*
X104416885Y-109452522D02*
X104446032Y-109513048D01*
X104092157Y-110107106D02*
X104050272Y-110159629D01*
X104375000Y-109400000D02*
X104416885Y-109452522D01*
X104205205Y-110602402D02*
X104270699Y-110617351D01*
X104977806Y-110162545D02*
X105044985Y-110162545D01*
X105044985Y-110162545D02*
X105110479Y-110177494D01*
X104851786Y-110206642D02*
X104912312Y-110177494D01*
X104403372Y-110602402D02*
X104463898Y-110573255D01*
X104006175Y-110285649D02*
X104006175Y-110352828D01*
X104021124Y-110418322D02*
X104050272Y-110478848D01*
X104050272Y-110478848D02*
X104092157Y-110531370D01*
X104006175Y-110352828D02*
X104021124Y-110418322D01*
X104144679Y-110573255D02*
X104205205Y-110602402D01*
X104516421Y-110531370D02*
X104799263Y-110248527D01*
X104050272Y-110159629D02*
X104021124Y-110220155D01*
X104021124Y-110220155D02*
X104006175Y-110285649D01*
X105171005Y-110206642D02*
X105223528Y-110248528D01*
X104092157Y-110531370D02*
X104144679Y-110573255D01*
X104460981Y-109645721D02*
X104446032Y-109711215D01*
X104337878Y-110617351D02*
X104403372Y-110602402D01*
X104799263Y-110248527D02*
X104851786Y-110206642D01*
X107495000Y-112520000D02*
X105223528Y-110248528D01*
X69815000Y-78200000D02*
X69815000Y-69800000D01*
%TO.N,Net-(J1-Pad9)*%
X104955000Y-113680000D02*
X104955000Y-112480000D01*
X104955000Y-112480000D02*
X91325499Y-98850499D01*
X68815000Y-79740000D02*
X68815000Y-78200000D01*
X87925499Y-98850499D02*
X68815000Y-79740000D01*
X91325499Y-98850499D02*
X87925499Y-98850499D01*
X68815000Y-78200000D02*
X68815000Y-69800000D01*
%TO.N,Net-(J1-Pad10)*%
X87302509Y-99227509D02*
X67815000Y-79740000D01*
X67815000Y-79740000D02*
X67815000Y-78200000D01*
X89102509Y-99227509D02*
X87302509Y-99227509D01*
X102415000Y-112540000D02*
X89102509Y-99227509D01*
X102415000Y-113680000D02*
X102415000Y-112540000D01*
X67815000Y-78200000D02*
X67815000Y-69800000D01*
%TO.N,Net-(J1-Pad11)*%
X86675000Y-99600000D02*
X66815000Y-79740000D01*
X99875000Y-113680000D02*
X99875000Y-112500000D01*
X66815000Y-79740000D02*
X66815000Y-78200000D01*
X99875000Y-112500000D02*
X86975000Y-99600000D01*
X86975000Y-99600000D02*
X86675000Y-99600000D01*
X66815000Y-78200000D02*
X66815000Y-69800000D01*
%TO.N,Net-(J1-Pad12)*%
X97335000Y-113680000D02*
X97335000Y-112460000D01*
X85675000Y-99600000D02*
X85675000Y-100800000D01*
X97335000Y-112460000D02*
X85675000Y-100800000D01*
X73992209Y-87917209D02*
X85675000Y-99600000D01*
X65815000Y-79740000D02*
X73992209Y-87917209D01*
X65815000Y-78200000D02*
X65815000Y-79740000D01*
X65815000Y-78200000D02*
X65815000Y-69800000D01*
%TO.N,Net-(J1-Pad13)*%
X85275000Y-103000000D02*
X85275000Y-100200000D01*
X94795000Y-113680000D02*
X94795000Y-112520000D01*
X85275000Y-100200000D02*
X64815000Y-79740000D01*
X64815000Y-79740000D02*
X64815000Y-78200000D01*
X94795000Y-112520000D02*
X85275000Y-103000000D01*
X64815000Y-78200000D02*
X64815000Y-69800000D01*
%TO.N,Net-(J1-Pad14)*%
X89957615Y-110292868D02*
X90008246Y-110333245D01*
X89257884Y-109736870D02*
X89243474Y-109800005D01*
X89106525Y-110017958D02*
X89092115Y-110081093D01*
X89175000Y-110317964D02*
X89190281Y-110333245D01*
X89362393Y-110416130D02*
X89427152Y-110416130D01*
X89427152Y-110416130D02*
X89490287Y-110401720D01*
X89490287Y-110401720D02*
X89548633Y-110373622D01*
X90008246Y-110333245D02*
X90023528Y-110348528D01*
X89215376Y-109858351D02*
X89134623Y-109959612D01*
X89708240Y-110264770D02*
X89771375Y-110250360D01*
X89243474Y-109800005D02*
X89215376Y-109858351D01*
X89134623Y-110267333D02*
X89175000Y-110317964D01*
X89899269Y-110264770D02*
X89957615Y-110292868D01*
X89299258Y-110401720D02*
X89362393Y-110416130D01*
X92255000Y-112580000D02*
X92255000Y-113680000D01*
X89649894Y-110292868D02*
X89708240Y-110264770D01*
X89106525Y-110208987D02*
X89134623Y-110267333D01*
X63815000Y-78200000D02*
X63815000Y-79740000D01*
X63815000Y-79740000D02*
X84897990Y-100822990D01*
X89092115Y-110081093D02*
X89092115Y-110145852D01*
X89092115Y-110145852D02*
X89106525Y-110208987D01*
X92255000Y-113680000D02*
X92255000Y-112579999D01*
X89771375Y-110250360D02*
X89836134Y-110250360D01*
X89836134Y-110250360D02*
X89899269Y-110264770D01*
X84897990Y-105222990D02*
X89175000Y-109500000D01*
X89190281Y-110333245D02*
X89240912Y-110373622D01*
X89215376Y-109550630D02*
X89243474Y-109608976D01*
X89257884Y-109672111D02*
X89257884Y-109736870D01*
X89243474Y-109608976D02*
X89257884Y-109672111D01*
X84897990Y-100822990D02*
X84897990Y-105222990D01*
X92255000Y-112579999D02*
X90008246Y-110333245D01*
X89134623Y-109959612D02*
X89106525Y-110017958D01*
X89240912Y-110373622D02*
X89299258Y-110401720D01*
X89548633Y-110373622D02*
X89649894Y-110292868D01*
X89175000Y-109500000D02*
X89215376Y-109550630D01*
X63815000Y-78200000D02*
X63815000Y-69800000D01*
%TO.N,Net-(J1-Pad15)*%
X89715000Y-113680000D02*
X89715000Y-112540000D01*
X62815000Y-79740000D02*
X62815000Y-78200000D01*
X84520980Y-107345980D02*
X84520980Y-101445980D01*
X89715000Y-112540000D02*
X84520980Y-107345980D01*
X84520980Y-101445980D02*
X62815000Y-79740000D01*
X62815000Y-78200000D02*
X62815000Y-69800000D01*
%TO.N,Net-(J1-Pad16)*%
X84143970Y-109468970D02*
X84143970Y-102068970D01*
X61815000Y-79740000D02*
X61815000Y-78200000D01*
X87175000Y-112500000D02*
X84143970Y-109468970D01*
X84143970Y-102068970D02*
X61815000Y-79740000D01*
X87175000Y-113680000D02*
X87175000Y-112500000D01*
X61815000Y-78200000D02*
X61815000Y-69800000D01*
%TO.N,Net-(J1-Pad17)*%
X84635000Y-113680000D02*
X84635000Y-112560000D01*
X60815000Y-79740000D02*
X60815000Y-78200000D01*
X83766960Y-106791960D02*
X83766960Y-102691960D01*
X83766960Y-111691960D02*
X83766960Y-106791960D01*
X84635000Y-112560000D02*
X83766960Y-111691960D01*
X83766960Y-102691960D02*
X60815000Y-79740000D01*
X60815000Y-78200000D02*
X60815000Y-69800000D01*
%TO.N,Net-(J1-Pad18)*%
X82095000Y-109020798D02*
X82095000Y-113680000D01*
X82087745Y-105794285D02*
X82095000Y-105858668D01*
X81625268Y-105032457D02*
X81579454Y-105078271D01*
X81680127Y-104997987D02*
X81625268Y-105032457D01*
X81741282Y-104976588D02*
X81680127Y-104997987D01*
X82031876Y-104860396D02*
X81986062Y-104906210D01*
X59815000Y-79740000D02*
X82095000Y-102020000D01*
X81523585Y-105194285D02*
X81516331Y-105258668D01*
X81516331Y-105258668D02*
X81516331Y-105280000D01*
X81870048Y-104962079D02*
X81741282Y-104976588D01*
X82066346Y-104805537D02*
X82031876Y-104860396D01*
X81931203Y-104940680D02*
X81870048Y-104962079D01*
X81516331Y-105280000D02*
X81523585Y-105344382D01*
X82095000Y-102020000D02*
X82095000Y-104680000D01*
X81986062Y-105632457D02*
X82031876Y-105678271D01*
X82095000Y-105858668D02*
X82095000Y-109020798D01*
X81523585Y-105344382D02*
X81544984Y-105405537D01*
X81986062Y-104906210D02*
X81931203Y-104940680D01*
X81870048Y-105576588D02*
X81931203Y-105597987D01*
X59815000Y-78200000D02*
X59815000Y-79740000D01*
X82031876Y-105678271D02*
X82066346Y-105733130D01*
X81544984Y-105133130D02*
X81523585Y-105194285D01*
X81544984Y-105405537D02*
X81579454Y-105460396D01*
X81579454Y-105460396D02*
X81625268Y-105506210D01*
X82087745Y-104744382D02*
X82066346Y-104805537D01*
X81579454Y-105078271D02*
X81544984Y-105133130D01*
X82066346Y-105733130D02*
X82087745Y-105794285D01*
X81625268Y-105506210D02*
X81680127Y-105540680D01*
X82095000Y-104680000D02*
X82087745Y-104744382D01*
X81680127Y-105540680D02*
X81741282Y-105562079D01*
X81741282Y-105562079D02*
X81870048Y-105576588D01*
X81931203Y-105597987D02*
X81986062Y-105632457D01*
X59815000Y-78200000D02*
X59815000Y-69800000D01*
%TO.N,Net-(J1-Pad19)*%
X58815000Y-79740000D02*
X58815000Y-78200000D01*
X79555000Y-113680000D02*
X79555000Y-100480000D01*
X79555000Y-100480000D02*
X58815000Y-79740000D01*
X58815000Y-78200000D02*
X58815000Y-69800000D01*
%TO.N,Net-(J1-Pad20)*%
X77015000Y-113680000D02*
X77015000Y-98940000D01*
X57815000Y-79740000D02*
X57815000Y-78200000D01*
X77015000Y-98940000D02*
X57815000Y-79740000D01*
X57815000Y-78200000D02*
X57815000Y-69800000D01*
%TO.N,Net-(J1-Pad21)*%
X56815000Y-79740000D02*
X56815000Y-78200000D01*
X74475000Y-113680000D02*
X74475000Y-97400000D01*
X74475000Y-97400000D02*
X56815000Y-79740000D01*
X56815000Y-78200000D02*
X56815000Y-69800000D01*
%TO.N,Net-(J1-Pad22)*%
X71710135Y-98221971D02*
X71581417Y-98236474D01*
X71826104Y-98166123D02*
X71771266Y-98200580D01*
X71771266Y-98200580D02*
X71710135Y-98221971D01*
X71906357Y-98065489D02*
X71871900Y-98120327D01*
X55815000Y-78200000D02*
X55815000Y-79740000D01*
X71356553Y-98540000D02*
X71363804Y-98604358D01*
X71871900Y-98938118D02*
X71906357Y-98992956D01*
X55815000Y-79740000D02*
X71935000Y-95860000D01*
X71385195Y-98665489D02*
X71419652Y-98720327D01*
X71465448Y-98292322D02*
X71419652Y-98338118D01*
X71419652Y-98338118D02*
X71385195Y-98392956D01*
X71363804Y-98454087D02*
X71356553Y-98518446D01*
X71419652Y-98720327D02*
X71465448Y-98766123D01*
X71385195Y-98392956D02*
X71363804Y-98454087D01*
X71906357Y-98992956D02*
X71927748Y-99054087D01*
X71581417Y-98236474D02*
X71520286Y-98257865D01*
X71935000Y-97940000D02*
X71927748Y-98004358D01*
X71935000Y-95860000D02*
X71935000Y-97940000D01*
X71356553Y-98518446D02*
X71356553Y-98540000D01*
X71363804Y-98604358D02*
X71385195Y-98665489D01*
X71465448Y-98766123D02*
X71520286Y-98800580D01*
X71520286Y-98257865D02*
X71465448Y-98292322D01*
X71520286Y-98800580D02*
X71581417Y-98821971D01*
X71581417Y-98821971D02*
X71710135Y-98836474D01*
X71935000Y-99118446D02*
X71935000Y-101790630D01*
X71935000Y-101790630D02*
X71935000Y-113680000D01*
X71710135Y-98836474D02*
X71771266Y-98857865D01*
X71771266Y-98857865D02*
X71826104Y-98892322D01*
X71927748Y-99054087D02*
X71935000Y-99118446D01*
X71826104Y-98892322D02*
X71871900Y-98938118D01*
X71927748Y-98004358D02*
X71906357Y-98065489D01*
X71871900Y-98120327D02*
X71826104Y-98166123D01*
X55815000Y-78200000D02*
X55815000Y-69800000D01*
%TO.N,Net-(J1-Pad23)*%
X69395000Y-113680000D02*
X69395000Y-94320000D01*
X69395000Y-94320000D02*
X54815000Y-79740000D01*
X54815000Y-79740000D02*
X54815000Y-78200000D01*
X54815000Y-78200000D02*
X54815000Y-69800000D01*
%TO.N,Net-(J1-Pad24)*%
X66855000Y-113680000D02*
X66855000Y-92780000D01*
X66855000Y-92780000D02*
X53815000Y-79740000D01*
X53815000Y-79740000D02*
X53815000Y-78200000D01*
X53815000Y-78200000D02*
X53815000Y-69800000D01*
%TO.N,Net-(J1-Pad25)*%
X52815000Y-79740000D02*
X52815000Y-78200000D01*
X64315000Y-91240000D02*
X52815000Y-79740000D01*
X64315000Y-113680000D02*
X64315000Y-91240000D01*
X52815000Y-78200000D02*
X52815000Y-70000000D01*
%TO.N,Net-(J1-Pad26)*%
X51815000Y-78200000D02*
X51815000Y-79740000D01*
X51815000Y-79740000D02*
X59925000Y-87850000D01*
X59925000Y-87850000D02*
X59992209Y-87917209D01*
X61775000Y-113680000D02*
X61775000Y-89700000D01*
X61775000Y-89700000D02*
X59925000Y-87850000D01*
X51815000Y-78200000D02*
X51815000Y-70100000D01*
%TO.N,Net-(J1-Pad27)*%
X59122046Y-95625450D02*
X59169549Y-95672953D01*
X59065165Y-94930290D02*
X59001756Y-94952478D01*
X58908831Y-95560000D02*
X58935000Y-95560000D01*
X58935000Y-94960000D02*
X58908831Y-94960000D01*
X59001756Y-94952478D02*
X58935000Y-94960000D01*
X59122046Y-94894549D02*
X59065165Y-94930290D01*
X58842074Y-94967521D02*
X58778665Y-94989709D01*
X58908831Y-94960000D02*
X58842074Y-94967521D01*
X58721784Y-95025450D02*
X58674281Y-95072953D01*
X58638540Y-95129834D02*
X58616352Y-95193243D01*
X58638540Y-95390165D02*
X58674281Y-95447046D01*
X59235000Y-97723676D02*
X59235000Y-113680000D01*
X58721784Y-95494549D02*
X58778665Y-95530290D01*
X58935000Y-95560000D02*
X59001756Y-95567521D01*
X59227478Y-94726756D02*
X59205290Y-94790165D01*
X59205290Y-94790165D02*
X59169549Y-94847046D01*
X50815000Y-78200000D02*
X50815000Y-79740000D01*
X59235000Y-95860000D02*
X59235000Y-97723676D01*
X59001756Y-95567521D02*
X59065165Y-95589709D01*
X59169549Y-94847046D02*
X59122046Y-94894549D01*
X59065165Y-95589709D02*
X59122046Y-95625450D01*
X59235000Y-94660000D02*
X59227478Y-94726756D01*
X59235000Y-88160000D02*
X59235000Y-94660000D01*
X58674281Y-95072953D02*
X58638540Y-95129834D01*
X50815000Y-79740000D02*
X59235000Y-88160000D01*
X59227478Y-95793243D02*
X59235000Y-95860000D01*
X58616352Y-95193243D02*
X58608831Y-95260000D01*
X58778665Y-94989709D02*
X58721784Y-95025450D01*
X58608831Y-95260000D02*
X58616352Y-95326756D01*
X58616352Y-95326756D02*
X58638540Y-95390165D01*
X58674281Y-95447046D02*
X58721784Y-95494549D01*
X58778665Y-95530290D02*
X58842074Y-95552478D01*
X58842074Y-95552478D02*
X58908831Y-95560000D01*
X59169549Y-95672953D02*
X59205290Y-95729834D01*
X59205290Y-95729834D02*
X59227478Y-95793243D01*
X50815000Y-78200000D02*
X50815000Y-69800000D01*
%TO.N,Net-(J1-Pad28)*%
X56695000Y-113680000D02*
X56695000Y-86620000D01*
X56695000Y-86620000D02*
X55725000Y-85650000D01*
X49815000Y-79740000D02*
X55725000Y-85650000D01*
X49815000Y-78200000D02*
X49815000Y-79740000D01*
X49815000Y-78200000D02*
X49815000Y-70200000D01*
%TO.N,Net-(J1-Pad29)*%
X48815000Y-78200000D02*
X48815000Y-79740000D01*
X54155000Y-113680000D02*
X54155000Y-85080000D01*
X54155000Y-85080000D02*
X48815000Y-79740000D01*
X48815000Y-71115000D02*
X48740000Y-71040000D01*
X48815000Y-78200000D02*
X48815000Y-71115000D01*
%TO.N,Net-(J1-Pad30)*%
X45815000Y-78200000D02*
X45815000Y-79640000D01*
X51615000Y-113680000D02*
X51615000Y-86040000D01*
X45815000Y-79640000D02*
X51615000Y-85440000D01*
X51615000Y-85440000D02*
X51615000Y-86040000D01*
X45815000Y-78200000D02*
X45815000Y-70700000D01*
%TO.N,Net-(J1-Pad31)*%
X44875000Y-79800000D02*
X44875000Y-78200000D01*
X49075000Y-84000000D02*
X44875000Y-79800000D01*
X49075000Y-113680000D02*
X49075000Y-84000000D01*
X44875000Y-78200000D02*
X44875000Y-70400000D01*
%TO.N,Net-(J1-Pad32)*%
X43775000Y-79700000D02*
X43775000Y-78400000D01*
X46535000Y-113680000D02*
X46535000Y-82460000D01*
X46535000Y-82460000D02*
X43775000Y-79700000D01*
X43775000Y-78400000D02*
X43775000Y-70200000D01*
%TO.N,Net-(J1-Pad33)*%
X43995000Y-113680000D02*
X43995000Y-80920000D01*
X42775000Y-79700000D02*
X42775000Y-78300000D01*
X43995000Y-80920000D02*
X42775000Y-79700000D01*
X42775000Y-78300000D02*
X42775000Y-70400000D01*
%TO.N,Net-(J1-Pad34)*%
X41775000Y-79700000D02*
X41775000Y-78400000D01*
X41455000Y-80020000D02*
X41775000Y-79700000D01*
X41455000Y-113680000D02*
X41455000Y-80020000D01*
X41775000Y-78400000D02*
X41775000Y-70000000D01*
%TO.N,Net-(J1-Pad35)*%
X38915000Y-113680000D02*
X38915000Y-81660000D01*
X40775000Y-79800000D02*
X40775000Y-78300000D01*
X38915000Y-81660000D02*
X40775000Y-79800000D01*
X40775000Y-78300000D02*
X40775000Y-70000000D01*
%TO.N,Net-(J1-Pad36)*%
X36375000Y-83200000D02*
X39775000Y-79800000D01*
X36375000Y-113680000D02*
X36375000Y-83200000D01*
X39775000Y-79800000D02*
X39775000Y-78300000D01*
X39775000Y-78300000D02*
X39775000Y-70100000D01*
%TO.N,Net-(J1-Pad37)*%
X33835000Y-113680000D02*
X33835000Y-84740000D01*
X38875000Y-79700000D02*
X38875000Y-78200000D01*
X33835000Y-84740000D02*
X38875000Y-79700000D01*
X38875000Y-78200000D02*
X38875000Y-70100000D01*
%TO.N,Net-(J1-Pad38)*%
X31295000Y-113680000D02*
X31295000Y-86280000D01*
X31295000Y-86280000D02*
X37775000Y-79800000D01*
X37775000Y-79800000D02*
X37775000Y-78300000D01*
X37775000Y-78300000D02*
X37775000Y-70000000D01*
%TO.N,Net-(J1-Pad39)*%
X28755000Y-87863602D02*
X36775000Y-79843602D01*
X28755000Y-113680000D02*
X28755000Y-87863602D01*
X36775000Y-79843602D02*
X36775000Y-78300000D01*
X36775000Y-78300000D02*
X36775000Y-70030000D01*
%TO.N,Net-(J1-Pad40)*%
X26215000Y-89360000D02*
X35775000Y-79800000D01*
X35775000Y-79800000D02*
X35775000Y-78200000D01*
X26215000Y-113680000D02*
X26215000Y-89360000D01*
X35775000Y-78200000D02*
X35775000Y-70580000D01*
%TO.N,Net-(J2-Pad1)*%
X116775000Y-79763602D02*
X116775000Y-78300000D01*
X227175000Y-112730000D02*
X195199020Y-80754020D01*
X117765418Y-80754020D02*
X116775000Y-79763602D01*
X195199020Y-80754020D02*
X117765418Y-80754020D01*
X116775000Y-78300000D02*
X116775000Y-69925000D01*
%TO.N,Net-(J2-Pad2)*%
X115815000Y-78200000D02*
X115815000Y-69800000D01*
X115815000Y-78200000D02*
X115815000Y-79740000D01*
X117506030Y-81131030D02*
X189743970Y-81131030D01*
X224635000Y-112760000D02*
X193006030Y-81131030D01*
X193006030Y-81131030D02*
X189743970Y-81131030D01*
X117206030Y-81131030D02*
X117506030Y-81131030D01*
X115815000Y-79740000D02*
X117206030Y-81131030D01*
%TO.N,Net-(J2-Pad3)*%
X221775000Y-112500000D02*
X221775000Y-113700000D01*
X219571005Y-110306642D02*
X219581642Y-110306642D01*
X218816885Y-109871741D02*
X218846032Y-109811215D01*
X218860981Y-109745721D02*
X218860981Y-109678542D01*
X218863898Y-110673255D02*
X218803372Y-110702402D01*
X219312312Y-110277494D02*
X219251786Y-110306642D01*
X219571005Y-110306642D02*
X219510479Y-110277494D01*
X218406175Y-110452828D02*
X218406175Y-110385649D01*
X219199263Y-110348527D02*
X218916421Y-110631370D01*
X116539867Y-81508039D02*
X114775000Y-79743172D01*
X218605205Y-110702402D02*
X218544679Y-110673255D01*
X218846032Y-109811215D02*
X218860981Y-109745721D01*
X218492157Y-110207106D02*
X218775000Y-109924264D01*
X218775000Y-109500000D02*
X190783040Y-81508040D01*
X218450272Y-110578848D02*
X218421124Y-110518322D01*
X219444985Y-110262545D02*
X219377806Y-110262545D01*
X190783040Y-81508040D02*
X116539867Y-81508039D01*
X219251786Y-110306642D02*
X219199263Y-110348527D01*
X219377806Y-110262545D02*
X219312312Y-110277494D01*
X218737878Y-110717351D02*
X218670699Y-110717351D01*
X114775000Y-79743172D02*
X114775000Y-78300000D01*
X218450272Y-110259629D02*
X218492157Y-110207106D01*
X218775000Y-109924264D02*
X218816885Y-109871741D01*
X218846032Y-109613048D02*
X218816885Y-109552522D01*
X218916421Y-110631370D02*
X218863898Y-110673255D01*
X218670699Y-110717351D02*
X218605205Y-110702402D01*
X218544679Y-110673255D02*
X218492157Y-110631370D01*
X219510479Y-110277494D02*
X219444985Y-110262545D01*
X218803372Y-110702402D02*
X218737878Y-110717351D01*
X218421124Y-110320155D02*
X218450272Y-110259629D01*
X218421124Y-110518322D02*
X218406175Y-110452828D01*
X218406175Y-110385649D02*
X218421124Y-110320155D01*
X218492157Y-110631370D02*
X218450272Y-110578848D01*
X219571005Y-110306642D02*
X219623528Y-110348528D01*
X218860981Y-109678542D02*
X218846032Y-109613048D01*
X218816885Y-109552522D02*
X218775000Y-109500000D01*
X219581642Y-110306642D02*
X221775000Y-112500000D01*
X114775000Y-78300000D02*
X114775000Y-69825000D01*
%TO.N,Net-(J2-Pad4)*%
X113815000Y-78200000D02*
X113815000Y-69800000D01*
X113815000Y-79740000D02*
X113815000Y-78200000D01*
X219555000Y-112880000D02*
X188560049Y-81885049D01*
X115960049Y-81885049D02*
X113815000Y-79740000D01*
X188560049Y-81885049D02*
X115960049Y-81885049D01*
%TO.N,Net-(J2-Pad5)*%
X112815000Y-78200000D02*
X112815000Y-69800000D01*
X186437059Y-82262059D02*
X115337059Y-82262059D01*
X217015000Y-112840000D02*
X186437059Y-82262059D01*
X112815000Y-78200000D02*
X112815000Y-79740000D01*
X112815000Y-79740000D02*
X114075000Y-81000000D01*
X114075000Y-81000000D02*
X115337059Y-82262059D01*
%TO.N,Net-(J2-Pad6)*%
X111815000Y-78200000D02*
X111815000Y-69800000D01*
X214475000Y-112730000D02*
X184384069Y-82639069D01*
X111815000Y-79773172D02*
X114680897Y-82639069D01*
X111815000Y-78200000D02*
X111815000Y-79773172D01*
X111815000Y-78200000D02*
X111815000Y-79740000D01*
X184384069Y-82639069D02*
X114735931Y-82639069D01*
X114680897Y-82639069D02*
X114735931Y-82639069D01*
%TO.N,Net-(J2-Pad7)*%
X114027477Y-83016079D02*
X110775000Y-79763602D01*
X211635000Y-112460000D02*
X209523528Y-110348528D01*
X209099263Y-110348527D02*
X209151786Y-110306642D01*
X209410479Y-110277494D02*
X209471005Y-110306642D01*
X208760981Y-109678542D02*
X208760981Y-109745721D01*
X208746032Y-109811215D02*
X208716885Y-109871741D01*
X208746032Y-109613048D02*
X208760981Y-109678542D01*
X208763898Y-110673255D02*
X208816421Y-110631370D01*
X208716885Y-109552522D02*
X208746032Y-109613048D01*
X208392157Y-110207106D02*
X208350272Y-110259629D01*
X208675000Y-109500000D02*
X208716885Y-109552522D01*
X208505205Y-110702402D02*
X208570699Y-110717351D01*
X209277806Y-110262545D02*
X209344985Y-110262545D01*
X209344985Y-110262545D02*
X209410479Y-110277494D01*
X209151786Y-110306642D02*
X209212312Y-110277494D01*
X208703372Y-110702402D02*
X208763898Y-110673255D01*
X208306175Y-110385649D02*
X208306175Y-110452828D01*
X208321124Y-110518322D02*
X208350272Y-110578848D01*
X208350272Y-110578848D02*
X208392157Y-110631370D01*
X208306175Y-110452828D02*
X208321124Y-110518322D01*
X208444679Y-110673255D02*
X208505205Y-110702402D01*
X208816421Y-110631370D02*
X209099263Y-110348527D01*
X208350272Y-110259629D02*
X208321124Y-110320155D01*
X208321124Y-110320155D02*
X208306175Y-110385649D01*
X209471005Y-110306642D02*
X209523528Y-110348528D01*
X208392157Y-110631370D02*
X208444679Y-110673255D01*
X208760981Y-109745721D02*
X208746032Y-109811215D01*
X208637878Y-110717351D02*
X208703372Y-110702402D01*
X209212312Y-110277494D02*
X209277806Y-110262545D01*
X182191079Y-83016079D02*
X114027477Y-83016079D01*
X110775000Y-79763602D02*
X110775000Y-78200000D01*
X182191079Y-83016079D02*
X208675000Y-109500000D01*
X211635000Y-113680000D02*
X211635000Y-112460000D01*
X208675000Y-109924264D02*
X208392157Y-110207106D01*
X208570699Y-110717351D02*
X208637878Y-110717351D01*
X208716885Y-109871741D02*
X208675000Y-109924264D01*
X110775000Y-78200000D02*
X110775000Y-70025000D01*
%TO.N,Net-(J2-Pad8)*%
X109815000Y-78200000D02*
X109815000Y-69800000D01*
X209395000Y-112720000D02*
X180068089Y-83393089D01*
X109815000Y-78200000D02*
X109815000Y-79740000D01*
X180068089Y-83393089D02*
X113581911Y-83393089D01*
X113468089Y-83393089D02*
X113581911Y-83393089D01*
X109815000Y-79740000D02*
X113468089Y-83393089D01*
%TO.N,Net-(J2-Pad9)*%
X108815000Y-78200000D02*
X108815000Y-69800000D01*
X206855000Y-112720000D02*
X177905099Y-83770099D01*
X108815000Y-79740000D02*
X109475000Y-80400000D01*
X177905099Y-83770099D02*
X112845099Y-83770099D01*
X108815000Y-78200000D02*
X108815000Y-79740000D01*
X109475000Y-80400000D02*
X112845099Y-83770099D01*
%TO.N,Net-(J2-Pad10)*%
X107815000Y-78200000D02*
X107815000Y-69800000D01*
X175722109Y-84147109D02*
X112327891Y-84147109D01*
X107815000Y-79740000D02*
X112222109Y-84147109D01*
X112222109Y-84147109D02*
X112327891Y-84147109D01*
X107815000Y-78200000D02*
X107815000Y-79740000D01*
X204315000Y-112740000D02*
X175722109Y-84147109D01*
%TO.N,Net-(J2-Pad11)*%
X106775000Y-78200000D02*
X106775000Y-69800000D01*
X111599119Y-84524119D02*
X106775000Y-79700000D01*
X201475000Y-113680000D02*
X201475000Y-112400000D01*
X173599119Y-84524119D02*
X198575000Y-109500000D01*
X198575000Y-109924264D02*
X198292157Y-110207106D01*
X198221124Y-110320155D02*
X198206175Y-110385649D01*
X199371005Y-110306642D02*
X199423528Y-110348528D01*
X198292157Y-110631370D02*
X198344679Y-110673255D01*
X198660981Y-109745721D02*
X198646032Y-109811215D01*
X198537878Y-110717351D02*
X198603372Y-110702402D01*
X199112312Y-110277494D02*
X199177806Y-110262545D01*
X201475000Y-112400000D02*
X199423528Y-110348528D01*
X198206175Y-110385649D02*
X198206175Y-110452828D01*
X198221124Y-110518322D02*
X198250272Y-110578848D01*
X198250272Y-110578848D02*
X198292157Y-110631370D01*
X198206175Y-110452828D02*
X198221124Y-110518322D01*
X198344679Y-110673255D02*
X198405205Y-110702402D01*
X198716421Y-110631370D02*
X198999263Y-110348527D01*
X198616885Y-109871741D02*
X198575000Y-109924264D01*
X198616885Y-109552522D02*
X198646032Y-109613048D01*
X198292157Y-110207106D02*
X198250272Y-110259629D01*
X198575000Y-109500000D02*
X198616885Y-109552522D01*
X198405205Y-110702402D02*
X198470699Y-110717351D01*
X199177806Y-110262545D02*
X199244985Y-110262545D01*
X199244985Y-110262545D02*
X199310479Y-110277494D01*
X199051786Y-110306642D02*
X199112312Y-110277494D01*
X198603372Y-110702402D02*
X198663898Y-110673255D01*
X198250272Y-110259629D02*
X198221124Y-110320155D01*
X106775000Y-79700000D02*
X106775000Y-78200000D01*
X198470699Y-110717351D02*
X198537878Y-110717351D01*
X199310479Y-110277494D02*
X199371005Y-110306642D01*
X198660981Y-109678542D02*
X198660981Y-109745721D01*
X198646032Y-109811215D02*
X198616885Y-109871741D01*
X198646032Y-109613048D02*
X198660981Y-109678542D01*
X198663898Y-110673255D02*
X198716421Y-110631370D01*
X173599119Y-84524119D02*
X111599119Y-84524119D01*
X198999263Y-110348527D02*
X199051786Y-110306642D01*
%TO.N,Net-(J2-Pad12)*%
X105775000Y-78200000D02*
X105775000Y-69800000D01*
X105775000Y-79700000D02*
X105775000Y-78200000D01*
X171376129Y-84901129D02*
X110976129Y-84901129D01*
X110976129Y-84901129D02*
X105775000Y-79700000D01*
X199235000Y-112760000D02*
X171376129Y-84901129D01*
%TO.N,Net-(J2-Pad13)*%
X104775000Y-78200000D02*
X104775000Y-69800000D01*
X169253139Y-85278139D02*
X110353139Y-85278139D01*
X104775000Y-79700000D02*
X104775000Y-78200000D01*
X196695000Y-112720000D02*
X169253139Y-85278139D01*
X110353139Y-85278139D02*
X104775000Y-79700000D01*
%TO.N,Net-(J2-Pad14)*%
X103775000Y-78200000D02*
X103775000Y-69800000D01*
X167130149Y-85655149D02*
X109730149Y-85655149D01*
X194155000Y-112680000D02*
X167130149Y-85655149D01*
X109730149Y-85655149D02*
X103775000Y-79700000D01*
X103775000Y-79700000D02*
X103775000Y-78200000D01*
%TO.N,Net-(J2-Pad15)*%
X102775000Y-78200000D02*
X102775000Y-69800000D01*
X188305205Y-110702402D02*
X188370699Y-110717351D01*
X188546032Y-109811215D02*
X188516885Y-109871741D01*
X188546032Y-109613048D02*
X188560981Y-109678542D01*
X188516885Y-109871741D02*
X188475000Y-109924264D01*
X188560981Y-109678542D02*
X188560981Y-109745721D01*
X188121124Y-110320155D02*
X188106175Y-110385649D01*
X188106175Y-110452828D02*
X188121124Y-110518322D01*
X188563898Y-110673255D02*
X188616421Y-110631370D01*
X188951786Y-110306642D02*
X189012312Y-110277494D01*
X188192157Y-110207106D02*
X188150272Y-110259629D01*
X188475000Y-109500000D02*
X188516885Y-109552522D01*
X188121124Y-110518322D02*
X188150272Y-110578848D01*
X188106175Y-110385649D02*
X188106175Y-110452828D01*
X188244679Y-110673255D02*
X188305205Y-110702402D01*
X109107159Y-86032159D02*
X165007159Y-86032159D01*
X188516885Y-109552522D02*
X188546032Y-109613048D01*
X102775000Y-79700000D02*
X109107159Y-86032159D01*
X189210479Y-110277494D02*
X189271005Y-110306642D01*
X188560981Y-109745721D02*
X188546032Y-109811215D01*
X102775000Y-78200000D02*
X102775000Y-79700000D01*
X188150272Y-110578848D02*
X188192157Y-110631370D01*
X188475000Y-109924264D02*
X188192157Y-110207106D01*
X188192157Y-110631370D02*
X188244679Y-110673255D01*
X188370699Y-110717351D02*
X188437878Y-110717351D01*
X188437878Y-110717351D02*
X188503372Y-110702402D01*
X188616421Y-110631370D02*
X188899263Y-110348527D01*
X188503372Y-110702402D02*
X188563898Y-110673255D01*
X165007159Y-86032159D02*
X188475000Y-109500000D01*
X188899263Y-110348527D02*
X188951786Y-110306642D01*
X188150272Y-110259629D02*
X188121124Y-110320155D01*
X191315000Y-113680000D02*
X191315000Y-112340000D01*
X189077806Y-110262545D02*
X189144985Y-110262545D01*
X189271005Y-110306642D02*
X189323528Y-110348528D01*
X191315000Y-112340000D02*
X189323528Y-110348528D01*
X189144985Y-110262545D02*
X189210479Y-110277494D01*
X189012312Y-110277494D02*
X189077806Y-110262545D01*
%TO.N,Net-(J2-Pad16)*%
X101775000Y-78200000D02*
X101775000Y-69800000D01*
X162884169Y-86409169D02*
X109365831Y-86409169D01*
X101775000Y-79700000D02*
X101775000Y-78200000D01*
X189075000Y-112600000D02*
X162884169Y-86409169D01*
X109365831Y-86409169D02*
X108665831Y-86409169D01*
X108665831Y-86409169D02*
X108484169Y-86409169D01*
X108484169Y-86409169D02*
X101775000Y-79700000D01*
%TO.N,Net-(J2-Pad17)*%
X100815000Y-78200000D02*
X100815000Y-69800000D01*
X160761179Y-86786179D02*
X107861179Y-86786179D01*
X100815000Y-78200000D02*
X100815000Y-79740000D01*
X100815000Y-79740000D02*
X107861179Y-86786179D01*
X186535000Y-112560000D02*
X160761179Y-86786179D01*
%TO.N,Net-(J2-Pad18)*%
X99775000Y-78200000D02*
X99775000Y-69800000D01*
X99775000Y-79700000D02*
X99775000Y-78200000D01*
X107238189Y-87163189D02*
X99775000Y-79700000D01*
X158538189Y-87163189D02*
X107238189Y-87163189D01*
X183995000Y-112620000D02*
X158538189Y-87163189D01*
%TO.N,Net-(J2-Pad19)*%
X98815000Y-78200000D02*
X98815000Y-69800000D01*
X181155000Y-112380000D02*
X181155000Y-113680000D01*
X177992157Y-110207106D02*
X177950272Y-110259629D01*
X178275000Y-109500000D02*
X178316885Y-109552522D01*
X179123528Y-110348528D02*
X181155000Y-112380000D01*
X178316885Y-109871741D02*
X178275000Y-109924264D01*
X156315199Y-87540199D02*
X178275000Y-109500000D01*
X178170699Y-110717351D02*
X178237878Y-110717351D01*
X178877806Y-110262545D02*
X178944985Y-110262545D01*
X177950272Y-110578848D02*
X177992157Y-110631370D01*
X177992157Y-110631370D02*
X178044679Y-110673255D01*
X178105205Y-110702402D02*
X178170699Y-110717351D01*
X178363898Y-110673255D02*
X178416421Y-110631370D01*
X178416421Y-110631370D02*
X178699263Y-110348527D01*
X178751786Y-110306642D02*
X178812312Y-110277494D01*
X178699263Y-110348527D02*
X178751786Y-110306642D01*
X179010479Y-110277494D02*
X179071005Y-110306642D01*
X177906175Y-110385649D02*
X177906175Y-110452828D01*
X178237878Y-110717351D02*
X178303372Y-110702402D01*
X178360981Y-109745721D02*
X178346032Y-109811215D01*
X178303372Y-110702402D02*
X178363898Y-110673255D01*
X98815000Y-78200000D02*
X98815000Y-79740000D01*
X177921124Y-110518322D02*
X177950272Y-110578848D01*
X178812312Y-110277494D02*
X178877806Y-110262545D01*
X178360981Y-109678542D02*
X178360981Y-109745721D01*
X179071005Y-110306642D02*
X179123528Y-110348528D01*
X177950272Y-110259629D02*
X177921124Y-110320155D01*
X177906175Y-110452828D02*
X177921124Y-110518322D01*
X178944985Y-110262545D02*
X179010479Y-110277494D01*
X178346032Y-109613048D02*
X178360981Y-109678542D01*
X178346032Y-109811215D02*
X178316885Y-109871741D01*
X98815000Y-79740000D02*
X106615199Y-87540199D01*
X177921124Y-110320155D02*
X177906175Y-110385649D01*
X178275000Y-109924264D02*
X177992157Y-110207106D01*
X178316885Y-109552522D02*
X178346032Y-109613048D01*
X106615199Y-87540199D02*
X156315199Y-87540199D01*
X178044679Y-110673255D02*
X178105205Y-110702402D01*
%TO.N,Net-(J2-Pad20)*%
X97815000Y-78200000D02*
X97815000Y-69800000D01*
X97815000Y-79740000D02*
X105992209Y-87917209D01*
X154192209Y-87917209D02*
X178915000Y-112640000D01*
X97815000Y-78200000D02*
X97815000Y-79740000D01*
X105992209Y-87917209D02*
X154192209Y-87917209D01*
%TO.N,Net-(J2-Pad21)*%
X96815000Y-78200000D02*
X96815000Y-69800000D01*
X151969219Y-88294219D02*
X105369219Y-88294219D01*
X96815000Y-79740000D02*
X96815000Y-78200000D01*
X176375000Y-112700000D02*
X151969219Y-88294219D01*
X105369219Y-88294219D02*
X96815000Y-79740000D01*
%TO.N,Net-(J2-Pad22)*%
X95815000Y-78200000D02*
X95815000Y-69800000D01*
X95815000Y-79740000D02*
X95815000Y-78200000D01*
X149846229Y-88671229D02*
X104746229Y-88671229D01*
X104746229Y-88671229D02*
X95815000Y-79740000D01*
X173835000Y-112660000D02*
X149846229Y-88671229D01*
%TO.N,Net-(J2-Pad23)*%
X94815000Y-78200000D02*
X94815000Y-69800000D01*
X167721124Y-110518322D02*
X167750272Y-110578848D01*
X168160981Y-109678542D02*
X168160981Y-109745721D01*
X168810479Y-110277494D02*
X168871005Y-110306642D01*
X167792157Y-110207106D02*
X167750272Y-110259629D01*
X167970699Y-110717351D02*
X168037878Y-110717351D01*
X168103372Y-110702402D02*
X168163898Y-110673255D01*
X168146032Y-109613048D02*
X168160981Y-109678542D01*
X168216421Y-110631370D02*
X168499263Y-110348527D01*
X147623239Y-89048239D02*
X168075000Y-109500000D01*
X168551786Y-110306642D02*
X168612312Y-110277494D01*
X167750272Y-110578848D02*
X167792157Y-110631370D01*
X94815000Y-78200000D02*
X94815000Y-79740000D01*
X168075000Y-109924264D02*
X167792157Y-110207106D01*
X167844679Y-110673255D02*
X167905205Y-110702402D01*
X168923528Y-110348528D02*
X170995000Y-112420000D01*
X104123239Y-89048239D02*
X147623239Y-89048239D01*
X168146032Y-109811215D02*
X168116885Y-109871741D01*
X167721124Y-110320155D02*
X167706175Y-110385649D01*
X168677806Y-110262545D02*
X168744985Y-110262545D01*
X168612312Y-110277494D02*
X168677806Y-110262545D01*
X168744985Y-110262545D02*
X168810479Y-110277494D01*
X168871005Y-110306642D02*
X168923528Y-110348528D01*
X167905205Y-110702402D02*
X167970699Y-110717351D01*
X170995000Y-112420000D02*
X170995000Y-113680000D01*
X167706175Y-110452828D02*
X167721124Y-110518322D01*
X168037878Y-110717351D02*
X168103372Y-110702402D01*
X168116885Y-109552522D02*
X168146032Y-109613048D01*
X168116885Y-109871741D02*
X168075000Y-109924264D01*
X94815000Y-79740000D02*
X104123239Y-89048239D01*
X168499263Y-110348527D02*
X168551786Y-110306642D01*
X168163898Y-110673255D02*
X168216421Y-110631370D01*
X168075000Y-109500000D02*
X168116885Y-109552522D01*
X167750272Y-110259629D02*
X167721124Y-110320155D01*
X168160981Y-109745721D02*
X168146032Y-109811215D01*
X167792157Y-110631370D02*
X167844679Y-110673255D01*
X167706175Y-110385649D02*
X167706175Y-110452828D01*
%TO.N,Net-(J2-Pad24)*%
X93815000Y-78200000D02*
X93815000Y-69800000D01*
X145400249Y-89425249D02*
X103500249Y-89425249D01*
X93815000Y-79740000D02*
X93815000Y-78200000D01*
X168755000Y-112780000D02*
X145400249Y-89425249D01*
X103500249Y-89425249D02*
X93815000Y-79740000D01*
%TO.N,Net-(J2-Pad25)*%
X92815000Y-78200000D02*
X92815000Y-69800000D01*
X102877259Y-89802259D02*
X92815000Y-79740000D01*
X143277259Y-89802259D02*
X102877259Y-89802259D01*
X92815000Y-79740000D02*
X92815000Y-78200000D01*
X166215000Y-112740000D02*
X143277259Y-89802259D01*
%TO.N,Net-(J2-Pad26)*%
X91815000Y-78200000D02*
X91815000Y-69800000D01*
X91815000Y-79740000D02*
X91815000Y-78200000D01*
X163675000Y-112800000D02*
X141054269Y-90179269D01*
X141054269Y-90179269D02*
X102254269Y-90179269D01*
X102254269Y-90179269D02*
X91815000Y-79740000D01*
%TO.N,Net-(J2-Pad27)*%
X90815000Y-78200000D02*
X90815000Y-69800000D01*
X158477806Y-110262545D02*
X158544985Y-110262545D01*
X157960981Y-109678542D02*
X157960981Y-109745721D01*
X157506175Y-110452828D02*
X157521124Y-110518322D01*
X157521124Y-110320155D02*
X157506175Y-110385649D01*
X90815000Y-78200000D02*
X90815000Y-79740000D01*
X157506175Y-110385649D02*
X157506175Y-110452828D01*
X157644679Y-110673255D02*
X157705205Y-110702402D01*
X157705205Y-110702402D02*
X157770699Y-110717351D01*
X157903372Y-110702402D02*
X157963898Y-110673255D01*
X157960981Y-109745721D02*
X157946032Y-109811215D01*
X101631279Y-90556279D02*
X138931279Y-90556279D01*
X157963898Y-110673255D02*
X158016421Y-110631370D01*
X157946032Y-109613048D02*
X157960981Y-109678542D01*
X157875000Y-109924264D02*
X157592157Y-110207106D01*
X157550272Y-110259629D02*
X157521124Y-110320155D01*
X157946032Y-109811215D02*
X157916885Y-109871741D01*
X157592157Y-110631370D02*
X157644679Y-110673255D01*
X157916885Y-109871741D02*
X157875000Y-109924264D01*
X90815000Y-79740000D02*
X101631279Y-90556279D01*
X158544985Y-110262545D02*
X158610479Y-110277494D01*
X157916885Y-109552522D02*
X157946032Y-109613048D01*
X158412312Y-110277494D02*
X158477806Y-110262545D01*
X157875000Y-109500000D02*
X157916885Y-109552522D01*
X138931279Y-90556279D02*
X157875000Y-109500000D01*
X158299263Y-110348527D02*
X158351786Y-110306642D01*
X160835000Y-112460000D02*
X160835000Y-113680000D01*
X158610479Y-110277494D02*
X158671005Y-110306642D01*
X158671005Y-110306642D02*
X158723528Y-110348528D01*
X157770699Y-110717351D02*
X157837878Y-110717351D01*
X157550272Y-110578848D02*
X157592157Y-110631370D01*
X158351786Y-110306642D02*
X158412312Y-110277494D01*
X157521124Y-110518322D02*
X157550272Y-110578848D01*
X157837878Y-110717351D02*
X157903372Y-110702402D01*
X157592157Y-110207106D02*
X157550272Y-110259629D01*
X158723528Y-110348528D02*
X160835000Y-112460000D01*
X158016421Y-110631370D02*
X158299263Y-110348527D01*
%TO.N,Net-(J2-Pad28)*%
X89815000Y-78200000D02*
X89815000Y-69800000D01*
X101008289Y-90933289D02*
X89815000Y-79740000D01*
X89815000Y-79740000D02*
X89815000Y-78200000D01*
X158595000Y-112720000D02*
X136808289Y-90933289D01*
X136808289Y-90933289D02*
X101008289Y-90933289D01*
%TO.N,Net-(J2-Pad29)*%
X88815000Y-78200000D02*
X88815000Y-69800000D01*
X134585299Y-91310299D02*
X100385299Y-91310299D01*
X100385299Y-91310299D02*
X88815000Y-79740000D01*
X156055000Y-112780000D02*
X134585299Y-91310299D01*
X88815000Y-79740000D02*
X88815000Y-78200000D01*
%TO.N,Net-(J2-Pad30)*%
X87815000Y-78200000D02*
X87815000Y-69800000D01*
X132462309Y-91687309D02*
X99762309Y-91687309D01*
X87815000Y-79740000D02*
X87815000Y-78200000D01*
X153515000Y-112740000D02*
X132462309Y-91687309D01*
X99762309Y-91687309D02*
X87815000Y-79740000D01*
%TO.N,Net-(J2-Pad31)*%
X86815000Y-78200000D02*
X86815000Y-69800000D01*
X147221124Y-110220155D02*
X147206175Y-110285649D01*
X150675000Y-112500000D02*
X150675000Y-113680000D01*
X147250272Y-110159629D02*
X147221124Y-110220155D01*
X147250272Y-110478848D02*
X147292157Y-110531370D01*
X147646032Y-109513048D02*
X147660981Y-109578542D01*
X147470699Y-110617351D02*
X147537878Y-110617351D01*
X148244985Y-110162545D02*
X148310479Y-110177494D01*
X148177806Y-110162545D02*
X148244985Y-110162545D01*
X147660981Y-109578542D02*
X147660981Y-109645721D01*
X148051786Y-110206642D02*
X148112312Y-110177494D01*
X99139319Y-92064319D02*
X130239319Y-92064319D01*
X147292157Y-110107106D02*
X147250272Y-110159629D01*
X148112312Y-110177494D02*
X148177806Y-110162545D01*
X147575000Y-109824264D02*
X147292157Y-110107106D01*
X147663898Y-110573255D02*
X147716421Y-110531370D01*
X130239319Y-92064319D02*
X147575000Y-109400000D01*
X147603372Y-110602402D02*
X147663898Y-110573255D01*
X147646032Y-109711215D02*
X147616885Y-109771741D01*
X147344679Y-110573255D02*
X147405205Y-110602402D01*
X147221124Y-110418322D02*
X147250272Y-110478848D01*
X148423528Y-110248528D02*
X150675000Y-112500000D01*
X86815000Y-79740000D02*
X99139319Y-92064319D01*
X147575000Y-109400000D02*
X147616885Y-109452522D01*
X147537878Y-110617351D02*
X147603372Y-110602402D01*
X147716421Y-110531370D02*
X147999263Y-110248527D01*
X148371005Y-110206642D02*
X148423528Y-110248528D01*
X147206175Y-110285649D02*
X147206175Y-110352828D01*
X147616885Y-109452522D02*
X147646032Y-109513048D01*
X86815000Y-78200000D02*
X86815000Y-79740000D01*
X147660981Y-109645721D02*
X147646032Y-109711215D01*
X147405205Y-110602402D02*
X147470699Y-110617351D01*
X147999263Y-110248527D02*
X148051786Y-110206642D01*
X147292157Y-110531370D02*
X147344679Y-110573255D01*
X148310479Y-110177494D02*
X148371005Y-110206642D01*
X147616885Y-109771741D02*
X147575000Y-109824264D01*
X147206175Y-110352828D02*
X147221124Y-110418322D01*
%TO.N,Net-(J2-Pad32)*%
X85815000Y-78200000D02*
X85815000Y-69800000D01*
X98516329Y-92441329D02*
X85815000Y-79740000D01*
X85815000Y-79740000D02*
X85815000Y-78200000D01*
X148435000Y-112760000D02*
X128116329Y-92441329D01*
X128116329Y-92441329D02*
X98516329Y-92441329D01*
%TO.N,Net-(J2-Pad33)*%
X84815000Y-78200000D02*
X84815000Y-69800000D01*
X145895000Y-112720000D02*
X125993339Y-92818339D01*
X84815000Y-79740000D02*
X84815000Y-78200000D01*
X125993339Y-92818339D02*
X97893339Y-92818339D01*
X97893339Y-92818339D02*
X84815000Y-79740000D01*
%TO.N,Net-(J2-Pad34)*%
X83815000Y-78200000D02*
X83815000Y-69800000D01*
X143355000Y-112680000D02*
X123870349Y-93195349D01*
X97270349Y-93195349D02*
X83815000Y-79740000D01*
X123870349Y-93195349D02*
X97270349Y-93195349D01*
X83815000Y-79740000D02*
X83815000Y-78200000D01*
%TO.N,Net-(J2-Pad35)*%
X82815000Y-78200000D02*
X82815000Y-69800000D01*
X82815000Y-79740000D02*
X82815000Y-78200000D01*
X140815000Y-112640000D02*
X121747359Y-93572359D01*
X96647359Y-93572359D02*
X82815000Y-79740000D01*
X121747359Y-93572359D02*
X96647359Y-93572359D01*
%TO.N,Net-(J2-Pad36)*%
X81815000Y-78200000D02*
X81815000Y-69800000D01*
X81815000Y-79740000D02*
X96024369Y-93949369D01*
X135216421Y-110531370D02*
X135499263Y-110248527D01*
X135037878Y-110617351D02*
X135103372Y-110602402D01*
X135103372Y-110602402D02*
X135163898Y-110573255D01*
X135075000Y-109824264D02*
X134792157Y-110107106D01*
X134750272Y-110159629D02*
X134721124Y-110220155D01*
X134905205Y-110602402D02*
X134970699Y-110617351D01*
X134970699Y-110617351D02*
X135037878Y-110617351D01*
X135551786Y-110206642D02*
X135612312Y-110177494D01*
X119624369Y-93949369D02*
X135075000Y-109400000D01*
X134721124Y-110220155D02*
X134706175Y-110285649D01*
X135116885Y-109771741D02*
X135075000Y-109824264D01*
X135146032Y-109711215D02*
X135116885Y-109771741D01*
X134792157Y-110531370D02*
X134844679Y-110573255D01*
X134706175Y-110285649D02*
X134706175Y-110352828D01*
X134706175Y-110352828D02*
X134721124Y-110418322D01*
X135075000Y-109400000D02*
X135116885Y-109452522D01*
X137975000Y-112300000D02*
X135923528Y-110248528D01*
X137975000Y-113680000D02*
X137975000Y-112300000D01*
X135871005Y-110206642D02*
X135923528Y-110248528D01*
X135160981Y-109578542D02*
X135160981Y-109645721D01*
X135612312Y-110177494D02*
X135677806Y-110162545D01*
X134792157Y-110107106D02*
X134750272Y-110159629D01*
X135810479Y-110177494D02*
X135871005Y-110206642D01*
X135163898Y-110573255D02*
X135216421Y-110531370D01*
X135499263Y-110248527D02*
X135551786Y-110206642D01*
X135744985Y-110162545D02*
X135810479Y-110177494D01*
X96024369Y-93949369D02*
X119624369Y-93949369D01*
X134750272Y-110478848D02*
X134792157Y-110531370D01*
X134721124Y-110418322D02*
X134750272Y-110478848D01*
X135160981Y-109645721D02*
X135146032Y-109711215D01*
X135116885Y-109452522D02*
X135146032Y-109513048D01*
X81815000Y-78200000D02*
X81815000Y-79740000D01*
X135677806Y-110162545D02*
X135744985Y-110162545D01*
X134844679Y-110573255D02*
X134905205Y-110602402D01*
X135146032Y-109513048D02*
X135160981Y-109578542D01*
%TO.N,Net-(J2-Pad37)*%
X80815000Y-78200000D02*
X80815000Y-69800000D01*
X135735000Y-112660000D02*
X117401379Y-94326379D01*
X117401379Y-94326379D02*
X95401379Y-94326379D01*
X80815000Y-79740000D02*
X80815000Y-78200000D01*
X95401379Y-94326379D02*
X80815000Y-79740000D01*
%TO.N,Net-(J2-Pad38)*%
X79815000Y-78200000D02*
X79815000Y-69800000D01*
X79815000Y-79740000D02*
X79815000Y-78200000D01*
X133195000Y-112620000D02*
X115278389Y-94703389D01*
X94778389Y-94703389D02*
X79815000Y-79740000D01*
X115278389Y-94703389D02*
X94778389Y-94703389D01*
%TO.N,Net-(J2-Pad39)*%
X78815000Y-78200000D02*
X78815000Y-69800000D01*
X94155399Y-95080399D02*
X78815000Y-79740000D01*
X130655000Y-112680000D02*
X113055399Y-95080399D01*
X113055399Y-95080399D02*
X94155399Y-95080399D01*
X78815000Y-79740000D02*
X78815000Y-78200000D01*
%TO.N,Net-(J2-Pad40)*%
X77815000Y-78200000D02*
X77815000Y-69800000D01*
X124550272Y-110159629D02*
X124521124Y-110220155D01*
X124644679Y-110573255D02*
X124705205Y-110602402D01*
X124837878Y-110617351D02*
X124903372Y-110602402D01*
X127815000Y-112340000D02*
X127815000Y-113680000D01*
X125016421Y-110531370D02*
X125299263Y-110248527D01*
X124770699Y-110617351D02*
X124837878Y-110617351D01*
X124963898Y-110573255D02*
X125016421Y-110531370D01*
X124916885Y-109771741D02*
X124875000Y-109824264D01*
X124916885Y-109452522D02*
X124946032Y-109513048D01*
X124521124Y-110418322D02*
X124550272Y-110478848D01*
X125299263Y-110248527D02*
X125351786Y-110206642D01*
X125477806Y-110162545D02*
X125544985Y-110162545D01*
X125671005Y-110206642D02*
X125723528Y-110248528D01*
X125610479Y-110177494D02*
X125671005Y-110206642D01*
X124875000Y-109400000D02*
X124916885Y-109452522D01*
X125412312Y-110177494D02*
X125477806Y-110162545D01*
X124960981Y-109645721D02*
X124946032Y-109711215D01*
X93532409Y-95457409D02*
X110932409Y-95457409D01*
X124506175Y-110285649D02*
X124506175Y-110352828D01*
X124875000Y-109824264D02*
X124592157Y-110107106D01*
X124550272Y-110478848D02*
X124592157Y-110531370D01*
X110932409Y-95457409D02*
X124875000Y-109400000D01*
X124592157Y-110107106D02*
X124550272Y-110159629D01*
X124592157Y-110531370D02*
X124644679Y-110573255D01*
X77815000Y-78200000D02*
X77815000Y-79740000D01*
X77815000Y-79740000D02*
X93532409Y-95457409D01*
X124946032Y-109711215D02*
X124916885Y-109771741D01*
X124960981Y-109578542D02*
X124960981Y-109645721D01*
X125723528Y-110248528D02*
X127815000Y-112340000D01*
X124705205Y-110602402D02*
X124770699Y-110617351D01*
X124903372Y-110602402D02*
X124963898Y-110573255D01*
X124946032Y-109513048D02*
X124960981Y-109578542D01*
X124521124Y-110220155D02*
X124506175Y-110285649D01*
X124506175Y-110352828D02*
X124521124Y-110418322D01*
X125351786Y-110206642D02*
X125412312Y-110177494D01*
X125544985Y-110162545D02*
X125610479Y-110177494D01*
%TO.N,Net-(J3-Pad1)*%
X118815000Y-78200000D02*
X118815000Y-69800000D01*
X232255000Y-112730000D02*
X199525000Y-80000000D01*
X199525000Y-80000000D02*
X119175000Y-80000000D01*
X119175000Y-80000000D02*
X118815000Y-79640000D01*
X118815000Y-79640000D02*
X118815000Y-78200000D01*
%TO.N,Net-(J3-Pad2)*%
X117815000Y-78200000D02*
X117815000Y-69800000D01*
X197352010Y-80377010D02*
X229675000Y-112700000D01*
X117815000Y-78200000D02*
X117815000Y-79803602D01*
X117815000Y-79803602D02*
X118388408Y-80377010D01*
X118388408Y-80377010D02*
X197352010Y-80377010D01*
%TD*%
M02*
